G04 EAGLE Gerber RS-274X export*
G75*
%MOMM*%
%FSLAX34Y34*%
%LPD*%
%INBottom Copper*%
%IPPOS*%
%AMOC8*
5,1,8,0,0,1.08239X$1,22.5*%
G01*
%ADD10R,1.530000X1.530000*%
%ADD11C,1.530000*%
%ADD12C,1.650000*%
%ADD13C,1.676400*%
%ADD14R,1.524000X1.524000*%
%ADD15C,1.524000*%
%ADD16R,2.540000X2.540000*%
%ADD17C,0.381000*%
%ADD18C,0.756400*%
%ADD19C,1.016000*%
%ADD20C,0.762000*%

G36*
X548071Y19693D02*
X548071Y19693D01*
X548138Y19690D01*
X548265Y19712D01*
X548393Y19726D01*
X548456Y19746D01*
X548522Y19757D01*
X548641Y19805D01*
X548764Y19844D01*
X548822Y19876D01*
X548884Y19901D01*
X548991Y19972D01*
X549104Y20035D01*
X549154Y20079D01*
X549210Y20115D01*
X549301Y20206D01*
X549398Y20291D01*
X549438Y20344D01*
X549485Y20391D01*
X549555Y20499D01*
X549633Y20602D01*
X549661Y20662D01*
X549698Y20718D01*
X549745Y20838D01*
X549800Y20954D01*
X549816Y21019D01*
X549840Y21081D01*
X549852Y21167D01*
X549892Y21333D01*
X549897Y21503D01*
X549909Y21590D01*
X549909Y26706D01*
X551900Y34135D01*
X555746Y40796D01*
X561184Y46234D01*
X567845Y50080D01*
X575274Y52071D01*
X582966Y52071D01*
X590395Y50080D01*
X594302Y47825D01*
X594464Y47752D01*
X594627Y47676D01*
X594642Y47672D01*
X594657Y47665D01*
X594832Y47627D01*
X595006Y47586D01*
X595022Y47585D01*
X595038Y47582D01*
X595218Y47580D01*
X595396Y47575D01*
X595411Y47578D01*
X595428Y47577D01*
X595604Y47612D01*
X595779Y47643D01*
X595794Y47649D01*
X595810Y47653D01*
X595974Y47722D01*
X596141Y47789D01*
X596155Y47798D01*
X596169Y47804D01*
X596316Y47906D01*
X596465Y48005D01*
X596477Y48016D01*
X596490Y48026D01*
X596614Y48155D01*
X596739Y48282D01*
X596748Y48296D01*
X596759Y48308D01*
X596854Y48460D01*
X596951Y48610D01*
X596956Y48625D01*
X596965Y48639D01*
X597027Y48807D01*
X597091Y48973D01*
X597093Y48987D01*
X597099Y49005D01*
X597156Y49390D01*
X597153Y49445D01*
X597158Y49483D01*
X596024Y278459D01*
X596021Y278487D01*
X596023Y278516D01*
X596000Y278681D01*
X595982Y278846D01*
X595973Y278873D01*
X595970Y278902D01*
X595914Y279059D01*
X595862Y279217D01*
X595848Y279242D01*
X595839Y279269D01*
X595752Y279411D01*
X595670Y279556D01*
X595651Y279577D01*
X595636Y279602D01*
X595522Y279723D01*
X595412Y279848D01*
X595389Y279865D01*
X595369Y279886D01*
X595233Y279982D01*
X595100Y280082D01*
X595074Y280094D01*
X595051Y280111D01*
X594898Y280177D01*
X594747Y280247D01*
X594719Y280254D01*
X594693Y280265D01*
X594530Y280299D01*
X594368Y280337D01*
X594339Y280338D01*
X594311Y280344D01*
X594144Y280344D01*
X593978Y280348D01*
X593950Y280343D01*
X593921Y280343D01*
X593758Y280309D01*
X593594Y280280D01*
X593568Y280269D01*
X593540Y280263D01*
X593388Y280196D01*
X593233Y280134D01*
X593209Y280118D01*
X593183Y280107D01*
X593120Y280059D01*
X592908Y279918D01*
X592829Y279838D01*
X592773Y279796D01*
X589261Y276283D01*
X583505Y273899D01*
X577275Y273899D01*
X571519Y276283D01*
X567113Y280689D01*
X566104Y283127D01*
X566080Y283171D01*
X566063Y283217D01*
X565988Y283341D01*
X565919Y283470D01*
X565886Y283508D01*
X565860Y283550D01*
X565761Y283656D01*
X565667Y283768D01*
X565628Y283798D01*
X565594Y283835D01*
X565475Y283919D01*
X565361Y284008D01*
X565316Y284030D01*
X565275Y284059D01*
X565142Y284117D01*
X565011Y284181D01*
X564963Y284194D01*
X564917Y284214D01*
X564775Y284243D01*
X564634Y284280D01*
X564584Y284282D01*
X564536Y284293D01*
X564390Y284292D01*
X564245Y284300D01*
X564196Y284292D01*
X564146Y284292D01*
X564003Y284262D01*
X563860Y284239D01*
X563813Y284222D01*
X563764Y284212D01*
X563631Y284153D01*
X563495Y284102D01*
X563453Y284076D01*
X563407Y284056D01*
X563336Y284001D01*
X563166Y283894D01*
X563063Y283794D01*
X562998Y283744D01*
X560527Y281273D01*
X556934Y279785D01*
X553046Y279785D01*
X549453Y281273D01*
X546703Y284023D01*
X545215Y287616D01*
X545215Y291504D01*
X546703Y295097D01*
X549453Y297847D01*
X553046Y299335D01*
X556934Y299335D01*
X560527Y297847D01*
X562998Y295376D01*
X563037Y295344D01*
X563070Y295307D01*
X563188Y295221D01*
X563300Y295130D01*
X563345Y295107D01*
X563385Y295077D01*
X563518Y295017D01*
X563646Y294950D01*
X563694Y294937D01*
X563740Y294916D01*
X563882Y294885D01*
X564022Y294845D01*
X564072Y294842D01*
X564120Y294831D01*
X564266Y294829D01*
X564411Y294819D01*
X564460Y294826D01*
X564510Y294825D01*
X564653Y294852D01*
X564797Y294872D01*
X564844Y294889D01*
X564893Y294899D01*
X565027Y294954D01*
X565164Y295003D01*
X565207Y295029D01*
X565253Y295048D01*
X565373Y295131D01*
X565497Y295206D01*
X565533Y295240D01*
X565574Y295268D01*
X565675Y295373D01*
X565781Y295473D01*
X565810Y295513D01*
X565845Y295549D01*
X565890Y295626D01*
X566006Y295791D01*
X566063Y295923D01*
X566104Y295993D01*
X567113Y298431D01*
X569596Y300913D01*
X569638Y300965D01*
X569686Y301010D01*
X569761Y301116D01*
X569842Y301216D01*
X569872Y301275D01*
X569911Y301329D01*
X569962Y301447D01*
X570021Y301562D01*
X570039Y301626D01*
X570065Y301687D01*
X570091Y301813D01*
X570126Y301937D01*
X570131Y302004D01*
X570144Y302069D01*
X570144Y302198D01*
X570152Y302326D01*
X570143Y302392D01*
X570143Y302459D01*
X570117Y302585D01*
X570099Y302712D01*
X570077Y302775D01*
X570063Y302840D01*
X570011Y302958D01*
X569968Y303080D01*
X569934Y303136D01*
X569907Y303197D01*
X569854Y303267D01*
X569765Y303412D01*
X569649Y303537D01*
X569596Y303606D01*
X567113Y306089D01*
X566221Y308244D01*
X566197Y308288D01*
X566180Y308335D01*
X566105Y308459D01*
X566036Y308587D01*
X566003Y308625D01*
X565978Y308667D01*
X565878Y308773D01*
X565784Y308885D01*
X565745Y308916D01*
X565711Y308952D01*
X565592Y309036D01*
X565478Y309125D01*
X565433Y309148D01*
X565392Y309176D01*
X565259Y309234D01*
X565129Y309299D01*
X565080Y309311D01*
X565035Y309331D01*
X564892Y309360D01*
X564751Y309397D01*
X564702Y309400D01*
X564653Y309410D01*
X564507Y309409D01*
X564362Y309417D01*
X564313Y309409D01*
X564263Y309409D01*
X564121Y309379D01*
X563977Y309357D01*
X563930Y309339D01*
X563882Y309329D01*
X563748Y309271D01*
X563612Y309219D01*
X563570Y309193D01*
X563524Y309173D01*
X563453Y309119D01*
X563283Y309011D01*
X563180Y308911D01*
X563115Y308862D01*
X560527Y306273D01*
X556934Y304785D01*
X553046Y304785D01*
X549453Y306273D01*
X546703Y309023D01*
X545215Y312616D01*
X545215Y313862D01*
X545205Y313960D01*
X545205Y314060D01*
X545185Y314154D01*
X545175Y314249D01*
X545145Y314344D01*
X545125Y314442D01*
X545086Y314529D01*
X545057Y314621D01*
X545008Y314708D01*
X544969Y314799D01*
X544924Y314857D01*
X544866Y314960D01*
X544708Y315142D01*
X544658Y315208D01*
X527607Y332258D01*
X526795Y334219D01*
X526795Y392221D01*
X527607Y394182D01*
X529376Y395950D01*
X534997Y401571D01*
X535007Y401584D01*
X535020Y401595D01*
X535130Y401735D01*
X535243Y401874D01*
X535250Y401888D01*
X535261Y401901D01*
X535340Y402061D01*
X535422Y402220D01*
X535426Y402236D01*
X535434Y402251D01*
X535479Y402423D01*
X535527Y402595D01*
X535528Y402612D01*
X535532Y402628D01*
X535541Y402806D01*
X535553Y402984D01*
X535551Y403000D01*
X535552Y403017D01*
X535524Y403194D01*
X535500Y403370D01*
X535494Y403386D01*
X535492Y403402D01*
X535429Y403569D01*
X535369Y403737D01*
X535360Y403751D01*
X535355Y403767D01*
X535259Y403919D01*
X535166Y404070D01*
X535155Y404082D01*
X535146Y404096D01*
X535021Y404225D01*
X534900Y404355D01*
X534886Y404364D01*
X534875Y404376D01*
X534727Y404476D01*
X534581Y404579D01*
X534566Y404586D01*
X534552Y404595D01*
X534386Y404663D01*
X534223Y404734D01*
X534207Y404737D01*
X534192Y404743D01*
X534016Y404776D01*
X533841Y404812D01*
X533825Y404812D01*
X533808Y404815D01*
X533631Y404812D01*
X533452Y404812D01*
X533435Y404808D01*
X533419Y404808D01*
X533359Y404792D01*
X533070Y404731D01*
X532982Y404693D01*
X532922Y404677D01*
X531561Y404113D01*
X527619Y404113D01*
X523978Y405621D01*
X521191Y408408D01*
X519683Y412049D01*
X519683Y415991D01*
X521191Y419632D01*
X523978Y422419D01*
X527619Y423927D01*
X531561Y423927D01*
X535202Y422419D01*
X537989Y419632D01*
X539497Y415991D01*
X539497Y412049D01*
X538933Y410688D01*
X538928Y410673D01*
X538921Y410658D01*
X538872Y410485D01*
X538821Y410315D01*
X538820Y410298D01*
X538816Y410282D01*
X538804Y410105D01*
X538788Y409927D01*
X538790Y409910D01*
X538789Y409893D01*
X538814Y409717D01*
X538835Y409540D01*
X538840Y409524D01*
X538843Y409507D01*
X538903Y409339D01*
X538959Y409170D01*
X538968Y409156D01*
X538973Y409140D01*
X539067Y408987D01*
X539157Y408834D01*
X539168Y408822D01*
X539176Y408807D01*
X539299Y408677D01*
X539418Y408545D01*
X539431Y408535D01*
X539443Y408523D01*
X539589Y408420D01*
X539733Y408315D01*
X539748Y408308D01*
X539762Y408298D01*
X539925Y408228D01*
X540088Y408154D01*
X540104Y408150D01*
X540119Y408144D01*
X540294Y408108D01*
X540468Y408069D01*
X540485Y408068D01*
X540501Y408065D01*
X540680Y408065D01*
X540858Y408063D01*
X540874Y408066D01*
X540891Y408066D01*
X541067Y408103D01*
X541241Y408136D01*
X541256Y408143D01*
X541272Y408146D01*
X541436Y408217D01*
X541601Y408286D01*
X541614Y408295D01*
X541630Y408302D01*
X541679Y408339D01*
X541922Y408506D01*
X541989Y408575D01*
X542039Y408613D01*
X544526Y411100D01*
X544588Y411177D01*
X544659Y411248D01*
X544711Y411328D01*
X544771Y411402D01*
X544817Y411491D01*
X544872Y411574D01*
X544907Y411663D01*
X544951Y411749D01*
X544978Y411844D01*
X545014Y411937D01*
X545024Y412009D01*
X545056Y412124D01*
X545072Y412364D01*
X545083Y412446D01*
X545083Y415991D01*
X546591Y419632D01*
X549378Y422419D01*
X553019Y423927D01*
X556961Y423927D01*
X560602Y422419D01*
X563389Y419632D01*
X564897Y415991D01*
X564897Y412049D01*
X563389Y408408D01*
X560602Y405621D01*
X556961Y404113D01*
X553416Y404113D01*
X553318Y404103D01*
X553218Y404103D01*
X553124Y404083D01*
X553029Y404073D01*
X552934Y404043D01*
X552836Y404023D01*
X552749Y403984D01*
X552657Y403955D01*
X552570Y403906D01*
X552479Y403867D01*
X552421Y403822D01*
X552318Y403764D01*
X552136Y403606D01*
X552070Y403556D01*
X538022Y389508D01*
X537960Y389431D01*
X537889Y389360D01*
X537837Y389280D01*
X537777Y389206D01*
X537731Y389117D01*
X537676Y389034D01*
X537641Y388945D01*
X537597Y388859D01*
X537570Y388764D01*
X537534Y388671D01*
X537524Y388599D01*
X537492Y388484D01*
X537476Y388244D01*
X537465Y388162D01*
X537465Y338278D01*
X537475Y338180D01*
X537475Y338080D01*
X537495Y337986D01*
X537505Y337891D01*
X537535Y337796D01*
X537555Y337698D01*
X537594Y337611D01*
X537623Y337519D01*
X537672Y337432D01*
X537711Y337341D01*
X537756Y337283D01*
X537814Y337180D01*
X537972Y336998D01*
X538022Y336932D01*
X550431Y324524D01*
X550495Y324472D01*
X550553Y324412D01*
X550646Y324349D01*
X550733Y324278D01*
X550807Y324240D01*
X550875Y324193D01*
X550979Y324150D01*
X551079Y324099D01*
X551159Y324076D01*
X551236Y324045D01*
X551346Y324024D01*
X551454Y323994D01*
X551537Y323988D01*
X551619Y323973D01*
X551731Y323975D01*
X551843Y323967D01*
X551926Y323979D01*
X552009Y323980D01*
X552088Y324001D01*
X552230Y324021D01*
X552419Y324088D01*
X552506Y324111D01*
X553046Y324335D01*
X556934Y324335D01*
X560527Y322847D01*
X562881Y320493D01*
X562919Y320461D01*
X562953Y320424D01*
X563071Y320338D01*
X563183Y320247D01*
X563227Y320224D01*
X563268Y320194D01*
X563400Y320134D01*
X563529Y320068D01*
X563577Y320054D01*
X563623Y320034D01*
X563765Y320002D01*
X563905Y319963D01*
X563954Y319959D01*
X564003Y319948D01*
X564148Y319946D01*
X564294Y319936D01*
X564343Y319943D01*
X564393Y319942D01*
X564536Y319970D01*
X564680Y319990D01*
X564727Y320006D01*
X564776Y320016D01*
X564910Y320072D01*
X565047Y320120D01*
X565090Y320146D01*
X565136Y320166D01*
X565256Y320248D01*
X565380Y320323D01*
X565416Y320357D01*
X565457Y320386D01*
X565558Y320490D01*
X565664Y320590D01*
X565693Y320631D01*
X565728Y320666D01*
X565773Y320744D01*
X565889Y320909D01*
X565945Y321040D01*
X565987Y321111D01*
X567113Y323831D01*
X569596Y326313D01*
X569638Y326365D01*
X569686Y326410D01*
X569761Y326516D01*
X569842Y326616D01*
X569872Y326675D01*
X569911Y326729D01*
X569962Y326847D01*
X570021Y326962D01*
X570039Y327026D01*
X570065Y327087D01*
X570091Y327213D01*
X570126Y327337D01*
X570131Y327404D01*
X570144Y327469D01*
X570144Y327598D01*
X570152Y327726D01*
X570143Y327792D01*
X570143Y327859D01*
X570117Y327985D01*
X570099Y328112D01*
X570077Y328175D01*
X570063Y328240D01*
X570011Y328358D01*
X569968Y328480D01*
X569934Y328536D01*
X569907Y328597D01*
X569854Y328667D01*
X569765Y328812D01*
X569649Y328937D01*
X569596Y329006D01*
X567113Y331489D01*
X566104Y333927D01*
X566080Y333971D01*
X566063Y334017D01*
X565988Y334141D01*
X565919Y334270D01*
X565886Y334308D01*
X565860Y334350D01*
X565761Y334456D01*
X565667Y334568D01*
X565628Y334598D01*
X565594Y334635D01*
X565475Y334719D01*
X565361Y334808D01*
X565316Y334830D01*
X565275Y334859D01*
X565142Y334917D01*
X565011Y334981D01*
X564963Y334994D01*
X564917Y335014D01*
X564775Y335043D01*
X564634Y335080D01*
X564584Y335082D01*
X564536Y335093D01*
X564390Y335092D01*
X564245Y335100D01*
X564196Y335092D01*
X564146Y335092D01*
X564003Y335062D01*
X563860Y335039D01*
X563813Y335022D01*
X563764Y335012D01*
X563631Y334953D01*
X563495Y334902D01*
X563453Y334876D01*
X563407Y334856D01*
X563336Y334801D01*
X563166Y334694D01*
X563063Y334594D01*
X562998Y334544D01*
X560527Y332073D01*
X556934Y330585D01*
X553046Y330585D01*
X549453Y332073D01*
X546703Y334823D01*
X545215Y338416D01*
X545215Y342304D01*
X546703Y345897D01*
X549453Y348647D01*
X553046Y350135D01*
X556934Y350135D01*
X560527Y348647D01*
X562998Y346176D01*
X563037Y346144D01*
X563070Y346107D01*
X563188Y346021D01*
X563300Y345930D01*
X563345Y345907D01*
X563385Y345877D01*
X563518Y345817D01*
X563646Y345750D01*
X563694Y345737D01*
X563740Y345716D01*
X563882Y345685D01*
X564022Y345645D01*
X564072Y345642D01*
X564120Y345631D01*
X564266Y345629D01*
X564411Y345619D01*
X564460Y345626D01*
X564510Y345625D01*
X564653Y345652D01*
X564797Y345672D01*
X564844Y345689D01*
X564893Y345699D01*
X565027Y345754D01*
X565164Y345803D01*
X565207Y345829D01*
X565253Y345848D01*
X565373Y345931D01*
X565497Y346006D01*
X565533Y346040D01*
X565574Y346068D01*
X565675Y346173D01*
X565781Y346273D01*
X565810Y346313D01*
X565845Y346349D01*
X565890Y346426D01*
X566006Y346591D01*
X566063Y346723D01*
X566104Y346793D01*
X567113Y349231D01*
X571519Y353637D01*
X577275Y356021D01*
X583505Y356021D01*
X589261Y353637D01*
X592410Y350488D01*
X592439Y350464D01*
X592465Y350435D01*
X592591Y350341D01*
X592712Y350242D01*
X592746Y350224D01*
X592777Y350201D01*
X592919Y350135D01*
X593058Y350062D01*
X593095Y350052D01*
X593130Y350036D01*
X593282Y350000D01*
X593434Y349957D01*
X593472Y349955D01*
X593509Y349946D01*
X593666Y349942D01*
X593823Y349931D01*
X593861Y349936D01*
X593898Y349935D01*
X594053Y349963D01*
X594209Y349984D01*
X594245Y349997D01*
X594282Y350004D01*
X594428Y350063D01*
X594576Y350115D01*
X594608Y350135D01*
X594644Y350149D01*
X594775Y350237D01*
X594909Y350318D01*
X594937Y350344D01*
X594968Y350365D01*
X595079Y350477D01*
X595193Y350585D01*
X595215Y350616D01*
X595242Y350643D01*
X595327Y350775D01*
X595418Y350903D01*
X595433Y350938D01*
X595453Y350970D01*
X595510Y351117D01*
X595572Y351261D01*
X595580Y351298D01*
X595594Y351334D01*
X595605Y351419D01*
X595651Y351643D01*
X595651Y351769D01*
X595661Y351844D01*
X595133Y458479D01*
X595126Y458541D01*
X595128Y458603D01*
X595105Y458734D01*
X595091Y458867D01*
X595072Y458926D01*
X595061Y458987D01*
X595012Y459111D01*
X594971Y459238D01*
X594940Y459292D01*
X594918Y459349D01*
X594844Y459460D01*
X594778Y459577D01*
X594737Y459623D01*
X594703Y459675D01*
X594609Y459769D01*
X594520Y459869D01*
X594471Y459906D01*
X594427Y459950D01*
X594315Y460023D01*
X594208Y460103D01*
X594153Y460129D01*
X594101Y460163D01*
X593976Y460211D01*
X593855Y460268D01*
X593795Y460282D01*
X593738Y460305D01*
X593650Y460317D01*
X593476Y460358D01*
X593314Y460363D01*
X593228Y460374D01*
X588833Y460374D01*
X588734Y460364D01*
X588635Y460364D01*
X588541Y460344D01*
X588445Y460334D01*
X588351Y460304D01*
X588253Y460284D01*
X588165Y460245D01*
X588074Y460216D01*
X587987Y460168D01*
X587896Y460128D01*
X587838Y460083D01*
X587734Y460025D01*
X587553Y459867D01*
X587487Y459816D01*
X586896Y459226D01*
X580235Y455380D01*
X572806Y453389D01*
X565114Y453389D01*
X557685Y455380D01*
X551024Y459226D01*
X550433Y459816D01*
X550356Y459879D01*
X550286Y459950D01*
X550205Y460002D01*
X550131Y460062D01*
X550042Y460108D01*
X549959Y460163D01*
X549870Y460198D01*
X549785Y460242D01*
X549689Y460269D01*
X549596Y460305D01*
X549524Y460315D01*
X549409Y460347D01*
X549169Y460363D01*
X549087Y460374D01*
X49056Y460374D01*
X49011Y460370D01*
X48965Y460372D01*
X48817Y460350D01*
X48668Y460334D01*
X48625Y460321D01*
X48580Y460314D01*
X48498Y460280D01*
X48297Y460216D01*
X48178Y460149D01*
X48104Y460119D01*
X44295Y457920D01*
X36866Y455929D01*
X29174Y455929D01*
X21745Y457920D01*
X17936Y460119D01*
X17894Y460138D01*
X17856Y460163D01*
X17717Y460217D01*
X17580Y460278D01*
X17536Y460288D01*
X17493Y460305D01*
X17405Y460317D01*
X17200Y460362D01*
X17063Y460364D01*
X16984Y460374D01*
X9795Y460374D01*
X9724Y460367D01*
X9653Y460369D01*
X9531Y460347D01*
X9407Y460334D01*
X9340Y460313D01*
X9269Y460300D01*
X9154Y460254D01*
X9036Y460216D01*
X8974Y460182D01*
X8908Y460155D01*
X8804Y460086D01*
X8696Y460025D01*
X8642Y459978D01*
X8583Y459939D01*
X8496Y459851D01*
X8402Y459769D01*
X8359Y459712D01*
X8310Y459661D01*
X8242Y459557D01*
X8167Y459458D01*
X8137Y459394D01*
X8098Y459334D01*
X8053Y459218D01*
X8000Y459106D01*
X7983Y459037D01*
X7958Y458970D01*
X7946Y458885D01*
X7908Y458727D01*
X7902Y458548D01*
X7891Y458461D01*
X8979Y238746D01*
X8985Y238684D01*
X8983Y238622D01*
X9006Y238491D01*
X9021Y238358D01*
X9040Y238299D01*
X9050Y238238D01*
X9099Y238114D01*
X9140Y237987D01*
X9171Y237933D01*
X9194Y237876D01*
X9267Y237765D01*
X9333Y237648D01*
X9374Y237602D01*
X9408Y237550D01*
X9503Y237456D01*
X9591Y237356D01*
X9640Y237319D01*
X9684Y237275D01*
X9796Y237202D01*
X9903Y237122D01*
X9959Y237096D01*
X10011Y237062D01*
X10135Y237014D01*
X10256Y236957D01*
X10316Y236943D01*
X10374Y236920D01*
X10461Y236908D01*
X10635Y236867D01*
X10797Y236862D01*
X10883Y236851D01*
X17632Y236851D01*
X24399Y234048D01*
X29578Y228869D01*
X30622Y226348D01*
X30646Y226304D01*
X30662Y226257D01*
X30738Y226133D01*
X30807Y226005D01*
X30839Y225967D01*
X30865Y225924D01*
X30965Y225818D01*
X31058Y225707D01*
X31098Y225676D01*
X31132Y225640D01*
X31251Y225556D01*
X31365Y225466D01*
X31410Y225444D01*
X31451Y225416D01*
X31584Y225358D01*
X31714Y225293D01*
X31763Y225281D01*
X31808Y225261D01*
X31951Y225232D01*
X32091Y225195D01*
X32141Y225192D01*
X32190Y225182D01*
X32335Y225183D01*
X32481Y225175D01*
X32530Y225183D01*
X32580Y225183D01*
X32722Y225213D01*
X32866Y225235D01*
X32912Y225253D01*
X32961Y225263D01*
X33095Y225321D01*
X33231Y225373D01*
X33273Y225399D01*
X33319Y225419D01*
X33390Y225473D01*
X33560Y225581D01*
X33663Y225681D01*
X33728Y225730D01*
X34190Y226193D01*
X37551Y227585D01*
X41189Y227585D01*
X44550Y226193D01*
X47123Y223620D01*
X48515Y220259D01*
X48515Y216621D01*
X47123Y213260D01*
X44550Y210687D01*
X41189Y209295D01*
X37551Y209295D01*
X34190Y210687D01*
X33728Y211150D01*
X33689Y211181D01*
X33656Y211218D01*
X33538Y211304D01*
X33425Y211396D01*
X33381Y211419D01*
X33341Y211448D01*
X33209Y211508D01*
X33079Y211575D01*
X33031Y211588D01*
X32986Y211609D01*
X32844Y211641D01*
X32704Y211680D01*
X32654Y211683D01*
X32605Y211694D01*
X32460Y211696D01*
X32315Y211706D01*
X32266Y211699D01*
X32216Y211700D01*
X32073Y211673D01*
X31929Y211653D01*
X31882Y211636D01*
X31833Y211627D01*
X31699Y211571D01*
X31562Y211522D01*
X31519Y211496D01*
X31473Y211477D01*
X31353Y211395D01*
X31229Y211319D01*
X31193Y211285D01*
X31151Y211257D01*
X31050Y211152D01*
X30944Y211053D01*
X30916Y211012D01*
X30881Y210976D01*
X30836Y210899D01*
X30720Y210734D01*
X30663Y210602D01*
X30622Y210532D01*
X29578Y208011D01*
X24399Y202832D01*
X17632Y200029D01*
X11084Y200029D01*
X11013Y200022D01*
X10942Y200024D01*
X10820Y200002D01*
X10696Y199989D01*
X10629Y199968D01*
X10558Y199955D01*
X10443Y199909D01*
X10325Y199871D01*
X10263Y199837D01*
X10197Y199810D01*
X10093Y199741D01*
X9985Y199680D01*
X9931Y199633D01*
X9872Y199594D01*
X9785Y199506D01*
X9692Y199424D01*
X9649Y199367D01*
X9599Y199316D01*
X9531Y199212D01*
X9456Y199113D01*
X9426Y199049D01*
X9387Y198989D01*
X9342Y198873D01*
X9289Y198761D01*
X9272Y198692D01*
X9247Y198625D01*
X9236Y198540D01*
X9197Y198382D01*
X9191Y198203D01*
X9180Y198116D01*
X9733Y86346D01*
X9740Y86284D01*
X9738Y86222D01*
X9761Y86091D01*
X9775Y85958D01*
X9794Y85899D01*
X9805Y85838D01*
X9854Y85714D01*
X9895Y85587D01*
X9926Y85533D01*
X9948Y85476D01*
X10022Y85365D01*
X10088Y85248D01*
X10129Y85202D01*
X10163Y85150D01*
X10257Y85056D01*
X10346Y84956D01*
X10395Y84919D01*
X10439Y84875D01*
X10551Y84802D01*
X10658Y84722D01*
X10714Y84696D01*
X10765Y84662D01*
X10890Y84614D01*
X11011Y84557D01*
X11071Y84543D01*
X11128Y84520D01*
X11216Y84508D01*
X11390Y84467D01*
X11552Y84462D01*
X11638Y84451D01*
X17632Y84451D01*
X24399Y81648D01*
X29578Y76469D01*
X29623Y76360D01*
X29662Y76287D01*
X29693Y76210D01*
X29755Y76116D01*
X29808Y76017D01*
X29862Y75954D01*
X29907Y75884D01*
X29987Y75805D01*
X30059Y75719D01*
X30125Y75668D01*
X30183Y75609D01*
X30277Y75548D01*
X30366Y75479D01*
X30440Y75442D01*
X30510Y75396D01*
X30614Y75355D01*
X30715Y75305D01*
X30796Y75284D01*
X30873Y75254D01*
X30954Y75243D01*
X31092Y75207D01*
X31294Y75197D01*
X31382Y75185D01*
X47622Y75185D01*
X48515Y74292D01*
X48515Y57788D01*
X47622Y56895D01*
X41874Y56895D01*
X41734Y56881D01*
X41593Y56874D01*
X41540Y56861D01*
X41486Y56855D01*
X41352Y56813D01*
X41215Y56778D01*
X41166Y56754D01*
X41115Y56737D01*
X40992Y56668D01*
X40865Y56606D01*
X40822Y56573D01*
X40775Y56546D01*
X40669Y56453D01*
X40557Y56367D01*
X40522Y56325D01*
X40482Y56290D01*
X40396Y56177D01*
X40305Y56070D01*
X40279Y56022D01*
X40246Y55979D01*
X40186Y55851D01*
X40118Y55728D01*
X40102Y55676D01*
X40079Y55627D01*
X40046Y55490D01*
X40005Y55355D01*
X40000Y55301D01*
X39987Y55248D01*
X39983Y55107D01*
X39970Y54966D01*
X39976Y54913D01*
X39974Y54858D01*
X39999Y54719D01*
X40015Y54579D01*
X40032Y54528D01*
X40041Y54474D01*
X40093Y54344D01*
X40138Y54209D01*
X40165Y54162D01*
X40185Y54112D01*
X40262Y53995D01*
X40333Y53872D01*
X40369Y53832D01*
X40399Y53787D01*
X40499Y53687D01*
X40593Y53582D01*
X40637Y53550D01*
X40675Y53511D01*
X40793Y53434D01*
X40907Y53351D01*
X40948Y53333D01*
X41002Y53298D01*
X41365Y53156D01*
X41373Y53155D01*
X41381Y53152D01*
X48105Y51350D01*
X54766Y47504D01*
X60204Y42066D01*
X64050Y35405D01*
X66041Y27976D01*
X66041Y21590D01*
X66048Y21524D01*
X66045Y21457D01*
X66067Y21330D01*
X66081Y21202D01*
X66101Y21139D01*
X66112Y21073D01*
X66160Y20954D01*
X66199Y20831D01*
X66231Y20773D01*
X66256Y20711D01*
X66327Y20604D01*
X66390Y20491D01*
X66434Y20441D01*
X66470Y20386D01*
X66561Y20294D01*
X66646Y20197D01*
X66699Y20157D01*
X66746Y20110D01*
X66854Y20040D01*
X66957Y19962D01*
X67017Y19934D01*
X67073Y19897D01*
X67193Y19850D01*
X67309Y19795D01*
X67374Y19779D01*
X67436Y19755D01*
X67522Y19743D01*
X67688Y19703D01*
X67858Y19698D01*
X67945Y19686D01*
X548005Y19686D01*
X548071Y19693D01*
G37*
%LPC*%
G36*
X240751Y56895D02*
X240751Y56895D01*
X237390Y58287D01*
X234817Y60860D01*
X233425Y64221D01*
X233425Y67859D01*
X234817Y71220D01*
X237390Y73793D01*
X240751Y75185D01*
X244389Y75185D01*
X244964Y74947D01*
X245043Y74923D01*
X245120Y74890D01*
X245230Y74867D01*
X245337Y74835D01*
X245420Y74828D01*
X245501Y74811D01*
X245614Y74812D01*
X245726Y74802D01*
X245808Y74812D01*
X245891Y74812D01*
X246001Y74835D01*
X246113Y74849D01*
X246191Y74875D01*
X246273Y74892D01*
X246376Y74937D01*
X246482Y74973D01*
X246554Y75015D01*
X246630Y75048D01*
X246695Y75098D01*
X246818Y75170D01*
X246968Y75305D01*
X247039Y75359D01*
X370668Y198988D01*
X373234Y201555D01*
X406621Y201555D01*
X406654Y201558D01*
X406688Y201556D01*
X406848Y201578D01*
X407009Y201595D01*
X407041Y201605D01*
X407074Y201609D01*
X407226Y201664D01*
X407381Y201713D01*
X407410Y201729D01*
X407441Y201740D01*
X407579Y201824D01*
X407720Y201904D01*
X407745Y201926D01*
X407774Y201943D01*
X407892Y202054D01*
X408014Y202160D01*
X408034Y202187D01*
X408058Y202209D01*
X408152Y202342D01*
X408249Y202471D01*
X408263Y202501D01*
X408283Y202528D01*
X408347Y202677D01*
X408416Y202823D01*
X408424Y202855D01*
X408437Y202886D01*
X408470Y203045D01*
X408508Y203202D01*
X408509Y203235D01*
X408516Y203268D01*
X408516Y203430D01*
X408521Y203592D01*
X408515Y203624D01*
X408515Y203658D01*
X408482Y203816D01*
X408454Y203976D01*
X408442Y204006D01*
X408435Y204039D01*
X408370Y204188D01*
X408311Y204338D01*
X408292Y204366D01*
X408279Y204396D01*
X408228Y204463D01*
X408096Y204663D01*
X408012Y204747D01*
X407968Y204805D01*
X404762Y208011D01*
X403718Y210532D01*
X403694Y210576D01*
X403678Y210623D01*
X403602Y210747D01*
X403533Y210875D01*
X403501Y210913D01*
X403475Y210956D01*
X403375Y211062D01*
X403282Y211173D01*
X403242Y211204D01*
X403208Y211240D01*
X403089Y211324D01*
X402975Y211414D01*
X402930Y211436D01*
X402889Y211464D01*
X402756Y211522D01*
X402626Y211587D01*
X402577Y211599D01*
X402532Y211619D01*
X402389Y211648D01*
X402249Y211685D01*
X402199Y211688D01*
X402150Y211698D01*
X402005Y211697D01*
X401859Y211705D01*
X401810Y211697D01*
X401760Y211697D01*
X401618Y211667D01*
X401474Y211645D01*
X401428Y211627D01*
X401379Y211617D01*
X401245Y211559D01*
X401109Y211507D01*
X401067Y211481D01*
X401021Y211461D01*
X400950Y211407D01*
X400780Y211299D01*
X400677Y211199D01*
X400612Y211150D01*
X400150Y210687D01*
X396789Y209295D01*
X393151Y209295D01*
X389790Y210687D01*
X387217Y213260D01*
X385825Y216621D01*
X385825Y220259D01*
X387217Y223620D01*
X389790Y226193D01*
X393151Y227585D01*
X396789Y227585D01*
X400150Y226193D01*
X400612Y225730D01*
X400651Y225699D01*
X400684Y225662D01*
X400802Y225576D01*
X400915Y225484D01*
X400959Y225461D01*
X400999Y225432D01*
X401131Y225372D01*
X401261Y225305D01*
X401309Y225292D01*
X401354Y225271D01*
X401496Y225239D01*
X401636Y225200D01*
X401686Y225197D01*
X401735Y225186D01*
X401880Y225184D01*
X402025Y225174D01*
X402074Y225181D01*
X402124Y225180D01*
X402267Y225207D01*
X402411Y225227D01*
X402458Y225244D01*
X402507Y225253D01*
X402641Y225309D01*
X402778Y225358D01*
X402821Y225384D01*
X402867Y225403D01*
X402987Y225485D01*
X403111Y225561D01*
X403147Y225595D01*
X403189Y225623D01*
X403290Y225728D01*
X403396Y225827D01*
X403424Y225868D01*
X403459Y225904D01*
X403504Y225981D01*
X403620Y226146D01*
X403677Y226278D01*
X403718Y226348D01*
X404762Y228869D01*
X409941Y234048D01*
X416708Y236851D01*
X424032Y236851D01*
X430799Y234048D01*
X435978Y228869D01*
X438781Y222102D01*
X438781Y217569D01*
X438784Y217535D01*
X438782Y217502D01*
X438804Y217342D01*
X438821Y217181D01*
X438831Y217149D01*
X438835Y217116D01*
X438890Y216964D01*
X438939Y216809D01*
X438955Y216780D01*
X438966Y216749D01*
X439050Y216611D01*
X439130Y216470D01*
X439152Y216445D01*
X439169Y216416D01*
X439280Y216298D01*
X439386Y216176D01*
X439413Y216156D01*
X439435Y216132D01*
X439568Y216038D01*
X439697Y215941D01*
X439727Y215926D01*
X439754Y215907D01*
X439903Y215843D01*
X440049Y215774D01*
X440081Y215766D01*
X440112Y215753D01*
X440271Y215720D01*
X440428Y215682D01*
X440461Y215681D01*
X440494Y215674D01*
X440656Y215674D01*
X440818Y215669D01*
X440850Y215675D01*
X440884Y215675D01*
X441042Y215708D01*
X441202Y215736D01*
X441232Y215748D01*
X441265Y215755D01*
X441414Y215820D01*
X441564Y215879D01*
X441592Y215898D01*
X441622Y215911D01*
X441689Y215961D01*
X441889Y216094D01*
X441973Y216178D01*
X442031Y216222D01*
X445444Y219635D01*
X445517Y219725D01*
X445598Y219808D01*
X445629Y219862D01*
X445690Y219937D01*
X445825Y220199D01*
X445857Y220252D01*
X446351Y221446D01*
X447844Y222939D01*
X449794Y223747D01*
X451906Y223747D01*
X453856Y222939D01*
X454367Y222427D01*
X454445Y222365D01*
X454515Y222294D01*
X454596Y222242D01*
X454670Y222182D01*
X454758Y222136D01*
X454842Y222081D01*
X454931Y222046D01*
X455016Y222002D01*
X455112Y221975D01*
X455204Y221939D01*
X455277Y221929D01*
X455391Y221897D01*
X455631Y221881D01*
X455714Y221870D01*
X459891Y221870D01*
X462457Y219303D01*
X539009Y142752D01*
X539034Y142731D01*
X539056Y142706D01*
X539185Y142608D01*
X539311Y142506D01*
X539340Y142491D01*
X539367Y142470D01*
X539513Y142401D01*
X539657Y142327D01*
X539689Y142318D01*
X539719Y142303D01*
X539876Y142265D01*
X540032Y142222D01*
X540066Y142219D01*
X540098Y142212D01*
X540260Y142206D01*
X540421Y142195D01*
X540454Y142200D01*
X540488Y142199D01*
X540647Y142226D01*
X540807Y142249D01*
X540839Y142260D01*
X540872Y142266D01*
X541022Y142325D01*
X541175Y142380D01*
X541203Y142397D01*
X541234Y142409D01*
X541369Y142498D01*
X541507Y142582D01*
X541532Y142605D01*
X541560Y142623D01*
X541674Y142738D01*
X541792Y142849D01*
X541811Y142876D01*
X541835Y142900D01*
X541923Y143035D01*
X542016Y143168D01*
X542029Y143198D01*
X542048Y143226D01*
X542107Y143377D01*
X542171Y143525D01*
X542178Y143558D01*
X542190Y143589D01*
X542201Y143672D01*
X542250Y143907D01*
X542249Y144026D01*
X542259Y144098D01*
X542259Y147311D01*
X549901Y147311D01*
X549901Y139669D01*
X546688Y139669D01*
X546655Y139666D01*
X546622Y139668D01*
X546462Y139646D01*
X546301Y139629D01*
X546269Y139619D01*
X546236Y139615D01*
X546083Y139560D01*
X545929Y139511D01*
X545900Y139495D01*
X545869Y139484D01*
X545731Y139400D01*
X545589Y139320D01*
X545564Y139298D01*
X545536Y139281D01*
X545418Y139170D01*
X545296Y139064D01*
X545276Y139037D01*
X545251Y139015D01*
X545158Y138882D01*
X545060Y138753D01*
X545046Y138723D01*
X545027Y138696D01*
X544963Y138547D01*
X544893Y138401D01*
X544886Y138369D01*
X544872Y138338D01*
X544840Y138179D01*
X544802Y138022D01*
X544800Y137989D01*
X544794Y137956D01*
X544794Y137794D01*
X544789Y137632D01*
X544794Y137600D01*
X544794Y137566D01*
X544828Y137408D01*
X544856Y137248D01*
X544868Y137218D01*
X544875Y137185D01*
X544940Y137036D01*
X544999Y136886D01*
X545017Y136858D01*
X545031Y136828D01*
X545081Y136761D01*
X545213Y136561D01*
X545229Y136545D01*
X545298Y136476D01*
X545342Y136419D01*
X547958Y133802D01*
X548022Y133750D01*
X548080Y133690D01*
X548173Y133627D01*
X548260Y133556D01*
X548334Y133518D01*
X548403Y133472D01*
X548507Y133429D01*
X548607Y133377D01*
X548686Y133355D01*
X548763Y133323D01*
X548874Y133302D01*
X548982Y133272D01*
X549065Y133267D01*
X549146Y133251D01*
X549259Y133253D01*
X549371Y133246D01*
X549453Y133257D01*
X549536Y133259D01*
X549615Y133280D01*
X549757Y133299D01*
X549947Y133367D01*
X550033Y133390D01*
X550625Y133635D01*
X554275Y133635D01*
X557647Y132238D01*
X560228Y129657D01*
X561625Y126285D01*
X561625Y122635D01*
X560228Y119263D01*
X557647Y116682D01*
X554275Y115285D01*
X550625Y115285D01*
X550033Y115530D01*
X549954Y115554D01*
X549877Y115587D01*
X549767Y115610D01*
X549660Y115642D01*
X549577Y115649D01*
X549496Y115666D01*
X549383Y115666D01*
X549271Y115675D01*
X549189Y115665D01*
X549106Y115665D01*
X548996Y115642D01*
X548884Y115628D01*
X548806Y115602D01*
X548724Y115585D01*
X548622Y115540D01*
X548515Y115504D01*
X548443Y115462D01*
X548367Y115429D01*
X548302Y115379D01*
X548179Y115307D01*
X548029Y115172D01*
X547958Y115118D01*
X523417Y90577D01*
X520851Y88010D01*
X514134Y88010D01*
X514035Y88000D01*
X513935Y88000D01*
X513841Y87980D01*
X513746Y87970D01*
X513651Y87940D01*
X513554Y87920D01*
X513466Y87881D01*
X513375Y87852D01*
X513288Y87803D01*
X513197Y87764D01*
X513139Y87719D01*
X513035Y87661D01*
X512854Y87503D01*
X512787Y87453D01*
X512276Y86941D01*
X510326Y86133D01*
X508214Y86133D01*
X506264Y86941D01*
X504771Y88434D01*
X503963Y90384D01*
X503963Y92496D01*
X504771Y94446D01*
X506264Y95939D01*
X508214Y96747D01*
X510326Y96747D01*
X512276Y95939D01*
X512787Y95427D01*
X512865Y95365D01*
X512935Y95294D01*
X513015Y95242D01*
X513090Y95182D01*
X513178Y95136D01*
X513262Y95081D01*
X513351Y95046D01*
X513436Y95002D01*
X513532Y94975D01*
X513624Y94939D01*
X513697Y94929D01*
X513811Y94897D01*
X514051Y94881D01*
X514134Y94870D01*
X517221Y94870D01*
X517320Y94880D01*
X517419Y94880D01*
X517513Y94900D01*
X517608Y94910D01*
X517703Y94940D01*
X517801Y94960D01*
X517888Y94999D01*
X517980Y95028D01*
X518067Y95077D01*
X518158Y95116D01*
X518216Y95161D01*
X518320Y95219D01*
X518501Y95377D01*
X518567Y95427D01*
X543108Y119968D01*
X543160Y120032D01*
X543220Y120090D01*
X543283Y120183D01*
X543354Y120270D01*
X543392Y120344D01*
X543438Y120413D01*
X543481Y120517D01*
X543533Y120617D01*
X543555Y120696D01*
X543587Y120773D01*
X543608Y120884D01*
X543638Y120992D01*
X543643Y121075D01*
X543659Y121156D01*
X543657Y121269D01*
X543664Y121381D01*
X543653Y121463D01*
X543651Y121546D01*
X543630Y121625D01*
X543611Y121767D01*
X543543Y121957D01*
X543520Y122043D01*
X543275Y122635D01*
X543275Y126285D01*
X543520Y126877D01*
X543544Y126956D01*
X543577Y127033D01*
X543600Y127143D01*
X543632Y127250D01*
X543639Y127333D01*
X543656Y127414D01*
X543656Y127527D01*
X543665Y127639D01*
X543655Y127721D01*
X543655Y127804D01*
X543632Y127914D01*
X543618Y128026D01*
X543592Y128104D01*
X543575Y128186D01*
X543530Y128288D01*
X543494Y128395D01*
X543452Y128467D01*
X543419Y128543D01*
X543369Y128608D01*
X543297Y128731D01*
X543162Y128881D01*
X543108Y128952D01*
X457607Y214453D01*
X457530Y214515D01*
X457459Y214586D01*
X457379Y214638D01*
X457305Y214698D01*
X457216Y214744D01*
X457133Y214799D01*
X457044Y214834D01*
X456959Y214878D01*
X456863Y214905D01*
X456770Y214941D01*
X456698Y214951D01*
X456583Y214983D01*
X456343Y214999D01*
X456261Y215010D01*
X455714Y215010D01*
X455615Y215000D01*
X455515Y215000D01*
X455421Y214980D01*
X455326Y214970D01*
X455231Y214940D01*
X455134Y214920D01*
X455046Y214881D01*
X454955Y214852D01*
X454868Y214803D01*
X454777Y214764D01*
X454719Y214719D01*
X454615Y214661D01*
X454434Y214503D01*
X454367Y214453D01*
X453856Y213941D01*
X451906Y213133D01*
X449432Y213133D01*
X449333Y213123D01*
X449234Y213123D01*
X449140Y213103D01*
X449044Y213093D01*
X448950Y213063D01*
X448852Y213043D01*
X448764Y213004D01*
X448673Y212975D01*
X448586Y212926D01*
X448495Y212887D01*
X448437Y212842D01*
X448333Y212784D01*
X448152Y212626D01*
X448086Y212576D01*
X430205Y194695D01*
X376864Y194695D01*
X376765Y194685D01*
X376666Y194685D01*
X376572Y194665D01*
X376477Y194655D01*
X376382Y194625D01*
X376284Y194605D01*
X376197Y194566D01*
X376105Y194537D01*
X376018Y194488D01*
X375927Y194449D01*
X375869Y194404D01*
X375765Y194346D01*
X375584Y194188D01*
X375518Y194138D01*
X251889Y70509D01*
X251880Y70498D01*
X251877Y70495D01*
X251864Y70478D01*
X251837Y70445D01*
X251777Y70387D01*
X251714Y70294D01*
X251643Y70207D01*
X251605Y70133D01*
X251559Y70064D01*
X251516Y69960D01*
X251464Y69861D01*
X251442Y69781D01*
X251410Y69704D01*
X251389Y69593D01*
X251359Y69485D01*
X251354Y69402D01*
X251338Y69321D01*
X251340Y69208D01*
X251333Y69096D01*
X251344Y69014D01*
X251346Y68931D01*
X251367Y68852D01*
X251386Y68710D01*
X251454Y68520D01*
X251477Y68434D01*
X251715Y67859D01*
X251715Y64221D01*
X250323Y60860D01*
X247750Y58287D01*
X244389Y56895D01*
X240751Y56895D01*
G37*
%LPD*%
%LPC*%
G36*
X550625Y64485D02*
X550625Y64485D01*
X547253Y65882D01*
X546637Y66498D01*
X546560Y66560D01*
X546490Y66631D01*
X546409Y66683D01*
X546335Y66743D01*
X546247Y66789D01*
X546163Y66844D01*
X546074Y66879D01*
X545989Y66923D01*
X545893Y66950D01*
X545800Y66986D01*
X545728Y66996D01*
X545614Y67028D01*
X545374Y67044D01*
X545291Y67055D01*
X471126Y67055D01*
X468699Y68061D01*
X407151Y129609D01*
X406145Y132036D01*
X406145Y172764D01*
X407151Y175191D01*
X409009Y177049D01*
X411436Y178055D01*
X414064Y178055D01*
X416491Y177049D01*
X418349Y175191D01*
X419355Y172764D01*
X419355Y136875D01*
X419365Y136776D01*
X419365Y136676D01*
X419385Y136582D01*
X419395Y136487D01*
X419425Y136392D01*
X419445Y136294D01*
X419484Y136207D01*
X419513Y136115D01*
X419562Y136028D01*
X419601Y135937D01*
X419646Y135879D01*
X419704Y135776D01*
X419862Y135594D01*
X419912Y135528D01*
X474618Y80822D01*
X474695Y80760D01*
X474766Y80689D01*
X474846Y80637D01*
X474920Y80577D01*
X475009Y80531D01*
X475092Y80476D01*
X475182Y80441D01*
X475267Y80397D01*
X475362Y80370D01*
X475455Y80334D01*
X475527Y80324D01*
X475642Y80292D01*
X475882Y80276D01*
X475965Y80265D01*
X545291Y80265D01*
X545390Y80275D01*
X545490Y80275D01*
X545583Y80295D01*
X545679Y80305D01*
X545774Y80335D01*
X545871Y80355D01*
X545959Y80394D01*
X546050Y80423D01*
X546137Y80472D01*
X546228Y80511D01*
X546286Y80556D01*
X546390Y80614D01*
X546571Y80772D01*
X546637Y80822D01*
X547253Y81438D01*
X550625Y82835D01*
X554275Y82835D01*
X557647Y81438D01*
X560228Y78857D01*
X561625Y75485D01*
X561625Y71835D01*
X560228Y68463D01*
X557647Y65882D01*
X554275Y64485D01*
X550625Y64485D01*
G37*
%LPD*%
%LPC*%
G36*
X215351Y56895D02*
X215351Y56895D01*
X211990Y58287D01*
X209417Y60860D01*
X208025Y64221D01*
X208025Y67859D01*
X209417Y71220D01*
X211990Y73793D01*
X215351Y75185D01*
X218989Y75185D01*
X219564Y74947D01*
X219643Y74923D01*
X219720Y74890D01*
X219830Y74867D01*
X219937Y74835D01*
X220020Y74828D01*
X220101Y74811D01*
X220214Y74812D01*
X220326Y74802D01*
X220408Y74812D01*
X220491Y74812D01*
X220601Y74835D01*
X220713Y74849D01*
X220791Y74875D01*
X220873Y74892D01*
X220976Y74937D01*
X221082Y74973D01*
X221154Y75015D01*
X221230Y75048D01*
X221295Y75098D01*
X221418Y75170D01*
X221568Y75305D01*
X221639Y75359D01*
X337643Y191363D01*
X340209Y193930D01*
X341846Y193930D01*
X341945Y193940D01*
X342045Y193940D01*
X342139Y193960D01*
X342234Y193970D01*
X342329Y194000D01*
X342426Y194020D01*
X342514Y194059D01*
X342605Y194088D01*
X342692Y194137D01*
X342783Y194176D01*
X342841Y194221D01*
X342945Y194279D01*
X343126Y194437D01*
X343193Y194487D01*
X343704Y194999D01*
X345654Y195807D01*
X347766Y195807D01*
X349716Y194999D01*
X351209Y193506D01*
X352017Y191556D01*
X352017Y189444D01*
X351209Y187494D01*
X349716Y186001D01*
X347766Y185193D01*
X345654Y185193D01*
X343662Y186019D01*
X343582Y186042D01*
X343506Y186075D01*
X343396Y186098D01*
X343288Y186130D01*
X343205Y186137D01*
X343124Y186154D01*
X343012Y186154D01*
X342900Y186163D01*
X342817Y186153D01*
X342734Y186153D01*
X342624Y186130D01*
X342513Y186117D01*
X342434Y186090D01*
X342353Y186073D01*
X342250Y186028D01*
X342143Y185992D01*
X342072Y185950D01*
X341996Y185917D01*
X341931Y185868D01*
X341807Y185795D01*
X341657Y185660D01*
X341586Y185606D01*
X226489Y70509D01*
X226480Y70498D01*
X226477Y70495D01*
X226464Y70478D01*
X226437Y70445D01*
X226377Y70387D01*
X226314Y70294D01*
X226243Y70207D01*
X226205Y70133D01*
X226159Y70064D01*
X226116Y69960D01*
X226064Y69861D01*
X226042Y69781D01*
X226010Y69704D01*
X225989Y69593D01*
X225959Y69485D01*
X225954Y69402D01*
X225938Y69321D01*
X225940Y69208D01*
X225933Y69096D01*
X225944Y69014D01*
X225946Y68931D01*
X225967Y68852D01*
X225986Y68710D01*
X226054Y68520D01*
X226077Y68434D01*
X226315Y67859D01*
X226315Y64221D01*
X224923Y60860D01*
X222350Y58287D01*
X218989Y56895D01*
X215351Y56895D01*
G37*
%LPD*%
%LPC*%
G36*
X416708Y47629D02*
X416708Y47629D01*
X409941Y50432D01*
X404762Y55611D01*
X403718Y58132D01*
X403694Y58176D01*
X403678Y58223D01*
X403602Y58347D01*
X403533Y58475D01*
X403501Y58513D01*
X403475Y58556D01*
X403375Y58662D01*
X403282Y58773D01*
X403242Y58804D01*
X403208Y58840D01*
X403089Y58924D01*
X402975Y59014D01*
X402930Y59036D01*
X402889Y59064D01*
X402756Y59122D01*
X402626Y59187D01*
X402577Y59199D01*
X402532Y59219D01*
X402389Y59248D01*
X402249Y59285D01*
X402199Y59288D01*
X402150Y59298D01*
X402005Y59297D01*
X401859Y59305D01*
X401810Y59297D01*
X401760Y59297D01*
X401618Y59267D01*
X401474Y59245D01*
X401428Y59227D01*
X401379Y59217D01*
X401245Y59159D01*
X401109Y59107D01*
X401067Y59081D01*
X401021Y59061D01*
X400950Y59007D01*
X400780Y58899D01*
X400677Y58799D01*
X400612Y58750D01*
X400150Y58287D01*
X396789Y56895D01*
X393151Y56895D01*
X389790Y58287D01*
X387217Y60860D01*
X385825Y64221D01*
X385825Y67859D01*
X387217Y71220D01*
X389790Y73793D01*
X393151Y75185D01*
X396789Y75185D01*
X400150Y73793D01*
X400612Y73330D01*
X400651Y73299D01*
X400684Y73262D01*
X400802Y73176D01*
X400915Y73084D01*
X400959Y73061D01*
X400999Y73032D01*
X401131Y72972D01*
X401261Y72905D01*
X401309Y72892D01*
X401354Y72871D01*
X401496Y72839D01*
X401636Y72800D01*
X401686Y72797D01*
X401735Y72786D01*
X401880Y72784D01*
X402025Y72774D01*
X402074Y72781D01*
X402124Y72780D01*
X402267Y72807D01*
X402411Y72827D01*
X402458Y72844D01*
X402507Y72853D01*
X402641Y72909D01*
X402778Y72958D01*
X402821Y72984D01*
X402867Y73003D01*
X402987Y73085D01*
X403111Y73161D01*
X403147Y73195D01*
X403189Y73223D01*
X403290Y73328D01*
X403396Y73427D01*
X403424Y73468D01*
X403459Y73504D01*
X403504Y73581D01*
X403620Y73746D01*
X403677Y73878D01*
X403718Y73948D01*
X404762Y76469D01*
X409941Y81648D01*
X416708Y84451D01*
X424032Y84451D01*
X430799Y81648D01*
X435978Y76469D01*
X438781Y69702D01*
X438781Y62378D01*
X435978Y55611D01*
X430799Y50432D01*
X424032Y47629D01*
X416708Y47629D01*
G37*
%LPD*%
%LPC*%
G36*
X518374Y103913D02*
X518374Y103913D01*
X516424Y104721D01*
X514931Y106214D01*
X514123Y108164D01*
X514123Y110276D01*
X514931Y112226D01*
X515443Y112737D01*
X515505Y112815D01*
X515576Y112885D01*
X515628Y112965D01*
X515688Y113040D01*
X515734Y113128D01*
X515789Y113212D01*
X515824Y113301D01*
X515868Y113386D01*
X515895Y113482D01*
X515931Y113574D01*
X515941Y113647D01*
X515973Y113761D01*
X515989Y114001D01*
X516000Y114084D01*
X516000Y137491D01*
X515990Y137590D01*
X515990Y137689D01*
X515970Y137783D01*
X515960Y137878D01*
X515930Y137973D01*
X515910Y138071D01*
X515871Y138158D01*
X515842Y138250D01*
X515793Y138337D01*
X515754Y138428D01*
X515709Y138486D01*
X515651Y138590D01*
X515493Y138771D01*
X515443Y138837D01*
X459484Y194796D01*
X459407Y194858D01*
X459336Y194929D01*
X459256Y194981D01*
X459182Y195041D01*
X459093Y195087D01*
X459010Y195142D01*
X458921Y195177D01*
X458836Y195221D01*
X458740Y195248D01*
X458647Y195284D01*
X458575Y195294D01*
X458460Y195326D01*
X458220Y195342D01*
X458138Y195353D01*
X457414Y195353D01*
X455464Y196161D01*
X453971Y197654D01*
X453163Y199604D01*
X453163Y201716D01*
X453971Y203666D01*
X455464Y205159D01*
X457414Y205967D01*
X459526Y205967D01*
X461476Y205159D01*
X462969Y203666D01*
X463777Y201716D01*
X463777Y200992D01*
X463787Y200893D01*
X463787Y200794D01*
X463807Y200700D01*
X463817Y200605D01*
X463847Y200510D01*
X463867Y200412D01*
X463906Y200325D01*
X463935Y200233D01*
X463984Y200146D01*
X464023Y200055D01*
X464068Y199997D01*
X464126Y199893D01*
X464284Y199712D01*
X464334Y199646D01*
X520293Y143687D01*
X522860Y141121D01*
X522860Y114084D01*
X522870Y113985D01*
X522870Y113885D01*
X522890Y113791D01*
X522900Y113696D01*
X522930Y113601D01*
X522950Y113504D01*
X522989Y113416D01*
X523018Y113325D01*
X523067Y113238D01*
X523106Y113147D01*
X523151Y113089D01*
X523209Y112985D01*
X523367Y112804D01*
X523417Y112737D01*
X523929Y112226D01*
X524737Y110276D01*
X524737Y108164D01*
X523929Y106214D01*
X522436Y104721D01*
X520486Y103913D01*
X518374Y103913D01*
G37*
%LPD*%
%LPC*%
G36*
X544198Y221995D02*
X544198Y221995D01*
X543305Y222888D01*
X543305Y249552D01*
X544198Y250445D01*
X570862Y250445D01*
X571755Y249552D01*
X571755Y222888D01*
X570862Y221995D01*
X544198Y221995D01*
G37*
%LPD*%
%LPC*%
G36*
X544198Y183895D02*
X544198Y183895D01*
X543305Y184788D01*
X543305Y211452D01*
X544198Y212345D01*
X570862Y212345D01*
X571755Y211452D01*
X571755Y184788D01*
X570862Y183895D01*
X544198Y183895D01*
G37*
%LPD*%
%LPC*%
G36*
X502219Y404113D02*
X502219Y404113D01*
X498578Y405621D01*
X495791Y408408D01*
X494283Y412049D01*
X494283Y415991D01*
X495791Y419632D01*
X498578Y422419D01*
X502219Y423927D01*
X506161Y423927D01*
X509802Y422419D01*
X512589Y419632D01*
X514097Y415991D01*
X514097Y412049D01*
X512589Y408408D01*
X509802Y405621D01*
X506161Y404113D01*
X502219Y404113D01*
G37*
%LPD*%
%LPC*%
G36*
X550625Y89885D02*
X550625Y89885D01*
X547253Y91282D01*
X544672Y93863D01*
X543275Y97235D01*
X543275Y100885D01*
X544672Y104257D01*
X547253Y106838D01*
X550625Y108235D01*
X554275Y108235D01*
X557647Y106838D01*
X560228Y104257D01*
X561625Y100885D01*
X561625Y97235D01*
X560228Y93863D01*
X557647Y91282D01*
X554275Y89885D01*
X550625Y89885D01*
G37*
%LPD*%
%LPC*%
G36*
X240751Y209295D02*
X240751Y209295D01*
X237390Y210687D01*
X234817Y213260D01*
X233425Y216621D01*
X233425Y220259D01*
X234817Y223620D01*
X237390Y226193D01*
X240751Y227585D01*
X244389Y227585D01*
X247750Y226193D01*
X250323Y223620D01*
X251715Y220259D01*
X251715Y216621D01*
X250323Y213260D01*
X247750Y210687D01*
X244389Y209295D01*
X240751Y209295D01*
G37*
%LPD*%
%LPC*%
G36*
X215351Y209295D02*
X215351Y209295D01*
X211990Y210687D01*
X209417Y213260D01*
X208025Y216621D01*
X208025Y220259D01*
X209417Y223620D01*
X211990Y226193D01*
X215351Y227585D01*
X218989Y227585D01*
X222350Y226193D01*
X224923Y223620D01*
X226315Y220259D01*
X226315Y216621D01*
X224923Y213260D01*
X222350Y210687D01*
X218989Y209295D01*
X215351Y209295D01*
G37*
%LPD*%
%LPC*%
G36*
X189951Y209295D02*
X189951Y209295D01*
X186590Y210687D01*
X184017Y213260D01*
X182625Y216621D01*
X182625Y220259D01*
X184017Y223620D01*
X186590Y226193D01*
X189951Y227585D01*
X193589Y227585D01*
X196950Y226193D01*
X199523Y223620D01*
X200915Y220259D01*
X200915Y216621D01*
X199523Y213260D01*
X196950Y210687D01*
X193589Y209295D01*
X189951Y209295D01*
G37*
%LPD*%
%LPC*%
G36*
X164551Y209295D02*
X164551Y209295D01*
X161190Y210687D01*
X158617Y213260D01*
X157225Y216621D01*
X157225Y220259D01*
X158617Y223620D01*
X161190Y226193D01*
X164551Y227585D01*
X168189Y227585D01*
X171550Y226193D01*
X174123Y223620D01*
X175515Y220259D01*
X175515Y216621D01*
X174123Y213260D01*
X171550Y210687D01*
X168189Y209295D01*
X164551Y209295D01*
G37*
%LPD*%
%LPC*%
G36*
X139151Y209295D02*
X139151Y209295D01*
X135790Y210687D01*
X133217Y213260D01*
X131825Y216621D01*
X131825Y220259D01*
X133217Y223620D01*
X135790Y226193D01*
X139151Y227585D01*
X142789Y227585D01*
X146150Y226193D01*
X148723Y223620D01*
X150115Y220259D01*
X150115Y216621D01*
X148723Y213260D01*
X146150Y210687D01*
X142789Y209295D01*
X139151Y209295D01*
G37*
%LPD*%
%LPC*%
G36*
X113751Y209295D02*
X113751Y209295D01*
X110390Y210687D01*
X107817Y213260D01*
X106425Y216621D01*
X106425Y220259D01*
X107817Y223620D01*
X110390Y226193D01*
X113751Y227585D01*
X117389Y227585D01*
X120750Y226193D01*
X123323Y223620D01*
X124715Y220259D01*
X124715Y216621D01*
X123323Y213260D01*
X120750Y210687D01*
X117389Y209295D01*
X113751Y209295D01*
G37*
%LPD*%
%LPC*%
G36*
X88351Y209295D02*
X88351Y209295D01*
X84990Y210687D01*
X82417Y213260D01*
X81025Y216621D01*
X81025Y220259D01*
X82417Y223620D01*
X84990Y226193D01*
X88351Y227585D01*
X91989Y227585D01*
X95350Y226193D01*
X97923Y223620D01*
X99315Y220259D01*
X99315Y216621D01*
X97923Y213260D01*
X95350Y210687D01*
X91989Y209295D01*
X88351Y209295D01*
G37*
%LPD*%
%LPC*%
G36*
X62951Y209295D02*
X62951Y209295D01*
X59590Y210687D01*
X57017Y213260D01*
X55625Y216621D01*
X55625Y220259D01*
X57017Y223620D01*
X59590Y226193D01*
X62951Y227585D01*
X66589Y227585D01*
X69950Y226193D01*
X72523Y223620D01*
X73915Y220259D01*
X73915Y216621D01*
X72523Y213260D01*
X69950Y210687D01*
X66589Y209295D01*
X62951Y209295D01*
G37*
%LPD*%
%LPC*%
G36*
X164551Y56895D02*
X164551Y56895D01*
X161190Y58287D01*
X158617Y60860D01*
X157225Y64221D01*
X157225Y67859D01*
X158617Y71220D01*
X161190Y73793D01*
X164551Y75185D01*
X168189Y75185D01*
X171550Y73793D01*
X174123Y71220D01*
X175515Y67859D01*
X175515Y64221D01*
X174123Y60860D01*
X171550Y58287D01*
X168189Y56895D01*
X164551Y56895D01*
G37*
%LPD*%
%LPC*%
G36*
X139151Y56895D02*
X139151Y56895D01*
X135790Y58287D01*
X133217Y60860D01*
X131825Y64221D01*
X131825Y67859D01*
X133217Y71220D01*
X135790Y73793D01*
X139151Y75185D01*
X142789Y75185D01*
X146150Y73793D01*
X148723Y71220D01*
X150115Y67859D01*
X150115Y64221D01*
X148723Y60860D01*
X146150Y58287D01*
X142789Y56895D01*
X139151Y56895D01*
G37*
%LPD*%
%LPC*%
G36*
X266151Y209295D02*
X266151Y209295D01*
X262790Y210687D01*
X260217Y213260D01*
X258825Y216621D01*
X258825Y220259D01*
X260217Y223620D01*
X262790Y226193D01*
X266151Y227585D01*
X269789Y227585D01*
X273150Y226193D01*
X275723Y223620D01*
X277115Y220259D01*
X277115Y216621D01*
X275723Y213260D01*
X273150Y210687D01*
X269789Y209295D01*
X266151Y209295D01*
G37*
%LPD*%
%LPC*%
G36*
X62951Y56895D02*
X62951Y56895D01*
X59590Y58287D01*
X57017Y60860D01*
X55625Y64221D01*
X55625Y67859D01*
X57017Y71220D01*
X59590Y73793D01*
X62951Y75185D01*
X66589Y75185D01*
X69950Y73793D01*
X72523Y71220D01*
X73915Y67859D01*
X73915Y64221D01*
X72523Y60860D01*
X69950Y58287D01*
X66589Y56895D01*
X62951Y56895D01*
G37*
%LPD*%
%LPC*%
G36*
X88351Y56895D02*
X88351Y56895D01*
X84990Y58287D01*
X82417Y60860D01*
X81025Y64221D01*
X81025Y67859D01*
X82417Y71220D01*
X84990Y73793D01*
X88351Y75185D01*
X91989Y75185D01*
X95350Y73793D01*
X97923Y71220D01*
X99315Y67859D01*
X99315Y64221D01*
X97923Y60860D01*
X95350Y58287D01*
X91989Y56895D01*
X88351Y56895D01*
G37*
%LPD*%
%LPC*%
G36*
X291551Y209295D02*
X291551Y209295D01*
X288190Y210687D01*
X285617Y213260D01*
X284225Y216621D01*
X284225Y220259D01*
X285617Y223620D01*
X288190Y226193D01*
X291551Y227585D01*
X295189Y227585D01*
X298550Y226193D01*
X301123Y223620D01*
X302515Y220259D01*
X302515Y216621D01*
X301123Y213260D01*
X298550Y210687D01*
X295189Y209295D01*
X291551Y209295D01*
G37*
%LPD*%
%LPC*%
G36*
X113751Y56895D02*
X113751Y56895D01*
X110390Y58287D01*
X107817Y60860D01*
X106425Y64221D01*
X106425Y67859D01*
X107817Y71220D01*
X110390Y73793D01*
X113751Y75185D01*
X117389Y75185D01*
X120750Y73793D01*
X123323Y71220D01*
X124715Y67859D01*
X124715Y64221D01*
X123323Y60860D01*
X120750Y58287D01*
X117389Y56895D01*
X113751Y56895D01*
G37*
%LPD*%
%LPC*%
G36*
X342351Y56895D02*
X342351Y56895D01*
X338990Y58287D01*
X336417Y60860D01*
X335025Y64221D01*
X335025Y67859D01*
X336417Y71220D01*
X338990Y73793D01*
X342351Y75185D01*
X345989Y75185D01*
X349350Y73793D01*
X351923Y71220D01*
X353315Y67859D01*
X353315Y64221D01*
X351923Y60860D01*
X349350Y58287D01*
X345989Y56895D01*
X342351Y56895D01*
G37*
%LPD*%
%LPC*%
G36*
X316951Y56895D02*
X316951Y56895D01*
X313590Y58287D01*
X311017Y60860D01*
X309625Y64221D01*
X309625Y67859D01*
X311017Y71220D01*
X313590Y73793D01*
X316951Y75185D01*
X320589Y75185D01*
X323950Y73793D01*
X326523Y71220D01*
X327915Y67859D01*
X327915Y64221D01*
X326523Y60860D01*
X323950Y58287D01*
X320589Y56895D01*
X316951Y56895D01*
G37*
%LPD*%
%LPC*%
G36*
X342351Y209295D02*
X342351Y209295D01*
X338990Y210687D01*
X336417Y213260D01*
X335025Y216621D01*
X335025Y220259D01*
X336417Y223620D01*
X338990Y226193D01*
X342351Y227585D01*
X345989Y227585D01*
X349350Y226193D01*
X351923Y223620D01*
X353315Y220259D01*
X353315Y216621D01*
X351923Y213260D01*
X349350Y210687D01*
X345989Y209295D01*
X342351Y209295D01*
G37*
%LPD*%
%LPC*%
G36*
X367751Y209295D02*
X367751Y209295D01*
X364390Y210687D01*
X361817Y213260D01*
X360425Y216621D01*
X360425Y220259D01*
X361817Y223620D01*
X364390Y226193D01*
X367751Y227585D01*
X371389Y227585D01*
X374750Y226193D01*
X377323Y223620D01*
X378715Y220259D01*
X378715Y216621D01*
X377323Y213260D01*
X374750Y210687D01*
X371389Y209295D01*
X367751Y209295D01*
G37*
%LPD*%
%LPC*%
G36*
X189951Y56895D02*
X189951Y56895D01*
X186590Y58287D01*
X184017Y60860D01*
X182625Y64221D01*
X182625Y67859D01*
X184017Y71220D01*
X186590Y73793D01*
X189951Y75185D01*
X193589Y75185D01*
X196950Y73793D01*
X199523Y71220D01*
X200915Y67859D01*
X200915Y64221D01*
X199523Y60860D01*
X196950Y58287D01*
X193589Y56895D01*
X189951Y56895D01*
G37*
%LPD*%
%LPC*%
G36*
X266151Y56895D02*
X266151Y56895D01*
X262790Y58287D01*
X260217Y60860D01*
X258825Y64221D01*
X258825Y67859D01*
X260217Y71220D01*
X262790Y73793D01*
X266151Y75185D01*
X269789Y75185D01*
X273150Y73793D01*
X275723Y71220D01*
X277115Y67859D01*
X277115Y64221D01*
X275723Y60860D01*
X273150Y58287D01*
X269789Y56895D01*
X266151Y56895D01*
G37*
%LPD*%
%LPC*%
G36*
X291551Y56895D02*
X291551Y56895D01*
X288190Y58287D01*
X285617Y60860D01*
X284225Y64221D01*
X284225Y67859D01*
X285617Y71220D01*
X288190Y73793D01*
X291551Y75185D01*
X295189Y75185D01*
X298550Y73793D01*
X301123Y71220D01*
X302515Y67859D01*
X302515Y64221D01*
X301123Y60860D01*
X298550Y58287D01*
X295189Y56895D01*
X291551Y56895D01*
G37*
%LPD*%
%LPC*%
G36*
X554999Y152409D02*
X554999Y152409D01*
X554999Y160051D01*
X560434Y160051D01*
X561081Y159878D01*
X561660Y159543D01*
X562133Y159070D01*
X562468Y158491D01*
X562641Y157844D01*
X562641Y152409D01*
X554999Y152409D01*
G37*
%LPD*%
%LPC*%
G36*
X554999Y139669D02*
X554999Y139669D01*
X554999Y147311D01*
X562641Y147311D01*
X562641Y141876D01*
X562468Y141229D01*
X562133Y140650D01*
X561660Y140177D01*
X561081Y139842D01*
X560434Y139669D01*
X554999Y139669D01*
G37*
%LPD*%
%LPC*%
G36*
X542259Y152409D02*
X542259Y152409D01*
X542259Y157844D01*
X542432Y158491D01*
X542767Y159070D01*
X543240Y159543D01*
X543819Y159878D01*
X544466Y160051D01*
X549901Y160051D01*
X549901Y152409D01*
X542259Y152409D01*
G37*
%LPD*%
%LPC*%
G36*
X321309Y220979D02*
X321309Y220979D01*
X321309Y228299D01*
X322670Y227856D01*
X324095Y227130D01*
X325389Y226190D01*
X326520Y225059D01*
X327460Y223765D01*
X328186Y222340D01*
X328629Y220979D01*
X321309Y220979D01*
G37*
%LPD*%
%LPC*%
G36*
X372109Y68579D02*
X372109Y68579D01*
X372109Y75899D01*
X373470Y75456D01*
X374895Y74730D01*
X376189Y73790D01*
X377320Y72659D01*
X378260Y71365D01*
X378986Y69940D01*
X379429Y68579D01*
X372109Y68579D01*
G37*
%LPD*%
%LPC*%
G36*
X308911Y220979D02*
X308911Y220979D01*
X309354Y222340D01*
X310080Y223765D01*
X311020Y225059D01*
X312151Y226190D01*
X313445Y227130D01*
X314870Y227856D01*
X316231Y228299D01*
X316231Y220979D01*
X308911Y220979D01*
G37*
%LPD*%
%LPC*%
G36*
X359711Y68579D02*
X359711Y68579D01*
X360154Y69940D01*
X360880Y71365D01*
X361820Y72659D01*
X362951Y73790D01*
X364245Y74730D01*
X365670Y75456D01*
X367031Y75899D01*
X367031Y68579D01*
X359711Y68579D01*
G37*
%LPD*%
%LPC*%
G36*
X321309Y215901D02*
X321309Y215901D01*
X328629Y215901D01*
X328186Y214540D01*
X327460Y213115D01*
X326520Y211821D01*
X325389Y210690D01*
X324095Y209750D01*
X322670Y209024D01*
X321309Y208581D01*
X321309Y215901D01*
G37*
%LPD*%
%LPC*%
G36*
X372109Y63501D02*
X372109Y63501D01*
X379429Y63501D01*
X378986Y62140D01*
X378260Y60715D01*
X377320Y59421D01*
X376189Y58290D01*
X374895Y57350D01*
X373470Y56624D01*
X372109Y56181D01*
X372109Y63501D01*
G37*
%LPD*%
%LPC*%
G36*
X314870Y209024D02*
X314870Y209024D01*
X313445Y209750D01*
X312151Y210690D01*
X311020Y211821D01*
X310080Y213115D01*
X309354Y214540D01*
X308911Y215901D01*
X316231Y215901D01*
X316231Y208581D01*
X314870Y209024D01*
G37*
%LPD*%
%LPC*%
G36*
X365670Y56624D02*
X365670Y56624D01*
X364245Y57350D01*
X362951Y58290D01*
X361820Y59421D01*
X360880Y60715D01*
X360154Y62140D01*
X359711Y63501D01*
X367031Y63501D01*
X367031Y56181D01*
X365670Y56624D01*
G37*
%LPD*%
D10*
X552450Y149860D03*
D11*
X552450Y124460D03*
X552450Y99060D03*
X552450Y73660D03*
D12*
X554990Y289560D03*
X554990Y314560D03*
X554990Y340360D03*
D13*
X529590Y414020D03*
X504190Y414020D03*
X554990Y414020D03*
D14*
X39370Y66040D03*
D15*
X64770Y66040D03*
X90170Y66040D03*
X115570Y66040D03*
X140970Y66040D03*
X166370Y66040D03*
X191770Y66040D03*
X217170Y66040D03*
X242570Y66040D03*
X267970Y66040D03*
X293370Y66040D03*
X318770Y66040D03*
X344170Y66040D03*
X369570Y66040D03*
X394970Y66040D03*
X394970Y218440D03*
X369570Y218440D03*
X344170Y218440D03*
X318770Y218440D03*
X293370Y218440D03*
X267970Y218440D03*
X242570Y218440D03*
X217170Y218440D03*
X191770Y218440D03*
X166370Y218440D03*
X140970Y218440D03*
X115570Y218440D03*
X90170Y218440D03*
X64770Y218440D03*
X39370Y218440D03*
D16*
X557530Y236220D03*
X557530Y198120D03*
D17*
X341630Y190500D02*
X217170Y66040D01*
X341630Y190500D02*
X346710Y190500D01*
D18*
X346710Y190500D03*
X458470Y200660D03*
D17*
X519430Y139700D01*
X519430Y109220D01*
D18*
X519430Y109220D03*
D17*
X519430Y91440D02*
X552450Y124460D01*
X519430Y91440D02*
X509270Y91440D01*
D18*
X509270Y91440D03*
X450850Y218440D03*
D17*
X458470Y218440D02*
X552450Y124460D01*
X458470Y218440D02*
X450850Y218440D01*
X449100Y218440D01*
X428785Y198125D01*
X374655Y198125D02*
X242570Y66040D01*
X374655Y198125D02*
X428785Y198125D01*
D18*
X299720Y285750D03*
X283210Y266700D03*
X270510Y284480D03*
D19*
X472440Y73660D02*
X552450Y73660D01*
X412750Y133350D02*
X412750Y142240D01*
X412750Y156210D01*
X412750Y171450D01*
X412750Y133350D02*
X472440Y73660D01*
D18*
X412750Y171450D03*
X412750Y156210D03*
X412750Y142240D03*
D20*
X532130Y391160D02*
X554990Y414020D01*
X532130Y391160D02*
X532130Y335280D01*
X552850Y314560D01*
X554990Y314560D01*
M02*
