G04 EAGLE Gerber RS-274X export*
G75*
%MOMM*%
%FSLAX34Y34*%
%LPD*%
%IN*%
%IPPOS*%
%AMOC8*
5,1,8,0,0,1.08239X$1,22.5*%
G01*
%ADD10C,0.254000*%


D10*
X-2540Y512980D02*
X0Y0D01*
X607570Y-1270D01*
X605030Y511710D01*
X-2540Y512980D01*
X55880Y23554D02*
X55811Y22405D01*
X55672Y21262D01*
X55464Y20130D01*
X55189Y19012D01*
X54846Y17913D01*
X54438Y16837D01*
X53965Y15787D01*
X53430Y14767D01*
X52835Y13782D01*
X52181Y12835D01*
X51471Y11928D01*
X50707Y11067D01*
X49893Y10253D01*
X49032Y9489D01*
X48125Y8779D01*
X47178Y8125D01*
X46193Y7530D01*
X45173Y6995D01*
X44123Y6522D01*
X43047Y6114D01*
X41948Y5771D01*
X40830Y5496D01*
X39698Y5288D01*
X38555Y5150D01*
X37406Y5080D01*
X36254Y5080D01*
X35105Y5150D01*
X33962Y5288D01*
X32830Y5496D01*
X31712Y5771D01*
X30613Y6114D01*
X29537Y6522D01*
X28487Y6995D01*
X27467Y7530D01*
X26482Y8125D01*
X25535Y8779D01*
X24628Y9489D01*
X23767Y10253D01*
X22953Y11067D01*
X22189Y11928D01*
X21479Y12835D01*
X20825Y13782D01*
X20230Y14767D01*
X19695Y15787D01*
X19222Y16837D01*
X18814Y17913D01*
X18471Y19012D01*
X18196Y20130D01*
X17988Y21262D01*
X17850Y22405D01*
X17780Y23554D01*
X17780Y24706D01*
X17850Y25855D01*
X17988Y26998D01*
X18196Y28130D01*
X18471Y29248D01*
X18814Y30347D01*
X19222Y31423D01*
X19695Y32473D01*
X20230Y33493D01*
X20825Y34478D01*
X21479Y35425D01*
X22189Y36332D01*
X22953Y37193D01*
X23767Y38007D01*
X24628Y38771D01*
X25535Y39481D01*
X26482Y40135D01*
X27467Y40730D01*
X28487Y41265D01*
X29537Y41738D01*
X30613Y42146D01*
X31712Y42489D01*
X32830Y42764D01*
X33962Y42972D01*
X35105Y43111D01*
X36254Y43180D01*
X37406Y43180D01*
X38555Y43111D01*
X39698Y42972D01*
X40830Y42764D01*
X41948Y42489D01*
X43047Y42146D01*
X44123Y41738D01*
X45173Y41265D01*
X46193Y40730D01*
X47178Y40135D01*
X48125Y39481D01*
X49032Y38771D01*
X49893Y38007D01*
X50707Y37193D01*
X51471Y36332D01*
X52181Y35425D01*
X52835Y34478D01*
X53430Y33493D01*
X53965Y32473D01*
X54438Y31423D01*
X54846Y30347D01*
X55189Y29248D01*
X55464Y28130D01*
X55672Y26998D01*
X55811Y25855D01*
X55880Y24706D01*
X55880Y23554D01*
X598170Y22284D02*
X598101Y21135D01*
X597962Y19992D01*
X597754Y18860D01*
X597479Y17742D01*
X597136Y16643D01*
X596728Y15567D01*
X596255Y14517D01*
X595720Y13497D01*
X595125Y12512D01*
X594471Y11565D01*
X593761Y10658D01*
X592997Y9797D01*
X592183Y8983D01*
X591322Y8219D01*
X590415Y7509D01*
X589468Y6855D01*
X588483Y6260D01*
X587463Y5725D01*
X586413Y5252D01*
X585337Y4844D01*
X584238Y4501D01*
X583120Y4226D01*
X581988Y4018D01*
X580845Y3880D01*
X579696Y3810D01*
X578544Y3810D01*
X577395Y3880D01*
X576252Y4018D01*
X575120Y4226D01*
X574002Y4501D01*
X572903Y4844D01*
X571827Y5252D01*
X570777Y5725D01*
X569757Y6260D01*
X568772Y6855D01*
X567825Y7509D01*
X566918Y8219D01*
X566057Y8983D01*
X565243Y9797D01*
X564479Y10658D01*
X563769Y11565D01*
X563115Y12512D01*
X562520Y13497D01*
X561985Y14517D01*
X561512Y15567D01*
X561104Y16643D01*
X560761Y17742D01*
X560486Y18860D01*
X560278Y19992D01*
X560140Y21135D01*
X560070Y22284D01*
X560070Y23436D01*
X560140Y24585D01*
X560278Y25728D01*
X560486Y26860D01*
X560761Y27978D01*
X561104Y29077D01*
X561512Y30153D01*
X561985Y31203D01*
X562520Y32223D01*
X563115Y33208D01*
X563769Y34155D01*
X564479Y35062D01*
X565243Y35923D01*
X566057Y36737D01*
X566918Y37501D01*
X567825Y38211D01*
X568772Y38865D01*
X569757Y39460D01*
X570777Y39995D01*
X571827Y40468D01*
X572903Y40876D01*
X574002Y41219D01*
X575120Y41494D01*
X576252Y41702D01*
X577395Y41841D01*
X578544Y41910D01*
X579696Y41910D01*
X580845Y41841D01*
X581988Y41702D01*
X583120Y41494D01*
X584238Y41219D01*
X585337Y40876D01*
X586413Y40468D01*
X587463Y39995D01*
X588483Y39460D01*
X589468Y38865D01*
X590415Y38211D01*
X591322Y37501D01*
X592183Y36737D01*
X592997Y35923D01*
X593761Y35062D01*
X594471Y34155D01*
X595125Y33208D01*
X595720Y32223D01*
X596255Y31203D01*
X596728Y30153D01*
X597136Y29077D01*
X597479Y27978D01*
X597754Y26860D01*
X597962Y25728D01*
X598101Y24585D01*
X598170Y23436D01*
X598170Y22284D01*
X588010Y482024D02*
X587941Y480875D01*
X587802Y479732D01*
X587594Y478600D01*
X587319Y477482D01*
X586976Y476383D01*
X586568Y475307D01*
X586095Y474257D01*
X585560Y473237D01*
X584965Y472252D01*
X584311Y471305D01*
X583601Y470398D01*
X582837Y469537D01*
X582023Y468723D01*
X581162Y467959D01*
X580255Y467249D01*
X579308Y466595D01*
X578323Y466000D01*
X577303Y465465D01*
X576253Y464992D01*
X575177Y464584D01*
X574078Y464241D01*
X572960Y463966D01*
X571828Y463758D01*
X570685Y463620D01*
X569536Y463550D01*
X568384Y463550D01*
X567235Y463620D01*
X566092Y463758D01*
X564960Y463966D01*
X563842Y464241D01*
X562743Y464584D01*
X561667Y464992D01*
X560617Y465465D01*
X559597Y466000D01*
X558612Y466595D01*
X557665Y467249D01*
X556758Y467959D01*
X555897Y468723D01*
X555083Y469537D01*
X554319Y470398D01*
X553609Y471305D01*
X552955Y472252D01*
X552360Y473237D01*
X551825Y474257D01*
X551352Y475307D01*
X550944Y476383D01*
X550601Y477482D01*
X550326Y478600D01*
X550118Y479732D01*
X549980Y480875D01*
X549910Y482024D01*
X549910Y483176D01*
X549980Y484325D01*
X550118Y485468D01*
X550326Y486600D01*
X550601Y487718D01*
X550944Y488817D01*
X551352Y489893D01*
X551825Y490943D01*
X552360Y491963D01*
X552955Y492948D01*
X553609Y493895D01*
X554319Y494802D01*
X555083Y495663D01*
X555897Y496477D01*
X556758Y497241D01*
X557665Y497951D01*
X558612Y498605D01*
X559597Y499200D01*
X560617Y499735D01*
X561667Y500208D01*
X562743Y500616D01*
X563842Y500959D01*
X564960Y501234D01*
X566092Y501442D01*
X567235Y501581D01*
X568384Y501650D01*
X569536Y501650D01*
X570685Y501581D01*
X571828Y501442D01*
X572960Y501234D01*
X574078Y500959D01*
X575177Y500616D01*
X576253Y500208D01*
X577303Y499735D01*
X578323Y499200D01*
X579308Y498605D01*
X580255Y497951D01*
X581162Y497241D01*
X582023Y496477D01*
X582837Y495663D01*
X583601Y494802D01*
X584311Y493895D01*
X584965Y492948D01*
X585560Y491963D01*
X586095Y490943D01*
X586568Y489893D01*
X586976Y488817D01*
X587319Y487718D01*
X587594Y486600D01*
X587802Y485468D01*
X587941Y484325D01*
X588010Y483176D01*
X588010Y482024D01*
X52070Y484564D02*
X52001Y483415D01*
X51862Y482272D01*
X51654Y481140D01*
X51379Y480022D01*
X51036Y478923D01*
X50628Y477847D01*
X50155Y476797D01*
X49620Y475777D01*
X49025Y474792D01*
X48371Y473845D01*
X47661Y472938D01*
X46897Y472077D01*
X46083Y471263D01*
X45222Y470499D01*
X44315Y469789D01*
X43368Y469135D01*
X42383Y468540D01*
X41363Y468005D01*
X40313Y467532D01*
X39237Y467124D01*
X38138Y466781D01*
X37020Y466506D01*
X35888Y466298D01*
X34745Y466160D01*
X33596Y466090D01*
X32444Y466090D01*
X31295Y466160D01*
X30152Y466298D01*
X29020Y466506D01*
X27902Y466781D01*
X26803Y467124D01*
X25727Y467532D01*
X24677Y468005D01*
X23657Y468540D01*
X22672Y469135D01*
X21725Y469789D01*
X20818Y470499D01*
X19957Y471263D01*
X19143Y472077D01*
X18379Y472938D01*
X17669Y473845D01*
X17015Y474792D01*
X16420Y475777D01*
X15885Y476797D01*
X15412Y477847D01*
X15004Y478923D01*
X14661Y480022D01*
X14386Y481140D01*
X14178Y482272D01*
X14040Y483415D01*
X13970Y484564D01*
X13970Y485716D01*
X14040Y486865D01*
X14178Y488008D01*
X14386Y489140D01*
X14661Y490258D01*
X15004Y491357D01*
X15412Y492433D01*
X15885Y493483D01*
X16420Y494503D01*
X17015Y495488D01*
X17669Y496435D01*
X18379Y497342D01*
X19143Y498203D01*
X19957Y499017D01*
X20818Y499781D01*
X21725Y500491D01*
X22672Y501145D01*
X23657Y501740D01*
X24677Y502275D01*
X25727Y502748D01*
X26803Y503156D01*
X27902Y503499D01*
X29020Y503774D01*
X30152Y503982D01*
X31295Y504121D01*
X32444Y504190D01*
X33596Y504190D01*
X34745Y504121D01*
X35888Y503982D01*
X37020Y503774D01*
X38138Y503499D01*
X39237Y503156D01*
X40313Y502748D01*
X41363Y502275D01*
X42383Y501740D01*
X43368Y501145D01*
X44315Y500491D01*
X45222Y499781D01*
X46083Y499017D01*
X46897Y498203D01*
X47661Y497342D01*
X48371Y496435D01*
X49025Y495488D01*
X49620Y494503D01*
X50155Y493483D01*
X50628Y492433D01*
X51036Y491357D01*
X51379Y490258D01*
X51654Y489140D01*
X51862Y488008D01*
X52001Y486865D01*
X52070Y485716D01*
X52070Y484564D01*
X580699Y295060D02*
X581313Y294991D01*
X581915Y294853D01*
X582498Y294649D01*
X583055Y294381D01*
X583578Y294053D01*
X584061Y293668D01*
X584498Y293231D01*
X584883Y292748D01*
X585211Y292225D01*
X585479Y291668D01*
X585683Y291085D01*
X585821Y290483D01*
X585890Y289869D01*
X585890Y289251D01*
X585821Y288637D01*
X585683Y288035D01*
X585479Y287452D01*
X585211Y286895D01*
X584883Y286372D01*
X584498Y285889D01*
X584061Y285453D01*
X583578Y285067D01*
X583055Y284739D01*
X582498Y284471D01*
X581915Y284267D01*
X581313Y284129D01*
X580699Y284060D01*
X580081Y284060D01*
X579467Y284129D01*
X578865Y284267D01*
X578282Y284471D01*
X577725Y284739D01*
X577202Y285067D01*
X576719Y285453D01*
X576283Y285889D01*
X575897Y286372D01*
X575569Y286895D01*
X575301Y287452D01*
X575097Y288035D01*
X574959Y288637D01*
X574890Y289251D01*
X574890Y289869D01*
X574959Y290483D01*
X575097Y291085D01*
X575301Y291668D01*
X575569Y292225D01*
X575897Y292748D01*
X576283Y293231D01*
X576719Y293668D01*
X577202Y294053D01*
X577725Y294381D01*
X578282Y294649D01*
X578865Y294853D01*
X579467Y294991D01*
X580081Y295060D01*
X580699Y295060D01*
X580699Y320460D02*
X581313Y320391D01*
X581915Y320253D01*
X582498Y320049D01*
X583055Y319781D01*
X583578Y319453D01*
X584061Y319068D01*
X584498Y318631D01*
X584883Y318148D01*
X585211Y317625D01*
X585479Y317068D01*
X585683Y316485D01*
X585821Y315883D01*
X585890Y315269D01*
X585890Y314651D01*
X585821Y314037D01*
X585683Y313435D01*
X585479Y312852D01*
X585211Y312295D01*
X584883Y311772D01*
X584498Y311289D01*
X584061Y310853D01*
X583578Y310467D01*
X583055Y310139D01*
X582498Y309871D01*
X581915Y309667D01*
X581313Y309529D01*
X580699Y309460D01*
X580081Y309460D01*
X579467Y309529D01*
X578865Y309667D01*
X578282Y309871D01*
X577725Y310139D01*
X577202Y310467D01*
X576719Y310853D01*
X576283Y311289D01*
X575897Y311772D01*
X575569Y312295D01*
X575301Y312852D01*
X575097Y313435D01*
X574959Y314037D01*
X574890Y314651D01*
X574890Y315269D01*
X574959Y315883D01*
X575097Y316485D01*
X575301Y317068D01*
X575569Y317625D01*
X575897Y318148D01*
X576283Y318631D01*
X576719Y319068D01*
X577202Y319453D01*
X577725Y319781D01*
X578282Y320049D01*
X578865Y320253D01*
X579467Y320391D01*
X580081Y320460D01*
X580699Y320460D01*
X580699Y345860D02*
X581313Y345791D01*
X581915Y345653D01*
X582498Y345449D01*
X583055Y345181D01*
X583578Y344853D01*
X584061Y344468D01*
X584498Y344031D01*
X584883Y343548D01*
X585211Y343025D01*
X585479Y342468D01*
X585683Y341885D01*
X585821Y341283D01*
X585890Y340669D01*
X585890Y340051D01*
X585821Y339437D01*
X585683Y338835D01*
X585479Y338252D01*
X585211Y337695D01*
X584883Y337172D01*
X584498Y336689D01*
X584061Y336253D01*
X583578Y335867D01*
X583055Y335539D01*
X582498Y335271D01*
X581915Y335067D01*
X581313Y334929D01*
X580699Y334860D01*
X580081Y334860D01*
X579467Y334929D01*
X578865Y335067D01*
X578282Y335271D01*
X577725Y335539D01*
X577202Y335867D01*
X576719Y336253D01*
X576283Y336689D01*
X575897Y337172D01*
X575569Y337695D01*
X575301Y338252D01*
X575097Y338835D01*
X574959Y339437D01*
X574890Y340051D01*
X574890Y340669D01*
X574959Y341283D01*
X575097Y341885D01*
X575301Y342468D01*
X575569Y343025D01*
X575897Y343548D01*
X576283Y344031D01*
X576719Y344468D01*
X577202Y344853D01*
X577725Y345181D01*
X578282Y345449D01*
X578865Y345653D01*
X579467Y345791D01*
X580081Y345860D01*
X580699Y345860D01*
X22220Y65635D02*
X22141Y64828D01*
X21982Y64033D01*
X21747Y63257D01*
X21437Y62508D01*
X21055Y61794D01*
X20604Y61120D01*
X20090Y60493D01*
X19517Y59920D01*
X18890Y59406D01*
X18216Y58955D01*
X17502Y58573D01*
X16753Y58263D01*
X15977Y58028D01*
X15182Y57869D01*
X14375Y57790D01*
X13565Y57790D01*
X12758Y57869D01*
X11963Y58028D01*
X11187Y58263D01*
X10438Y58573D01*
X9724Y58955D01*
X9050Y59406D01*
X8423Y59920D01*
X7850Y60493D01*
X7336Y61120D01*
X6885Y61794D01*
X6503Y62508D01*
X6193Y63257D01*
X5958Y64033D01*
X5799Y64828D01*
X5720Y65635D01*
X5720Y66445D01*
X5799Y67252D01*
X5958Y68047D01*
X6193Y68823D01*
X6503Y69572D01*
X6885Y70286D01*
X7336Y70960D01*
X7850Y71587D01*
X8423Y72160D01*
X9050Y72674D01*
X9724Y73125D01*
X10438Y73507D01*
X11187Y73817D01*
X11963Y74052D01*
X12758Y74211D01*
X13565Y74290D01*
X14375Y74290D01*
X15182Y74211D01*
X15977Y74052D01*
X16753Y73817D01*
X17502Y73507D01*
X18216Y73125D01*
X18890Y72674D01*
X19517Y72160D01*
X20090Y71587D01*
X20604Y70960D01*
X21055Y70286D01*
X21437Y69572D01*
X21747Y68823D01*
X21982Y68047D01*
X22141Y67252D01*
X22220Y66445D01*
X22220Y65635D01*
X22220Y218035D02*
X22141Y217228D01*
X21982Y216433D01*
X21747Y215657D01*
X21437Y214908D01*
X21055Y214194D01*
X20604Y213520D01*
X20090Y212893D01*
X19517Y212320D01*
X18890Y211806D01*
X18216Y211355D01*
X17502Y210973D01*
X16753Y210663D01*
X15977Y210428D01*
X15182Y210269D01*
X14375Y210190D01*
X13565Y210190D01*
X12758Y210269D01*
X11963Y210428D01*
X11187Y210663D01*
X10438Y210973D01*
X9724Y211355D01*
X9050Y211806D01*
X8423Y212320D01*
X7850Y212893D01*
X7336Y213520D01*
X6885Y214194D01*
X6503Y214908D01*
X6193Y215657D01*
X5958Y216433D01*
X5799Y217228D01*
X5720Y218035D01*
X5720Y218845D01*
X5799Y219652D01*
X5958Y220447D01*
X6193Y221223D01*
X6503Y221972D01*
X6885Y222686D01*
X7336Y223360D01*
X7850Y223987D01*
X8423Y224560D01*
X9050Y225074D01*
X9724Y225525D01*
X10438Y225907D01*
X11187Y226217D01*
X11963Y226452D01*
X12758Y226611D01*
X13565Y226690D01*
X14375Y226690D01*
X15182Y226611D01*
X15977Y226452D01*
X16753Y226217D01*
X17502Y225907D01*
X18216Y225525D01*
X18890Y225074D01*
X19517Y224560D01*
X20090Y223987D01*
X20604Y223360D01*
X21055Y222686D01*
X21437Y221972D01*
X21747Y221223D01*
X21982Y220447D01*
X22141Y219652D01*
X22220Y218845D01*
X22220Y218035D01*
X428620Y218035D02*
X428541Y217228D01*
X428382Y216433D01*
X428147Y215657D01*
X427837Y214908D01*
X427455Y214194D01*
X427004Y213520D01*
X426490Y212893D01*
X425917Y212320D01*
X425290Y211806D01*
X424616Y211355D01*
X423902Y210973D01*
X423153Y210663D01*
X422377Y210428D01*
X421582Y210269D01*
X420775Y210190D01*
X419965Y210190D01*
X419158Y210269D01*
X418363Y210428D01*
X417587Y210663D01*
X416838Y210973D01*
X416124Y211355D01*
X415450Y211806D01*
X414823Y212320D01*
X414250Y212893D01*
X413736Y213520D01*
X413285Y214194D01*
X412903Y214908D01*
X412593Y215657D01*
X412358Y216433D01*
X412199Y217228D01*
X412120Y218035D01*
X412120Y218845D01*
X412199Y219652D01*
X412358Y220447D01*
X412593Y221223D01*
X412903Y221972D01*
X413285Y222686D01*
X413736Y223360D01*
X414250Y223987D01*
X414823Y224560D01*
X415450Y225074D01*
X416124Y225525D01*
X416838Y225907D01*
X417587Y226217D01*
X418363Y226452D01*
X419158Y226611D01*
X419965Y226690D01*
X420775Y226690D01*
X421582Y226611D01*
X422377Y226452D01*
X423153Y226217D01*
X423902Y225907D01*
X424616Y225525D01*
X425290Y225074D01*
X425917Y224560D01*
X426490Y223987D01*
X427004Y223360D01*
X427455Y222686D01*
X427837Y221972D01*
X428147Y221223D01*
X428382Y220447D01*
X428541Y219652D01*
X428620Y218845D01*
X428620Y218035D01*
X428620Y65635D02*
X428541Y64828D01*
X428382Y64033D01*
X428147Y63257D01*
X427837Y62508D01*
X427455Y61794D01*
X427004Y61120D01*
X426490Y60493D01*
X425917Y59920D01*
X425290Y59406D01*
X424616Y58955D01*
X423902Y58573D01*
X423153Y58263D01*
X422377Y58028D01*
X421582Y57869D01*
X420775Y57790D01*
X419965Y57790D01*
X419158Y57869D01*
X418363Y58028D01*
X417587Y58263D01*
X416838Y58573D01*
X416124Y58955D01*
X415450Y59406D01*
X414823Y59920D01*
X414250Y60493D01*
X413736Y61120D01*
X413285Y61794D01*
X412903Y62508D01*
X412593Y63257D01*
X412358Y64033D01*
X412199Y64828D01*
X412120Y65635D01*
X412120Y66445D01*
X412199Y67252D01*
X412358Y68047D01*
X412593Y68823D01*
X412903Y69572D01*
X413285Y70286D01*
X413736Y70960D01*
X414250Y71587D01*
X414823Y72160D01*
X415450Y72674D01*
X416124Y73125D01*
X416838Y73507D01*
X417587Y73817D01*
X418363Y74052D01*
X419158Y74211D01*
X419965Y74290D01*
X420775Y74290D01*
X421582Y74211D01*
X422377Y74052D01*
X423153Y73817D01*
X423902Y73507D01*
X424616Y73125D01*
X425290Y72674D01*
X425917Y72160D01*
X426490Y71587D01*
X427004Y70960D01*
X427455Y70286D01*
X427837Y69572D01*
X428147Y68823D01*
X428382Y68047D01*
X428541Y67252D01*
X428620Y66445D01*
X428620Y65635D01*
M02*
