G04 EAGLE Gerber RS-274X export*
G75*
%MOMM*%
%FSLAX34Y34*%
%LPD*%
%INSilkscreen Top*%
%IPPOS*%
%AMOC8*
5,1,8,0,0,1.08239X$1,22.5*%
G01*
%ADD10C,0.152400*%
%ADD11C,0.050800*%
%ADD12C,0.200000*%
%ADD13C,0.101600*%
%ADD14C,0.127000*%
%ADD15C,0.076200*%
%ADD16C,0.050000*%


D10*
X497332Y451019D02*
X497332Y442891D01*
X497334Y442790D01*
X497340Y442689D01*
X497349Y442588D01*
X497362Y442487D01*
X497379Y442387D01*
X497400Y442288D01*
X497424Y442190D01*
X497452Y442093D01*
X497484Y441996D01*
X497519Y441901D01*
X497558Y441808D01*
X497600Y441716D01*
X497646Y441625D01*
X497695Y441537D01*
X497747Y441450D01*
X497803Y441365D01*
X497861Y441282D01*
X497923Y441202D01*
X497988Y441124D01*
X498055Y441048D01*
X498125Y440975D01*
X498198Y440905D01*
X498274Y440838D01*
X498352Y440773D01*
X498432Y440711D01*
X498515Y440653D01*
X498600Y440597D01*
X498687Y440545D01*
X498775Y440496D01*
X498866Y440450D01*
X498958Y440408D01*
X499051Y440369D01*
X499146Y440334D01*
X499243Y440302D01*
X499340Y440274D01*
X499438Y440250D01*
X499537Y440229D01*
X499637Y440212D01*
X499738Y440199D01*
X499839Y440190D01*
X499940Y440184D01*
X500041Y440182D01*
X504557Y440182D01*
X504557Y451019D01*
X512271Y456438D02*
X512271Y440182D01*
X512271Y456438D02*
X516787Y456438D01*
X516920Y456436D01*
X517052Y456430D01*
X517184Y456420D01*
X517316Y456407D01*
X517448Y456389D01*
X517578Y456368D01*
X517709Y456343D01*
X517838Y456314D01*
X517966Y456281D01*
X518094Y456245D01*
X518220Y456205D01*
X518345Y456161D01*
X518469Y456113D01*
X518591Y456062D01*
X518712Y456007D01*
X518831Y455949D01*
X518949Y455887D01*
X519064Y455822D01*
X519178Y455753D01*
X519289Y455682D01*
X519398Y455606D01*
X519505Y455528D01*
X519610Y455447D01*
X519712Y455362D01*
X519812Y455275D01*
X519909Y455185D01*
X520004Y455092D01*
X520095Y454996D01*
X520184Y454898D01*
X520270Y454797D01*
X520353Y454693D01*
X520433Y454587D01*
X520509Y454479D01*
X520583Y454369D01*
X520653Y454256D01*
X520720Y454142D01*
X520783Y454025D01*
X520843Y453907D01*
X520900Y453787D01*
X520953Y453665D01*
X521002Y453542D01*
X521048Y453418D01*
X521090Y453292D01*
X521128Y453165D01*
X521163Y453037D01*
X521194Y452908D01*
X521221Y452779D01*
X521244Y452648D01*
X521264Y452517D01*
X521279Y452385D01*
X521291Y452253D01*
X521299Y452121D01*
X521303Y451988D01*
X521303Y451856D01*
X521299Y451723D01*
X521291Y451591D01*
X521279Y451459D01*
X521264Y451327D01*
X521244Y451196D01*
X521221Y451065D01*
X521194Y450936D01*
X521163Y450807D01*
X521128Y450679D01*
X521090Y450552D01*
X521048Y450426D01*
X521002Y450302D01*
X520953Y450179D01*
X520900Y450057D01*
X520843Y449937D01*
X520783Y449819D01*
X520720Y449702D01*
X520653Y449588D01*
X520583Y449475D01*
X520509Y449365D01*
X520433Y449257D01*
X520353Y449151D01*
X520270Y449047D01*
X520184Y448946D01*
X520095Y448848D01*
X520004Y448752D01*
X519909Y448659D01*
X519812Y448569D01*
X519712Y448482D01*
X519610Y448397D01*
X519505Y448316D01*
X519398Y448238D01*
X519289Y448162D01*
X519178Y448091D01*
X519064Y448022D01*
X518949Y447957D01*
X518831Y447895D01*
X518712Y447837D01*
X518591Y447782D01*
X518469Y447731D01*
X518345Y447683D01*
X518220Y447639D01*
X518094Y447599D01*
X517966Y447563D01*
X517838Y447530D01*
X517709Y447501D01*
X517578Y447476D01*
X517448Y447455D01*
X517316Y447437D01*
X517184Y447424D01*
X517052Y447414D01*
X516920Y447408D01*
X516787Y447406D01*
X516787Y447407D02*
X512271Y447407D01*
X565912Y449213D02*
X570428Y449213D01*
X570428Y449214D02*
X570561Y449212D01*
X570693Y449206D01*
X570825Y449196D01*
X570957Y449183D01*
X571089Y449165D01*
X571219Y449144D01*
X571350Y449119D01*
X571479Y449090D01*
X571607Y449057D01*
X571735Y449021D01*
X571861Y448981D01*
X571986Y448937D01*
X572110Y448889D01*
X572232Y448838D01*
X572353Y448783D01*
X572472Y448725D01*
X572590Y448663D01*
X572705Y448598D01*
X572819Y448529D01*
X572930Y448458D01*
X573039Y448382D01*
X573146Y448304D01*
X573251Y448223D01*
X573353Y448138D01*
X573453Y448051D01*
X573550Y447961D01*
X573645Y447868D01*
X573736Y447772D01*
X573825Y447674D01*
X573911Y447573D01*
X573994Y447469D01*
X574074Y447363D01*
X574150Y447255D01*
X574224Y447145D01*
X574294Y447032D01*
X574361Y446918D01*
X574424Y446801D01*
X574484Y446683D01*
X574541Y446563D01*
X574594Y446441D01*
X574643Y446318D01*
X574689Y446194D01*
X574731Y446068D01*
X574769Y445941D01*
X574804Y445813D01*
X574835Y445684D01*
X574862Y445555D01*
X574885Y445424D01*
X574905Y445293D01*
X574920Y445161D01*
X574932Y445029D01*
X574940Y444897D01*
X574944Y444764D01*
X574944Y444632D01*
X574940Y444499D01*
X574932Y444367D01*
X574920Y444235D01*
X574905Y444103D01*
X574885Y443972D01*
X574862Y443841D01*
X574835Y443712D01*
X574804Y443583D01*
X574769Y443455D01*
X574731Y443328D01*
X574689Y443202D01*
X574643Y443078D01*
X574594Y442955D01*
X574541Y442833D01*
X574484Y442713D01*
X574424Y442595D01*
X574361Y442478D01*
X574294Y442364D01*
X574224Y442251D01*
X574150Y442141D01*
X574074Y442033D01*
X573994Y441927D01*
X573911Y441823D01*
X573825Y441722D01*
X573736Y441624D01*
X573645Y441528D01*
X573550Y441435D01*
X573453Y441345D01*
X573353Y441258D01*
X573251Y441173D01*
X573146Y441092D01*
X573039Y441014D01*
X572930Y440938D01*
X572819Y440867D01*
X572705Y440798D01*
X572590Y440733D01*
X572472Y440671D01*
X572353Y440613D01*
X572232Y440558D01*
X572110Y440507D01*
X571986Y440459D01*
X571861Y440415D01*
X571735Y440375D01*
X571607Y440339D01*
X571479Y440306D01*
X571350Y440277D01*
X571219Y440252D01*
X571089Y440231D01*
X570957Y440213D01*
X570825Y440200D01*
X570693Y440190D01*
X570561Y440184D01*
X570428Y440182D01*
X565912Y440182D01*
X565912Y456438D01*
X570428Y456438D01*
X570547Y456436D01*
X570667Y456430D01*
X570786Y456420D01*
X570904Y456406D01*
X571023Y456389D01*
X571140Y456367D01*
X571257Y456342D01*
X571372Y456312D01*
X571487Y456279D01*
X571601Y456242D01*
X571713Y456202D01*
X571824Y456157D01*
X571933Y456109D01*
X572041Y456058D01*
X572147Y456003D01*
X572251Y455944D01*
X572353Y455882D01*
X572453Y455817D01*
X572551Y455748D01*
X572647Y455676D01*
X572740Y455601D01*
X572830Y455524D01*
X572918Y455443D01*
X573003Y455359D01*
X573085Y455272D01*
X573165Y455183D01*
X573241Y455091D01*
X573315Y454997D01*
X573385Y454900D01*
X573452Y454802D01*
X573516Y454701D01*
X573576Y454597D01*
X573633Y454492D01*
X573686Y454385D01*
X573736Y454277D01*
X573782Y454167D01*
X573824Y454055D01*
X573863Y453942D01*
X573898Y453828D01*
X573929Y453713D01*
X573957Y453596D01*
X573980Y453479D01*
X574000Y453362D01*
X574016Y453243D01*
X574028Y453124D01*
X574036Y453005D01*
X574040Y452886D01*
X574040Y452766D01*
X574036Y452647D01*
X574028Y452528D01*
X574016Y452409D01*
X574000Y452290D01*
X573980Y452173D01*
X573957Y452056D01*
X573929Y451939D01*
X573898Y451824D01*
X573863Y451710D01*
X573824Y451597D01*
X573782Y451485D01*
X573736Y451375D01*
X573686Y451267D01*
X573633Y451160D01*
X573576Y451055D01*
X573516Y450951D01*
X573452Y450850D01*
X573385Y450752D01*
X573315Y450655D01*
X573241Y450561D01*
X573165Y450469D01*
X573085Y450380D01*
X573003Y450293D01*
X572918Y450209D01*
X572830Y450128D01*
X572740Y450051D01*
X572647Y449976D01*
X572551Y449904D01*
X572453Y449835D01*
X572353Y449770D01*
X572251Y449708D01*
X572147Y449649D01*
X572041Y449594D01*
X571933Y449543D01*
X571824Y449495D01*
X571713Y449450D01*
X571601Y449410D01*
X571487Y449373D01*
X571372Y449340D01*
X571257Y449310D01*
X571140Y449285D01*
X571023Y449263D01*
X570904Y449246D01*
X570786Y449232D01*
X570667Y449222D01*
X570547Y449216D01*
X570428Y449214D01*
X581543Y456438D02*
X581543Y440182D01*
X581543Y456438D02*
X586059Y456438D01*
X586192Y456436D01*
X586324Y456430D01*
X586456Y456420D01*
X586588Y456407D01*
X586720Y456389D01*
X586850Y456368D01*
X586981Y456343D01*
X587110Y456314D01*
X587238Y456281D01*
X587366Y456245D01*
X587492Y456205D01*
X587617Y456161D01*
X587741Y456113D01*
X587863Y456062D01*
X587984Y456007D01*
X588103Y455949D01*
X588221Y455887D01*
X588336Y455822D01*
X588450Y455753D01*
X588561Y455682D01*
X588670Y455606D01*
X588777Y455528D01*
X588882Y455447D01*
X588984Y455362D01*
X589084Y455275D01*
X589181Y455185D01*
X589276Y455092D01*
X589367Y454996D01*
X589456Y454898D01*
X589542Y454797D01*
X589625Y454693D01*
X589705Y454587D01*
X589781Y454479D01*
X589855Y454369D01*
X589925Y454256D01*
X589992Y454142D01*
X590055Y454025D01*
X590115Y453907D01*
X590172Y453787D01*
X590225Y453665D01*
X590274Y453542D01*
X590320Y453418D01*
X590362Y453292D01*
X590400Y453165D01*
X590435Y453037D01*
X590466Y452908D01*
X590493Y452779D01*
X590516Y452648D01*
X590536Y452517D01*
X590551Y452385D01*
X590563Y452253D01*
X590571Y452121D01*
X590575Y451988D01*
X590575Y451856D01*
X590571Y451723D01*
X590563Y451591D01*
X590551Y451459D01*
X590536Y451327D01*
X590516Y451196D01*
X590493Y451065D01*
X590466Y450936D01*
X590435Y450807D01*
X590400Y450679D01*
X590362Y450552D01*
X590320Y450426D01*
X590274Y450302D01*
X590225Y450179D01*
X590172Y450057D01*
X590115Y449937D01*
X590055Y449819D01*
X589992Y449702D01*
X589925Y449588D01*
X589855Y449475D01*
X589781Y449365D01*
X589705Y449257D01*
X589625Y449151D01*
X589542Y449047D01*
X589456Y448946D01*
X589367Y448848D01*
X589276Y448752D01*
X589181Y448659D01*
X589084Y448569D01*
X588984Y448482D01*
X588882Y448397D01*
X588777Y448316D01*
X588670Y448238D01*
X588561Y448162D01*
X588450Y448091D01*
X588336Y448022D01*
X588221Y447957D01*
X588103Y447895D01*
X587984Y447837D01*
X587863Y447782D01*
X587741Y447731D01*
X587617Y447683D01*
X587492Y447639D01*
X587366Y447599D01*
X587238Y447563D01*
X587110Y447530D01*
X586981Y447501D01*
X586850Y447476D01*
X586720Y447455D01*
X586588Y447437D01*
X586456Y447424D01*
X586324Y447414D01*
X586192Y447408D01*
X586059Y447406D01*
X586059Y447407D02*
X581543Y447407D01*
D11*
X531650Y53255D02*
X531650Y48514D01*
X529280Y50885D02*
X534021Y50885D01*
X534416Y56224D02*
X534416Y58200D01*
X534414Y58287D01*
X534408Y58375D01*
X534399Y58462D01*
X534385Y58548D01*
X534368Y58634D01*
X534347Y58718D01*
X534322Y58802D01*
X534293Y58885D01*
X534261Y58966D01*
X534226Y59046D01*
X534187Y59124D01*
X534144Y59201D01*
X534098Y59275D01*
X534049Y59347D01*
X533997Y59417D01*
X533941Y59485D01*
X533883Y59550D01*
X533822Y59613D01*
X533758Y59672D01*
X533691Y59729D01*
X533623Y59783D01*
X533551Y59834D01*
X533478Y59881D01*
X533403Y59926D01*
X533325Y59967D01*
X533246Y60004D01*
X533166Y60038D01*
X533084Y60068D01*
X533001Y60095D01*
X532916Y60118D01*
X532831Y60137D01*
X532745Y60152D01*
X532658Y60164D01*
X532571Y60172D01*
X532484Y60176D01*
X532396Y60176D01*
X532309Y60172D01*
X532222Y60164D01*
X532135Y60152D01*
X532049Y60137D01*
X531964Y60118D01*
X531879Y60095D01*
X531796Y60068D01*
X531714Y60038D01*
X531634Y60004D01*
X531555Y59967D01*
X531477Y59926D01*
X531402Y59881D01*
X531329Y59834D01*
X531257Y59783D01*
X531189Y59729D01*
X531122Y59672D01*
X531058Y59613D01*
X530997Y59550D01*
X530939Y59485D01*
X530883Y59417D01*
X530831Y59347D01*
X530782Y59275D01*
X530736Y59201D01*
X530693Y59124D01*
X530654Y59046D01*
X530619Y58966D01*
X530587Y58885D01*
X530558Y58802D01*
X530533Y58718D01*
X530512Y58634D01*
X530495Y58548D01*
X530481Y58462D01*
X530472Y58375D01*
X530466Y58287D01*
X530464Y58200D01*
X527304Y58595D02*
X527304Y56224D01*
X527304Y58595D02*
X527306Y58674D01*
X527312Y58752D01*
X527322Y58830D01*
X527335Y58908D01*
X527353Y58985D01*
X527374Y59061D01*
X527399Y59135D01*
X527428Y59209D01*
X527460Y59281D01*
X527496Y59351D01*
X527536Y59419D01*
X527579Y59485D01*
X527625Y59549D01*
X527674Y59611D01*
X527726Y59670D01*
X527781Y59726D01*
X527839Y59780D01*
X527899Y59830D01*
X527962Y59878D01*
X528027Y59922D01*
X528094Y59963D01*
X528163Y60001D01*
X528234Y60035D01*
X528307Y60066D01*
X528381Y60093D01*
X528456Y60116D01*
X528532Y60135D01*
X528610Y60151D01*
X528688Y60163D01*
X528766Y60171D01*
X528845Y60175D01*
X528923Y60175D01*
X529002Y60171D01*
X529080Y60163D01*
X529158Y60151D01*
X529236Y60135D01*
X529312Y60116D01*
X529387Y60093D01*
X529461Y60066D01*
X529534Y60035D01*
X529605Y60001D01*
X529674Y59963D01*
X529741Y59922D01*
X529806Y59878D01*
X529869Y59830D01*
X529929Y59780D01*
X529987Y59726D01*
X530042Y59670D01*
X530094Y59611D01*
X530143Y59549D01*
X530189Y59485D01*
X530232Y59419D01*
X530272Y59351D01*
X530308Y59281D01*
X530340Y59209D01*
X530369Y59135D01*
X530394Y59061D01*
X530415Y58985D01*
X530433Y58908D01*
X530446Y58830D01*
X530456Y58752D01*
X530462Y58674D01*
X530464Y58595D01*
X530465Y58595D02*
X530465Y57015D01*
X527304Y62687D02*
X534416Y65058D01*
X527304Y67428D01*
X534416Y69940D02*
X534416Y71916D01*
X534414Y72003D01*
X534408Y72091D01*
X534399Y72178D01*
X534385Y72264D01*
X534368Y72350D01*
X534347Y72434D01*
X534322Y72518D01*
X534293Y72601D01*
X534261Y72682D01*
X534226Y72762D01*
X534187Y72840D01*
X534144Y72917D01*
X534098Y72991D01*
X534049Y73063D01*
X533997Y73133D01*
X533941Y73201D01*
X533883Y73266D01*
X533822Y73329D01*
X533758Y73388D01*
X533691Y73445D01*
X533623Y73499D01*
X533551Y73550D01*
X533478Y73597D01*
X533403Y73642D01*
X533325Y73683D01*
X533246Y73720D01*
X533166Y73754D01*
X533084Y73784D01*
X533001Y73811D01*
X532916Y73834D01*
X532831Y73853D01*
X532745Y73868D01*
X532658Y73880D01*
X532571Y73888D01*
X532484Y73892D01*
X532396Y73892D01*
X532309Y73888D01*
X532222Y73880D01*
X532135Y73868D01*
X532049Y73853D01*
X531964Y73834D01*
X531879Y73811D01*
X531796Y73784D01*
X531714Y73754D01*
X531634Y73720D01*
X531555Y73683D01*
X531477Y73642D01*
X531402Y73597D01*
X531329Y73550D01*
X531257Y73499D01*
X531189Y73445D01*
X531122Y73388D01*
X531058Y73329D01*
X530997Y73266D01*
X530939Y73201D01*
X530883Y73133D01*
X530831Y73063D01*
X530782Y72991D01*
X530736Y72917D01*
X530693Y72840D01*
X530654Y72762D01*
X530619Y72682D01*
X530587Y72601D01*
X530558Y72518D01*
X530533Y72434D01*
X530512Y72350D01*
X530495Y72264D01*
X530481Y72178D01*
X530472Y72091D01*
X530466Y72003D01*
X530464Y71916D01*
X527304Y72311D02*
X527304Y69940D01*
X527304Y72311D02*
X527306Y72390D01*
X527312Y72468D01*
X527322Y72546D01*
X527335Y72624D01*
X527353Y72701D01*
X527374Y72777D01*
X527399Y72851D01*
X527428Y72925D01*
X527460Y72997D01*
X527496Y73067D01*
X527536Y73135D01*
X527579Y73201D01*
X527625Y73265D01*
X527674Y73327D01*
X527726Y73386D01*
X527781Y73442D01*
X527839Y73496D01*
X527899Y73546D01*
X527962Y73594D01*
X528027Y73638D01*
X528094Y73679D01*
X528163Y73717D01*
X528234Y73751D01*
X528307Y73782D01*
X528381Y73809D01*
X528456Y73832D01*
X528532Y73851D01*
X528610Y73867D01*
X528688Y73879D01*
X528766Y73887D01*
X528845Y73891D01*
X528923Y73891D01*
X529002Y73887D01*
X529080Y73879D01*
X529158Y73867D01*
X529236Y73851D01*
X529312Y73832D01*
X529387Y73809D01*
X529461Y73782D01*
X529534Y73751D01*
X529605Y73717D01*
X529674Y73679D01*
X529741Y73638D01*
X529806Y73594D01*
X529869Y73546D01*
X529929Y73496D01*
X529987Y73442D01*
X530042Y73386D01*
X530094Y73327D01*
X530143Y73265D01*
X530189Y73201D01*
X530232Y73135D01*
X530272Y73067D01*
X530308Y72997D01*
X530340Y72925D01*
X530369Y72851D01*
X530394Y72777D01*
X530415Y72701D01*
X530433Y72624D01*
X530446Y72546D01*
X530456Y72468D01*
X530462Y72390D01*
X530464Y72311D01*
X530465Y72311D02*
X530465Y70730D01*
X527925Y145260D02*
X527925Y146445D01*
X531876Y146445D01*
X531876Y144074D01*
X531874Y143996D01*
X531868Y143919D01*
X531859Y143842D01*
X531846Y143766D01*
X531829Y143690D01*
X531808Y143615D01*
X531784Y143542D01*
X531756Y143469D01*
X531724Y143398D01*
X531689Y143329D01*
X531651Y143262D01*
X531610Y143196D01*
X531565Y143133D01*
X531517Y143072D01*
X531467Y143013D01*
X531413Y142957D01*
X531357Y142903D01*
X531298Y142853D01*
X531237Y142805D01*
X531174Y142760D01*
X531108Y142719D01*
X531041Y142681D01*
X530972Y142646D01*
X530901Y142614D01*
X530828Y142586D01*
X530755Y142562D01*
X530680Y142541D01*
X530604Y142524D01*
X530528Y142511D01*
X530451Y142502D01*
X530374Y142496D01*
X530296Y142494D01*
X526344Y142494D01*
X526266Y142496D01*
X526189Y142502D01*
X526112Y142511D01*
X526036Y142524D01*
X525960Y142541D01*
X525885Y142562D01*
X525811Y142586D01*
X525739Y142614D01*
X525668Y142646D01*
X525599Y142681D01*
X525531Y142719D01*
X525466Y142760D01*
X525402Y142805D01*
X525341Y142853D01*
X525282Y142904D01*
X525226Y142957D01*
X525173Y143013D01*
X525122Y143072D01*
X525074Y143133D01*
X525029Y143197D01*
X524988Y143262D01*
X524950Y143330D01*
X524915Y143399D01*
X524883Y143470D01*
X524855Y143542D01*
X524831Y143616D01*
X524810Y143691D01*
X524793Y143767D01*
X524780Y143843D01*
X524771Y143920D01*
X524765Y143997D01*
X524763Y144075D01*
X524764Y144074D02*
X524764Y146445D01*
X524764Y149809D02*
X531876Y149809D01*
X531876Y153760D02*
X524764Y149809D01*
X524764Y153760D02*
X531876Y153760D01*
X531876Y157124D02*
X524764Y157124D01*
X524764Y159100D01*
X524766Y159186D01*
X524772Y159272D01*
X524781Y159358D01*
X524794Y159443D01*
X524811Y159528D01*
X524831Y159611D01*
X524855Y159694D01*
X524883Y159776D01*
X524914Y159856D01*
X524949Y159935D01*
X524987Y160012D01*
X525029Y160088D01*
X525073Y160162D01*
X525121Y160233D01*
X525172Y160303D01*
X525226Y160370D01*
X525283Y160435D01*
X525343Y160497D01*
X525405Y160557D01*
X525470Y160614D01*
X525537Y160668D01*
X525607Y160719D01*
X525678Y160767D01*
X525752Y160811D01*
X525828Y160853D01*
X525905Y160891D01*
X525984Y160926D01*
X526064Y160957D01*
X526146Y160985D01*
X526229Y161009D01*
X526312Y161029D01*
X526397Y161046D01*
X526482Y161059D01*
X526568Y161068D01*
X526654Y161074D01*
X526740Y161076D01*
X526740Y161075D02*
X529900Y161075D01*
X529900Y161076D02*
X529986Y161074D01*
X530072Y161068D01*
X530158Y161059D01*
X530243Y161046D01*
X530328Y161029D01*
X530411Y161009D01*
X530494Y160985D01*
X530576Y160957D01*
X530656Y160926D01*
X530735Y160891D01*
X530812Y160853D01*
X530888Y160811D01*
X530962Y160767D01*
X531033Y160719D01*
X531103Y160668D01*
X531170Y160614D01*
X531235Y160557D01*
X531297Y160497D01*
X531357Y160435D01*
X531414Y160370D01*
X531468Y160303D01*
X531519Y160233D01*
X531567Y160162D01*
X531611Y160088D01*
X531653Y160012D01*
X531691Y159935D01*
X531726Y159856D01*
X531757Y159776D01*
X531785Y159694D01*
X531809Y159611D01*
X531829Y159528D01*
X531846Y159443D01*
X531859Y159358D01*
X531868Y159272D01*
X531874Y159186D01*
X531876Y159100D01*
X531876Y157124D01*
X532836Y84466D02*
X532914Y84464D01*
X532991Y84458D01*
X533068Y84449D01*
X533144Y84436D01*
X533220Y84419D01*
X533295Y84398D01*
X533368Y84374D01*
X533441Y84346D01*
X533512Y84314D01*
X533581Y84279D01*
X533648Y84241D01*
X533714Y84200D01*
X533777Y84155D01*
X533838Y84107D01*
X533897Y84057D01*
X533953Y84003D01*
X534007Y83947D01*
X534057Y83888D01*
X534105Y83827D01*
X534150Y83764D01*
X534191Y83698D01*
X534229Y83631D01*
X534264Y83562D01*
X534296Y83491D01*
X534324Y83418D01*
X534348Y83345D01*
X534369Y83270D01*
X534386Y83194D01*
X534399Y83118D01*
X534408Y83041D01*
X534414Y82964D01*
X534416Y82886D01*
X534414Y82771D01*
X534408Y82657D01*
X534398Y82543D01*
X534385Y82429D01*
X534367Y82316D01*
X534345Y82203D01*
X534320Y82091D01*
X534291Y81981D01*
X534258Y81871D01*
X534221Y81762D01*
X534181Y81655D01*
X534137Y81549D01*
X534089Y81445D01*
X534038Y81342D01*
X533983Y81242D01*
X533925Y81143D01*
X533863Y81046D01*
X533799Y80952D01*
X533731Y80859D01*
X533659Y80769D01*
X533585Y80682D01*
X533508Y80597D01*
X533428Y80515D01*
X528884Y80713D02*
X528806Y80715D01*
X528729Y80721D01*
X528652Y80730D01*
X528576Y80743D01*
X528500Y80760D01*
X528425Y80781D01*
X528352Y80805D01*
X528279Y80833D01*
X528208Y80865D01*
X528139Y80900D01*
X528072Y80938D01*
X528006Y80979D01*
X527943Y81024D01*
X527882Y81072D01*
X527823Y81122D01*
X527767Y81176D01*
X527713Y81232D01*
X527663Y81291D01*
X527615Y81352D01*
X527570Y81415D01*
X527529Y81481D01*
X527491Y81548D01*
X527456Y81617D01*
X527424Y81688D01*
X527396Y81761D01*
X527372Y81834D01*
X527351Y81909D01*
X527334Y81985D01*
X527321Y82061D01*
X527312Y82138D01*
X527306Y82215D01*
X527304Y82293D01*
X527306Y82399D01*
X527312Y82505D01*
X527321Y82610D01*
X527334Y82715D01*
X527351Y82820D01*
X527372Y82924D01*
X527396Y83027D01*
X527424Y83129D01*
X527456Y83230D01*
X527491Y83330D01*
X527530Y83428D01*
X527573Y83526D01*
X527618Y83621D01*
X527667Y83715D01*
X527720Y83807D01*
X527776Y83897D01*
X527835Y83985D01*
X527897Y84071D01*
X530267Y81503D02*
X530225Y81436D01*
X530180Y81371D01*
X530131Y81308D01*
X530080Y81247D01*
X530025Y81190D01*
X529968Y81135D01*
X529908Y81082D01*
X529846Y81033D01*
X529781Y80987D01*
X529715Y80945D01*
X529646Y80905D01*
X529575Y80869D01*
X529502Y80837D01*
X529428Y80808D01*
X529353Y80783D01*
X529277Y80762D01*
X529199Y80744D01*
X529121Y80731D01*
X529042Y80721D01*
X528963Y80715D01*
X528884Y80713D01*
X531453Y83676D02*
X531495Y83743D01*
X531540Y83808D01*
X531589Y83871D01*
X531640Y83932D01*
X531695Y83989D01*
X531752Y84044D01*
X531812Y84097D01*
X531874Y84146D01*
X531939Y84192D01*
X532005Y84234D01*
X532074Y84274D01*
X532145Y84310D01*
X532218Y84342D01*
X532292Y84371D01*
X532367Y84396D01*
X532443Y84417D01*
X532521Y84435D01*
X532599Y84448D01*
X532678Y84458D01*
X532757Y84464D01*
X532836Y84466D01*
X531453Y83676D02*
X530267Y81503D01*
X527304Y87373D02*
X534416Y87373D01*
X527304Y87373D02*
X527304Y89349D01*
X527306Y89435D01*
X527312Y89521D01*
X527321Y89607D01*
X527334Y89692D01*
X527351Y89777D01*
X527371Y89860D01*
X527395Y89943D01*
X527423Y90025D01*
X527454Y90105D01*
X527489Y90184D01*
X527527Y90261D01*
X527569Y90337D01*
X527613Y90411D01*
X527661Y90482D01*
X527712Y90552D01*
X527766Y90619D01*
X527823Y90684D01*
X527883Y90746D01*
X527945Y90806D01*
X528010Y90863D01*
X528077Y90917D01*
X528147Y90968D01*
X528218Y91016D01*
X528292Y91060D01*
X528368Y91102D01*
X528445Y91140D01*
X528524Y91175D01*
X528604Y91206D01*
X528686Y91234D01*
X528769Y91258D01*
X528852Y91278D01*
X528937Y91295D01*
X529022Y91308D01*
X529108Y91317D01*
X529194Y91323D01*
X529280Y91325D01*
X529280Y91324D02*
X532440Y91324D01*
X532440Y91325D02*
X532526Y91323D01*
X532612Y91317D01*
X532698Y91308D01*
X532783Y91295D01*
X532868Y91278D01*
X532951Y91258D01*
X533034Y91234D01*
X533116Y91206D01*
X533196Y91175D01*
X533275Y91140D01*
X533352Y91102D01*
X533428Y91060D01*
X533502Y91016D01*
X533573Y90968D01*
X533643Y90917D01*
X533710Y90863D01*
X533775Y90806D01*
X533837Y90746D01*
X533897Y90684D01*
X533954Y90619D01*
X534008Y90552D01*
X534059Y90482D01*
X534107Y90411D01*
X534151Y90337D01*
X534193Y90261D01*
X534231Y90184D01*
X534266Y90105D01*
X534297Y90025D01*
X534325Y89943D01*
X534349Y89860D01*
X534369Y89777D01*
X534386Y89692D01*
X534399Y89607D01*
X534408Y89521D01*
X534414Y89435D01*
X534416Y89349D01*
X534416Y87373D01*
X534416Y94065D02*
X527304Y96435D01*
X534416Y98806D01*
X532638Y98213D02*
X532638Y94657D01*
X531876Y116925D02*
X531874Y117003D01*
X531868Y117080D01*
X531859Y117157D01*
X531846Y117233D01*
X531829Y117309D01*
X531808Y117384D01*
X531784Y117457D01*
X531756Y117530D01*
X531724Y117601D01*
X531689Y117670D01*
X531651Y117737D01*
X531610Y117803D01*
X531565Y117866D01*
X531517Y117927D01*
X531467Y117986D01*
X531413Y118042D01*
X531357Y118096D01*
X531298Y118146D01*
X531237Y118194D01*
X531174Y118239D01*
X531108Y118280D01*
X531041Y118318D01*
X530972Y118353D01*
X530901Y118385D01*
X530828Y118413D01*
X530755Y118437D01*
X530680Y118458D01*
X530604Y118475D01*
X530528Y118488D01*
X530451Y118497D01*
X530374Y118503D01*
X530296Y118505D01*
X531876Y116925D02*
X531874Y116810D01*
X531868Y116696D01*
X531858Y116582D01*
X531845Y116468D01*
X531827Y116355D01*
X531805Y116242D01*
X531780Y116130D01*
X531751Y116020D01*
X531718Y115910D01*
X531681Y115801D01*
X531641Y115694D01*
X531597Y115588D01*
X531549Y115484D01*
X531498Y115381D01*
X531443Y115281D01*
X531385Y115182D01*
X531323Y115085D01*
X531259Y114991D01*
X531191Y114898D01*
X531119Y114808D01*
X531045Y114721D01*
X530968Y114636D01*
X530888Y114554D01*
X526344Y114752D02*
X526266Y114754D01*
X526189Y114760D01*
X526112Y114769D01*
X526036Y114782D01*
X525960Y114799D01*
X525885Y114820D01*
X525812Y114844D01*
X525739Y114872D01*
X525668Y114904D01*
X525599Y114939D01*
X525532Y114977D01*
X525466Y115018D01*
X525403Y115063D01*
X525342Y115111D01*
X525283Y115161D01*
X525227Y115215D01*
X525173Y115271D01*
X525123Y115330D01*
X525075Y115391D01*
X525030Y115454D01*
X524989Y115520D01*
X524951Y115587D01*
X524916Y115656D01*
X524884Y115727D01*
X524856Y115800D01*
X524832Y115873D01*
X524811Y115948D01*
X524794Y116024D01*
X524781Y116100D01*
X524772Y116177D01*
X524766Y116254D01*
X524764Y116332D01*
X524766Y116438D01*
X524772Y116544D01*
X524781Y116649D01*
X524794Y116754D01*
X524811Y116859D01*
X524832Y116963D01*
X524856Y117066D01*
X524884Y117168D01*
X524916Y117269D01*
X524951Y117369D01*
X524990Y117467D01*
X525033Y117565D01*
X525078Y117660D01*
X525127Y117754D01*
X525180Y117846D01*
X525236Y117936D01*
X525295Y118024D01*
X525357Y118110D01*
X527727Y115542D02*
X527685Y115475D01*
X527640Y115410D01*
X527591Y115347D01*
X527540Y115286D01*
X527485Y115229D01*
X527428Y115174D01*
X527368Y115121D01*
X527306Y115072D01*
X527241Y115026D01*
X527175Y114984D01*
X527106Y114944D01*
X527035Y114908D01*
X526962Y114876D01*
X526888Y114847D01*
X526813Y114822D01*
X526737Y114801D01*
X526659Y114783D01*
X526581Y114770D01*
X526502Y114760D01*
X526423Y114754D01*
X526344Y114752D01*
X528913Y117715D02*
X528955Y117782D01*
X529000Y117847D01*
X529049Y117910D01*
X529100Y117971D01*
X529155Y118028D01*
X529212Y118083D01*
X529272Y118136D01*
X529334Y118185D01*
X529399Y118231D01*
X529465Y118273D01*
X529534Y118313D01*
X529605Y118349D01*
X529678Y118381D01*
X529752Y118410D01*
X529827Y118435D01*
X529903Y118456D01*
X529981Y118474D01*
X530059Y118487D01*
X530138Y118497D01*
X530217Y118503D01*
X530296Y118505D01*
X528913Y117715D02*
X527727Y115542D01*
X531876Y122746D02*
X531876Y124326D01*
X531876Y122746D02*
X531874Y122668D01*
X531868Y122591D01*
X531859Y122514D01*
X531846Y122438D01*
X531829Y122362D01*
X531808Y122287D01*
X531784Y122214D01*
X531756Y122141D01*
X531724Y122070D01*
X531689Y122001D01*
X531651Y121934D01*
X531610Y121868D01*
X531565Y121805D01*
X531517Y121744D01*
X531467Y121685D01*
X531413Y121629D01*
X531357Y121575D01*
X531298Y121525D01*
X531237Y121477D01*
X531174Y121432D01*
X531108Y121391D01*
X531041Y121353D01*
X530972Y121318D01*
X530901Y121286D01*
X530828Y121258D01*
X530755Y121234D01*
X530680Y121213D01*
X530604Y121196D01*
X530528Y121183D01*
X530451Y121174D01*
X530374Y121168D01*
X530296Y121166D01*
X530296Y121165D02*
X526344Y121165D01*
X526266Y121167D01*
X526189Y121173D01*
X526112Y121182D01*
X526036Y121195D01*
X525960Y121212D01*
X525885Y121233D01*
X525811Y121257D01*
X525739Y121285D01*
X525668Y121317D01*
X525599Y121352D01*
X525531Y121390D01*
X525466Y121431D01*
X525402Y121476D01*
X525341Y121524D01*
X525282Y121575D01*
X525226Y121628D01*
X525173Y121684D01*
X525122Y121743D01*
X525074Y121804D01*
X525029Y121868D01*
X524988Y121933D01*
X524950Y122001D01*
X524915Y122070D01*
X524883Y122141D01*
X524855Y122213D01*
X524831Y122287D01*
X524810Y122362D01*
X524793Y122438D01*
X524780Y122514D01*
X524771Y122591D01*
X524765Y122668D01*
X524763Y122746D01*
X524764Y122746D02*
X524764Y124326D01*
X524764Y127139D02*
X531876Y127139D01*
X531876Y130300D01*
D12*
X480948Y167894D02*
X467996Y167894D01*
X487046Y154750D02*
X499998Y154750D01*
X467994Y154876D02*
X467996Y167894D01*
X500000Y167830D02*
X499998Y154876D01*
X480948Y154686D02*
X467996Y154686D01*
X487046Y167958D02*
X499998Y167958D01*
D13*
X438771Y156718D02*
X436174Y156718D01*
X436075Y156720D01*
X435975Y156726D01*
X435876Y156735D01*
X435778Y156748D01*
X435680Y156765D01*
X435582Y156786D01*
X435486Y156811D01*
X435391Y156839D01*
X435297Y156871D01*
X435204Y156906D01*
X435112Y156945D01*
X435022Y156988D01*
X434934Y157033D01*
X434847Y157083D01*
X434763Y157135D01*
X434680Y157191D01*
X434600Y157249D01*
X434522Y157311D01*
X434447Y157376D01*
X434374Y157444D01*
X434304Y157514D01*
X434236Y157587D01*
X434171Y157662D01*
X434109Y157740D01*
X434051Y157820D01*
X433995Y157903D01*
X433943Y157987D01*
X433893Y158074D01*
X433848Y158162D01*
X433805Y158252D01*
X433766Y158344D01*
X433731Y158437D01*
X433699Y158531D01*
X433671Y158626D01*
X433646Y158722D01*
X433625Y158820D01*
X433608Y158918D01*
X433595Y159016D01*
X433586Y159115D01*
X433580Y159215D01*
X433578Y159314D01*
X433578Y165806D01*
X433580Y165905D01*
X433586Y166005D01*
X433595Y166104D01*
X433608Y166202D01*
X433625Y166300D01*
X433646Y166398D01*
X433671Y166494D01*
X433699Y166589D01*
X433731Y166683D01*
X433766Y166776D01*
X433805Y166868D01*
X433848Y166958D01*
X433893Y167046D01*
X433943Y167133D01*
X433995Y167217D01*
X434051Y167300D01*
X434109Y167380D01*
X434171Y167458D01*
X434236Y167533D01*
X434304Y167606D01*
X434374Y167676D01*
X434447Y167744D01*
X434522Y167809D01*
X434600Y167871D01*
X434680Y167929D01*
X434763Y167985D01*
X434847Y168037D01*
X434934Y168087D01*
X435022Y168132D01*
X435112Y168175D01*
X435204Y168214D01*
X435296Y168249D01*
X435391Y168281D01*
X435486Y168309D01*
X435582Y168334D01*
X435680Y168355D01*
X435778Y168372D01*
X435876Y168385D01*
X435975Y168394D01*
X436075Y168400D01*
X436174Y168402D01*
X438771Y168402D01*
X443136Y165806D02*
X446382Y168402D01*
X446382Y156718D01*
X449627Y156718D02*
X443136Y156718D01*
D12*
X467996Y147574D02*
X480948Y147574D01*
X487046Y134430D02*
X499998Y134430D01*
X467994Y134556D02*
X467996Y147574D01*
X500000Y147510D02*
X499998Y134556D01*
X480948Y134366D02*
X467996Y134366D01*
X487046Y147638D02*
X499998Y147638D01*
D13*
X438771Y136398D02*
X436174Y136398D01*
X436075Y136400D01*
X435975Y136406D01*
X435876Y136415D01*
X435778Y136428D01*
X435680Y136445D01*
X435582Y136466D01*
X435486Y136491D01*
X435391Y136519D01*
X435297Y136551D01*
X435204Y136586D01*
X435112Y136625D01*
X435022Y136668D01*
X434934Y136713D01*
X434847Y136763D01*
X434763Y136815D01*
X434680Y136871D01*
X434600Y136929D01*
X434522Y136991D01*
X434447Y137056D01*
X434374Y137124D01*
X434304Y137194D01*
X434236Y137267D01*
X434171Y137342D01*
X434109Y137420D01*
X434051Y137500D01*
X433995Y137583D01*
X433943Y137667D01*
X433893Y137754D01*
X433848Y137842D01*
X433805Y137932D01*
X433766Y138024D01*
X433731Y138117D01*
X433699Y138211D01*
X433671Y138306D01*
X433646Y138402D01*
X433625Y138500D01*
X433608Y138598D01*
X433595Y138696D01*
X433586Y138795D01*
X433580Y138895D01*
X433578Y138994D01*
X433578Y145486D01*
X433580Y145585D01*
X433586Y145685D01*
X433595Y145784D01*
X433608Y145882D01*
X433625Y145980D01*
X433646Y146078D01*
X433671Y146174D01*
X433699Y146269D01*
X433731Y146363D01*
X433766Y146456D01*
X433805Y146548D01*
X433848Y146638D01*
X433893Y146726D01*
X433943Y146813D01*
X433995Y146897D01*
X434051Y146980D01*
X434109Y147060D01*
X434171Y147138D01*
X434236Y147213D01*
X434304Y147286D01*
X434374Y147356D01*
X434447Y147424D01*
X434522Y147489D01*
X434600Y147551D01*
X434680Y147609D01*
X434763Y147665D01*
X434847Y147717D01*
X434934Y147767D01*
X435022Y147812D01*
X435112Y147855D01*
X435204Y147894D01*
X435296Y147929D01*
X435391Y147961D01*
X435486Y147989D01*
X435582Y148014D01*
X435680Y148035D01*
X435778Y148052D01*
X435876Y148065D01*
X435975Y148074D01*
X436075Y148080D01*
X436174Y148082D01*
X438771Y148082D01*
X446706Y148082D02*
X446813Y148080D01*
X446919Y148074D01*
X447025Y148064D01*
X447131Y148051D01*
X447237Y148033D01*
X447341Y148012D01*
X447445Y147987D01*
X447548Y147958D01*
X447649Y147926D01*
X447749Y147889D01*
X447848Y147849D01*
X447946Y147806D01*
X448042Y147759D01*
X448136Y147708D01*
X448228Y147654D01*
X448318Y147597D01*
X448406Y147537D01*
X448491Y147473D01*
X448574Y147406D01*
X448655Y147336D01*
X448733Y147264D01*
X448809Y147188D01*
X448881Y147110D01*
X448951Y147029D01*
X449018Y146946D01*
X449082Y146861D01*
X449142Y146773D01*
X449199Y146683D01*
X449253Y146591D01*
X449304Y146497D01*
X449351Y146401D01*
X449394Y146303D01*
X449434Y146204D01*
X449471Y146104D01*
X449503Y146003D01*
X449532Y145900D01*
X449557Y145796D01*
X449578Y145692D01*
X449596Y145586D01*
X449609Y145480D01*
X449619Y145374D01*
X449625Y145268D01*
X449627Y145161D01*
X446706Y148082D02*
X446585Y148080D01*
X446464Y148074D01*
X446344Y148064D01*
X446223Y148051D01*
X446104Y148033D01*
X445984Y148012D01*
X445866Y147987D01*
X445749Y147958D01*
X445632Y147925D01*
X445517Y147889D01*
X445403Y147848D01*
X445290Y147805D01*
X445178Y147757D01*
X445069Y147706D01*
X444961Y147651D01*
X444854Y147593D01*
X444750Y147532D01*
X444648Y147467D01*
X444548Y147399D01*
X444450Y147328D01*
X444354Y147254D01*
X444261Y147177D01*
X444171Y147096D01*
X444083Y147013D01*
X443998Y146927D01*
X443915Y146838D01*
X443836Y146747D01*
X443759Y146653D01*
X443686Y146557D01*
X443616Y146459D01*
X443549Y146358D01*
X443485Y146255D01*
X443425Y146150D01*
X443368Y146043D01*
X443314Y145935D01*
X443264Y145825D01*
X443218Y145713D01*
X443175Y145600D01*
X443136Y145485D01*
X448654Y142889D02*
X448733Y142966D01*
X448809Y143047D01*
X448882Y143130D01*
X448952Y143215D01*
X449019Y143303D01*
X449083Y143393D01*
X449143Y143485D01*
X449200Y143580D01*
X449254Y143676D01*
X449305Y143774D01*
X449352Y143874D01*
X449396Y143976D01*
X449436Y144079D01*
X449472Y144183D01*
X449504Y144289D01*
X449533Y144395D01*
X449558Y144503D01*
X449580Y144611D01*
X449597Y144721D01*
X449611Y144830D01*
X449620Y144940D01*
X449626Y145051D01*
X449628Y145161D01*
X448654Y142889D02*
X443136Y136398D01*
X449627Y136398D01*
D12*
X540400Y165110D02*
X564500Y165110D01*
X564500Y58410D02*
X540400Y58410D01*
X564500Y58410D02*
X564500Y165110D01*
X540400Y165110D02*
X540400Y58410D01*
X551450Y171610D02*
X551452Y171673D01*
X551458Y171735D01*
X551468Y171797D01*
X551481Y171859D01*
X551499Y171919D01*
X551520Y171978D01*
X551545Y172036D01*
X551574Y172092D01*
X551606Y172146D01*
X551641Y172198D01*
X551679Y172247D01*
X551721Y172295D01*
X551765Y172339D01*
X551813Y172381D01*
X551862Y172419D01*
X551914Y172454D01*
X551968Y172486D01*
X552024Y172515D01*
X552082Y172540D01*
X552141Y172561D01*
X552201Y172579D01*
X552263Y172592D01*
X552325Y172602D01*
X552387Y172608D01*
X552450Y172610D01*
X552513Y172608D01*
X552575Y172602D01*
X552637Y172592D01*
X552699Y172579D01*
X552759Y172561D01*
X552818Y172540D01*
X552876Y172515D01*
X552932Y172486D01*
X552986Y172454D01*
X553038Y172419D01*
X553087Y172381D01*
X553135Y172339D01*
X553179Y172295D01*
X553221Y172247D01*
X553259Y172198D01*
X553294Y172146D01*
X553326Y172092D01*
X553355Y172036D01*
X553380Y171978D01*
X553401Y171919D01*
X553419Y171859D01*
X553432Y171797D01*
X553442Y171735D01*
X553448Y171673D01*
X553450Y171610D01*
X553448Y171547D01*
X553442Y171485D01*
X553432Y171423D01*
X553419Y171361D01*
X553401Y171301D01*
X553380Y171242D01*
X553355Y171184D01*
X553326Y171128D01*
X553294Y171074D01*
X553259Y171022D01*
X553221Y170973D01*
X553179Y170925D01*
X553135Y170881D01*
X553087Y170839D01*
X553038Y170801D01*
X552986Y170766D01*
X552932Y170734D01*
X552876Y170705D01*
X552818Y170680D01*
X552759Y170659D01*
X552699Y170641D01*
X552637Y170628D01*
X552575Y170618D01*
X552513Y170612D01*
X552450Y170610D01*
X552387Y170612D01*
X552325Y170618D01*
X552263Y170628D01*
X552201Y170641D01*
X552141Y170659D01*
X552082Y170680D01*
X552024Y170705D01*
X551968Y170734D01*
X551914Y170766D01*
X551862Y170801D01*
X551813Y170839D01*
X551765Y170881D01*
X551721Y170925D01*
X551679Y170973D01*
X551641Y171022D01*
X551606Y171074D01*
X551574Y171128D01*
X551545Y171184D01*
X551520Y171242D01*
X551499Y171301D01*
X551481Y171361D01*
X551468Y171423D01*
X551458Y171485D01*
X551452Y171547D01*
X551450Y171610D01*
D13*
X549568Y35838D02*
X558656Y35838D01*
X558656Y35837D02*
X558755Y35835D01*
X558855Y35829D01*
X558954Y35820D01*
X559052Y35807D01*
X559150Y35790D01*
X559248Y35769D01*
X559344Y35744D01*
X559439Y35716D01*
X559533Y35684D01*
X559626Y35649D01*
X559718Y35610D01*
X559808Y35567D01*
X559896Y35522D01*
X559983Y35472D01*
X560067Y35420D01*
X560150Y35364D01*
X560230Y35306D01*
X560308Y35244D01*
X560383Y35179D01*
X560456Y35111D01*
X560526Y35041D01*
X560594Y34968D01*
X560659Y34893D01*
X560721Y34815D01*
X560779Y34735D01*
X560835Y34652D01*
X560887Y34568D01*
X560937Y34481D01*
X560982Y34393D01*
X561025Y34303D01*
X561064Y34211D01*
X561099Y34118D01*
X561131Y34024D01*
X561159Y33929D01*
X561184Y33833D01*
X561205Y33735D01*
X561222Y33637D01*
X561235Y33539D01*
X561244Y33440D01*
X561250Y33340D01*
X561252Y33241D01*
X561252Y31943D01*
X552164Y41111D02*
X549568Y44356D01*
X561252Y44356D01*
X561252Y41111D02*
X561252Y47602D01*
D14*
X585990Y274560D02*
X523990Y274560D01*
X523990Y355360D02*
X585990Y355360D01*
X523990Y355360D02*
X523990Y274560D01*
X585990Y274560D02*
X585990Y281960D01*
X585990Y347960D02*
X585990Y355360D01*
D12*
X553990Y268160D02*
X553992Y268223D01*
X553998Y268285D01*
X554008Y268347D01*
X554021Y268409D01*
X554039Y268469D01*
X554060Y268528D01*
X554085Y268586D01*
X554114Y268642D01*
X554146Y268696D01*
X554181Y268748D01*
X554219Y268797D01*
X554261Y268845D01*
X554305Y268889D01*
X554353Y268931D01*
X554402Y268969D01*
X554454Y269004D01*
X554508Y269036D01*
X554564Y269065D01*
X554622Y269090D01*
X554681Y269111D01*
X554741Y269129D01*
X554803Y269142D01*
X554865Y269152D01*
X554927Y269158D01*
X554990Y269160D01*
X555053Y269158D01*
X555115Y269152D01*
X555177Y269142D01*
X555239Y269129D01*
X555299Y269111D01*
X555358Y269090D01*
X555416Y269065D01*
X555472Y269036D01*
X555526Y269004D01*
X555578Y268969D01*
X555627Y268931D01*
X555675Y268889D01*
X555719Y268845D01*
X555761Y268797D01*
X555799Y268748D01*
X555834Y268696D01*
X555866Y268642D01*
X555895Y268586D01*
X555920Y268528D01*
X555941Y268469D01*
X555959Y268409D01*
X555972Y268347D01*
X555982Y268285D01*
X555988Y268223D01*
X555990Y268160D01*
X555988Y268097D01*
X555982Y268035D01*
X555972Y267973D01*
X555959Y267911D01*
X555941Y267851D01*
X555920Y267792D01*
X555895Y267734D01*
X555866Y267678D01*
X555834Y267624D01*
X555799Y267572D01*
X555761Y267523D01*
X555719Y267475D01*
X555675Y267431D01*
X555627Y267389D01*
X555578Y267351D01*
X555526Y267316D01*
X555472Y267284D01*
X555416Y267255D01*
X555358Y267230D01*
X555299Y267209D01*
X555239Y267191D01*
X555177Y267178D01*
X555115Y267168D01*
X555053Y267162D01*
X554990Y267160D01*
X554927Y267162D01*
X554865Y267168D01*
X554803Y267178D01*
X554741Y267191D01*
X554681Y267209D01*
X554622Y267230D01*
X554564Y267255D01*
X554508Y267284D01*
X554454Y267316D01*
X554402Y267351D01*
X554353Y267389D01*
X554305Y267431D01*
X554261Y267475D01*
X554219Y267523D01*
X554181Y267572D01*
X554146Y267624D01*
X554114Y267678D01*
X554085Y267734D01*
X554060Y267792D01*
X554039Y267851D01*
X554021Y267911D01*
X554008Y267973D01*
X553998Y268035D01*
X553992Y268097D01*
X553990Y268160D01*
D13*
X524506Y368803D02*
X515418Y368803D01*
X524506Y368802D02*
X524605Y368800D01*
X524705Y368794D01*
X524804Y368785D01*
X524902Y368772D01*
X525000Y368755D01*
X525098Y368734D01*
X525194Y368709D01*
X525289Y368681D01*
X525383Y368649D01*
X525476Y368614D01*
X525568Y368575D01*
X525658Y368532D01*
X525746Y368487D01*
X525833Y368437D01*
X525917Y368385D01*
X526000Y368329D01*
X526080Y368271D01*
X526158Y368209D01*
X526233Y368144D01*
X526306Y368076D01*
X526376Y368006D01*
X526444Y367933D01*
X526509Y367858D01*
X526571Y367780D01*
X526629Y367700D01*
X526685Y367617D01*
X526737Y367533D01*
X526787Y367446D01*
X526832Y367358D01*
X526875Y367268D01*
X526914Y367176D01*
X526949Y367083D01*
X526981Y366989D01*
X527009Y366894D01*
X527034Y366798D01*
X527055Y366700D01*
X527072Y366602D01*
X527085Y366504D01*
X527094Y366405D01*
X527100Y366305D01*
X527102Y366206D01*
X527102Y364908D01*
X527102Y374076D02*
X527102Y377322D01*
X527100Y377435D01*
X527094Y377548D01*
X527084Y377661D01*
X527070Y377774D01*
X527053Y377886D01*
X527031Y377997D01*
X527006Y378107D01*
X526976Y378217D01*
X526943Y378325D01*
X526906Y378432D01*
X526866Y378538D01*
X526821Y378642D01*
X526773Y378745D01*
X526722Y378846D01*
X526667Y378945D01*
X526609Y379042D01*
X526547Y379137D01*
X526482Y379230D01*
X526414Y379320D01*
X526343Y379408D01*
X526268Y379494D01*
X526191Y379577D01*
X526111Y379657D01*
X526028Y379734D01*
X525942Y379809D01*
X525854Y379880D01*
X525764Y379948D01*
X525671Y380013D01*
X525576Y380075D01*
X525479Y380133D01*
X525380Y380188D01*
X525279Y380239D01*
X525176Y380287D01*
X525072Y380332D01*
X524966Y380372D01*
X524859Y380409D01*
X524751Y380442D01*
X524641Y380472D01*
X524531Y380497D01*
X524420Y380519D01*
X524308Y380536D01*
X524195Y380550D01*
X524082Y380560D01*
X523969Y380566D01*
X523856Y380568D01*
X523743Y380566D01*
X523630Y380560D01*
X523517Y380550D01*
X523404Y380536D01*
X523292Y380519D01*
X523181Y380497D01*
X523071Y380472D01*
X522961Y380442D01*
X522853Y380409D01*
X522746Y380372D01*
X522640Y380332D01*
X522536Y380287D01*
X522433Y380239D01*
X522332Y380188D01*
X522233Y380133D01*
X522136Y380075D01*
X522041Y380013D01*
X521948Y379948D01*
X521858Y379880D01*
X521770Y379809D01*
X521684Y379734D01*
X521601Y379657D01*
X521521Y379577D01*
X521444Y379494D01*
X521369Y379408D01*
X521298Y379320D01*
X521230Y379230D01*
X521165Y379137D01*
X521103Y379042D01*
X521045Y378945D01*
X520990Y378846D01*
X520939Y378745D01*
X520891Y378642D01*
X520846Y378538D01*
X520806Y378432D01*
X520769Y378325D01*
X520736Y378217D01*
X520706Y378107D01*
X520681Y377997D01*
X520659Y377886D01*
X520642Y377774D01*
X520628Y377661D01*
X520618Y377548D01*
X520612Y377435D01*
X520610Y377322D01*
X515418Y377971D02*
X515418Y374076D01*
X515418Y377971D02*
X515420Y378072D01*
X515426Y378172D01*
X515436Y378272D01*
X515449Y378372D01*
X515467Y378471D01*
X515488Y378570D01*
X515513Y378667D01*
X515542Y378764D01*
X515575Y378859D01*
X515611Y378953D01*
X515651Y379045D01*
X515694Y379136D01*
X515741Y379225D01*
X515791Y379312D01*
X515845Y379398D01*
X515902Y379481D01*
X515962Y379561D01*
X516025Y379640D01*
X516092Y379716D01*
X516161Y379789D01*
X516233Y379859D01*
X516307Y379927D01*
X516384Y379992D01*
X516464Y380053D01*
X516546Y380112D01*
X516630Y380167D01*
X516716Y380219D01*
X516804Y380268D01*
X516894Y380313D01*
X516986Y380355D01*
X517079Y380393D01*
X517174Y380427D01*
X517269Y380458D01*
X517366Y380485D01*
X517464Y380508D01*
X517563Y380528D01*
X517663Y380543D01*
X517763Y380555D01*
X517863Y380563D01*
X517964Y380567D01*
X518064Y380567D01*
X518165Y380563D01*
X518265Y380555D01*
X518365Y380543D01*
X518465Y380528D01*
X518564Y380508D01*
X518662Y380485D01*
X518759Y380458D01*
X518854Y380427D01*
X518949Y380393D01*
X519042Y380355D01*
X519134Y380313D01*
X519224Y380268D01*
X519312Y380219D01*
X519398Y380167D01*
X519482Y380112D01*
X519564Y380053D01*
X519644Y379992D01*
X519721Y379927D01*
X519795Y379859D01*
X519867Y379789D01*
X519936Y379716D01*
X520003Y379640D01*
X520066Y379561D01*
X520126Y379481D01*
X520183Y379398D01*
X520237Y379312D01*
X520287Y379225D01*
X520334Y379136D01*
X520377Y379045D01*
X520417Y378953D01*
X520453Y378859D01*
X520486Y378764D01*
X520515Y378667D01*
X520540Y378570D01*
X520561Y378471D01*
X520579Y378372D01*
X520592Y378272D01*
X520602Y378172D01*
X520608Y378072D01*
X520610Y377971D01*
X520611Y377971D02*
X520611Y375374D01*
D12*
X196850Y46990D02*
X196850Y31750D01*
X208280Y31750D01*
X208280Y46990D02*
X196850Y46990D01*
X215900Y46990D02*
X227330Y46990D01*
X227330Y31750D01*
X215900Y31750D01*
D15*
X180261Y38211D02*
X180261Y45577D01*
X182307Y45577D01*
X182396Y45575D01*
X182485Y45569D01*
X182574Y45559D01*
X182662Y45546D01*
X182750Y45529D01*
X182837Y45507D01*
X182922Y45482D01*
X183007Y45454D01*
X183090Y45421D01*
X183172Y45385D01*
X183252Y45346D01*
X183330Y45303D01*
X183406Y45257D01*
X183481Y45207D01*
X183553Y45154D01*
X183622Y45098D01*
X183689Y45039D01*
X183754Y44978D01*
X183815Y44913D01*
X183874Y44846D01*
X183930Y44777D01*
X183983Y44705D01*
X184033Y44630D01*
X184079Y44554D01*
X184122Y44476D01*
X184161Y44396D01*
X184197Y44314D01*
X184230Y44231D01*
X184258Y44146D01*
X184283Y44061D01*
X184305Y43974D01*
X184322Y43886D01*
X184335Y43798D01*
X184345Y43709D01*
X184351Y43620D01*
X184353Y43531D01*
X184351Y43442D01*
X184345Y43353D01*
X184335Y43264D01*
X184322Y43176D01*
X184305Y43088D01*
X184283Y43001D01*
X184258Y42916D01*
X184230Y42831D01*
X184197Y42748D01*
X184161Y42666D01*
X184122Y42586D01*
X184079Y42508D01*
X184033Y42432D01*
X183983Y42357D01*
X183930Y42285D01*
X183874Y42216D01*
X183815Y42149D01*
X183754Y42084D01*
X183689Y42023D01*
X183622Y41964D01*
X183553Y41908D01*
X183481Y41855D01*
X183406Y41805D01*
X183330Y41759D01*
X183252Y41716D01*
X183172Y41677D01*
X183090Y41641D01*
X183007Y41608D01*
X182922Y41580D01*
X182837Y41555D01*
X182750Y41533D01*
X182662Y41516D01*
X182574Y41503D01*
X182485Y41493D01*
X182396Y41487D01*
X182307Y41485D01*
X180261Y41485D01*
X182716Y41485D02*
X184353Y38211D01*
X187525Y43940D02*
X189571Y45577D01*
X189571Y38211D01*
X187525Y38211D02*
X191617Y38211D01*
D12*
X262890Y31750D02*
X262890Y46990D01*
X251460Y46990D01*
X251460Y31750D02*
X262890Y31750D01*
X243840Y31750D02*
X232410Y31750D01*
X232410Y46990D01*
X243840Y46990D01*
D15*
X232563Y25289D02*
X232563Y17923D01*
X232563Y25289D02*
X234609Y25289D01*
X234698Y25287D01*
X234787Y25281D01*
X234876Y25271D01*
X234964Y25258D01*
X235052Y25241D01*
X235139Y25219D01*
X235224Y25194D01*
X235309Y25166D01*
X235392Y25133D01*
X235474Y25097D01*
X235554Y25058D01*
X235632Y25015D01*
X235708Y24969D01*
X235783Y24919D01*
X235855Y24866D01*
X235924Y24810D01*
X235991Y24751D01*
X236056Y24690D01*
X236117Y24625D01*
X236176Y24558D01*
X236232Y24489D01*
X236285Y24417D01*
X236335Y24342D01*
X236381Y24266D01*
X236424Y24188D01*
X236463Y24108D01*
X236499Y24026D01*
X236532Y23943D01*
X236560Y23858D01*
X236585Y23773D01*
X236607Y23686D01*
X236624Y23598D01*
X236637Y23510D01*
X236647Y23421D01*
X236653Y23332D01*
X236655Y23243D01*
X236653Y23154D01*
X236647Y23065D01*
X236637Y22976D01*
X236624Y22888D01*
X236607Y22800D01*
X236585Y22713D01*
X236560Y22628D01*
X236532Y22543D01*
X236499Y22460D01*
X236463Y22378D01*
X236424Y22298D01*
X236381Y22220D01*
X236335Y22144D01*
X236285Y22069D01*
X236232Y21997D01*
X236176Y21928D01*
X236117Y21861D01*
X236056Y21796D01*
X235991Y21735D01*
X235924Y21676D01*
X235855Y21620D01*
X235783Y21567D01*
X235708Y21517D01*
X235632Y21471D01*
X235554Y21428D01*
X235474Y21389D01*
X235392Y21353D01*
X235309Y21320D01*
X235224Y21292D01*
X235139Y21267D01*
X235052Y21245D01*
X234964Y21228D01*
X234876Y21215D01*
X234787Y21205D01*
X234698Y21199D01*
X234609Y21197D01*
X232563Y21197D01*
X235018Y21197D02*
X236655Y17923D01*
X243920Y23448D02*
X243918Y23533D01*
X243912Y23618D01*
X243902Y23702D01*
X243889Y23786D01*
X243871Y23870D01*
X243850Y23952D01*
X243825Y24033D01*
X243796Y24113D01*
X243763Y24192D01*
X243727Y24269D01*
X243687Y24344D01*
X243644Y24418D01*
X243598Y24489D01*
X243548Y24558D01*
X243495Y24625D01*
X243439Y24689D01*
X243380Y24750D01*
X243319Y24809D01*
X243255Y24865D01*
X243188Y24918D01*
X243119Y24968D01*
X243048Y25014D01*
X242974Y25057D01*
X242899Y25097D01*
X242822Y25133D01*
X242743Y25166D01*
X242663Y25195D01*
X242582Y25220D01*
X242500Y25241D01*
X242416Y25259D01*
X242332Y25272D01*
X242248Y25282D01*
X242163Y25288D01*
X242078Y25290D01*
X242078Y25289D02*
X241982Y25287D01*
X241886Y25281D01*
X241791Y25271D01*
X241696Y25258D01*
X241601Y25240D01*
X241508Y25219D01*
X241415Y25194D01*
X241324Y25165D01*
X241233Y25133D01*
X241144Y25097D01*
X241057Y25057D01*
X240971Y25014D01*
X240887Y24968D01*
X240805Y24918D01*
X240725Y24864D01*
X240648Y24808D01*
X240573Y24748D01*
X240500Y24686D01*
X240430Y24620D01*
X240362Y24552D01*
X240297Y24481D01*
X240236Y24408D01*
X240177Y24332D01*
X240121Y24253D01*
X240069Y24173D01*
X240020Y24090D01*
X239974Y24006D01*
X239932Y23920D01*
X239894Y23832D01*
X239859Y23743D01*
X239827Y23652D01*
X243305Y22016D02*
X243365Y22075D01*
X243422Y22137D01*
X243477Y22201D01*
X243528Y22268D01*
X243577Y22337D01*
X243623Y22407D01*
X243666Y22480D01*
X243706Y22554D01*
X243742Y22630D01*
X243775Y22708D01*
X243805Y22787D01*
X243832Y22867D01*
X243855Y22948D01*
X243874Y23030D01*
X243890Y23112D01*
X243903Y23196D01*
X243912Y23280D01*
X243917Y23364D01*
X243919Y23448D01*
X243305Y22015D02*
X239827Y17923D01*
X243919Y17923D01*
D14*
X471170Y434340D02*
X527050Y434340D01*
X529590Y431800D01*
X532130Y434340D01*
X588010Y434340D01*
X588010Y429260D01*
X582930Y429260D01*
X582930Y398780D01*
X588010Y398780D01*
X588010Y393700D01*
X532130Y393700D01*
X529590Y396240D01*
X527050Y393700D01*
X471170Y393700D01*
X471170Y398780D01*
X476250Y398780D01*
X476250Y429260D01*
X471170Y429260D01*
X471170Y434340D01*
X506730Y424180D02*
X552450Y424180D01*
X552450Y403860D01*
X506730Y403860D01*
X506730Y424180D01*
X509270Y424180D02*
X509270Y403860D01*
X511810Y403860D02*
X511810Y424180D01*
X514350Y424180D02*
X514350Y403860D01*
X516890Y403860D02*
X516890Y424180D01*
X519430Y424180D02*
X519430Y403860D01*
X521970Y403860D02*
X521970Y424180D01*
X524510Y424180D02*
X524510Y403860D01*
D13*
X573363Y378968D02*
X573462Y378970D01*
X573562Y378976D01*
X573661Y378985D01*
X573759Y378998D01*
X573857Y379015D01*
X573955Y379036D01*
X574051Y379061D01*
X574146Y379089D01*
X574240Y379121D01*
X574333Y379156D01*
X574425Y379195D01*
X574515Y379238D01*
X574603Y379283D01*
X574690Y379333D01*
X574774Y379385D01*
X574857Y379441D01*
X574937Y379499D01*
X575015Y379561D01*
X575090Y379626D01*
X575163Y379694D01*
X575233Y379764D01*
X575301Y379837D01*
X575366Y379912D01*
X575428Y379990D01*
X575486Y380070D01*
X575542Y380153D01*
X575594Y380237D01*
X575644Y380324D01*
X575689Y380412D01*
X575732Y380502D01*
X575771Y380594D01*
X575806Y380687D01*
X575838Y380781D01*
X575866Y380876D01*
X575891Y380972D01*
X575912Y381070D01*
X575929Y381168D01*
X575942Y381266D01*
X575951Y381365D01*
X575957Y381465D01*
X575959Y381564D01*
X573363Y378968D02*
X573219Y378970D01*
X573074Y378976D01*
X572930Y378985D01*
X572787Y378998D01*
X572643Y379015D01*
X572500Y379036D01*
X572358Y379061D01*
X572217Y379089D01*
X572076Y379121D01*
X571936Y379157D01*
X571797Y379196D01*
X571659Y379239D01*
X571523Y379286D01*
X571387Y379336D01*
X571253Y379390D01*
X571121Y379447D01*
X570990Y379508D01*
X570861Y379572D01*
X570733Y379640D01*
X570607Y379710D01*
X570483Y379785D01*
X570362Y379862D01*
X570242Y379943D01*
X570124Y380026D01*
X570009Y380113D01*
X569896Y380203D01*
X569785Y380296D01*
X569677Y380391D01*
X569571Y380490D01*
X569468Y380591D01*
X569793Y388056D02*
X569795Y388155D01*
X569801Y388255D01*
X569810Y388354D01*
X569823Y388452D01*
X569840Y388550D01*
X569861Y388648D01*
X569886Y388744D01*
X569914Y388839D01*
X569946Y388933D01*
X569981Y389026D01*
X570020Y389118D01*
X570063Y389208D01*
X570108Y389296D01*
X570158Y389383D01*
X570210Y389467D01*
X570266Y389550D01*
X570324Y389630D01*
X570386Y389708D01*
X570451Y389783D01*
X570519Y389856D01*
X570589Y389926D01*
X570662Y389994D01*
X570737Y390059D01*
X570815Y390121D01*
X570895Y390179D01*
X570978Y390235D01*
X571062Y390287D01*
X571149Y390337D01*
X571237Y390382D01*
X571327Y390425D01*
X571419Y390464D01*
X571512Y390499D01*
X571606Y390531D01*
X571701Y390559D01*
X571798Y390584D01*
X571895Y390605D01*
X571993Y390622D01*
X572091Y390635D01*
X572190Y390644D01*
X572290Y390650D01*
X572389Y390652D01*
X572525Y390650D01*
X572661Y390644D01*
X572797Y390635D01*
X572933Y390622D01*
X573068Y390604D01*
X573202Y390584D01*
X573336Y390559D01*
X573470Y390531D01*
X573602Y390498D01*
X573733Y390463D01*
X573864Y390423D01*
X573993Y390380D01*
X574121Y390334D01*
X574247Y390283D01*
X574373Y390230D01*
X574496Y390172D01*
X574618Y390112D01*
X574738Y390048D01*
X574857Y389980D01*
X574973Y389910D01*
X575087Y389836D01*
X575200Y389759D01*
X575310Y389678D01*
X571091Y385784D02*
X571005Y385837D01*
X570921Y385894D01*
X570839Y385953D01*
X570759Y386016D01*
X570682Y386082D01*
X570607Y386150D01*
X570535Y386222D01*
X570466Y386296D01*
X570400Y386373D01*
X570337Y386452D01*
X570277Y386534D01*
X570220Y386618D01*
X570166Y386704D01*
X570116Y386792D01*
X570069Y386882D01*
X570025Y386973D01*
X569986Y387067D01*
X569949Y387161D01*
X569917Y387257D01*
X569888Y387355D01*
X569863Y387453D01*
X569842Y387552D01*
X569824Y387652D01*
X569811Y387752D01*
X569801Y387853D01*
X569795Y387955D01*
X569793Y388056D01*
X574661Y383836D02*
X574747Y383783D01*
X574831Y383726D01*
X574913Y383667D01*
X574993Y383604D01*
X575070Y383538D01*
X575145Y383470D01*
X575217Y383398D01*
X575286Y383324D01*
X575352Y383247D01*
X575415Y383168D01*
X575475Y383086D01*
X575532Y383002D01*
X575586Y382916D01*
X575636Y382828D01*
X575683Y382738D01*
X575727Y382647D01*
X575766Y382553D01*
X575803Y382459D01*
X575835Y382363D01*
X575864Y382265D01*
X575889Y382167D01*
X575910Y382068D01*
X575928Y381968D01*
X575941Y381868D01*
X575951Y381767D01*
X575957Y381665D01*
X575959Y381564D01*
X574661Y383836D02*
X571091Y385784D01*
X580517Y388056D02*
X583763Y390652D01*
X583763Y378968D01*
X587008Y378968D02*
X580517Y378968D01*
D10*
X499110Y202692D02*
X499110Y200406D01*
X499110Y202692D02*
X499110Y208788D01*
X499110Y211074D01*
X499110Y208788D02*
X499001Y208786D01*
X498893Y208780D01*
X498784Y208771D01*
X498676Y208757D01*
X498569Y208740D01*
X498462Y208718D01*
X498356Y208693D01*
X498251Y208665D01*
X498147Y208632D01*
X498045Y208596D01*
X497944Y208556D01*
X497844Y208513D01*
X497746Y208466D01*
X497649Y208415D01*
X497555Y208361D01*
X497462Y208304D01*
X497372Y208244D01*
X497283Y208180D01*
X497197Y208113D01*
X497114Y208044D01*
X497033Y207971D01*
X496955Y207895D01*
X496879Y207817D01*
X496806Y207736D01*
X496737Y207653D01*
X496670Y207567D01*
X496606Y207478D01*
X496546Y207388D01*
X496489Y207295D01*
X496435Y207201D01*
X496384Y207104D01*
X496337Y207006D01*
X496294Y206906D01*
X496254Y206805D01*
X496218Y206703D01*
X496185Y206599D01*
X496157Y206494D01*
X496132Y206388D01*
X496110Y206281D01*
X496093Y206174D01*
X496079Y206066D01*
X496070Y205957D01*
X496064Y205849D01*
X496062Y205740D01*
X496064Y205631D01*
X496070Y205523D01*
X496079Y205414D01*
X496093Y205306D01*
X496110Y205199D01*
X496132Y205092D01*
X496157Y204986D01*
X496185Y204881D01*
X496218Y204777D01*
X496254Y204675D01*
X496294Y204574D01*
X496337Y204474D01*
X496384Y204376D01*
X496435Y204279D01*
X496489Y204185D01*
X496546Y204092D01*
X496606Y204002D01*
X496670Y203913D01*
X496737Y203827D01*
X496806Y203744D01*
X496879Y203663D01*
X496955Y203585D01*
X497033Y203509D01*
X497114Y203436D01*
X497197Y203367D01*
X497283Y203300D01*
X497372Y203236D01*
X497462Y203176D01*
X497555Y203119D01*
X497649Y203065D01*
X497746Y203014D01*
X497844Y202967D01*
X497944Y202924D01*
X498045Y202884D01*
X498147Y202848D01*
X498251Y202815D01*
X498356Y202787D01*
X498462Y202762D01*
X498569Y202740D01*
X498676Y202723D01*
X498784Y202709D01*
X498893Y202700D01*
X499001Y202694D01*
X499110Y202692D01*
D15*
X504707Y198112D02*
X509660Y198112D01*
X509745Y198114D01*
X509831Y198120D01*
X509916Y198129D01*
X510000Y198143D01*
X510084Y198160D01*
X510167Y198181D01*
X510249Y198205D01*
X510329Y198233D01*
X510409Y198265D01*
X510487Y198301D01*
X510563Y198339D01*
X510637Y198382D01*
X510709Y198427D01*
X510780Y198476D01*
X510848Y198528D01*
X510913Y198582D01*
X510976Y198640D01*
X511037Y198701D01*
X511095Y198764D01*
X511149Y198829D01*
X511201Y198897D01*
X511250Y198968D01*
X511295Y199040D01*
X511338Y199114D01*
X511376Y199190D01*
X511412Y199268D01*
X511444Y199348D01*
X511472Y199428D01*
X511496Y199510D01*
X511517Y199593D01*
X511534Y199677D01*
X511548Y199761D01*
X511557Y199846D01*
X511563Y199932D01*
X511565Y200017D01*
X511563Y200102D01*
X511557Y200188D01*
X511548Y200273D01*
X511534Y200357D01*
X511517Y200441D01*
X511496Y200524D01*
X511472Y200606D01*
X511444Y200686D01*
X511412Y200766D01*
X511376Y200844D01*
X511338Y200920D01*
X511295Y200994D01*
X511250Y201066D01*
X511201Y201137D01*
X511149Y201205D01*
X511095Y201270D01*
X511037Y201333D01*
X510976Y201394D01*
X510913Y201452D01*
X510848Y201506D01*
X510780Y201558D01*
X510709Y201607D01*
X510637Y201652D01*
X510563Y201695D01*
X510487Y201733D01*
X510409Y201769D01*
X510329Y201801D01*
X510249Y201829D01*
X510167Y201853D01*
X510084Y201874D01*
X510000Y201891D01*
X509916Y201905D01*
X509831Y201914D01*
X509745Y201920D01*
X509660Y201922D01*
X504707Y201922D01*
X504707Y206646D02*
X511565Y206646D01*
X508136Y206646D02*
X507565Y205694D01*
X507529Y205637D01*
X507489Y205583D01*
X507446Y205531D01*
X507401Y205481D01*
X507352Y205435D01*
X507301Y205391D01*
X507248Y205351D01*
X507192Y205314D01*
X507134Y205280D01*
X507074Y205249D01*
X507012Y205223D01*
X506949Y205199D01*
X506885Y205180D01*
X506819Y205165D01*
X506753Y205153D01*
X506687Y205145D01*
X506619Y205141D01*
X506552Y205142D01*
X506485Y205146D01*
X506419Y205154D01*
X506352Y205166D01*
X506287Y205182D01*
X506223Y205201D01*
X506160Y205225D01*
X506099Y205252D01*
X506039Y205283D01*
X505981Y205317D01*
X505925Y205355D01*
X505872Y205395D01*
X505821Y205439D01*
X505773Y205486D01*
X505728Y205535D01*
X505685Y205588D01*
X505646Y205642D01*
X505610Y205699D01*
X505577Y205758D01*
X505548Y205818D01*
X505523Y205880D01*
X505501Y205944D01*
X505484Y206009D01*
X505470Y206074D01*
X505469Y206075D02*
X505452Y206182D01*
X505438Y206290D01*
X505428Y206398D01*
X505422Y206507D01*
X505420Y206616D01*
X505422Y206724D01*
X505428Y206833D01*
X505437Y206942D01*
X505451Y207049D01*
X505469Y207157D01*
X505490Y207264D01*
X505515Y207369D01*
X505544Y207474D01*
X505577Y207578D01*
X505614Y207681D01*
X505654Y207782D01*
X505698Y207881D01*
X505745Y207979D01*
X505796Y208075D01*
X505850Y208170D01*
X508136Y206646D02*
X508708Y207599D01*
X508707Y207598D02*
X508743Y207655D01*
X508783Y207709D01*
X508826Y207761D01*
X508871Y207811D01*
X508920Y207857D01*
X508971Y207901D01*
X509024Y207941D01*
X509080Y207978D01*
X509138Y208012D01*
X509198Y208043D01*
X509260Y208069D01*
X509323Y208093D01*
X509387Y208112D01*
X509453Y208127D01*
X509519Y208139D01*
X509585Y208147D01*
X509653Y208151D01*
X509720Y208150D01*
X509787Y208146D01*
X509853Y208138D01*
X509920Y208126D01*
X509985Y208110D01*
X510049Y208091D01*
X510112Y208067D01*
X510173Y208040D01*
X510233Y208009D01*
X510291Y207975D01*
X510347Y207937D01*
X510400Y207897D01*
X510451Y207853D01*
X510499Y207806D01*
X510544Y207757D01*
X510587Y207704D01*
X510626Y207650D01*
X510662Y207593D01*
X510695Y207534D01*
X510724Y207474D01*
X510749Y207412D01*
X510771Y207348D01*
X510788Y207283D01*
X510802Y207218D01*
X510803Y207217D02*
X510820Y207110D01*
X510834Y207002D01*
X510844Y206894D01*
X510850Y206785D01*
X510852Y206676D01*
X510850Y206568D01*
X510844Y206459D01*
X510835Y206350D01*
X510821Y206243D01*
X510803Y206135D01*
X510782Y206028D01*
X510757Y205923D01*
X510728Y205818D01*
X510695Y205714D01*
X510658Y205611D01*
X510618Y205510D01*
X510574Y205411D01*
X510527Y205313D01*
X510476Y205217D01*
X510422Y205122D01*
X506231Y211142D02*
X504707Y213047D01*
X511565Y213047D01*
X511565Y211142D02*
X511565Y214952D01*
D14*
X433070Y53390D02*
X1270Y53390D01*
X433070Y53390D02*
X433070Y231090D01*
X1270Y231090D01*
X1270Y186240D01*
X1270Y98240D01*
X1270Y53390D01*
D12*
X38370Y47240D02*
X38372Y47303D01*
X38378Y47365D01*
X38388Y47427D01*
X38401Y47489D01*
X38419Y47549D01*
X38440Y47608D01*
X38465Y47666D01*
X38494Y47722D01*
X38526Y47776D01*
X38561Y47828D01*
X38599Y47877D01*
X38641Y47925D01*
X38685Y47969D01*
X38733Y48011D01*
X38782Y48049D01*
X38834Y48084D01*
X38888Y48116D01*
X38944Y48145D01*
X39002Y48170D01*
X39061Y48191D01*
X39121Y48209D01*
X39183Y48222D01*
X39245Y48232D01*
X39307Y48238D01*
X39370Y48240D01*
X39433Y48238D01*
X39495Y48232D01*
X39557Y48222D01*
X39619Y48209D01*
X39679Y48191D01*
X39738Y48170D01*
X39796Y48145D01*
X39852Y48116D01*
X39906Y48084D01*
X39958Y48049D01*
X40007Y48011D01*
X40055Y47969D01*
X40099Y47925D01*
X40141Y47877D01*
X40179Y47828D01*
X40214Y47776D01*
X40246Y47722D01*
X40275Y47666D01*
X40300Y47608D01*
X40321Y47549D01*
X40339Y47489D01*
X40352Y47427D01*
X40362Y47365D01*
X40368Y47303D01*
X40370Y47240D01*
X40368Y47177D01*
X40362Y47115D01*
X40352Y47053D01*
X40339Y46991D01*
X40321Y46931D01*
X40300Y46872D01*
X40275Y46814D01*
X40246Y46758D01*
X40214Y46704D01*
X40179Y46652D01*
X40141Y46603D01*
X40099Y46555D01*
X40055Y46511D01*
X40007Y46469D01*
X39958Y46431D01*
X39906Y46396D01*
X39852Y46364D01*
X39796Y46335D01*
X39738Y46310D01*
X39679Y46289D01*
X39619Y46271D01*
X39557Y46258D01*
X39495Y46248D01*
X39433Y46242D01*
X39370Y46240D01*
X39307Y46242D01*
X39245Y46248D01*
X39183Y46258D01*
X39121Y46271D01*
X39061Y46289D01*
X39002Y46310D01*
X38944Y46335D01*
X38888Y46364D01*
X38834Y46396D01*
X38782Y46431D01*
X38733Y46469D01*
X38685Y46511D01*
X38641Y46555D01*
X38599Y46603D01*
X38561Y46652D01*
X38526Y46704D01*
X38494Y46758D01*
X38465Y46814D01*
X38440Y46872D01*
X38419Y46931D01*
X38401Y46991D01*
X38388Y47053D01*
X38378Y47115D01*
X38372Y47177D01*
X38370Y47240D01*
D14*
X1270Y186240D02*
X-18730Y186240D01*
X-18730Y98240D01*
X1270Y98240D01*
D13*
X30618Y96952D02*
X30618Y88514D01*
X30620Y88401D01*
X30626Y88288D01*
X30636Y88175D01*
X30650Y88062D01*
X30667Y87950D01*
X30689Y87839D01*
X30714Y87729D01*
X30744Y87619D01*
X30777Y87511D01*
X30814Y87404D01*
X30854Y87298D01*
X30899Y87194D01*
X30947Y87091D01*
X30998Y86990D01*
X31053Y86891D01*
X31111Y86794D01*
X31173Y86699D01*
X31238Y86606D01*
X31306Y86516D01*
X31377Y86428D01*
X31452Y86342D01*
X31529Y86259D01*
X31609Y86179D01*
X31692Y86102D01*
X31778Y86027D01*
X31866Y85956D01*
X31956Y85888D01*
X32049Y85823D01*
X32144Y85761D01*
X32241Y85703D01*
X32340Y85648D01*
X32441Y85597D01*
X32544Y85549D01*
X32648Y85504D01*
X32754Y85464D01*
X32861Y85427D01*
X32969Y85394D01*
X33079Y85364D01*
X33189Y85339D01*
X33300Y85317D01*
X33412Y85300D01*
X33525Y85286D01*
X33638Y85276D01*
X33751Y85270D01*
X33864Y85268D01*
X33977Y85270D01*
X34090Y85276D01*
X34203Y85286D01*
X34316Y85300D01*
X34428Y85317D01*
X34539Y85339D01*
X34649Y85364D01*
X34759Y85394D01*
X34867Y85427D01*
X34974Y85464D01*
X35080Y85504D01*
X35184Y85549D01*
X35287Y85597D01*
X35388Y85648D01*
X35487Y85703D01*
X35584Y85761D01*
X35679Y85823D01*
X35772Y85888D01*
X35862Y85956D01*
X35950Y86027D01*
X36036Y86102D01*
X36119Y86179D01*
X36199Y86259D01*
X36276Y86342D01*
X36351Y86428D01*
X36422Y86516D01*
X36490Y86606D01*
X36555Y86699D01*
X36617Y86794D01*
X36675Y86891D01*
X36730Y86990D01*
X36781Y87091D01*
X36829Y87194D01*
X36874Y87298D01*
X36914Y87404D01*
X36951Y87511D01*
X36984Y87619D01*
X37014Y87729D01*
X37039Y87839D01*
X37061Y87950D01*
X37078Y88062D01*
X37092Y88175D01*
X37102Y88288D01*
X37108Y88401D01*
X37110Y88514D01*
X37109Y88514D02*
X37109Y96952D01*
X42429Y94356D02*
X45675Y96952D01*
X45675Y85268D01*
X48920Y85268D02*
X42429Y85268D01*
D14*
X542290Y254000D02*
X572770Y254000D01*
X542290Y254000D02*
X542290Y182880D01*
X572770Y182880D01*
X572770Y254000D01*
D13*
X580418Y243332D02*
X580418Y235543D01*
X576524Y239437D02*
X584313Y239437D01*
X577878Y200152D02*
X577878Y192363D01*
X533456Y230364D02*
X525018Y230364D01*
X533456Y230363D02*
X533569Y230365D01*
X533682Y230371D01*
X533795Y230381D01*
X533908Y230395D01*
X534020Y230412D01*
X534131Y230434D01*
X534241Y230459D01*
X534351Y230489D01*
X534459Y230522D01*
X534566Y230559D01*
X534672Y230599D01*
X534776Y230644D01*
X534879Y230692D01*
X534980Y230743D01*
X535079Y230798D01*
X535176Y230856D01*
X535271Y230918D01*
X535364Y230983D01*
X535454Y231051D01*
X535542Y231122D01*
X535628Y231197D01*
X535711Y231274D01*
X535791Y231354D01*
X535868Y231437D01*
X535943Y231523D01*
X536014Y231611D01*
X536082Y231701D01*
X536147Y231794D01*
X536209Y231889D01*
X536267Y231986D01*
X536322Y232085D01*
X536373Y232186D01*
X536421Y232289D01*
X536466Y232393D01*
X536506Y232499D01*
X536543Y232606D01*
X536576Y232714D01*
X536606Y232824D01*
X536631Y232934D01*
X536653Y233045D01*
X536670Y233157D01*
X536684Y233270D01*
X536694Y233383D01*
X536700Y233496D01*
X536702Y233609D01*
X536700Y233722D01*
X536694Y233835D01*
X536684Y233948D01*
X536670Y234061D01*
X536653Y234173D01*
X536631Y234284D01*
X536606Y234394D01*
X536576Y234504D01*
X536543Y234612D01*
X536506Y234719D01*
X536466Y234825D01*
X536421Y234929D01*
X536373Y235032D01*
X536322Y235133D01*
X536267Y235232D01*
X536209Y235329D01*
X536147Y235424D01*
X536082Y235517D01*
X536014Y235607D01*
X535943Y235695D01*
X535868Y235781D01*
X535791Y235864D01*
X535711Y235944D01*
X535628Y236021D01*
X535542Y236096D01*
X535454Y236167D01*
X535364Y236235D01*
X535271Y236300D01*
X535176Y236362D01*
X535079Y236420D01*
X534980Y236475D01*
X534879Y236526D01*
X534776Y236574D01*
X534672Y236619D01*
X534566Y236659D01*
X534459Y236696D01*
X534351Y236729D01*
X534241Y236759D01*
X534131Y236784D01*
X534020Y236806D01*
X533908Y236823D01*
X533795Y236837D01*
X533682Y236847D01*
X533569Y236853D01*
X533456Y236855D01*
X525018Y236855D01*
X525018Y244658D02*
X536702Y244658D01*
X530860Y244658D02*
X529886Y243036D01*
X529887Y243035D02*
X529840Y242962D01*
X529791Y242891D01*
X529738Y242822D01*
X529682Y242755D01*
X529623Y242691D01*
X529562Y242629D01*
X529498Y242571D01*
X529431Y242515D01*
X529362Y242463D01*
X529290Y242413D01*
X529216Y242367D01*
X529141Y242324D01*
X529063Y242285D01*
X528984Y242249D01*
X528903Y242217D01*
X528821Y242188D01*
X528738Y242163D01*
X528654Y242142D01*
X528569Y242125D01*
X528483Y242111D01*
X528397Y242102D01*
X528310Y242096D01*
X528223Y242094D01*
X528136Y242096D01*
X528049Y242102D01*
X527963Y242112D01*
X527877Y242125D01*
X527792Y242143D01*
X527708Y242164D01*
X527625Y242189D01*
X527542Y242218D01*
X527462Y242250D01*
X527383Y242286D01*
X527305Y242325D01*
X527230Y242368D01*
X527156Y242415D01*
X527085Y242464D01*
X527015Y242517D01*
X526949Y242572D01*
X526885Y242631D01*
X526823Y242692D01*
X526764Y242756D01*
X526709Y242823D01*
X526656Y242892D01*
X526606Y242964D01*
X526560Y243037D01*
X526517Y243113D01*
X526478Y243190D01*
X526442Y243269D01*
X526409Y243350D01*
X526381Y243432D01*
X526355Y243515D01*
X526334Y243599D01*
X526317Y243684D01*
X526316Y243685D02*
X526292Y243825D01*
X526272Y243967D01*
X526256Y244108D01*
X526245Y244250D01*
X526237Y244393D01*
X526233Y244535D01*
X526232Y244678D01*
X526236Y244821D01*
X526244Y244963D01*
X526256Y245105D01*
X526272Y245247D01*
X526291Y245388D01*
X526315Y245529D01*
X526342Y245669D01*
X526374Y245808D01*
X526409Y245946D01*
X526448Y246084D01*
X526491Y246220D01*
X526537Y246354D01*
X526588Y246488D01*
X526641Y246620D01*
X526699Y246750D01*
X526760Y246879D01*
X526825Y247006D01*
X526893Y247132D01*
X526965Y247255D01*
X530860Y244658D02*
X531834Y246281D01*
X531833Y246282D02*
X531880Y246355D01*
X531929Y246426D01*
X531982Y246496D01*
X532038Y246562D01*
X532097Y246626D01*
X532158Y246688D01*
X532222Y246746D01*
X532289Y246802D01*
X532358Y246854D01*
X532430Y246904D01*
X532504Y246950D01*
X532579Y246993D01*
X532657Y247032D01*
X532736Y247068D01*
X532817Y247100D01*
X532899Y247129D01*
X532982Y247154D01*
X533066Y247175D01*
X533151Y247192D01*
X533237Y247206D01*
X533324Y247215D01*
X533410Y247221D01*
X533497Y247223D01*
X533584Y247221D01*
X533671Y247215D01*
X533757Y247205D01*
X533843Y247192D01*
X533928Y247174D01*
X534012Y247153D01*
X534095Y247128D01*
X534178Y247099D01*
X534258Y247067D01*
X534337Y247031D01*
X534415Y246992D01*
X534490Y246949D01*
X534564Y246902D01*
X534635Y246853D01*
X534705Y246800D01*
X534771Y246745D01*
X534835Y246686D01*
X534897Y246625D01*
X534956Y246560D01*
X535011Y246494D01*
X535064Y246425D01*
X535114Y246353D01*
X535160Y246280D01*
X535203Y246204D01*
X535242Y246127D01*
X535278Y246048D01*
X535311Y245967D01*
X535339Y245885D01*
X535365Y245802D01*
X535386Y245718D01*
X535403Y245632D01*
X535404Y245632D02*
X535428Y245492D01*
X535448Y245350D01*
X535464Y245209D01*
X535475Y245067D01*
X535483Y244924D01*
X535487Y244782D01*
X535488Y244639D01*
X535484Y244496D01*
X535476Y244354D01*
X535464Y244212D01*
X535448Y244070D01*
X535429Y243929D01*
X535405Y243788D01*
X535378Y243648D01*
X535346Y243509D01*
X535311Y243371D01*
X535272Y243233D01*
X535229Y243097D01*
X535183Y242963D01*
X535132Y242829D01*
X535079Y242697D01*
X535021Y242567D01*
X534960Y242438D01*
X534895Y242311D01*
X534827Y242185D01*
X534755Y242062D01*
X525018Y255651D02*
X525020Y255758D01*
X525026Y255864D01*
X525036Y255970D01*
X525049Y256076D01*
X525067Y256182D01*
X525088Y256286D01*
X525113Y256390D01*
X525142Y256493D01*
X525174Y256594D01*
X525211Y256694D01*
X525251Y256793D01*
X525294Y256891D01*
X525341Y256987D01*
X525392Y257081D01*
X525446Y257173D01*
X525503Y257263D01*
X525563Y257351D01*
X525627Y257436D01*
X525694Y257519D01*
X525764Y257600D01*
X525836Y257678D01*
X525912Y257754D01*
X525990Y257826D01*
X526071Y257896D01*
X526154Y257963D01*
X526239Y258027D01*
X526327Y258087D01*
X526417Y258144D01*
X526509Y258198D01*
X526603Y258249D01*
X526699Y258296D01*
X526797Y258339D01*
X526896Y258379D01*
X526996Y258416D01*
X527097Y258448D01*
X527200Y258477D01*
X527304Y258502D01*
X527408Y258523D01*
X527514Y258541D01*
X527620Y258554D01*
X527726Y258564D01*
X527832Y258570D01*
X527939Y258572D01*
X525018Y255651D02*
X525020Y255530D01*
X525026Y255409D01*
X525036Y255289D01*
X525049Y255168D01*
X525067Y255049D01*
X525088Y254929D01*
X525113Y254811D01*
X525142Y254694D01*
X525175Y254577D01*
X525211Y254462D01*
X525252Y254348D01*
X525295Y254235D01*
X525343Y254123D01*
X525394Y254014D01*
X525449Y253906D01*
X525507Y253799D01*
X525568Y253695D01*
X525633Y253593D01*
X525701Y253493D01*
X525772Y253395D01*
X525846Y253299D01*
X525923Y253206D01*
X526004Y253116D01*
X526087Y253028D01*
X526173Y252943D01*
X526262Y252860D01*
X526353Y252781D01*
X526447Y252704D01*
X526543Y252631D01*
X526641Y252561D01*
X526742Y252494D01*
X526845Y252430D01*
X526950Y252370D01*
X527057Y252312D01*
X527165Y252259D01*
X527275Y252209D01*
X527387Y252163D01*
X527500Y252120D01*
X527615Y252081D01*
X530211Y257598D02*
X530133Y257677D01*
X530053Y257753D01*
X529970Y257826D01*
X529884Y257896D01*
X529797Y257963D01*
X529706Y258027D01*
X529614Y258087D01*
X529520Y258145D01*
X529423Y258199D01*
X529325Y258249D01*
X529225Y258296D01*
X529124Y258340D01*
X529021Y258380D01*
X528916Y258416D01*
X528811Y258448D01*
X528704Y258477D01*
X528597Y258502D01*
X528488Y258524D01*
X528379Y258541D01*
X528270Y258555D01*
X528160Y258564D01*
X528049Y258570D01*
X527939Y258572D01*
X530211Y257598D02*
X536702Y252081D01*
X536702Y258572D01*
D12*
X425630Y269260D02*
X425632Y269323D01*
X425638Y269385D01*
X425648Y269447D01*
X425661Y269509D01*
X425679Y269569D01*
X425700Y269628D01*
X425725Y269686D01*
X425754Y269742D01*
X425786Y269796D01*
X425821Y269848D01*
X425859Y269897D01*
X425901Y269945D01*
X425945Y269989D01*
X425993Y270031D01*
X426042Y270069D01*
X426094Y270104D01*
X426148Y270136D01*
X426204Y270165D01*
X426262Y270190D01*
X426321Y270211D01*
X426381Y270229D01*
X426443Y270242D01*
X426505Y270252D01*
X426567Y270258D01*
X426630Y270260D01*
X426693Y270258D01*
X426755Y270252D01*
X426817Y270242D01*
X426879Y270229D01*
X426939Y270211D01*
X426998Y270190D01*
X427056Y270165D01*
X427112Y270136D01*
X427166Y270104D01*
X427218Y270069D01*
X427267Y270031D01*
X427315Y269989D01*
X427359Y269945D01*
X427401Y269897D01*
X427439Y269848D01*
X427474Y269796D01*
X427506Y269742D01*
X427535Y269686D01*
X427560Y269628D01*
X427581Y269569D01*
X427599Y269509D01*
X427612Y269447D01*
X427622Y269385D01*
X427628Y269323D01*
X427630Y269260D01*
X427628Y269197D01*
X427622Y269135D01*
X427612Y269073D01*
X427599Y269011D01*
X427581Y268951D01*
X427560Y268892D01*
X427535Y268834D01*
X427506Y268778D01*
X427474Y268724D01*
X427439Y268672D01*
X427401Y268623D01*
X427359Y268575D01*
X427315Y268531D01*
X427267Y268489D01*
X427218Y268451D01*
X427166Y268416D01*
X427112Y268384D01*
X427056Y268355D01*
X426998Y268330D01*
X426939Y268309D01*
X426879Y268291D01*
X426817Y268278D01*
X426755Y268268D01*
X426693Y268262D01*
X426630Y268260D01*
X426567Y268262D01*
X426505Y268268D01*
X426443Y268278D01*
X426381Y268291D01*
X426321Y268309D01*
X426262Y268330D01*
X426204Y268355D01*
X426148Y268384D01*
X426094Y268416D01*
X426042Y268451D01*
X425993Y268489D01*
X425945Y268531D01*
X425901Y268575D01*
X425859Y268623D01*
X425821Y268672D01*
X425786Y268724D01*
X425754Y268778D01*
X425725Y268834D01*
X425700Y268892D01*
X425679Y268951D01*
X425661Y269011D01*
X425648Y269073D01*
X425638Y269135D01*
X425632Y269197D01*
X425630Y269260D01*
D14*
X422480Y291960D02*
X422480Y337960D01*
X463980Y337960D02*
X463980Y291960D01*
D13*
X435620Y311434D02*
X435620Y319872D01*
X435619Y311434D02*
X435621Y311321D01*
X435627Y311208D01*
X435637Y311095D01*
X435651Y310982D01*
X435668Y310870D01*
X435690Y310759D01*
X435715Y310649D01*
X435745Y310539D01*
X435778Y310431D01*
X435815Y310324D01*
X435855Y310218D01*
X435900Y310114D01*
X435948Y310011D01*
X435999Y309910D01*
X436054Y309811D01*
X436112Y309714D01*
X436174Y309619D01*
X436239Y309526D01*
X436307Y309436D01*
X436378Y309348D01*
X436453Y309262D01*
X436530Y309179D01*
X436610Y309099D01*
X436693Y309022D01*
X436779Y308947D01*
X436867Y308876D01*
X436957Y308808D01*
X437050Y308743D01*
X437145Y308681D01*
X437242Y308623D01*
X437341Y308568D01*
X437442Y308517D01*
X437545Y308469D01*
X437649Y308424D01*
X437755Y308384D01*
X437862Y308347D01*
X437970Y308314D01*
X438080Y308284D01*
X438190Y308259D01*
X438301Y308237D01*
X438413Y308220D01*
X438526Y308206D01*
X438639Y308196D01*
X438752Y308190D01*
X438865Y308188D01*
X438978Y308190D01*
X439091Y308196D01*
X439204Y308206D01*
X439317Y308220D01*
X439429Y308237D01*
X439540Y308259D01*
X439650Y308284D01*
X439760Y308314D01*
X439868Y308347D01*
X439975Y308384D01*
X440081Y308424D01*
X440185Y308469D01*
X440288Y308517D01*
X440389Y308568D01*
X440488Y308623D01*
X440585Y308681D01*
X440680Y308743D01*
X440773Y308808D01*
X440863Y308876D01*
X440951Y308947D01*
X441037Y309022D01*
X441120Y309099D01*
X441200Y309179D01*
X441277Y309262D01*
X441352Y309348D01*
X441423Y309436D01*
X441491Y309526D01*
X441556Y309619D01*
X441618Y309714D01*
X441676Y309811D01*
X441731Y309910D01*
X441782Y310011D01*
X441830Y310114D01*
X441875Y310218D01*
X441915Y310324D01*
X441952Y310431D01*
X441985Y310539D01*
X442015Y310649D01*
X442040Y310759D01*
X442062Y310870D01*
X442079Y310982D01*
X442093Y311095D01*
X442103Y311208D01*
X442109Y311321D01*
X442111Y311434D01*
X442111Y319872D01*
X451001Y319872D02*
X451108Y319870D01*
X451214Y319864D01*
X451320Y319854D01*
X451426Y319841D01*
X451532Y319823D01*
X451636Y319802D01*
X451740Y319777D01*
X451843Y319748D01*
X451944Y319716D01*
X452044Y319679D01*
X452143Y319639D01*
X452241Y319596D01*
X452337Y319549D01*
X452431Y319498D01*
X452523Y319444D01*
X452613Y319387D01*
X452701Y319327D01*
X452786Y319263D01*
X452869Y319196D01*
X452950Y319126D01*
X453028Y319054D01*
X453104Y318978D01*
X453176Y318900D01*
X453246Y318819D01*
X453313Y318736D01*
X453377Y318651D01*
X453437Y318563D01*
X453494Y318473D01*
X453548Y318381D01*
X453599Y318287D01*
X453646Y318191D01*
X453689Y318093D01*
X453729Y317994D01*
X453766Y317894D01*
X453798Y317793D01*
X453827Y317690D01*
X453852Y317586D01*
X453873Y317482D01*
X453891Y317376D01*
X453904Y317270D01*
X453914Y317164D01*
X453920Y317058D01*
X453922Y316951D01*
X451001Y319872D02*
X450880Y319870D01*
X450759Y319864D01*
X450639Y319854D01*
X450518Y319841D01*
X450399Y319823D01*
X450279Y319802D01*
X450161Y319777D01*
X450044Y319748D01*
X449927Y319715D01*
X449812Y319679D01*
X449698Y319638D01*
X449585Y319595D01*
X449473Y319547D01*
X449364Y319496D01*
X449256Y319441D01*
X449149Y319383D01*
X449045Y319322D01*
X448943Y319257D01*
X448843Y319189D01*
X448745Y319118D01*
X448649Y319044D01*
X448556Y318967D01*
X448466Y318886D01*
X448378Y318803D01*
X448293Y318717D01*
X448210Y318628D01*
X448131Y318537D01*
X448054Y318443D01*
X447981Y318347D01*
X447911Y318249D01*
X447844Y318148D01*
X447780Y318045D01*
X447720Y317940D01*
X447663Y317833D01*
X447609Y317725D01*
X447559Y317615D01*
X447513Y317503D01*
X447470Y317390D01*
X447431Y317275D01*
X452949Y314679D02*
X453028Y314756D01*
X453104Y314837D01*
X453177Y314920D01*
X453247Y315005D01*
X453314Y315093D01*
X453378Y315183D01*
X453438Y315275D01*
X453495Y315370D01*
X453549Y315466D01*
X453600Y315564D01*
X453647Y315664D01*
X453691Y315766D01*
X453731Y315869D01*
X453767Y315973D01*
X453799Y316079D01*
X453828Y316185D01*
X453853Y316293D01*
X453875Y316401D01*
X453892Y316511D01*
X453906Y316620D01*
X453915Y316730D01*
X453921Y316841D01*
X453923Y316951D01*
X452948Y314679D02*
X447431Y308188D01*
X453922Y308188D01*
D12*
X367210Y269260D02*
X367212Y269323D01*
X367218Y269385D01*
X367228Y269447D01*
X367241Y269509D01*
X367259Y269569D01*
X367280Y269628D01*
X367305Y269686D01*
X367334Y269742D01*
X367366Y269796D01*
X367401Y269848D01*
X367439Y269897D01*
X367481Y269945D01*
X367525Y269989D01*
X367573Y270031D01*
X367622Y270069D01*
X367674Y270104D01*
X367728Y270136D01*
X367784Y270165D01*
X367842Y270190D01*
X367901Y270211D01*
X367961Y270229D01*
X368023Y270242D01*
X368085Y270252D01*
X368147Y270258D01*
X368210Y270260D01*
X368273Y270258D01*
X368335Y270252D01*
X368397Y270242D01*
X368459Y270229D01*
X368519Y270211D01*
X368578Y270190D01*
X368636Y270165D01*
X368692Y270136D01*
X368746Y270104D01*
X368798Y270069D01*
X368847Y270031D01*
X368895Y269989D01*
X368939Y269945D01*
X368981Y269897D01*
X369019Y269848D01*
X369054Y269796D01*
X369086Y269742D01*
X369115Y269686D01*
X369140Y269628D01*
X369161Y269569D01*
X369179Y269509D01*
X369192Y269447D01*
X369202Y269385D01*
X369208Y269323D01*
X369210Y269260D01*
X369208Y269197D01*
X369202Y269135D01*
X369192Y269073D01*
X369179Y269011D01*
X369161Y268951D01*
X369140Y268892D01*
X369115Y268834D01*
X369086Y268778D01*
X369054Y268724D01*
X369019Y268672D01*
X368981Y268623D01*
X368939Y268575D01*
X368895Y268531D01*
X368847Y268489D01*
X368798Y268451D01*
X368746Y268416D01*
X368692Y268384D01*
X368636Y268355D01*
X368578Y268330D01*
X368519Y268309D01*
X368459Y268291D01*
X368397Y268278D01*
X368335Y268268D01*
X368273Y268262D01*
X368210Y268260D01*
X368147Y268262D01*
X368085Y268268D01*
X368023Y268278D01*
X367961Y268291D01*
X367901Y268309D01*
X367842Y268330D01*
X367784Y268355D01*
X367728Y268384D01*
X367674Y268416D01*
X367622Y268451D01*
X367573Y268489D01*
X367525Y268531D01*
X367481Y268575D01*
X367439Y268623D01*
X367401Y268672D01*
X367366Y268724D01*
X367334Y268778D01*
X367305Y268834D01*
X367280Y268892D01*
X367259Y268951D01*
X367241Y269011D01*
X367228Y269073D01*
X367218Y269135D01*
X367212Y269197D01*
X367210Y269260D01*
D14*
X364060Y291960D02*
X364060Y337960D01*
X405560Y337960D02*
X405560Y291960D01*
D13*
X374660Y311434D02*
X374660Y319872D01*
X374659Y311434D02*
X374661Y311321D01*
X374667Y311208D01*
X374677Y311095D01*
X374691Y310982D01*
X374708Y310870D01*
X374730Y310759D01*
X374755Y310649D01*
X374785Y310539D01*
X374818Y310431D01*
X374855Y310324D01*
X374895Y310218D01*
X374940Y310114D01*
X374988Y310011D01*
X375039Y309910D01*
X375094Y309811D01*
X375152Y309714D01*
X375214Y309619D01*
X375279Y309526D01*
X375347Y309436D01*
X375418Y309348D01*
X375493Y309262D01*
X375570Y309179D01*
X375650Y309099D01*
X375733Y309022D01*
X375819Y308947D01*
X375907Y308876D01*
X375997Y308808D01*
X376090Y308743D01*
X376185Y308681D01*
X376282Y308623D01*
X376381Y308568D01*
X376482Y308517D01*
X376585Y308469D01*
X376689Y308424D01*
X376795Y308384D01*
X376902Y308347D01*
X377010Y308314D01*
X377120Y308284D01*
X377230Y308259D01*
X377341Y308237D01*
X377453Y308220D01*
X377566Y308206D01*
X377679Y308196D01*
X377792Y308190D01*
X377905Y308188D01*
X378018Y308190D01*
X378131Y308196D01*
X378244Y308206D01*
X378357Y308220D01*
X378469Y308237D01*
X378580Y308259D01*
X378690Y308284D01*
X378800Y308314D01*
X378908Y308347D01*
X379015Y308384D01*
X379121Y308424D01*
X379225Y308469D01*
X379328Y308517D01*
X379429Y308568D01*
X379528Y308623D01*
X379625Y308681D01*
X379720Y308743D01*
X379813Y308808D01*
X379903Y308876D01*
X379991Y308947D01*
X380077Y309022D01*
X380160Y309099D01*
X380240Y309179D01*
X380317Y309262D01*
X380392Y309348D01*
X380463Y309436D01*
X380531Y309526D01*
X380596Y309619D01*
X380658Y309714D01*
X380716Y309811D01*
X380771Y309910D01*
X380822Y310011D01*
X380870Y310114D01*
X380915Y310218D01*
X380955Y310324D01*
X380992Y310431D01*
X381025Y310539D01*
X381055Y310649D01*
X381080Y310759D01*
X381102Y310870D01*
X381119Y310982D01*
X381133Y311095D01*
X381143Y311208D01*
X381149Y311321D01*
X381151Y311434D01*
X381151Y319872D01*
X389067Y319872D02*
X386471Y310784D01*
X392962Y310784D01*
X391015Y313381D02*
X391015Y308188D01*
D12*
X308790Y269260D02*
X308792Y269323D01*
X308798Y269385D01*
X308808Y269447D01*
X308821Y269509D01*
X308839Y269569D01*
X308860Y269628D01*
X308885Y269686D01*
X308914Y269742D01*
X308946Y269796D01*
X308981Y269848D01*
X309019Y269897D01*
X309061Y269945D01*
X309105Y269989D01*
X309153Y270031D01*
X309202Y270069D01*
X309254Y270104D01*
X309308Y270136D01*
X309364Y270165D01*
X309422Y270190D01*
X309481Y270211D01*
X309541Y270229D01*
X309603Y270242D01*
X309665Y270252D01*
X309727Y270258D01*
X309790Y270260D01*
X309853Y270258D01*
X309915Y270252D01*
X309977Y270242D01*
X310039Y270229D01*
X310099Y270211D01*
X310158Y270190D01*
X310216Y270165D01*
X310272Y270136D01*
X310326Y270104D01*
X310378Y270069D01*
X310427Y270031D01*
X310475Y269989D01*
X310519Y269945D01*
X310561Y269897D01*
X310599Y269848D01*
X310634Y269796D01*
X310666Y269742D01*
X310695Y269686D01*
X310720Y269628D01*
X310741Y269569D01*
X310759Y269509D01*
X310772Y269447D01*
X310782Y269385D01*
X310788Y269323D01*
X310790Y269260D01*
X310788Y269197D01*
X310782Y269135D01*
X310772Y269073D01*
X310759Y269011D01*
X310741Y268951D01*
X310720Y268892D01*
X310695Y268834D01*
X310666Y268778D01*
X310634Y268724D01*
X310599Y268672D01*
X310561Y268623D01*
X310519Y268575D01*
X310475Y268531D01*
X310427Y268489D01*
X310378Y268451D01*
X310326Y268416D01*
X310272Y268384D01*
X310216Y268355D01*
X310158Y268330D01*
X310099Y268309D01*
X310039Y268291D01*
X309977Y268278D01*
X309915Y268268D01*
X309853Y268262D01*
X309790Y268260D01*
X309727Y268262D01*
X309665Y268268D01*
X309603Y268278D01*
X309541Y268291D01*
X309481Y268309D01*
X309422Y268330D01*
X309364Y268355D01*
X309308Y268384D01*
X309254Y268416D01*
X309202Y268451D01*
X309153Y268489D01*
X309105Y268531D01*
X309061Y268575D01*
X309019Y268623D01*
X308981Y268672D01*
X308946Y268724D01*
X308914Y268778D01*
X308885Y268834D01*
X308860Y268892D01*
X308839Y268951D01*
X308821Y269011D01*
X308808Y269073D01*
X308798Y269135D01*
X308792Y269197D01*
X308790Y269260D01*
D14*
X305640Y291960D02*
X305640Y337960D01*
X347140Y337960D02*
X347140Y291960D01*
D13*
X316240Y311434D02*
X316240Y319872D01*
X316239Y311434D02*
X316241Y311321D01*
X316247Y311208D01*
X316257Y311095D01*
X316271Y310982D01*
X316288Y310870D01*
X316310Y310759D01*
X316335Y310649D01*
X316365Y310539D01*
X316398Y310431D01*
X316435Y310324D01*
X316475Y310218D01*
X316520Y310114D01*
X316568Y310011D01*
X316619Y309910D01*
X316674Y309811D01*
X316732Y309714D01*
X316794Y309619D01*
X316859Y309526D01*
X316927Y309436D01*
X316998Y309348D01*
X317073Y309262D01*
X317150Y309179D01*
X317230Y309099D01*
X317313Y309022D01*
X317399Y308947D01*
X317487Y308876D01*
X317577Y308808D01*
X317670Y308743D01*
X317765Y308681D01*
X317862Y308623D01*
X317961Y308568D01*
X318062Y308517D01*
X318165Y308469D01*
X318269Y308424D01*
X318375Y308384D01*
X318482Y308347D01*
X318590Y308314D01*
X318700Y308284D01*
X318810Y308259D01*
X318921Y308237D01*
X319033Y308220D01*
X319146Y308206D01*
X319259Y308196D01*
X319372Y308190D01*
X319485Y308188D01*
X319598Y308190D01*
X319711Y308196D01*
X319824Y308206D01*
X319937Y308220D01*
X320049Y308237D01*
X320160Y308259D01*
X320270Y308284D01*
X320380Y308314D01*
X320488Y308347D01*
X320595Y308384D01*
X320701Y308424D01*
X320805Y308469D01*
X320908Y308517D01*
X321009Y308568D01*
X321108Y308623D01*
X321205Y308681D01*
X321300Y308743D01*
X321393Y308808D01*
X321483Y308876D01*
X321571Y308947D01*
X321657Y309022D01*
X321740Y309099D01*
X321820Y309179D01*
X321897Y309262D01*
X321972Y309348D01*
X322043Y309436D01*
X322111Y309526D01*
X322176Y309619D01*
X322238Y309714D01*
X322296Y309811D01*
X322351Y309910D01*
X322402Y310011D01*
X322450Y310114D01*
X322495Y310218D01*
X322535Y310324D01*
X322572Y310431D01*
X322605Y310539D01*
X322635Y310649D01*
X322660Y310759D01*
X322682Y310870D01*
X322699Y310982D01*
X322713Y311095D01*
X322723Y311208D01*
X322729Y311321D01*
X322731Y311434D01*
X322731Y319872D01*
X328051Y308188D02*
X331946Y308188D01*
X332045Y308190D01*
X332145Y308196D01*
X332244Y308205D01*
X332342Y308218D01*
X332440Y308235D01*
X332538Y308256D01*
X332634Y308281D01*
X332729Y308309D01*
X332823Y308341D01*
X332916Y308376D01*
X333008Y308415D01*
X333098Y308458D01*
X333186Y308503D01*
X333273Y308553D01*
X333357Y308605D01*
X333440Y308661D01*
X333520Y308719D01*
X333598Y308781D01*
X333673Y308846D01*
X333746Y308914D01*
X333816Y308984D01*
X333884Y309057D01*
X333949Y309132D01*
X334011Y309210D01*
X334069Y309290D01*
X334125Y309373D01*
X334177Y309457D01*
X334227Y309544D01*
X334272Y309632D01*
X334315Y309722D01*
X334354Y309814D01*
X334389Y309907D01*
X334421Y310001D01*
X334449Y310096D01*
X334474Y310192D01*
X334495Y310290D01*
X334512Y310388D01*
X334525Y310486D01*
X334534Y310585D01*
X334540Y310685D01*
X334542Y310784D01*
X334542Y312083D01*
X334540Y312182D01*
X334534Y312282D01*
X334525Y312381D01*
X334512Y312479D01*
X334495Y312577D01*
X334474Y312675D01*
X334449Y312771D01*
X334421Y312866D01*
X334389Y312960D01*
X334354Y313053D01*
X334315Y313145D01*
X334272Y313235D01*
X334227Y313323D01*
X334177Y313410D01*
X334125Y313494D01*
X334069Y313577D01*
X334011Y313657D01*
X333949Y313735D01*
X333884Y313810D01*
X333816Y313883D01*
X333746Y313953D01*
X333673Y314021D01*
X333598Y314086D01*
X333520Y314148D01*
X333440Y314206D01*
X333357Y314262D01*
X333273Y314314D01*
X333186Y314364D01*
X333098Y314409D01*
X333008Y314452D01*
X332916Y314491D01*
X332823Y314526D01*
X332729Y314558D01*
X332634Y314586D01*
X332538Y314611D01*
X332440Y314632D01*
X332342Y314649D01*
X332244Y314662D01*
X332145Y314671D01*
X332045Y314677D01*
X331946Y314679D01*
X328051Y314679D01*
X328051Y319872D01*
X334542Y319872D01*
D12*
X252910Y269260D02*
X252912Y269323D01*
X252918Y269385D01*
X252928Y269447D01*
X252941Y269509D01*
X252959Y269569D01*
X252980Y269628D01*
X253005Y269686D01*
X253034Y269742D01*
X253066Y269796D01*
X253101Y269848D01*
X253139Y269897D01*
X253181Y269945D01*
X253225Y269989D01*
X253273Y270031D01*
X253322Y270069D01*
X253374Y270104D01*
X253428Y270136D01*
X253484Y270165D01*
X253542Y270190D01*
X253601Y270211D01*
X253661Y270229D01*
X253723Y270242D01*
X253785Y270252D01*
X253847Y270258D01*
X253910Y270260D01*
X253973Y270258D01*
X254035Y270252D01*
X254097Y270242D01*
X254159Y270229D01*
X254219Y270211D01*
X254278Y270190D01*
X254336Y270165D01*
X254392Y270136D01*
X254446Y270104D01*
X254498Y270069D01*
X254547Y270031D01*
X254595Y269989D01*
X254639Y269945D01*
X254681Y269897D01*
X254719Y269848D01*
X254754Y269796D01*
X254786Y269742D01*
X254815Y269686D01*
X254840Y269628D01*
X254861Y269569D01*
X254879Y269509D01*
X254892Y269447D01*
X254902Y269385D01*
X254908Y269323D01*
X254910Y269260D01*
X254908Y269197D01*
X254902Y269135D01*
X254892Y269073D01*
X254879Y269011D01*
X254861Y268951D01*
X254840Y268892D01*
X254815Y268834D01*
X254786Y268778D01*
X254754Y268724D01*
X254719Y268672D01*
X254681Y268623D01*
X254639Y268575D01*
X254595Y268531D01*
X254547Y268489D01*
X254498Y268451D01*
X254446Y268416D01*
X254392Y268384D01*
X254336Y268355D01*
X254278Y268330D01*
X254219Y268309D01*
X254159Y268291D01*
X254097Y268278D01*
X254035Y268268D01*
X253973Y268262D01*
X253910Y268260D01*
X253847Y268262D01*
X253785Y268268D01*
X253723Y268278D01*
X253661Y268291D01*
X253601Y268309D01*
X253542Y268330D01*
X253484Y268355D01*
X253428Y268384D01*
X253374Y268416D01*
X253322Y268451D01*
X253273Y268489D01*
X253225Y268531D01*
X253181Y268575D01*
X253139Y268623D01*
X253101Y268672D01*
X253066Y268724D01*
X253034Y268778D01*
X253005Y268834D01*
X252980Y268892D01*
X252959Y268951D01*
X252941Y269011D01*
X252928Y269073D01*
X252918Y269135D01*
X252912Y269197D01*
X252910Y269260D01*
D14*
X249760Y291960D02*
X249760Y337960D01*
X291260Y337960D02*
X291260Y291960D01*
D13*
X262900Y311434D02*
X262900Y319872D01*
X262899Y311434D02*
X262901Y311321D01*
X262907Y311208D01*
X262917Y311095D01*
X262931Y310982D01*
X262948Y310870D01*
X262970Y310759D01*
X262995Y310649D01*
X263025Y310539D01*
X263058Y310431D01*
X263095Y310324D01*
X263135Y310218D01*
X263180Y310114D01*
X263228Y310011D01*
X263279Y309910D01*
X263334Y309811D01*
X263392Y309714D01*
X263454Y309619D01*
X263519Y309526D01*
X263587Y309436D01*
X263658Y309348D01*
X263733Y309262D01*
X263810Y309179D01*
X263890Y309099D01*
X263973Y309022D01*
X264059Y308947D01*
X264147Y308876D01*
X264237Y308808D01*
X264330Y308743D01*
X264425Y308681D01*
X264522Y308623D01*
X264621Y308568D01*
X264722Y308517D01*
X264825Y308469D01*
X264929Y308424D01*
X265035Y308384D01*
X265142Y308347D01*
X265250Y308314D01*
X265360Y308284D01*
X265470Y308259D01*
X265581Y308237D01*
X265693Y308220D01*
X265806Y308206D01*
X265919Y308196D01*
X266032Y308190D01*
X266145Y308188D01*
X266258Y308190D01*
X266371Y308196D01*
X266484Y308206D01*
X266597Y308220D01*
X266709Y308237D01*
X266820Y308259D01*
X266930Y308284D01*
X267040Y308314D01*
X267148Y308347D01*
X267255Y308384D01*
X267361Y308424D01*
X267465Y308469D01*
X267568Y308517D01*
X267669Y308568D01*
X267768Y308623D01*
X267865Y308681D01*
X267960Y308743D01*
X268053Y308808D01*
X268143Y308876D01*
X268231Y308947D01*
X268317Y309022D01*
X268400Y309099D01*
X268480Y309179D01*
X268557Y309262D01*
X268632Y309348D01*
X268703Y309436D01*
X268771Y309526D01*
X268836Y309619D01*
X268898Y309714D01*
X268956Y309811D01*
X269011Y309910D01*
X269062Y310011D01*
X269110Y310114D01*
X269155Y310218D01*
X269195Y310324D01*
X269232Y310431D01*
X269265Y310539D01*
X269295Y310649D01*
X269320Y310759D01*
X269342Y310870D01*
X269359Y310982D01*
X269373Y311095D01*
X269383Y311208D01*
X269389Y311321D01*
X269391Y311434D01*
X269391Y319872D01*
X274711Y314679D02*
X278606Y314679D01*
X278705Y314677D01*
X278805Y314671D01*
X278904Y314662D01*
X279002Y314649D01*
X279100Y314632D01*
X279198Y314611D01*
X279294Y314586D01*
X279389Y314558D01*
X279483Y314526D01*
X279576Y314491D01*
X279668Y314452D01*
X279758Y314409D01*
X279846Y314364D01*
X279933Y314314D01*
X280017Y314262D01*
X280100Y314206D01*
X280180Y314148D01*
X280258Y314086D01*
X280333Y314021D01*
X280406Y313953D01*
X280476Y313883D01*
X280544Y313810D01*
X280609Y313735D01*
X280671Y313657D01*
X280729Y313577D01*
X280785Y313494D01*
X280837Y313410D01*
X280887Y313323D01*
X280932Y313235D01*
X280975Y313145D01*
X281014Y313053D01*
X281049Y312960D01*
X281081Y312866D01*
X281109Y312771D01*
X281134Y312675D01*
X281155Y312577D01*
X281172Y312479D01*
X281185Y312381D01*
X281194Y312282D01*
X281200Y312182D01*
X281202Y312083D01*
X281202Y311434D01*
X281200Y311321D01*
X281194Y311208D01*
X281184Y311095D01*
X281170Y310982D01*
X281153Y310870D01*
X281131Y310759D01*
X281106Y310649D01*
X281076Y310539D01*
X281043Y310431D01*
X281006Y310324D01*
X280966Y310218D01*
X280921Y310114D01*
X280873Y310011D01*
X280822Y309910D01*
X280767Y309811D01*
X280709Y309714D01*
X280647Y309619D01*
X280582Y309526D01*
X280514Y309436D01*
X280443Y309348D01*
X280368Y309262D01*
X280291Y309179D01*
X280211Y309099D01*
X280128Y309022D01*
X280042Y308947D01*
X279954Y308876D01*
X279864Y308808D01*
X279771Y308743D01*
X279676Y308681D01*
X279579Y308623D01*
X279480Y308568D01*
X279379Y308517D01*
X279276Y308469D01*
X279172Y308424D01*
X279066Y308384D01*
X278959Y308347D01*
X278851Y308314D01*
X278741Y308284D01*
X278631Y308259D01*
X278520Y308237D01*
X278408Y308220D01*
X278295Y308206D01*
X278182Y308196D01*
X278069Y308190D01*
X277956Y308188D01*
X277843Y308190D01*
X277730Y308196D01*
X277617Y308206D01*
X277504Y308220D01*
X277392Y308237D01*
X277281Y308259D01*
X277171Y308284D01*
X277061Y308314D01*
X276953Y308347D01*
X276846Y308384D01*
X276740Y308424D01*
X276636Y308469D01*
X276533Y308517D01*
X276432Y308568D01*
X276333Y308623D01*
X276236Y308681D01*
X276141Y308743D01*
X276048Y308808D01*
X275958Y308876D01*
X275870Y308947D01*
X275784Y309022D01*
X275701Y309099D01*
X275621Y309179D01*
X275544Y309262D01*
X275469Y309348D01*
X275398Y309436D01*
X275330Y309526D01*
X275265Y309619D01*
X275203Y309714D01*
X275145Y309811D01*
X275090Y309910D01*
X275039Y310011D01*
X274991Y310114D01*
X274946Y310218D01*
X274906Y310324D01*
X274869Y310431D01*
X274836Y310539D01*
X274806Y310649D01*
X274781Y310759D01*
X274759Y310870D01*
X274742Y310982D01*
X274728Y311095D01*
X274718Y311208D01*
X274712Y311321D01*
X274710Y311434D01*
X274711Y311434D02*
X274711Y314679D01*
X274713Y314822D01*
X274719Y314965D01*
X274729Y315108D01*
X274743Y315250D01*
X274760Y315392D01*
X274782Y315534D01*
X274807Y315675D01*
X274837Y315815D01*
X274870Y315954D01*
X274907Y316092D01*
X274948Y316229D01*
X274992Y316365D01*
X275041Y316500D01*
X275093Y316633D01*
X275148Y316765D01*
X275208Y316895D01*
X275271Y317024D01*
X275337Y317151D01*
X275407Y317275D01*
X275480Y317398D01*
X275557Y317519D01*
X275637Y317638D01*
X275720Y317754D01*
X275806Y317869D01*
X275895Y317980D01*
X275988Y318090D01*
X276083Y318196D01*
X276182Y318300D01*
X276283Y318401D01*
X276387Y318500D01*
X276493Y318595D01*
X276603Y318688D01*
X276714Y318777D01*
X276829Y318863D01*
X276945Y318946D01*
X277064Y319026D01*
X277185Y319103D01*
X277307Y319176D01*
X277432Y319246D01*
X277559Y319312D01*
X277688Y319375D01*
X277818Y319435D01*
X277950Y319490D01*
X278083Y319542D01*
X278218Y319591D01*
X278354Y319635D01*
X278491Y319676D01*
X278629Y319713D01*
X278768Y319746D01*
X278908Y319776D01*
X279049Y319801D01*
X279191Y319823D01*
X279333Y319840D01*
X279475Y319854D01*
X279618Y319864D01*
X279761Y319870D01*
X279904Y319872D01*
D12*
X197030Y269260D02*
X197032Y269323D01*
X197038Y269385D01*
X197048Y269447D01*
X197061Y269509D01*
X197079Y269569D01*
X197100Y269628D01*
X197125Y269686D01*
X197154Y269742D01*
X197186Y269796D01*
X197221Y269848D01*
X197259Y269897D01*
X197301Y269945D01*
X197345Y269989D01*
X197393Y270031D01*
X197442Y270069D01*
X197494Y270104D01*
X197548Y270136D01*
X197604Y270165D01*
X197662Y270190D01*
X197721Y270211D01*
X197781Y270229D01*
X197843Y270242D01*
X197905Y270252D01*
X197967Y270258D01*
X198030Y270260D01*
X198093Y270258D01*
X198155Y270252D01*
X198217Y270242D01*
X198279Y270229D01*
X198339Y270211D01*
X198398Y270190D01*
X198456Y270165D01*
X198512Y270136D01*
X198566Y270104D01*
X198618Y270069D01*
X198667Y270031D01*
X198715Y269989D01*
X198759Y269945D01*
X198801Y269897D01*
X198839Y269848D01*
X198874Y269796D01*
X198906Y269742D01*
X198935Y269686D01*
X198960Y269628D01*
X198981Y269569D01*
X198999Y269509D01*
X199012Y269447D01*
X199022Y269385D01*
X199028Y269323D01*
X199030Y269260D01*
X199028Y269197D01*
X199022Y269135D01*
X199012Y269073D01*
X198999Y269011D01*
X198981Y268951D01*
X198960Y268892D01*
X198935Y268834D01*
X198906Y268778D01*
X198874Y268724D01*
X198839Y268672D01*
X198801Y268623D01*
X198759Y268575D01*
X198715Y268531D01*
X198667Y268489D01*
X198618Y268451D01*
X198566Y268416D01*
X198512Y268384D01*
X198456Y268355D01*
X198398Y268330D01*
X198339Y268309D01*
X198279Y268291D01*
X198217Y268278D01*
X198155Y268268D01*
X198093Y268262D01*
X198030Y268260D01*
X197967Y268262D01*
X197905Y268268D01*
X197843Y268278D01*
X197781Y268291D01*
X197721Y268309D01*
X197662Y268330D01*
X197604Y268355D01*
X197548Y268384D01*
X197494Y268416D01*
X197442Y268451D01*
X197393Y268489D01*
X197345Y268531D01*
X197301Y268575D01*
X197259Y268623D01*
X197221Y268672D01*
X197186Y268724D01*
X197154Y268778D01*
X197125Y268834D01*
X197100Y268892D01*
X197079Y268951D01*
X197061Y269011D01*
X197048Y269073D01*
X197038Y269135D01*
X197032Y269197D01*
X197030Y269260D01*
D14*
X193880Y291960D02*
X193880Y337960D01*
X235380Y337960D02*
X235380Y291960D01*
D13*
X207020Y308894D02*
X207020Y317332D01*
X207019Y308894D02*
X207021Y308781D01*
X207027Y308668D01*
X207037Y308555D01*
X207051Y308442D01*
X207068Y308330D01*
X207090Y308219D01*
X207115Y308109D01*
X207145Y307999D01*
X207178Y307891D01*
X207215Y307784D01*
X207255Y307678D01*
X207300Y307574D01*
X207348Y307471D01*
X207399Y307370D01*
X207454Y307271D01*
X207512Y307174D01*
X207574Y307079D01*
X207639Y306986D01*
X207707Y306896D01*
X207778Y306808D01*
X207853Y306722D01*
X207930Y306639D01*
X208010Y306559D01*
X208093Y306482D01*
X208179Y306407D01*
X208267Y306336D01*
X208357Y306268D01*
X208450Y306203D01*
X208545Y306141D01*
X208642Y306083D01*
X208741Y306028D01*
X208842Y305977D01*
X208945Y305929D01*
X209049Y305884D01*
X209155Y305844D01*
X209262Y305807D01*
X209370Y305774D01*
X209480Y305744D01*
X209590Y305719D01*
X209701Y305697D01*
X209813Y305680D01*
X209926Y305666D01*
X210039Y305656D01*
X210152Y305650D01*
X210265Y305648D01*
X210378Y305650D01*
X210491Y305656D01*
X210604Y305666D01*
X210717Y305680D01*
X210829Y305697D01*
X210940Y305719D01*
X211050Y305744D01*
X211160Y305774D01*
X211268Y305807D01*
X211375Y305844D01*
X211481Y305884D01*
X211585Y305929D01*
X211688Y305977D01*
X211789Y306028D01*
X211888Y306083D01*
X211985Y306141D01*
X212080Y306203D01*
X212173Y306268D01*
X212263Y306336D01*
X212351Y306407D01*
X212437Y306482D01*
X212520Y306559D01*
X212600Y306639D01*
X212677Y306722D01*
X212752Y306808D01*
X212823Y306896D01*
X212891Y306986D01*
X212956Y307079D01*
X213018Y307174D01*
X213076Y307271D01*
X213131Y307370D01*
X213182Y307471D01*
X213230Y307574D01*
X213275Y307678D01*
X213315Y307784D01*
X213352Y307891D01*
X213385Y307999D01*
X213415Y308109D01*
X213440Y308219D01*
X213462Y308330D01*
X213479Y308442D01*
X213493Y308555D01*
X213503Y308668D01*
X213509Y308781D01*
X213511Y308894D01*
X213511Y317332D01*
X218831Y317332D02*
X218831Y316034D01*
X218831Y317332D02*
X225322Y317332D01*
X222076Y305648D01*
D12*
X141150Y269260D02*
X141152Y269323D01*
X141158Y269385D01*
X141168Y269447D01*
X141181Y269509D01*
X141199Y269569D01*
X141220Y269628D01*
X141245Y269686D01*
X141274Y269742D01*
X141306Y269796D01*
X141341Y269848D01*
X141379Y269897D01*
X141421Y269945D01*
X141465Y269989D01*
X141513Y270031D01*
X141562Y270069D01*
X141614Y270104D01*
X141668Y270136D01*
X141724Y270165D01*
X141782Y270190D01*
X141841Y270211D01*
X141901Y270229D01*
X141963Y270242D01*
X142025Y270252D01*
X142087Y270258D01*
X142150Y270260D01*
X142213Y270258D01*
X142275Y270252D01*
X142337Y270242D01*
X142399Y270229D01*
X142459Y270211D01*
X142518Y270190D01*
X142576Y270165D01*
X142632Y270136D01*
X142686Y270104D01*
X142738Y270069D01*
X142787Y270031D01*
X142835Y269989D01*
X142879Y269945D01*
X142921Y269897D01*
X142959Y269848D01*
X142994Y269796D01*
X143026Y269742D01*
X143055Y269686D01*
X143080Y269628D01*
X143101Y269569D01*
X143119Y269509D01*
X143132Y269447D01*
X143142Y269385D01*
X143148Y269323D01*
X143150Y269260D01*
X143148Y269197D01*
X143142Y269135D01*
X143132Y269073D01*
X143119Y269011D01*
X143101Y268951D01*
X143080Y268892D01*
X143055Y268834D01*
X143026Y268778D01*
X142994Y268724D01*
X142959Y268672D01*
X142921Y268623D01*
X142879Y268575D01*
X142835Y268531D01*
X142787Y268489D01*
X142738Y268451D01*
X142686Y268416D01*
X142632Y268384D01*
X142576Y268355D01*
X142518Y268330D01*
X142459Y268309D01*
X142399Y268291D01*
X142337Y268278D01*
X142275Y268268D01*
X142213Y268262D01*
X142150Y268260D01*
X142087Y268262D01*
X142025Y268268D01*
X141963Y268278D01*
X141901Y268291D01*
X141841Y268309D01*
X141782Y268330D01*
X141724Y268355D01*
X141668Y268384D01*
X141614Y268416D01*
X141562Y268451D01*
X141513Y268489D01*
X141465Y268531D01*
X141421Y268575D01*
X141379Y268623D01*
X141341Y268672D01*
X141306Y268724D01*
X141274Y268778D01*
X141245Y268834D01*
X141220Y268892D01*
X141199Y268951D01*
X141181Y269011D01*
X141168Y269073D01*
X141158Y269135D01*
X141152Y269197D01*
X141150Y269260D01*
D14*
X138000Y291960D02*
X138000Y337960D01*
X179500Y337960D02*
X179500Y291960D01*
D13*
X151140Y311434D02*
X151140Y319872D01*
X151139Y311434D02*
X151141Y311321D01*
X151147Y311208D01*
X151157Y311095D01*
X151171Y310982D01*
X151188Y310870D01*
X151210Y310759D01*
X151235Y310649D01*
X151265Y310539D01*
X151298Y310431D01*
X151335Y310324D01*
X151375Y310218D01*
X151420Y310114D01*
X151468Y310011D01*
X151519Y309910D01*
X151574Y309811D01*
X151632Y309714D01*
X151694Y309619D01*
X151759Y309526D01*
X151827Y309436D01*
X151898Y309348D01*
X151973Y309262D01*
X152050Y309179D01*
X152130Y309099D01*
X152213Y309022D01*
X152299Y308947D01*
X152387Y308876D01*
X152477Y308808D01*
X152570Y308743D01*
X152665Y308681D01*
X152762Y308623D01*
X152861Y308568D01*
X152962Y308517D01*
X153065Y308469D01*
X153169Y308424D01*
X153275Y308384D01*
X153382Y308347D01*
X153490Y308314D01*
X153600Y308284D01*
X153710Y308259D01*
X153821Y308237D01*
X153933Y308220D01*
X154046Y308206D01*
X154159Y308196D01*
X154272Y308190D01*
X154385Y308188D01*
X154498Y308190D01*
X154611Y308196D01*
X154724Y308206D01*
X154837Y308220D01*
X154949Y308237D01*
X155060Y308259D01*
X155170Y308284D01*
X155280Y308314D01*
X155388Y308347D01*
X155495Y308384D01*
X155601Y308424D01*
X155705Y308469D01*
X155808Y308517D01*
X155909Y308568D01*
X156008Y308623D01*
X156105Y308681D01*
X156200Y308743D01*
X156293Y308808D01*
X156383Y308876D01*
X156471Y308947D01*
X156557Y309022D01*
X156640Y309099D01*
X156720Y309179D01*
X156797Y309262D01*
X156872Y309348D01*
X156943Y309436D01*
X157011Y309526D01*
X157076Y309619D01*
X157138Y309714D01*
X157196Y309811D01*
X157251Y309910D01*
X157302Y310011D01*
X157350Y310114D01*
X157395Y310218D01*
X157435Y310324D01*
X157472Y310431D01*
X157505Y310539D01*
X157535Y310649D01*
X157560Y310759D01*
X157582Y310870D01*
X157599Y310982D01*
X157613Y311095D01*
X157623Y311208D01*
X157629Y311321D01*
X157631Y311434D01*
X157631Y319872D01*
X162950Y311434D02*
X162952Y311547D01*
X162958Y311660D01*
X162968Y311773D01*
X162982Y311886D01*
X162999Y311998D01*
X163021Y312109D01*
X163046Y312219D01*
X163076Y312329D01*
X163109Y312437D01*
X163146Y312544D01*
X163186Y312650D01*
X163231Y312754D01*
X163279Y312857D01*
X163330Y312958D01*
X163385Y313057D01*
X163443Y313154D01*
X163505Y313249D01*
X163570Y313342D01*
X163638Y313432D01*
X163709Y313520D01*
X163784Y313606D01*
X163861Y313689D01*
X163941Y313769D01*
X164024Y313846D01*
X164110Y313921D01*
X164198Y313992D01*
X164288Y314060D01*
X164381Y314125D01*
X164476Y314187D01*
X164573Y314245D01*
X164672Y314300D01*
X164773Y314351D01*
X164876Y314399D01*
X164980Y314444D01*
X165086Y314484D01*
X165193Y314521D01*
X165301Y314554D01*
X165411Y314584D01*
X165521Y314609D01*
X165632Y314631D01*
X165744Y314648D01*
X165857Y314662D01*
X165970Y314672D01*
X166083Y314678D01*
X166196Y314680D01*
X166309Y314678D01*
X166422Y314672D01*
X166535Y314662D01*
X166648Y314648D01*
X166760Y314631D01*
X166871Y314609D01*
X166981Y314584D01*
X167091Y314554D01*
X167199Y314521D01*
X167306Y314484D01*
X167412Y314444D01*
X167516Y314399D01*
X167619Y314351D01*
X167720Y314300D01*
X167819Y314245D01*
X167916Y314187D01*
X168011Y314125D01*
X168104Y314060D01*
X168194Y313992D01*
X168282Y313921D01*
X168368Y313846D01*
X168451Y313769D01*
X168531Y313689D01*
X168608Y313606D01*
X168683Y313520D01*
X168754Y313432D01*
X168822Y313342D01*
X168887Y313249D01*
X168949Y313154D01*
X169007Y313057D01*
X169062Y312958D01*
X169113Y312857D01*
X169161Y312754D01*
X169206Y312650D01*
X169246Y312544D01*
X169283Y312437D01*
X169316Y312329D01*
X169346Y312219D01*
X169371Y312109D01*
X169393Y311998D01*
X169410Y311886D01*
X169424Y311773D01*
X169434Y311660D01*
X169440Y311547D01*
X169442Y311434D01*
X169440Y311321D01*
X169434Y311208D01*
X169424Y311095D01*
X169410Y310982D01*
X169393Y310870D01*
X169371Y310759D01*
X169346Y310649D01*
X169316Y310539D01*
X169283Y310431D01*
X169246Y310324D01*
X169206Y310218D01*
X169161Y310114D01*
X169113Y310011D01*
X169062Y309910D01*
X169007Y309811D01*
X168949Y309714D01*
X168887Y309619D01*
X168822Y309526D01*
X168754Y309436D01*
X168683Y309348D01*
X168608Y309262D01*
X168531Y309179D01*
X168451Y309099D01*
X168368Y309022D01*
X168282Y308947D01*
X168194Y308876D01*
X168104Y308808D01*
X168011Y308743D01*
X167916Y308681D01*
X167819Y308623D01*
X167720Y308568D01*
X167619Y308517D01*
X167516Y308469D01*
X167412Y308424D01*
X167306Y308384D01*
X167199Y308347D01*
X167091Y308314D01*
X166981Y308284D01*
X166871Y308259D01*
X166760Y308237D01*
X166648Y308220D01*
X166535Y308206D01*
X166422Y308196D01*
X166309Y308190D01*
X166196Y308188D01*
X166083Y308190D01*
X165970Y308196D01*
X165857Y308206D01*
X165744Y308220D01*
X165632Y308237D01*
X165521Y308259D01*
X165411Y308284D01*
X165301Y308314D01*
X165193Y308347D01*
X165086Y308384D01*
X164980Y308424D01*
X164876Y308469D01*
X164773Y308517D01*
X164672Y308568D01*
X164573Y308623D01*
X164476Y308681D01*
X164381Y308743D01*
X164288Y308808D01*
X164198Y308876D01*
X164110Y308947D01*
X164024Y309022D01*
X163941Y309099D01*
X163861Y309179D01*
X163784Y309262D01*
X163709Y309348D01*
X163638Y309436D01*
X163570Y309526D01*
X163505Y309619D01*
X163443Y309714D01*
X163385Y309811D01*
X163330Y309910D01*
X163279Y310011D01*
X163231Y310114D01*
X163186Y310218D01*
X163146Y310324D01*
X163109Y310431D01*
X163076Y310539D01*
X163046Y310649D01*
X163021Y310759D01*
X162999Y310870D01*
X162982Y310982D01*
X162968Y311095D01*
X162958Y311208D01*
X162952Y311321D01*
X162950Y311434D01*
X163600Y317276D02*
X163602Y317377D01*
X163608Y317477D01*
X163618Y317577D01*
X163631Y317677D01*
X163649Y317776D01*
X163670Y317875D01*
X163695Y317972D01*
X163724Y318069D01*
X163757Y318164D01*
X163793Y318258D01*
X163833Y318350D01*
X163876Y318441D01*
X163923Y318530D01*
X163973Y318617D01*
X164027Y318703D01*
X164084Y318786D01*
X164144Y318866D01*
X164207Y318945D01*
X164274Y319021D01*
X164343Y319094D01*
X164415Y319164D01*
X164489Y319232D01*
X164566Y319297D01*
X164646Y319358D01*
X164728Y319417D01*
X164812Y319472D01*
X164898Y319524D01*
X164986Y319573D01*
X165076Y319618D01*
X165168Y319660D01*
X165261Y319698D01*
X165356Y319732D01*
X165451Y319763D01*
X165548Y319790D01*
X165646Y319813D01*
X165745Y319833D01*
X165845Y319848D01*
X165945Y319860D01*
X166045Y319868D01*
X166146Y319872D01*
X166246Y319872D01*
X166347Y319868D01*
X166447Y319860D01*
X166547Y319848D01*
X166647Y319833D01*
X166746Y319813D01*
X166844Y319790D01*
X166941Y319763D01*
X167036Y319732D01*
X167131Y319698D01*
X167224Y319660D01*
X167316Y319618D01*
X167406Y319573D01*
X167494Y319524D01*
X167580Y319472D01*
X167664Y319417D01*
X167746Y319358D01*
X167826Y319297D01*
X167903Y319232D01*
X167977Y319164D01*
X168049Y319094D01*
X168118Y319021D01*
X168185Y318945D01*
X168248Y318866D01*
X168308Y318786D01*
X168365Y318703D01*
X168419Y318617D01*
X168469Y318530D01*
X168516Y318441D01*
X168559Y318350D01*
X168599Y318258D01*
X168635Y318164D01*
X168668Y318069D01*
X168697Y317972D01*
X168722Y317875D01*
X168743Y317776D01*
X168761Y317677D01*
X168774Y317577D01*
X168784Y317477D01*
X168790Y317377D01*
X168792Y317276D01*
X168790Y317175D01*
X168784Y317075D01*
X168774Y316975D01*
X168761Y316875D01*
X168743Y316776D01*
X168722Y316677D01*
X168697Y316580D01*
X168668Y316483D01*
X168635Y316388D01*
X168599Y316294D01*
X168559Y316202D01*
X168516Y316111D01*
X168469Y316022D01*
X168419Y315935D01*
X168365Y315849D01*
X168308Y315766D01*
X168248Y315686D01*
X168185Y315607D01*
X168118Y315531D01*
X168049Y315458D01*
X167977Y315388D01*
X167903Y315320D01*
X167826Y315255D01*
X167746Y315194D01*
X167664Y315135D01*
X167580Y315080D01*
X167494Y315028D01*
X167406Y314979D01*
X167316Y314934D01*
X167224Y314892D01*
X167131Y314854D01*
X167036Y314820D01*
X166941Y314789D01*
X166844Y314762D01*
X166746Y314739D01*
X166647Y314719D01*
X166547Y314704D01*
X166447Y314692D01*
X166347Y314684D01*
X166246Y314680D01*
X166146Y314680D01*
X166045Y314684D01*
X165945Y314692D01*
X165845Y314704D01*
X165745Y314719D01*
X165646Y314739D01*
X165548Y314762D01*
X165451Y314789D01*
X165356Y314820D01*
X165261Y314854D01*
X165168Y314892D01*
X165076Y314934D01*
X164986Y314979D01*
X164898Y315028D01*
X164812Y315080D01*
X164728Y315135D01*
X164646Y315194D01*
X164566Y315255D01*
X164489Y315320D01*
X164415Y315388D01*
X164343Y315458D01*
X164274Y315531D01*
X164207Y315607D01*
X164144Y315686D01*
X164084Y315766D01*
X164027Y315849D01*
X163973Y315935D01*
X163923Y316022D01*
X163876Y316111D01*
X163833Y316202D01*
X163793Y316294D01*
X163757Y316388D01*
X163724Y316483D01*
X163695Y316580D01*
X163670Y316677D01*
X163649Y316776D01*
X163631Y316875D01*
X163618Y316975D01*
X163608Y317075D01*
X163602Y317175D01*
X163600Y317276D01*
D12*
X85270Y269260D02*
X85272Y269323D01*
X85278Y269385D01*
X85288Y269447D01*
X85301Y269509D01*
X85319Y269569D01*
X85340Y269628D01*
X85365Y269686D01*
X85394Y269742D01*
X85426Y269796D01*
X85461Y269848D01*
X85499Y269897D01*
X85541Y269945D01*
X85585Y269989D01*
X85633Y270031D01*
X85682Y270069D01*
X85734Y270104D01*
X85788Y270136D01*
X85844Y270165D01*
X85902Y270190D01*
X85961Y270211D01*
X86021Y270229D01*
X86083Y270242D01*
X86145Y270252D01*
X86207Y270258D01*
X86270Y270260D01*
X86333Y270258D01*
X86395Y270252D01*
X86457Y270242D01*
X86519Y270229D01*
X86579Y270211D01*
X86638Y270190D01*
X86696Y270165D01*
X86752Y270136D01*
X86806Y270104D01*
X86858Y270069D01*
X86907Y270031D01*
X86955Y269989D01*
X86999Y269945D01*
X87041Y269897D01*
X87079Y269848D01*
X87114Y269796D01*
X87146Y269742D01*
X87175Y269686D01*
X87200Y269628D01*
X87221Y269569D01*
X87239Y269509D01*
X87252Y269447D01*
X87262Y269385D01*
X87268Y269323D01*
X87270Y269260D01*
X87268Y269197D01*
X87262Y269135D01*
X87252Y269073D01*
X87239Y269011D01*
X87221Y268951D01*
X87200Y268892D01*
X87175Y268834D01*
X87146Y268778D01*
X87114Y268724D01*
X87079Y268672D01*
X87041Y268623D01*
X86999Y268575D01*
X86955Y268531D01*
X86907Y268489D01*
X86858Y268451D01*
X86806Y268416D01*
X86752Y268384D01*
X86696Y268355D01*
X86638Y268330D01*
X86579Y268309D01*
X86519Y268291D01*
X86457Y268278D01*
X86395Y268268D01*
X86333Y268262D01*
X86270Y268260D01*
X86207Y268262D01*
X86145Y268268D01*
X86083Y268278D01*
X86021Y268291D01*
X85961Y268309D01*
X85902Y268330D01*
X85844Y268355D01*
X85788Y268384D01*
X85734Y268416D01*
X85682Y268451D01*
X85633Y268489D01*
X85585Y268531D01*
X85541Y268575D01*
X85499Y268623D01*
X85461Y268672D01*
X85426Y268724D01*
X85394Y268778D01*
X85365Y268834D01*
X85340Y268892D01*
X85319Y268951D01*
X85301Y269011D01*
X85288Y269073D01*
X85278Y269135D01*
X85272Y269197D01*
X85270Y269260D01*
D14*
X82120Y291960D02*
X82120Y337960D01*
X123620Y337960D02*
X123620Y291960D01*
D13*
X92720Y313974D02*
X92720Y322412D01*
X92719Y313974D02*
X92721Y313861D01*
X92727Y313748D01*
X92737Y313635D01*
X92751Y313522D01*
X92768Y313410D01*
X92790Y313299D01*
X92815Y313189D01*
X92845Y313079D01*
X92878Y312971D01*
X92915Y312864D01*
X92955Y312758D01*
X93000Y312654D01*
X93048Y312551D01*
X93099Y312450D01*
X93154Y312351D01*
X93212Y312254D01*
X93274Y312159D01*
X93339Y312066D01*
X93407Y311976D01*
X93478Y311888D01*
X93553Y311802D01*
X93630Y311719D01*
X93710Y311639D01*
X93793Y311562D01*
X93879Y311487D01*
X93967Y311416D01*
X94057Y311348D01*
X94150Y311283D01*
X94245Y311221D01*
X94342Y311163D01*
X94441Y311108D01*
X94542Y311057D01*
X94645Y311009D01*
X94749Y310964D01*
X94855Y310924D01*
X94962Y310887D01*
X95070Y310854D01*
X95180Y310824D01*
X95290Y310799D01*
X95401Y310777D01*
X95513Y310760D01*
X95626Y310746D01*
X95739Y310736D01*
X95852Y310730D01*
X95965Y310728D01*
X96078Y310730D01*
X96191Y310736D01*
X96304Y310746D01*
X96417Y310760D01*
X96529Y310777D01*
X96640Y310799D01*
X96750Y310824D01*
X96860Y310854D01*
X96968Y310887D01*
X97075Y310924D01*
X97181Y310964D01*
X97285Y311009D01*
X97388Y311057D01*
X97489Y311108D01*
X97588Y311163D01*
X97685Y311221D01*
X97780Y311283D01*
X97873Y311348D01*
X97963Y311416D01*
X98051Y311487D01*
X98137Y311562D01*
X98220Y311639D01*
X98300Y311719D01*
X98377Y311802D01*
X98452Y311888D01*
X98523Y311976D01*
X98591Y312066D01*
X98656Y312159D01*
X98718Y312254D01*
X98776Y312351D01*
X98831Y312450D01*
X98882Y312551D01*
X98930Y312654D01*
X98975Y312758D01*
X99015Y312864D01*
X99052Y312971D01*
X99085Y313079D01*
X99115Y313189D01*
X99140Y313299D01*
X99162Y313410D01*
X99179Y313522D01*
X99193Y313635D01*
X99203Y313748D01*
X99209Y313861D01*
X99211Y313974D01*
X99211Y322412D01*
X107127Y315921D02*
X111022Y315921D01*
X107127Y315921D02*
X107028Y315923D01*
X106928Y315929D01*
X106829Y315938D01*
X106731Y315951D01*
X106633Y315968D01*
X106535Y315989D01*
X106439Y316014D01*
X106344Y316042D01*
X106250Y316074D01*
X106157Y316109D01*
X106065Y316148D01*
X105975Y316191D01*
X105887Y316236D01*
X105800Y316286D01*
X105716Y316338D01*
X105633Y316394D01*
X105553Y316452D01*
X105475Y316514D01*
X105400Y316579D01*
X105327Y316647D01*
X105257Y316717D01*
X105189Y316790D01*
X105124Y316865D01*
X105062Y316943D01*
X105004Y317023D01*
X104948Y317106D01*
X104896Y317190D01*
X104846Y317277D01*
X104801Y317365D01*
X104758Y317455D01*
X104719Y317547D01*
X104684Y317640D01*
X104652Y317734D01*
X104624Y317829D01*
X104599Y317925D01*
X104578Y318023D01*
X104561Y318121D01*
X104548Y318219D01*
X104539Y318318D01*
X104533Y318418D01*
X104531Y318517D01*
X104531Y319166D01*
X104530Y319166D02*
X104532Y319279D01*
X104538Y319392D01*
X104548Y319505D01*
X104562Y319618D01*
X104579Y319730D01*
X104601Y319841D01*
X104626Y319951D01*
X104656Y320061D01*
X104689Y320169D01*
X104726Y320276D01*
X104766Y320382D01*
X104811Y320486D01*
X104859Y320589D01*
X104910Y320690D01*
X104965Y320789D01*
X105023Y320886D01*
X105085Y320981D01*
X105150Y321074D01*
X105218Y321164D01*
X105289Y321252D01*
X105364Y321338D01*
X105441Y321421D01*
X105521Y321501D01*
X105604Y321578D01*
X105690Y321653D01*
X105778Y321724D01*
X105868Y321792D01*
X105961Y321857D01*
X106056Y321919D01*
X106153Y321977D01*
X106252Y322032D01*
X106353Y322083D01*
X106456Y322131D01*
X106560Y322176D01*
X106666Y322216D01*
X106773Y322253D01*
X106881Y322286D01*
X106991Y322316D01*
X107101Y322341D01*
X107212Y322363D01*
X107324Y322380D01*
X107437Y322394D01*
X107550Y322404D01*
X107663Y322410D01*
X107776Y322412D01*
X107889Y322410D01*
X108002Y322404D01*
X108115Y322394D01*
X108228Y322380D01*
X108340Y322363D01*
X108451Y322341D01*
X108561Y322316D01*
X108671Y322286D01*
X108779Y322253D01*
X108886Y322216D01*
X108992Y322176D01*
X109096Y322131D01*
X109199Y322083D01*
X109300Y322032D01*
X109399Y321977D01*
X109496Y321919D01*
X109591Y321857D01*
X109684Y321792D01*
X109774Y321724D01*
X109862Y321653D01*
X109948Y321578D01*
X110031Y321501D01*
X110111Y321421D01*
X110188Y321338D01*
X110263Y321252D01*
X110334Y321164D01*
X110402Y321074D01*
X110467Y320981D01*
X110529Y320886D01*
X110587Y320789D01*
X110642Y320690D01*
X110693Y320589D01*
X110741Y320486D01*
X110786Y320382D01*
X110826Y320276D01*
X110863Y320169D01*
X110896Y320061D01*
X110926Y319951D01*
X110951Y319841D01*
X110973Y319730D01*
X110990Y319618D01*
X111004Y319505D01*
X111014Y319392D01*
X111020Y319279D01*
X111022Y319166D01*
X111022Y315921D01*
X111020Y315778D01*
X111014Y315635D01*
X111004Y315492D01*
X110990Y315350D01*
X110973Y315208D01*
X110951Y315066D01*
X110926Y314925D01*
X110896Y314785D01*
X110863Y314646D01*
X110826Y314508D01*
X110785Y314371D01*
X110741Y314235D01*
X110692Y314100D01*
X110640Y313967D01*
X110585Y313835D01*
X110525Y313705D01*
X110462Y313576D01*
X110396Y313449D01*
X110326Y313324D01*
X110253Y313202D01*
X110176Y313081D01*
X110096Y312962D01*
X110013Y312846D01*
X109927Y312731D01*
X109838Y312620D01*
X109745Y312510D01*
X109650Y312404D01*
X109551Y312300D01*
X109450Y312199D01*
X109346Y312100D01*
X109240Y312005D01*
X109130Y311912D01*
X109019Y311823D01*
X108904Y311737D01*
X108788Y311654D01*
X108669Y311574D01*
X108548Y311497D01*
X108425Y311424D01*
X108301Y311354D01*
X108174Y311288D01*
X108045Y311225D01*
X107915Y311165D01*
X107783Y311110D01*
X107650Y311058D01*
X107515Y311009D01*
X107379Y310965D01*
X107242Y310924D01*
X107104Y310887D01*
X106965Y310854D01*
X106825Y310824D01*
X106684Y310799D01*
X106542Y310777D01*
X106400Y310760D01*
X106258Y310746D01*
X106115Y310736D01*
X105972Y310730D01*
X105829Y310728D01*
D12*
X26850Y269260D02*
X26852Y269323D01*
X26858Y269385D01*
X26868Y269447D01*
X26881Y269509D01*
X26899Y269569D01*
X26920Y269628D01*
X26945Y269686D01*
X26974Y269742D01*
X27006Y269796D01*
X27041Y269848D01*
X27079Y269897D01*
X27121Y269945D01*
X27165Y269989D01*
X27213Y270031D01*
X27262Y270069D01*
X27314Y270104D01*
X27368Y270136D01*
X27424Y270165D01*
X27482Y270190D01*
X27541Y270211D01*
X27601Y270229D01*
X27663Y270242D01*
X27725Y270252D01*
X27787Y270258D01*
X27850Y270260D01*
X27913Y270258D01*
X27975Y270252D01*
X28037Y270242D01*
X28099Y270229D01*
X28159Y270211D01*
X28218Y270190D01*
X28276Y270165D01*
X28332Y270136D01*
X28386Y270104D01*
X28438Y270069D01*
X28487Y270031D01*
X28535Y269989D01*
X28579Y269945D01*
X28621Y269897D01*
X28659Y269848D01*
X28694Y269796D01*
X28726Y269742D01*
X28755Y269686D01*
X28780Y269628D01*
X28801Y269569D01*
X28819Y269509D01*
X28832Y269447D01*
X28842Y269385D01*
X28848Y269323D01*
X28850Y269260D01*
X28848Y269197D01*
X28842Y269135D01*
X28832Y269073D01*
X28819Y269011D01*
X28801Y268951D01*
X28780Y268892D01*
X28755Y268834D01*
X28726Y268778D01*
X28694Y268724D01*
X28659Y268672D01*
X28621Y268623D01*
X28579Y268575D01*
X28535Y268531D01*
X28487Y268489D01*
X28438Y268451D01*
X28386Y268416D01*
X28332Y268384D01*
X28276Y268355D01*
X28218Y268330D01*
X28159Y268309D01*
X28099Y268291D01*
X28037Y268278D01*
X27975Y268268D01*
X27913Y268262D01*
X27850Y268260D01*
X27787Y268262D01*
X27725Y268268D01*
X27663Y268278D01*
X27601Y268291D01*
X27541Y268309D01*
X27482Y268330D01*
X27424Y268355D01*
X27368Y268384D01*
X27314Y268416D01*
X27262Y268451D01*
X27213Y268489D01*
X27165Y268531D01*
X27121Y268575D01*
X27079Y268623D01*
X27041Y268672D01*
X27006Y268724D01*
X26974Y268778D01*
X26945Y268834D01*
X26920Y268892D01*
X26899Y268951D01*
X26881Y269011D01*
X26868Y269073D01*
X26858Y269135D01*
X26852Y269197D01*
X26850Y269260D01*
D14*
X23700Y291960D02*
X23700Y337960D01*
X65200Y337960D02*
X65200Y291960D01*
D13*
X27950Y313974D02*
X27950Y322412D01*
X27950Y313974D02*
X27952Y313861D01*
X27958Y313748D01*
X27968Y313635D01*
X27982Y313522D01*
X27999Y313410D01*
X28021Y313299D01*
X28046Y313189D01*
X28076Y313079D01*
X28109Y312971D01*
X28146Y312864D01*
X28186Y312758D01*
X28231Y312654D01*
X28279Y312551D01*
X28330Y312450D01*
X28385Y312351D01*
X28443Y312254D01*
X28505Y312159D01*
X28570Y312066D01*
X28638Y311976D01*
X28709Y311888D01*
X28784Y311802D01*
X28861Y311719D01*
X28941Y311639D01*
X29024Y311562D01*
X29110Y311487D01*
X29198Y311416D01*
X29288Y311348D01*
X29381Y311283D01*
X29476Y311221D01*
X29573Y311163D01*
X29672Y311108D01*
X29773Y311057D01*
X29876Y311009D01*
X29980Y310964D01*
X30086Y310924D01*
X30193Y310887D01*
X30301Y310854D01*
X30411Y310824D01*
X30521Y310799D01*
X30632Y310777D01*
X30744Y310760D01*
X30857Y310746D01*
X30970Y310736D01*
X31083Y310730D01*
X31196Y310728D01*
X31309Y310730D01*
X31422Y310736D01*
X31535Y310746D01*
X31648Y310760D01*
X31760Y310777D01*
X31871Y310799D01*
X31981Y310824D01*
X32091Y310854D01*
X32199Y310887D01*
X32306Y310924D01*
X32412Y310964D01*
X32516Y311009D01*
X32619Y311057D01*
X32720Y311108D01*
X32819Y311163D01*
X32916Y311221D01*
X33011Y311283D01*
X33104Y311348D01*
X33194Y311416D01*
X33282Y311487D01*
X33368Y311562D01*
X33451Y311639D01*
X33531Y311719D01*
X33608Y311802D01*
X33683Y311888D01*
X33754Y311976D01*
X33822Y312066D01*
X33887Y312159D01*
X33949Y312254D01*
X34007Y312351D01*
X34062Y312450D01*
X34113Y312551D01*
X34161Y312654D01*
X34206Y312758D01*
X34246Y312864D01*
X34283Y312971D01*
X34316Y313079D01*
X34346Y313189D01*
X34371Y313299D01*
X34393Y313410D01*
X34410Y313522D01*
X34424Y313635D01*
X34434Y313748D01*
X34440Y313861D01*
X34442Y313974D01*
X34441Y313974D02*
X34441Y322412D01*
X39761Y319816D02*
X43006Y322412D01*
X43006Y310728D01*
X39761Y310728D02*
X46252Y310728D01*
X51191Y316570D02*
X51194Y316800D01*
X51202Y317030D01*
X51216Y317259D01*
X51235Y317488D01*
X51260Y317717D01*
X51290Y317944D01*
X51325Y318172D01*
X51366Y318398D01*
X51412Y318623D01*
X51464Y318847D01*
X51521Y319069D01*
X51583Y319291D01*
X51651Y319510D01*
X51724Y319728D01*
X51802Y319945D01*
X51885Y320159D01*
X51973Y320371D01*
X52066Y320581D01*
X52165Y320789D01*
X52164Y320789D02*
X52197Y320879D01*
X52233Y320968D01*
X52273Y321056D01*
X52317Y321141D01*
X52364Y321225D01*
X52414Y321307D01*
X52468Y321387D01*
X52524Y321464D01*
X52584Y321540D01*
X52647Y321613D01*
X52712Y321683D01*
X52781Y321751D01*
X52852Y321815D01*
X52925Y321877D01*
X53001Y321936D01*
X53079Y321992D01*
X53160Y322045D01*
X53242Y322094D01*
X53326Y322140D01*
X53413Y322183D01*
X53500Y322222D01*
X53590Y322258D01*
X53680Y322290D01*
X53772Y322318D01*
X53865Y322343D01*
X53959Y322364D01*
X54053Y322381D01*
X54148Y322395D01*
X54244Y322404D01*
X54340Y322410D01*
X54436Y322412D01*
X54532Y322410D01*
X54628Y322404D01*
X54724Y322395D01*
X54819Y322381D01*
X54913Y322364D01*
X55007Y322343D01*
X55100Y322318D01*
X55192Y322290D01*
X55282Y322258D01*
X55372Y322222D01*
X55459Y322183D01*
X55546Y322140D01*
X55630Y322094D01*
X55712Y322045D01*
X55793Y321992D01*
X55871Y321936D01*
X55947Y321877D01*
X56020Y321815D01*
X56091Y321751D01*
X56160Y321683D01*
X56225Y321613D01*
X56288Y321540D01*
X56348Y321464D01*
X56404Y321387D01*
X56458Y321307D01*
X56508Y321225D01*
X56555Y321141D01*
X56599Y321056D01*
X56639Y320968D01*
X56675Y320879D01*
X56708Y320789D01*
X56709Y320789D02*
X56808Y320582D01*
X56901Y320372D01*
X56989Y320159D01*
X57072Y319945D01*
X57150Y319729D01*
X57223Y319511D01*
X57291Y319291D01*
X57353Y319070D01*
X57410Y318847D01*
X57462Y318623D01*
X57508Y318398D01*
X57549Y318172D01*
X57584Y317945D01*
X57614Y317717D01*
X57639Y317488D01*
X57658Y317259D01*
X57672Y317030D01*
X57680Y316800D01*
X57683Y316570D01*
X51191Y316570D02*
X51194Y316340D01*
X51202Y316110D01*
X51216Y315881D01*
X51235Y315652D01*
X51260Y315423D01*
X51290Y315195D01*
X51325Y314968D01*
X51366Y314742D01*
X51412Y314517D01*
X51464Y314293D01*
X51521Y314070D01*
X51583Y313849D01*
X51651Y313629D01*
X51724Y313411D01*
X51802Y313195D01*
X51885Y312981D01*
X51973Y312769D01*
X52066Y312558D01*
X52165Y312351D01*
X52164Y312351D02*
X52197Y312261D01*
X52233Y312172D01*
X52274Y312084D01*
X52317Y311999D01*
X52364Y311915D01*
X52414Y311833D01*
X52468Y311753D01*
X52524Y311676D01*
X52584Y311600D01*
X52647Y311527D01*
X52712Y311457D01*
X52781Y311389D01*
X52852Y311325D01*
X52925Y311263D01*
X53001Y311204D01*
X53079Y311148D01*
X53160Y311095D01*
X53242Y311046D01*
X53326Y311000D01*
X53413Y310957D01*
X53500Y310918D01*
X53590Y310882D01*
X53680Y310850D01*
X53772Y310822D01*
X53865Y310797D01*
X53959Y310776D01*
X54053Y310759D01*
X54148Y310745D01*
X54244Y310736D01*
X54340Y310730D01*
X54436Y310728D01*
X56708Y312351D02*
X56807Y312558D01*
X56900Y312769D01*
X56988Y312981D01*
X57071Y313195D01*
X57149Y313411D01*
X57222Y313629D01*
X57290Y313849D01*
X57352Y314070D01*
X57409Y314293D01*
X57461Y314517D01*
X57507Y314742D01*
X57548Y314968D01*
X57583Y315195D01*
X57613Y315423D01*
X57638Y315652D01*
X57657Y315881D01*
X57671Y316110D01*
X57679Y316340D01*
X57682Y316570D01*
X56708Y312351D02*
X56675Y312261D01*
X56639Y312172D01*
X56599Y312084D01*
X56555Y311999D01*
X56508Y311915D01*
X56458Y311833D01*
X56404Y311753D01*
X56348Y311676D01*
X56288Y311600D01*
X56225Y311527D01*
X56160Y311457D01*
X56091Y311389D01*
X56020Y311325D01*
X55947Y311263D01*
X55871Y311204D01*
X55793Y311148D01*
X55712Y311095D01*
X55630Y311046D01*
X55546Y311000D01*
X55459Y310957D01*
X55372Y310918D01*
X55282Y310882D01*
X55192Y310850D01*
X55100Y310822D01*
X55007Y310797D01*
X54913Y310776D01*
X54819Y310759D01*
X54724Y310745D01*
X54628Y310736D01*
X54532Y310730D01*
X54436Y310728D01*
X51840Y313324D02*
X57033Y319816D01*
D14*
X425930Y381720D02*
X425930Y420920D01*
X460530Y420920D02*
X460530Y381720D01*
D11*
X422176Y362974D02*
X417684Y362974D01*
X417684Y364222D01*
X417686Y364291D01*
X417692Y364359D01*
X417701Y364427D01*
X417714Y364495D01*
X417731Y364562D01*
X417752Y364627D01*
X417776Y364692D01*
X417803Y364755D01*
X417834Y364816D01*
X417869Y364876D01*
X417906Y364933D01*
X417947Y364989D01*
X417991Y365042D01*
X418037Y365092D01*
X418087Y365140D01*
X418139Y365185D01*
X418193Y365228D01*
X418249Y365267D01*
X418308Y365303D01*
X418368Y365336D01*
X418431Y365365D01*
X418494Y365391D01*
X418559Y365413D01*
X418626Y365432D01*
X418693Y365447D01*
X418761Y365458D01*
X418829Y365466D01*
X418898Y365470D01*
X418966Y365470D01*
X419035Y365466D01*
X419103Y365458D01*
X419171Y365447D01*
X419238Y365432D01*
X419305Y365413D01*
X419370Y365391D01*
X419433Y365365D01*
X419496Y365336D01*
X419556Y365303D01*
X419615Y365267D01*
X419671Y365228D01*
X419725Y365185D01*
X419777Y365140D01*
X419827Y365092D01*
X419873Y365042D01*
X419917Y364989D01*
X419958Y364933D01*
X419995Y364876D01*
X420030Y364816D01*
X420061Y364755D01*
X420088Y364692D01*
X420112Y364627D01*
X420133Y364562D01*
X420150Y364495D01*
X420163Y364427D01*
X420172Y364359D01*
X420178Y364291D01*
X420180Y364222D01*
X420180Y362974D01*
X420180Y364471D02*
X422176Y365470D01*
X421178Y367441D02*
X417684Y368439D01*
X421178Y367441D02*
X421178Y369937D01*
X420180Y369188D02*
X422176Y369188D01*
D14*
X402110Y379180D02*
X402110Y418380D01*
X367510Y418380D02*
X367510Y379180D01*
D11*
X405864Y430163D02*
X410356Y430163D01*
X405864Y430163D02*
X405864Y431411D01*
X405866Y431480D01*
X405872Y431548D01*
X405881Y431616D01*
X405894Y431684D01*
X405911Y431751D01*
X405932Y431816D01*
X405956Y431881D01*
X405983Y431944D01*
X406014Y432005D01*
X406049Y432065D01*
X406086Y432122D01*
X406127Y432178D01*
X406171Y432231D01*
X406217Y432281D01*
X406267Y432329D01*
X406319Y432374D01*
X406373Y432417D01*
X406429Y432456D01*
X406488Y432492D01*
X406548Y432525D01*
X406611Y432554D01*
X406674Y432580D01*
X406739Y432602D01*
X406806Y432621D01*
X406873Y432636D01*
X406941Y432647D01*
X407009Y432655D01*
X407078Y432659D01*
X407146Y432659D01*
X407215Y432655D01*
X407283Y432647D01*
X407351Y432636D01*
X407418Y432621D01*
X407485Y432602D01*
X407550Y432580D01*
X407613Y432554D01*
X407676Y432525D01*
X407736Y432492D01*
X407795Y432456D01*
X407851Y432417D01*
X407905Y432374D01*
X407957Y432329D01*
X408007Y432281D01*
X408053Y432231D01*
X408097Y432178D01*
X408138Y432122D01*
X408175Y432065D01*
X408210Y432005D01*
X408241Y431944D01*
X408268Y431881D01*
X408292Y431816D01*
X408313Y431751D01*
X408330Y431684D01*
X408343Y431616D01*
X408352Y431548D01*
X408358Y431480D01*
X408360Y431411D01*
X408360Y430163D01*
X408360Y431661D02*
X410356Y432659D01*
X410356Y434630D02*
X410356Y436128D01*
X410354Y436188D01*
X410349Y436248D01*
X410340Y436308D01*
X410327Y436367D01*
X410311Y436425D01*
X410291Y436482D01*
X410268Y436538D01*
X410242Y436592D01*
X410212Y436644D01*
X410179Y436695D01*
X410144Y436743D01*
X410105Y436790D01*
X410064Y436834D01*
X410020Y436875D01*
X409973Y436914D01*
X409925Y436949D01*
X409874Y436982D01*
X409822Y437012D01*
X409768Y437038D01*
X409712Y437061D01*
X409655Y437081D01*
X409597Y437097D01*
X409538Y437110D01*
X409478Y437119D01*
X409418Y437124D01*
X409358Y437126D01*
X408859Y437126D01*
X408796Y437124D01*
X408734Y437118D01*
X408672Y437108D01*
X408611Y437095D01*
X408551Y437077D01*
X408492Y437056D01*
X408434Y437031D01*
X408378Y437003D01*
X408324Y436971D01*
X408272Y436935D01*
X408223Y436897D01*
X408176Y436856D01*
X408132Y436811D01*
X408090Y436764D01*
X408052Y436715D01*
X408016Y436663D01*
X407984Y436609D01*
X407956Y436553D01*
X407931Y436495D01*
X407910Y436436D01*
X407892Y436376D01*
X407879Y436315D01*
X407869Y436253D01*
X407863Y436191D01*
X407861Y436128D01*
X407860Y436128D02*
X407860Y434630D01*
X405864Y434630D01*
X405864Y437126D01*
D14*
X309090Y418380D02*
X309090Y379180D01*
X343690Y379180D02*
X343690Y418380D01*
D11*
X305336Y360434D02*
X300844Y360434D01*
X300844Y361682D01*
X300846Y361751D01*
X300852Y361819D01*
X300861Y361887D01*
X300874Y361955D01*
X300891Y362022D01*
X300912Y362087D01*
X300936Y362152D01*
X300963Y362215D01*
X300994Y362276D01*
X301029Y362336D01*
X301066Y362393D01*
X301107Y362449D01*
X301151Y362502D01*
X301197Y362552D01*
X301247Y362600D01*
X301299Y362645D01*
X301353Y362688D01*
X301409Y362727D01*
X301468Y362763D01*
X301528Y362796D01*
X301591Y362825D01*
X301654Y362851D01*
X301719Y362873D01*
X301786Y362892D01*
X301853Y362907D01*
X301921Y362918D01*
X301989Y362926D01*
X302058Y362930D01*
X302126Y362930D01*
X302195Y362926D01*
X302263Y362918D01*
X302331Y362907D01*
X302398Y362892D01*
X302465Y362873D01*
X302530Y362851D01*
X302593Y362825D01*
X302656Y362796D01*
X302716Y362763D01*
X302775Y362727D01*
X302831Y362688D01*
X302885Y362645D01*
X302937Y362600D01*
X302987Y362552D01*
X303033Y362502D01*
X303077Y362449D01*
X303118Y362393D01*
X303155Y362336D01*
X303190Y362276D01*
X303221Y362215D01*
X303248Y362152D01*
X303272Y362087D01*
X303293Y362022D01*
X303310Y361955D01*
X303323Y361887D01*
X303332Y361819D01*
X303338Y361751D01*
X303340Y361682D01*
X303340Y360434D01*
X303340Y361931D02*
X305336Y362930D01*
X302840Y364901D02*
X302840Y366398D01*
X302841Y366398D02*
X302843Y366458D01*
X302848Y366518D01*
X302857Y366578D01*
X302870Y366637D01*
X302886Y366695D01*
X302906Y366752D01*
X302929Y366808D01*
X302955Y366862D01*
X302985Y366914D01*
X303018Y366965D01*
X303053Y367013D01*
X303092Y367060D01*
X303133Y367104D01*
X303177Y367145D01*
X303224Y367184D01*
X303272Y367219D01*
X303323Y367252D01*
X303375Y367282D01*
X303429Y367308D01*
X303485Y367331D01*
X303542Y367351D01*
X303600Y367367D01*
X303659Y367380D01*
X303719Y367389D01*
X303779Y367394D01*
X303839Y367396D01*
X303839Y367397D02*
X304088Y367397D01*
X304157Y367395D01*
X304225Y367389D01*
X304293Y367380D01*
X304361Y367367D01*
X304428Y367350D01*
X304493Y367329D01*
X304558Y367305D01*
X304621Y367278D01*
X304682Y367247D01*
X304742Y367212D01*
X304799Y367175D01*
X304855Y367134D01*
X304908Y367090D01*
X304958Y367044D01*
X305006Y366994D01*
X305051Y366942D01*
X305094Y366888D01*
X305133Y366832D01*
X305169Y366773D01*
X305202Y366713D01*
X305231Y366650D01*
X305257Y366587D01*
X305279Y366522D01*
X305298Y366455D01*
X305313Y366388D01*
X305324Y366320D01*
X305332Y366252D01*
X305336Y366183D01*
X305336Y366115D01*
X305332Y366046D01*
X305324Y365978D01*
X305313Y365910D01*
X305298Y365843D01*
X305279Y365776D01*
X305257Y365711D01*
X305231Y365648D01*
X305202Y365585D01*
X305169Y365525D01*
X305133Y365466D01*
X305094Y365410D01*
X305051Y365356D01*
X305006Y365304D01*
X304958Y365254D01*
X304908Y365208D01*
X304855Y365164D01*
X304799Y365123D01*
X304742Y365086D01*
X304682Y365051D01*
X304621Y365020D01*
X304558Y364993D01*
X304493Y364969D01*
X304428Y364948D01*
X304361Y364931D01*
X304293Y364918D01*
X304225Y364909D01*
X304157Y364903D01*
X304088Y364901D01*
X302840Y364901D01*
X302753Y364903D01*
X302666Y364909D01*
X302579Y364918D01*
X302493Y364931D01*
X302408Y364948D01*
X302323Y364969D01*
X302240Y364993D01*
X302157Y365021D01*
X302076Y365053D01*
X301996Y365088D01*
X301918Y365127D01*
X301842Y365169D01*
X301767Y365214D01*
X301695Y365262D01*
X301624Y365314D01*
X301556Y365368D01*
X301491Y365426D01*
X301428Y365486D01*
X301368Y365549D01*
X301310Y365614D01*
X301256Y365682D01*
X301204Y365753D01*
X301156Y365825D01*
X301111Y365899D01*
X301069Y365976D01*
X301030Y366054D01*
X300995Y366134D01*
X300963Y366215D01*
X300935Y366297D01*
X300911Y366381D01*
X300890Y366466D01*
X300873Y366551D01*
X300860Y366637D01*
X300851Y366724D01*
X300845Y366811D01*
X300843Y366898D01*
D14*
X287810Y379180D02*
X287810Y418380D01*
X253210Y418380D02*
X253210Y379180D01*
D11*
X291564Y430163D02*
X296056Y430163D01*
X291564Y430163D02*
X291564Y431411D01*
X291566Y431480D01*
X291572Y431548D01*
X291581Y431616D01*
X291594Y431684D01*
X291611Y431751D01*
X291632Y431816D01*
X291656Y431881D01*
X291683Y431944D01*
X291714Y432005D01*
X291749Y432065D01*
X291786Y432122D01*
X291827Y432178D01*
X291871Y432231D01*
X291917Y432281D01*
X291967Y432329D01*
X292019Y432374D01*
X292073Y432417D01*
X292129Y432456D01*
X292188Y432492D01*
X292248Y432525D01*
X292311Y432554D01*
X292374Y432580D01*
X292439Y432602D01*
X292506Y432621D01*
X292573Y432636D01*
X292641Y432647D01*
X292709Y432655D01*
X292778Y432659D01*
X292846Y432659D01*
X292915Y432655D01*
X292983Y432647D01*
X293051Y432636D01*
X293118Y432621D01*
X293185Y432602D01*
X293250Y432580D01*
X293313Y432554D01*
X293376Y432525D01*
X293436Y432492D01*
X293495Y432456D01*
X293551Y432417D01*
X293605Y432374D01*
X293657Y432329D01*
X293707Y432281D01*
X293753Y432231D01*
X293797Y432178D01*
X293838Y432122D01*
X293875Y432065D01*
X293910Y432005D01*
X293941Y431944D01*
X293968Y431881D01*
X293992Y431816D01*
X294013Y431751D01*
X294030Y431684D01*
X294043Y431616D01*
X294052Y431548D01*
X294058Y431480D01*
X294060Y431411D01*
X294060Y430163D01*
X294060Y431661D02*
X296056Y432659D01*
X292063Y434630D02*
X291564Y434630D01*
X291564Y437126D01*
X296056Y435878D01*
D14*
X197330Y418380D02*
X197330Y379180D01*
X231930Y379180D02*
X231930Y418380D01*
D11*
X193576Y360434D02*
X189084Y360434D01*
X189084Y361682D01*
X189086Y361751D01*
X189092Y361819D01*
X189101Y361887D01*
X189114Y361955D01*
X189131Y362022D01*
X189152Y362087D01*
X189176Y362152D01*
X189203Y362215D01*
X189234Y362276D01*
X189269Y362336D01*
X189306Y362393D01*
X189347Y362449D01*
X189391Y362502D01*
X189437Y362552D01*
X189487Y362600D01*
X189539Y362645D01*
X189593Y362688D01*
X189649Y362727D01*
X189708Y362763D01*
X189768Y362796D01*
X189831Y362825D01*
X189894Y362851D01*
X189959Y362873D01*
X190026Y362892D01*
X190093Y362907D01*
X190161Y362918D01*
X190229Y362926D01*
X190298Y362930D01*
X190366Y362930D01*
X190435Y362926D01*
X190503Y362918D01*
X190571Y362907D01*
X190638Y362892D01*
X190705Y362873D01*
X190770Y362851D01*
X190833Y362825D01*
X190896Y362796D01*
X190956Y362763D01*
X191015Y362727D01*
X191071Y362688D01*
X191125Y362645D01*
X191177Y362600D01*
X191227Y362552D01*
X191273Y362502D01*
X191317Y362449D01*
X191358Y362393D01*
X191395Y362336D01*
X191430Y362276D01*
X191461Y362215D01*
X191488Y362152D01*
X191512Y362087D01*
X191533Y362022D01*
X191550Y361955D01*
X191563Y361887D01*
X191572Y361819D01*
X191578Y361751D01*
X191580Y361682D01*
X191580Y360434D01*
X191580Y361931D02*
X193576Y362930D01*
X192328Y364901D02*
X192259Y364903D01*
X192191Y364909D01*
X192123Y364918D01*
X192055Y364931D01*
X191988Y364948D01*
X191923Y364969D01*
X191858Y364993D01*
X191795Y365020D01*
X191734Y365051D01*
X191674Y365086D01*
X191617Y365123D01*
X191561Y365164D01*
X191508Y365208D01*
X191458Y365254D01*
X191410Y365304D01*
X191365Y365356D01*
X191322Y365410D01*
X191283Y365466D01*
X191247Y365525D01*
X191214Y365585D01*
X191185Y365648D01*
X191159Y365711D01*
X191137Y365776D01*
X191118Y365843D01*
X191103Y365910D01*
X191092Y365978D01*
X191084Y366046D01*
X191080Y366115D01*
X191080Y366183D01*
X191084Y366252D01*
X191092Y366320D01*
X191103Y366388D01*
X191118Y366455D01*
X191137Y366522D01*
X191159Y366587D01*
X191185Y366650D01*
X191214Y366713D01*
X191247Y366773D01*
X191283Y366832D01*
X191322Y366888D01*
X191365Y366942D01*
X191410Y366994D01*
X191458Y367044D01*
X191508Y367090D01*
X191561Y367134D01*
X191617Y367175D01*
X191674Y367212D01*
X191734Y367247D01*
X191795Y367278D01*
X191858Y367305D01*
X191923Y367329D01*
X191988Y367350D01*
X192055Y367367D01*
X192123Y367380D01*
X192191Y367389D01*
X192259Y367395D01*
X192328Y367397D01*
X192397Y367395D01*
X192465Y367389D01*
X192533Y367380D01*
X192601Y367367D01*
X192668Y367350D01*
X192733Y367329D01*
X192798Y367305D01*
X192861Y367278D01*
X192922Y367247D01*
X192982Y367212D01*
X193039Y367175D01*
X193095Y367134D01*
X193148Y367090D01*
X193198Y367044D01*
X193246Y366994D01*
X193291Y366942D01*
X193334Y366888D01*
X193373Y366832D01*
X193409Y366773D01*
X193442Y366713D01*
X193471Y366650D01*
X193497Y366587D01*
X193519Y366522D01*
X193538Y366455D01*
X193553Y366388D01*
X193564Y366320D01*
X193572Y366252D01*
X193576Y366183D01*
X193576Y366115D01*
X193572Y366046D01*
X193564Y365978D01*
X193553Y365910D01*
X193538Y365843D01*
X193519Y365776D01*
X193497Y365711D01*
X193471Y365648D01*
X193442Y365585D01*
X193409Y365525D01*
X193373Y365466D01*
X193334Y365410D01*
X193291Y365356D01*
X193246Y365304D01*
X193198Y365254D01*
X193148Y365208D01*
X193095Y365164D01*
X193039Y365123D01*
X192982Y365086D01*
X192922Y365051D01*
X192861Y365020D01*
X192798Y364993D01*
X192733Y364969D01*
X192668Y364948D01*
X192601Y364931D01*
X192533Y364918D01*
X192465Y364909D01*
X192397Y364903D01*
X192328Y364901D01*
X190082Y365151D02*
X190021Y365153D01*
X189959Y365159D01*
X189899Y365168D01*
X189839Y365181D01*
X189779Y365198D01*
X189721Y365218D01*
X189665Y365242D01*
X189610Y365270D01*
X189557Y365300D01*
X189505Y365334D01*
X189456Y365371D01*
X189410Y365411D01*
X189366Y365454D01*
X189324Y365500D01*
X189286Y365548D01*
X189250Y365598D01*
X189218Y365650D01*
X189189Y365704D01*
X189163Y365760D01*
X189141Y365817D01*
X189122Y365876D01*
X189107Y365935D01*
X189096Y365996D01*
X189088Y366057D01*
X189084Y366118D01*
X189084Y366180D01*
X189088Y366241D01*
X189096Y366302D01*
X189107Y366363D01*
X189122Y366422D01*
X189141Y366481D01*
X189163Y366538D01*
X189189Y366594D01*
X189218Y366648D01*
X189250Y366700D01*
X189286Y366750D01*
X189324Y366798D01*
X189366Y366844D01*
X189410Y366887D01*
X189456Y366927D01*
X189505Y366964D01*
X189557Y366998D01*
X189610Y367028D01*
X189665Y367056D01*
X189721Y367080D01*
X189779Y367100D01*
X189839Y367117D01*
X189899Y367130D01*
X189959Y367139D01*
X190021Y367145D01*
X190082Y367147D01*
X190143Y367145D01*
X190205Y367139D01*
X190265Y367130D01*
X190325Y367117D01*
X190385Y367100D01*
X190443Y367080D01*
X190499Y367056D01*
X190554Y367028D01*
X190607Y366998D01*
X190659Y366964D01*
X190708Y366927D01*
X190754Y366887D01*
X190798Y366844D01*
X190840Y366798D01*
X190878Y366750D01*
X190914Y366700D01*
X190946Y366648D01*
X190975Y366594D01*
X191001Y366538D01*
X191023Y366481D01*
X191042Y366422D01*
X191057Y366363D01*
X191068Y366302D01*
X191076Y366241D01*
X191080Y366180D01*
X191080Y366118D01*
X191076Y366057D01*
X191068Y365996D01*
X191057Y365935D01*
X191042Y365876D01*
X191023Y365817D01*
X191001Y365760D01*
X190975Y365704D01*
X190946Y365650D01*
X190914Y365598D01*
X190878Y365548D01*
X190840Y365500D01*
X190798Y365454D01*
X190754Y365411D01*
X190708Y365371D01*
X190659Y365334D01*
X190607Y365300D01*
X190554Y365270D01*
X190499Y365242D01*
X190443Y365218D01*
X190385Y365198D01*
X190325Y365181D01*
X190265Y365168D01*
X190205Y365159D01*
X190143Y365153D01*
X190082Y365151D01*
D14*
X176050Y379180D02*
X176050Y418380D01*
X141450Y418380D02*
X141450Y379180D01*
D11*
X179804Y430163D02*
X184296Y430163D01*
X179804Y430163D02*
X179804Y431411D01*
X179806Y431480D01*
X179812Y431548D01*
X179821Y431616D01*
X179834Y431684D01*
X179851Y431751D01*
X179872Y431816D01*
X179896Y431881D01*
X179923Y431944D01*
X179954Y432005D01*
X179989Y432065D01*
X180026Y432122D01*
X180067Y432178D01*
X180111Y432231D01*
X180157Y432281D01*
X180207Y432329D01*
X180259Y432374D01*
X180313Y432417D01*
X180369Y432456D01*
X180428Y432492D01*
X180488Y432525D01*
X180551Y432554D01*
X180614Y432580D01*
X180679Y432602D01*
X180746Y432621D01*
X180813Y432636D01*
X180881Y432647D01*
X180949Y432655D01*
X181018Y432659D01*
X181086Y432659D01*
X181155Y432655D01*
X181223Y432647D01*
X181291Y432636D01*
X181358Y432621D01*
X181425Y432602D01*
X181490Y432580D01*
X181553Y432554D01*
X181616Y432525D01*
X181676Y432492D01*
X181735Y432456D01*
X181791Y432417D01*
X181845Y432374D01*
X181897Y432329D01*
X181947Y432281D01*
X181993Y432231D01*
X182037Y432178D01*
X182078Y432122D01*
X182115Y432065D01*
X182150Y432005D01*
X182181Y431944D01*
X182208Y431881D01*
X182232Y431816D01*
X182253Y431751D01*
X182270Y431684D01*
X182283Y431616D01*
X182292Y431548D01*
X182298Y431480D01*
X182300Y431411D01*
X182300Y430163D01*
X182300Y431661D02*
X184296Y432659D01*
X182300Y435629D02*
X182300Y437126D01*
X182299Y435629D02*
X182297Y435566D01*
X182291Y435504D01*
X182281Y435442D01*
X182268Y435381D01*
X182250Y435321D01*
X182229Y435262D01*
X182204Y435204D01*
X182176Y435148D01*
X182144Y435094D01*
X182108Y435042D01*
X182070Y434993D01*
X182029Y434946D01*
X181984Y434902D01*
X181937Y434860D01*
X181888Y434822D01*
X181836Y434786D01*
X181782Y434754D01*
X181726Y434726D01*
X181668Y434701D01*
X181609Y434680D01*
X181549Y434662D01*
X181488Y434649D01*
X181426Y434639D01*
X181364Y434633D01*
X181301Y434631D01*
X181301Y434630D02*
X181052Y434630D01*
X180983Y434632D01*
X180915Y434638D01*
X180847Y434647D01*
X180779Y434660D01*
X180712Y434677D01*
X180647Y434698D01*
X180582Y434722D01*
X180519Y434749D01*
X180458Y434780D01*
X180398Y434815D01*
X180341Y434852D01*
X180285Y434893D01*
X180232Y434937D01*
X180182Y434983D01*
X180134Y435033D01*
X180089Y435085D01*
X180046Y435139D01*
X180007Y435195D01*
X179971Y435254D01*
X179938Y435314D01*
X179909Y435377D01*
X179883Y435440D01*
X179861Y435505D01*
X179842Y435572D01*
X179827Y435639D01*
X179816Y435707D01*
X179808Y435775D01*
X179804Y435844D01*
X179804Y435912D01*
X179808Y435981D01*
X179816Y436049D01*
X179827Y436117D01*
X179842Y436184D01*
X179861Y436251D01*
X179883Y436316D01*
X179909Y436379D01*
X179938Y436442D01*
X179971Y436502D01*
X180007Y436561D01*
X180046Y436617D01*
X180089Y436671D01*
X180134Y436723D01*
X180182Y436773D01*
X180232Y436819D01*
X180285Y436863D01*
X180341Y436904D01*
X180398Y436941D01*
X180458Y436976D01*
X180519Y437007D01*
X180582Y437034D01*
X180647Y437058D01*
X180712Y437079D01*
X180779Y437096D01*
X180847Y437109D01*
X180915Y437118D01*
X180983Y437124D01*
X181052Y437126D01*
X182300Y437126D01*
X182387Y437124D01*
X182474Y437118D01*
X182561Y437109D01*
X182647Y437096D01*
X182732Y437079D01*
X182817Y437058D01*
X182900Y437034D01*
X182983Y437006D01*
X183064Y436974D01*
X183144Y436939D01*
X183222Y436900D01*
X183298Y436859D01*
X183372Y436813D01*
X183445Y436765D01*
X183515Y436714D01*
X183583Y436659D01*
X183648Y436602D01*
X183711Y436541D01*
X183772Y436478D01*
X183829Y436413D01*
X183884Y436345D01*
X183935Y436275D01*
X183983Y436202D01*
X184029Y436128D01*
X184070Y436052D01*
X184109Y435974D01*
X184144Y435894D01*
X184176Y435813D01*
X184204Y435730D01*
X184228Y435647D01*
X184249Y435562D01*
X184266Y435477D01*
X184279Y435391D01*
X184288Y435304D01*
X184294Y435217D01*
X184296Y435130D01*
D14*
X83030Y418380D02*
X83030Y379180D01*
X117630Y379180D02*
X117630Y418380D01*
D11*
X79276Y360434D02*
X74784Y360434D01*
X74784Y361682D01*
X74786Y361751D01*
X74792Y361819D01*
X74801Y361887D01*
X74814Y361955D01*
X74831Y362022D01*
X74852Y362087D01*
X74876Y362152D01*
X74903Y362215D01*
X74934Y362276D01*
X74969Y362336D01*
X75006Y362393D01*
X75047Y362449D01*
X75091Y362502D01*
X75137Y362552D01*
X75187Y362600D01*
X75239Y362645D01*
X75293Y362688D01*
X75349Y362727D01*
X75408Y362763D01*
X75468Y362796D01*
X75531Y362825D01*
X75594Y362851D01*
X75659Y362873D01*
X75726Y362892D01*
X75793Y362907D01*
X75861Y362918D01*
X75929Y362926D01*
X75998Y362930D01*
X76066Y362930D01*
X76135Y362926D01*
X76203Y362918D01*
X76271Y362907D01*
X76338Y362892D01*
X76405Y362873D01*
X76470Y362851D01*
X76533Y362825D01*
X76596Y362796D01*
X76656Y362763D01*
X76715Y362727D01*
X76771Y362688D01*
X76825Y362645D01*
X76877Y362600D01*
X76927Y362552D01*
X76973Y362502D01*
X77017Y362449D01*
X77058Y362393D01*
X77095Y362336D01*
X77130Y362276D01*
X77161Y362215D01*
X77188Y362152D01*
X77212Y362087D01*
X77233Y362022D01*
X77250Y361955D01*
X77263Y361887D01*
X77272Y361819D01*
X77278Y361751D01*
X77280Y361682D01*
X77280Y360434D01*
X77280Y361931D02*
X79276Y362930D01*
X75782Y364901D02*
X74784Y366149D01*
X79276Y366149D01*
X79276Y364901D02*
X79276Y367397D01*
X77030Y369401D02*
X76910Y369403D01*
X76790Y369409D01*
X76671Y369418D01*
X76552Y369432D01*
X76433Y369449D01*
X76315Y369471D01*
X76198Y369496D01*
X76081Y369525D01*
X75966Y369557D01*
X75851Y369594D01*
X75738Y369634D01*
X75627Y369677D01*
X75517Y369725D01*
X75408Y369775D01*
X75408Y369776D02*
X75351Y369797D01*
X75297Y369822D01*
X75243Y369851D01*
X75192Y369883D01*
X75144Y369918D01*
X75097Y369956D01*
X75053Y369998D01*
X75012Y370042D01*
X74974Y370088D01*
X74939Y370137D01*
X74907Y370189D01*
X74879Y370242D01*
X74854Y370297D01*
X74833Y370353D01*
X74815Y370411D01*
X74802Y370469D01*
X74792Y370529D01*
X74786Y370589D01*
X74784Y370649D01*
X74786Y370709D01*
X74792Y370769D01*
X74802Y370829D01*
X74815Y370887D01*
X74833Y370945D01*
X74854Y371001D01*
X74879Y371056D01*
X74907Y371109D01*
X74939Y371161D01*
X74974Y371210D01*
X75012Y371256D01*
X75053Y371300D01*
X75097Y371342D01*
X75143Y371380D01*
X75192Y371415D01*
X75243Y371447D01*
X75297Y371476D01*
X75351Y371501D01*
X75408Y371522D01*
X75408Y371523D02*
X75517Y371573D01*
X75627Y371621D01*
X75738Y371664D01*
X75851Y371704D01*
X75966Y371741D01*
X76081Y371773D01*
X76198Y371802D01*
X76315Y371827D01*
X76433Y371849D01*
X76552Y371866D01*
X76671Y371880D01*
X76790Y371889D01*
X76910Y371895D01*
X77030Y371897D01*
X77030Y369401D02*
X77150Y369403D01*
X77270Y369409D01*
X77389Y369418D01*
X77508Y369432D01*
X77627Y369449D01*
X77745Y369471D01*
X77862Y369496D01*
X77979Y369525D01*
X78094Y369557D01*
X78208Y369594D01*
X78322Y369634D01*
X78433Y369677D01*
X78543Y369725D01*
X78652Y369775D01*
X78652Y369776D02*
X78709Y369797D01*
X78763Y369822D01*
X78817Y369851D01*
X78868Y369883D01*
X78917Y369918D01*
X78963Y369956D01*
X79007Y369998D01*
X79048Y370042D01*
X79086Y370088D01*
X79121Y370137D01*
X79153Y370189D01*
X79181Y370242D01*
X79206Y370297D01*
X79227Y370353D01*
X79245Y370411D01*
X79258Y370469D01*
X79268Y370529D01*
X79274Y370589D01*
X79276Y370649D01*
X78652Y371523D02*
X78543Y371573D01*
X78433Y371621D01*
X78322Y371664D01*
X78208Y371704D01*
X78094Y371741D01*
X77979Y371773D01*
X77862Y371802D01*
X77745Y371827D01*
X77627Y371849D01*
X77508Y371866D01*
X77389Y371880D01*
X77270Y371889D01*
X77150Y371895D01*
X77030Y371897D01*
X78652Y371522D02*
X78709Y371501D01*
X78764Y371476D01*
X78817Y371447D01*
X78868Y371415D01*
X78917Y371380D01*
X78963Y371342D01*
X79007Y371300D01*
X79048Y371256D01*
X79086Y371210D01*
X79121Y371161D01*
X79153Y371109D01*
X79181Y371056D01*
X79206Y371001D01*
X79227Y370945D01*
X79245Y370887D01*
X79258Y370829D01*
X79268Y370769D01*
X79274Y370709D01*
X79276Y370649D01*
X78278Y369651D02*
X75782Y371647D01*
D14*
X61750Y379180D02*
X61750Y418380D01*
X27150Y418380D02*
X27150Y379180D01*
D11*
X65504Y425663D02*
X69996Y425663D01*
X65504Y425663D02*
X65504Y426911D01*
X65506Y426980D01*
X65512Y427048D01*
X65521Y427116D01*
X65534Y427184D01*
X65551Y427251D01*
X65572Y427316D01*
X65596Y427381D01*
X65623Y427444D01*
X65654Y427505D01*
X65689Y427565D01*
X65726Y427622D01*
X65767Y427678D01*
X65811Y427731D01*
X65857Y427781D01*
X65907Y427829D01*
X65959Y427874D01*
X66013Y427917D01*
X66069Y427956D01*
X66128Y427992D01*
X66188Y428025D01*
X66251Y428054D01*
X66314Y428080D01*
X66379Y428102D01*
X66446Y428121D01*
X66513Y428136D01*
X66581Y428147D01*
X66649Y428155D01*
X66718Y428159D01*
X66786Y428159D01*
X66855Y428155D01*
X66923Y428147D01*
X66991Y428136D01*
X67058Y428121D01*
X67125Y428102D01*
X67190Y428080D01*
X67253Y428054D01*
X67316Y428025D01*
X67376Y427992D01*
X67435Y427956D01*
X67491Y427917D01*
X67545Y427874D01*
X67597Y427829D01*
X67647Y427781D01*
X67693Y427731D01*
X67737Y427678D01*
X67778Y427622D01*
X67815Y427565D01*
X67850Y427505D01*
X67881Y427444D01*
X67908Y427381D01*
X67932Y427316D01*
X67953Y427251D01*
X67970Y427184D01*
X67983Y427116D01*
X67992Y427048D01*
X67998Y426980D01*
X68000Y426911D01*
X68000Y425663D01*
X68000Y427161D02*
X69996Y428159D01*
X66502Y430131D02*
X65504Y431378D01*
X69996Y431378D01*
X69996Y430131D02*
X69996Y432626D01*
X66502Y434630D02*
X65504Y435878D01*
X69996Y435878D01*
X69996Y434630D02*
X69996Y437126D01*
D14*
X419270Y252040D02*
X421470Y252040D01*
X421470Y261040D02*
X419270Y261040D01*
X365590Y252040D02*
X363390Y252040D01*
X363390Y261040D02*
X365590Y261040D01*
X307170Y252040D02*
X304970Y252040D01*
X304970Y261040D02*
X307170Y261040D01*
X251290Y252040D02*
X249090Y252040D01*
X249090Y261040D02*
X251290Y261040D01*
X195410Y254580D02*
X193210Y254580D01*
X193210Y263580D02*
X195410Y263580D01*
X154770Y261040D02*
X152570Y261040D01*
X152570Y252040D02*
X154770Y252040D01*
X98890Y261040D02*
X96690Y261040D01*
X96690Y252040D02*
X98890Y252040D01*
X37930Y261040D02*
X35730Y261040D01*
X35730Y252040D02*
X37930Y252040D01*
D12*
X468870Y77150D02*
X498870Y77150D01*
X498870Y100650D01*
X468870Y100650D01*
X468870Y77150D01*
D16*
X466956Y66800D02*
X466958Y66875D01*
X466964Y66949D01*
X466974Y67023D01*
X466987Y67096D01*
X467005Y67169D01*
X467026Y67240D01*
X467051Y67311D01*
X467080Y67380D01*
X467113Y67447D01*
X467149Y67512D01*
X467188Y67576D01*
X467230Y67637D01*
X467276Y67696D01*
X467325Y67753D01*
X467377Y67806D01*
X467431Y67857D01*
X467488Y67906D01*
X467548Y67950D01*
X467610Y67992D01*
X467674Y68031D01*
X467740Y68066D01*
X467807Y68097D01*
X467877Y68125D01*
X467947Y68149D01*
X468019Y68170D01*
X468092Y68186D01*
X468165Y68199D01*
X468240Y68208D01*
X468314Y68213D01*
X468389Y68214D01*
X468463Y68211D01*
X468538Y68204D01*
X468611Y68193D01*
X468685Y68179D01*
X468757Y68160D01*
X468828Y68138D01*
X468898Y68112D01*
X468967Y68082D01*
X469033Y68049D01*
X469098Y68012D01*
X469161Y67972D01*
X469222Y67928D01*
X469280Y67882D01*
X469336Y67832D01*
X469389Y67780D01*
X469440Y67725D01*
X469487Y67667D01*
X469531Y67607D01*
X469572Y67544D01*
X469610Y67480D01*
X469644Y67414D01*
X469675Y67345D01*
X469702Y67276D01*
X469725Y67205D01*
X469744Y67133D01*
X469760Y67060D01*
X469772Y66986D01*
X469780Y66912D01*
X469784Y66837D01*
X469784Y66763D01*
X469780Y66688D01*
X469772Y66614D01*
X469760Y66540D01*
X469744Y66467D01*
X469725Y66395D01*
X469702Y66324D01*
X469675Y66255D01*
X469644Y66186D01*
X469610Y66120D01*
X469572Y66056D01*
X469531Y65993D01*
X469487Y65933D01*
X469440Y65875D01*
X469389Y65820D01*
X469336Y65768D01*
X469280Y65718D01*
X469222Y65672D01*
X469161Y65628D01*
X469098Y65588D01*
X469033Y65551D01*
X468967Y65518D01*
X468898Y65488D01*
X468828Y65462D01*
X468757Y65440D01*
X468685Y65421D01*
X468611Y65407D01*
X468538Y65396D01*
X468463Y65389D01*
X468389Y65386D01*
X468314Y65387D01*
X468240Y65392D01*
X468165Y65401D01*
X468092Y65414D01*
X468019Y65430D01*
X467947Y65451D01*
X467877Y65475D01*
X467807Y65503D01*
X467740Y65534D01*
X467674Y65569D01*
X467610Y65608D01*
X467548Y65650D01*
X467488Y65694D01*
X467431Y65743D01*
X467377Y65794D01*
X467325Y65847D01*
X467276Y65904D01*
X467230Y65963D01*
X467188Y66024D01*
X467149Y66088D01*
X467113Y66153D01*
X467080Y66220D01*
X467051Y66289D01*
X467026Y66360D01*
X467005Y66431D01*
X466987Y66504D01*
X466974Y66577D01*
X466964Y66651D01*
X466958Y66725D01*
X466956Y66800D01*
X467288Y66800D02*
X467290Y66865D01*
X467296Y66930D01*
X467306Y66995D01*
X467319Y67059D01*
X467337Y67122D01*
X467358Y67184D01*
X467383Y67244D01*
X467412Y67303D01*
X467444Y67360D01*
X467480Y67415D01*
X467518Y67467D01*
X467560Y67517D01*
X467605Y67565D01*
X467653Y67610D01*
X467703Y67652D01*
X467755Y67690D01*
X467810Y67726D01*
X467867Y67758D01*
X467926Y67787D01*
X467986Y67812D01*
X468048Y67833D01*
X468111Y67851D01*
X468175Y67864D01*
X468240Y67874D01*
X468305Y67880D01*
X468370Y67882D01*
X468435Y67880D01*
X468500Y67874D01*
X468565Y67864D01*
X468629Y67851D01*
X468692Y67833D01*
X468754Y67812D01*
X468814Y67787D01*
X468873Y67758D01*
X468930Y67726D01*
X468985Y67690D01*
X469037Y67652D01*
X469087Y67610D01*
X469135Y67565D01*
X469180Y67517D01*
X469222Y67467D01*
X469260Y67415D01*
X469296Y67360D01*
X469328Y67303D01*
X469357Y67244D01*
X469382Y67184D01*
X469403Y67122D01*
X469421Y67059D01*
X469434Y66995D01*
X469444Y66930D01*
X469450Y66865D01*
X469452Y66800D01*
X469450Y66735D01*
X469444Y66670D01*
X469434Y66605D01*
X469421Y66541D01*
X469403Y66478D01*
X469382Y66416D01*
X469357Y66356D01*
X469328Y66297D01*
X469296Y66240D01*
X469260Y66185D01*
X469222Y66133D01*
X469180Y66083D01*
X469135Y66035D01*
X469087Y65990D01*
X469037Y65948D01*
X468985Y65910D01*
X468930Y65874D01*
X468873Y65842D01*
X468814Y65813D01*
X468754Y65788D01*
X468692Y65767D01*
X468629Y65749D01*
X468565Y65736D01*
X468500Y65726D01*
X468435Y65720D01*
X468370Y65718D01*
X468305Y65720D01*
X468240Y65726D01*
X468175Y65736D01*
X468111Y65749D01*
X468048Y65767D01*
X467986Y65788D01*
X467926Y65813D01*
X467867Y65842D01*
X467810Y65874D01*
X467755Y65910D01*
X467703Y65948D01*
X467653Y65990D01*
X467605Y66035D01*
X467560Y66083D01*
X467518Y66133D01*
X467480Y66185D01*
X467444Y66240D01*
X467412Y66297D01*
X467383Y66356D01*
X467358Y66416D01*
X467337Y66478D01*
X467319Y66541D01*
X467306Y66605D01*
X467296Y66670D01*
X467290Y66735D01*
X467288Y66800D01*
X467476Y66800D02*
X467478Y66860D01*
X467484Y66919D01*
X467494Y66978D01*
X467508Y67036D01*
X467525Y67093D01*
X467547Y67149D01*
X467572Y67203D01*
X467601Y67256D01*
X467633Y67306D01*
X467668Y67354D01*
X467707Y67400D01*
X467748Y67443D01*
X467793Y67483D01*
X467840Y67520D01*
X467889Y67554D01*
X467940Y67584D01*
X467994Y67611D01*
X468049Y67634D01*
X468105Y67654D01*
X468163Y67670D01*
X468221Y67682D01*
X468281Y67690D01*
X468340Y67694D01*
X468400Y67694D01*
X468459Y67690D01*
X468519Y67682D01*
X468577Y67670D01*
X468635Y67654D01*
X468691Y67634D01*
X468746Y67611D01*
X468800Y67584D01*
X468851Y67554D01*
X468900Y67520D01*
X468947Y67483D01*
X468992Y67443D01*
X469033Y67400D01*
X469072Y67354D01*
X469107Y67306D01*
X469139Y67256D01*
X469168Y67203D01*
X469193Y67149D01*
X469215Y67093D01*
X469232Y67036D01*
X469246Y66978D01*
X469256Y66919D01*
X469262Y66860D01*
X469264Y66800D01*
X469262Y66740D01*
X469256Y66681D01*
X469246Y66622D01*
X469232Y66564D01*
X469215Y66507D01*
X469193Y66451D01*
X469168Y66397D01*
X469139Y66344D01*
X469107Y66294D01*
X469072Y66246D01*
X469033Y66200D01*
X468992Y66157D01*
X468947Y66117D01*
X468900Y66080D01*
X468851Y66046D01*
X468800Y66016D01*
X468746Y65989D01*
X468691Y65966D01*
X468635Y65946D01*
X468577Y65930D01*
X468519Y65918D01*
X468459Y65910D01*
X468400Y65906D01*
X468340Y65906D01*
X468281Y65910D01*
X468221Y65918D01*
X468163Y65930D01*
X468105Y65946D01*
X468049Y65966D01*
X467994Y65989D01*
X467940Y66016D01*
X467889Y66046D01*
X467840Y66080D01*
X467793Y66117D01*
X467748Y66157D01*
X467707Y66200D01*
X467668Y66246D01*
X467633Y66294D01*
X467601Y66344D01*
X467572Y66397D01*
X467547Y66451D01*
X467525Y66507D01*
X467508Y66564D01*
X467494Y66622D01*
X467484Y66681D01*
X467478Y66740D01*
X467476Y66800D01*
X467699Y66800D02*
X467701Y66851D01*
X467707Y66902D01*
X467717Y66953D01*
X467730Y67002D01*
X467748Y67051D01*
X467769Y67098D01*
X467793Y67143D01*
X467821Y67186D01*
X467852Y67227D01*
X467887Y67265D01*
X467924Y67301D01*
X467963Y67334D01*
X468005Y67363D01*
X468049Y67389D01*
X468096Y67412D01*
X468143Y67432D01*
X468192Y67447D01*
X468242Y67459D01*
X468293Y67467D01*
X468344Y67471D01*
X468396Y67471D01*
X468447Y67467D01*
X468498Y67459D01*
X468548Y67447D01*
X468597Y67432D01*
X468644Y67412D01*
X468691Y67389D01*
X468735Y67363D01*
X468777Y67334D01*
X468816Y67301D01*
X468853Y67265D01*
X468888Y67227D01*
X468919Y67186D01*
X468947Y67143D01*
X468971Y67098D01*
X468992Y67051D01*
X469010Y67002D01*
X469023Y66953D01*
X469033Y66902D01*
X469039Y66851D01*
X469041Y66800D01*
X469039Y66749D01*
X469033Y66698D01*
X469023Y66647D01*
X469010Y66598D01*
X468992Y66549D01*
X468971Y66502D01*
X468947Y66457D01*
X468919Y66414D01*
X468888Y66373D01*
X468853Y66335D01*
X468816Y66299D01*
X468777Y66266D01*
X468735Y66237D01*
X468691Y66211D01*
X468644Y66188D01*
X468597Y66168D01*
X468548Y66153D01*
X468498Y66141D01*
X468447Y66133D01*
X468396Y66129D01*
X468344Y66129D01*
X468293Y66133D01*
X468242Y66141D01*
X468192Y66153D01*
X468143Y66168D01*
X468096Y66188D01*
X468049Y66211D01*
X468005Y66237D01*
X467963Y66266D01*
X467924Y66299D01*
X467887Y66335D01*
X467852Y66373D01*
X467821Y66414D01*
X467793Y66457D01*
X467769Y66502D01*
X467748Y66549D01*
X467730Y66598D01*
X467717Y66647D01*
X467707Y66698D01*
X467701Y66749D01*
X467699Y66800D01*
X467787Y66800D02*
X467789Y66848D01*
X467795Y66896D01*
X467805Y66943D01*
X467819Y66989D01*
X467836Y67034D01*
X467857Y67077D01*
X467882Y67119D01*
X467910Y67158D01*
X467941Y67195D01*
X467975Y67229D01*
X468012Y67260D01*
X468051Y67288D01*
X468093Y67313D01*
X468136Y67334D01*
X468181Y67351D01*
X468227Y67365D01*
X468274Y67375D01*
X468322Y67381D01*
X468370Y67383D01*
X468418Y67381D01*
X468466Y67375D01*
X468513Y67365D01*
X468559Y67351D01*
X468604Y67334D01*
X468647Y67313D01*
X468689Y67288D01*
X468728Y67260D01*
X468765Y67229D01*
X468799Y67195D01*
X468830Y67158D01*
X468858Y67119D01*
X468883Y67077D01*
X468904Y67034D01*
X468921Y66989D01*
X468935Y66943D01*
X468945Y66896D01*
X468951Y66848D01*
X468953Y66800D01*
X468951Y66752D01*
X468945Y66704D01*
X468935Y66657D01*
X468921Y66611D01*
X468904Y66566D01*
X468883Y66523D01*
X468858Y66481D01*
X468830Y66442D01*
X468799Y66405D01*
X468765Y66371D01*
X468728Y66340D01*
X468689Y66312D01*
X468647Y66287D01*
X468604Y66266D01*
X468559Y66249D01*
X468513Y66235D01*
X468466Y66225D01*
X468418Y66219D01*
X468370Y66217D01*
X468322Y66219D01*
X468274Y66225D01*
X468227Y66235D01*
X468181Y66249D01*
X468136Y66266D01*
X468093Y66287D01*
X468051Y66312D01*
X468012Y66340D01*
X467975Y66371D01*
X467941Y66405D01*
X467910Y66442D01*
X467882Y66481D01*
X467857Y66523D01*
X467836Y66566D01*
X467819Y66611D01*
X467805Y66657D01*
X467795Y66704D01*
X467789Y66752D01*
X467787Y66800D01*
X468070Y66900D02*
X468072Y66940D01*
X468078Y66979D01*
X468088Y67018D01*
X468101Y67055D01*
X468119Y67091D01*
X468140Y67125D01*
X468164Y67157D01*
X468191Y67186D01*
X468221Y67213D01*
X468253Y67236D01*
X468288Y67256D01*
X468324Y67272D01*
X468362Y67285D01*
X468401Y67294D01*
X468440Y67299D01*
X468480Y67300D01*
X468520Y67297D01*
X468559Y67290D01*
X468597Y67279D01*
X468635Y67265D01*
X468670Y67246D01*
X468703Y67225D01*
X468735Y67200D01*
X468763Y67172D01*
X468789Y67142D01*
X468811Y67109D01*
X468830Y67074D01*
X468846Y67037D01*
X468858Y66999D01*
X468866Y66960D01*
X468870Y66920D01*
X468870Y66880D01*
X468866Y66840D01*
X468858Y66801D01*
X468846Y66763D01*
X468830Y66726D01*
X468811Y66691D01*
X468789Y66658D01*
X468763Y66628D01*
X468735Y66600D01*
X468703Y66575D01*
X468670Y66554D01*
X468635Y66535D01*
X468597Y66521D01*
X468559Y66510D01*
X468520Y66503D01*
X468480Y66500D01*
X468440Y66501D01*
X468401Y66506D01*
X468362Y66515D01*
X468324Y66528D01*
X468288Y66544D01*
X468253Y66564D01*
X468221Y66587D01*
X468191Y66614D01*
X468164Y66643D01*
X468140Y66675D01*
X468119Y66709D01*
X468101Y66745D01*
X468088Y66782D01*
X468078Y66821D01*
X468072Y66860D01*
X468070Y66900D01*
X467809Y66600D02*
X467811Y66638D01*
X467817Y66675D01*
X467827Y66712D01*
X467840Y66747D01*
X467857Y66780D01*
X467878Y66812D01*
X467902Y66842D01*
X467928Y66868D01*
X467958Y66892D01*
X467989Y66913D01*
X468023Y66930D01*
X468058Y66943D01*
X468095Y66953D01*
X468132Y66959D01*
X468170Y66961D01*
X468208Y66959D01*
X468245Y66953D01*
X468282Y66943D01*
X468317Y66930D01*
X468350Y66913D01*
X468382Y66892D01*
X468412Y66868D01*
X468438Y66842D01*
X468462Y66812D01*
X468483Y66781D01*
X468500Y66747D01*
X468513Y66712D01*
X468523Y66675D01*
X468529Y66638D01*
X468531Y66600D01*
X468529Y66562D01*
X468523Y66525D01*
X468513Y66488D01*
X468500Y66453D01*
X468483Y66420D01*
X468462Y66388D01*
X468438Y66358D01*
X468412Y66332D01*
X468382Y66308D01*
X468351Y66287D01*
X468317Y66270D01*
X468282Y66257D01*
X468245Y66247D01*
X468208Y66241D01*
X468170Y66239D01*
X468132Y66241D01*
X468095Y66247D01*
X468058Y66257D01*
X468023Y66270D01*
X467990Y66287D01*
X467958Y66308D01*
X467928Y66332D01*
X467902Y66358D01*
X467878Y66388D01*
X467857Y66419D01*
X467840Y66453D01*
X467827Y66488D01*
X467817Y66525D01*
X467811Y66562D01*
X467809Y66600D01*
X466590Y66800D02*
X466592Y66884D01*
X466598Y66968D01*
X466608Y67051D01*
X466622Y67134D01*
X466639Y67217D01*
X466661Y67298D01*
X466686Y67378D01*
X466716Y67457D01*
X466748Y67534D01*
X466785Y67610D01*
X466825Y67684D01*
X466868Y67756D01*
X466915Y67826D01*
X466965Y67893D01*
X467019Y67958D01*
X467075Y68021D01*
X467134Y68081D01*
X467196Y68138D01*
X467260Y68192D01*
X467327Y68243D01*
X467396Y68290D01*
X467468Y68334D01*
X467541Y68375D01*
X467617Y68413D01*
X467694Y68447D01*
X467772Y68477D01*
X467852Y68503D01*
X467933Y68526D01*
X468015Y68544D01*
X468098Y68559D01*
X468181Y68570D01*
X468265Y68577D01*
X468349Y68580D01*
X468433Y68579D01*
X468517Y68574D01*
X468601Y68565D01*
X468684Y68552D01*
X468766Y68535D01*
X468848Y68515D01*
X468928Y68490D01*
X469007Y68462D01*
X469085Y68430D01*
X469161Y68394D01*
X469236Y68355D01*
X469308Y68313D01*
X469378Y68267D01*
X469447Y68217D01*
X469512Y68165D01*
X469576Y68110D01*
X469636Y68051D01*
X469694Y67990D01*
X469748Y67926D01*
X469800Y67860D01*
X469849Y67791D01*
X469894Y67720D01*
X469935Y67647D01*
X469974Y67572D01*
X470008Y67496D01*
X470039Y67418D01*
X470067Y67338D01*
X470090Y67257D01*
X470110Y67176D01*
X470126Y67093D01*
X470138Y67010D01*
X470146Y66926D01*
X470150Y66842D01*
X470150Y66758D01*
X470146Y66674D01*
X470138Y66590D01*
X470126Y66507D01*
X470110Y66424D01*
X470090Y66343D01*
X470067Y66262D01*
X470039Y66182D01*
X470008Y66104D01*
X469974Y66028D01*
X469935Y65953D01*
X469894Y65880D01*
X469849Y65809D01*
X469800Y65740D01*
X469748Y65674D01*
X469694Y65610D01*
X469636Y65549D01*
X469576Y65490D01*
X469512Y65435D01*
X469447Y65383D01*
X469378Y65333D01*
X469308Y65287D01*
X469236Y65245D01*
X469161Y65206D01*
X469085Y65170D01*
X469007Y65138D01*
X468928Y65110D01*
X468848Y65085D01*
X468766Y65065D01*
X468684Y65048D01*
X468601Y65035D01*
X468517Y65026D01*
X468433Y65021D01*
X468349Y65020D01*
X468265Y65023D01*
X468181Y65030D01*
X468098Y65041D01*
X468015Y65056D01*
X467933Y65074D01*
X467852Y65097D01*
X467772Y65123D01*
X467694Y65153D01*
X467617Y65187D01*
X467541Y65225D01*
X467468Y65266D01*
X467396Y65310D01*
X467327Y65357D01*
X467260Y65408D01*
X467196Y65462D01*
X467134Y65519D01*
X467075Y65579D01*
X467019Y65642D01*
X466965Y65707D01*
X466915Y65774D01*
X466868Y65844D01*
X466825Y65916D01*
X466785Y65990D01*
X466748Y66066D01*
X466716Y66143D01*
X466686Y66222D01*
X466661Y66302D01*
X466639Y66383D01*
X466622Y66466D01*
X466608Y66549D01*
X466598Y66632D01*
X466592Y66716D01*
X466590Y66800D01*
D13*
X459504Y61093D02*
X451060Y61093D01*
X459504Y61093D02*
X459616Y61095D01*
X459728Y61101D01*
X459840Y61110D01*
X459951Y61124D01*
X460062Y61141D01*
X460172Y61162D01*
X460281Y61187D01*
X460389Y61216D01*
X460497Y61248D01*
X460603Y61285D01*
X460708Y61324D01*
X460811Y61368D01*
X460913Y61415D01*
X461013Y61465D01*
X461111Y61519D01*
X461208Y61576D01*
X461302Y61636D01*
X461394Y61700D01*
X461484Y61767D01*
X461572Y61837D01*
X461657Y61910D01*
X461740Y61985D01*
X461820Y62064D01*
X461897Y62145D01*
X461971Y62229D01*
X462043Y62316D01*
X462111Y62404D01*
X462176Y62495D01*
X462238Y62589D01*
X462297Y62684D01*
X462353Y62782D01*
X462405Y62881D01*
X462453Y62982D01*
X462498Y63084D01*
X462540Y63189D01*
X462578Y63294D01*
X462612Y63401D01*
X462643Y63509D01*
X462670Y63617D01*
X462693Y63727D01*
X462712Y63838D01*
X462727Y63949D01*
X462739Y64060D01*
X462747Y64172D01*
X462751Y64284D01*
X462751Y64396D01*
X462747Y64508D01*
X462739Y64620D01*
X462727Y64731D01*
X462712Y64842D01*
X462693Y64953D01*
X462670Y65063D01*
X462643Y65171D01*
X462612Y65279D01*
X462578Y65386D01*
X462540Y65491D01*
X462498Y65596D01*
X462453Y65698D01*
X462405Y65799D01*
X462353Y65898D01*
X462297Y65996D01*
X462238Y66091D01*
X462176Y66185D01*
X462111Y66276D01*
X462043Y66364D01*
X461971Y66451D01*
X461897Y66535D01*
X461820Y66616D01*
X461740Y66695D01*
X461657Y66770D01*
X461572Y66843D01*
X461484Y66913D01*
X461394Y66980D01*
X461302Y67044D01*
X461208Y67104D01*
X461111Y67161D01*
X461013Y67215D01*
X460913Y67265D01*
X460811Y67312D01*
X460708Y67356D01*
X460603Y67395D01*
X460497Y67432D01*
X460389Y67464D01*
X460281Y67493D01*
X460172Y67518D01*
X460062Y67539D01*
X459951Y67556D01*
X459840Y67570D01*
X459728Y67579D01*
X459616Y67585D01*
X459504Y67587D01*
X459504Y67588D02*
X451060Y67588D01*
X453658Y72910D02*
X451060Y76158D01*
X462751Y76158D01*
X462751Y79405D02*
X462751Y72910D01*
X453658Y84346D02*
X451060Y87594D01*
X462751Y87594D01*
X462751Y90841D02*
X462751Y84346D01*
M02*
