G04 EAGLE Gerber RS-274X export*
G75*
%MOMM*%
%FSLAX34Y34*%
%LPD*%
%INSilkscreen Bottom*%
%IPPOS*%
%AMOC8*
5,1,8,0,0,1.08239X$1,22.5*%
G01*
%ADD10C,0.152400*%


D10*
X364857Y136454D02*
X364859Y136336D01*
X364865Y136218D01*
X364874Y136100D01*
X364888Y135983D01*
X364905Y135866D01*
X364926Y135749D01*
X364951Y135634D01*
X364980Y135519D01*
X365013Y135405D01*
X365049Y135293D01*
X365089Y135182D01*
X365132Y135072D01*
X365179Y134963D01*
X365229Y134856D01*
X365284Y134751D01*
X365341Y134648D01*
X365402Y134547D01*
X365466Y134447D01*
X365533Y134350D01*
X365603Y134255D01*
X365677Y134163D01*
X365753Y134072D01*
X365833Y133985D01*
X365915Y133900D01*
X366000Y133818D01*
X366087Y133738D01*
X366178Y133662D01*
X366270Y133588D01*
X366365Y133518D01*
X366462Y133451D01*
X366562Y133387D01*
X366663Y133326D01*
X366766Y133269D01*
X366871Y133214D01*
X366978Y133164D01*
X367087Y133117D01*
X367197Y133074D01*
X367308Y133034D01*
X367420Y132998D01*
X367534Y132965D01*
X367649Y132936D01*
X367764Y132911D01*
X367881Y132890D01*
X367998Y132873D01*
X368115Y132859D01*
X368233Y132850D01*
X368351Y132844D01*
X368469Y132842D01*
X368652Y132844D01*
X368834Y132851D01*
X369016Y132862D01*
X369198Y132877D01*
X369380Y132897D01*
X369561Y132921D01*
X369741Y132949D01*
X369921Y132981D01*
X370100Y133018D01*
X370277Y133059D01*
X370454Y133105D01*
X370630Y133154D01*
X370805Y133208D01*
X370978Y133266D01*
X371149Y133328D01*
X371320Y133394D01*
X371488Y133465D01*
X371655Y133539D01*
X371820Y133617D01*
X371983Y133699D01*
X372144Y133785D01*
X372303Y133875D01*
X372460Y133969D01*
X372614Y134066D01*
X372766Y134167D01*
X372916Y134272D01*
X373063Y134380D01*
X373207Y134491D01*
X373349Y134606D01*
X373488Y134725D01*
X373624Y134847D01*
X373757Y134972D01*
X373887Y135100D01*
X373436Y145486D02*
X373434Y145604D01*
X373428Y145722D01*
X373419Y145840D01*
X373405Y145957D01*
X373388Y146074D01*
X373367Y146191D01*
X373342Y146306D01*
X373313Y146421D01*
X373280Y146535D01*
X373244Y146647D01*
X373204Y146758D01*
X373161Y146868D01*
X373114Y146977D01*
X373064Y147084D01*
X373009Y147189D01*
X372952Y147292D01*
X372891Y147393D01*
X372827Y147493D01*
X372760Y147590D01*
X372690Y147685D01*
X372616Y147777D01*
X372540Y147868D01*
X372460Y147955D01*
X372378Y148040D01*
X372293Y148122D01*
X372206Y148202D01*
X372115Y148278D01*
X372023Y148352D01*
X371928Y148422D01*
X371831Y148489D01*
X371731Y148553D01*
X371630Y148614D01*
X371527Y148671D01*
X371422Y148726D01*
X371315Y148776D01*
X371206Y148823D01*
X371096Y148866D01*
X370985Y148906D01*
X370873Y148942D01*
X370759Y148975D01*
X370644Y149004D01*
X370529Y149029D01*
X370412Y149050D01*
X370295Y149067D01*
X370178Y149081D01*
X370060Y149090D01*
X369942Y149096D01*
X369824Y149098D01*
X369663Y149096D01*
X369501Y149090D01*
X369340Y149081D01*
X369179Y149067D01*
X369019Y149050D01*
X368859Y149029D01*
X368699Y149004D01*
X368540Y148975D01*
X368382Y148943D01*
X368225Y148907D01*
X368069Y148867D01*
X367913Y148823D01*
X367759Y148775D01*
X367606Y148724D01*
X367454Y148670D01*
X367303Y148611D01*
X367154Y148550D01*
X367007Y148484D01*
X366861Y148415D01*
X366716Y148343D01*
X366574Y148267D01*
X366433Y148188D01*
X366294Y148106D01*
X366158Y148020D01*
X366023Y147931D01*
X365890Y147839D01*
X365760Y147743D01*
X371631Y142325D02*
X371732Y142387D01*
X371832Y142452D01*
X371929Y142521D01*
X372024Y142593D01*
X372117Y142667D01*
X372207Y142745D01*
X372295Y142826D01*
X372380Y142909D01*
X372462Y142995D01*
X372541Y143084D01*
X372618Y143175D01*
X372691Y143269D01*
X372762Y143365D01*
X372829Y143463D01*
X372893Y143563D01*
X372954Y143666D01*
X373011Y143770D01*
X373065Y143876D01*
X373115Y143984D01*
X373162Y144093D01*
X373206Y144204D01*
X373246Y144316D01*
X373282Y144430D01*
X373314Y144544D01*
X373343Y144660D01*
X373368Y144776D01*
X373389Y144893D01*
X373406Y145011D01*
X373420Y145129D01*
X373429Y145248D01*
X373435Y145367D01*
X373437Y145486D01*
X366663Y139615D02*
X366562Y139553D01*
X366462Y139488D01*
X366365Y139419D01*
X366270Y139347D01*
X366177Y139273D01*
X366087Y139195D01*
X365999Y139114D01*
X365914Y139031D01*
X365832Y138945D01*
X365753Y138856D01*
X365676Y138765D01*
X365603Y138671D01*
X365532Y138575D01*
X365465Y138477D01*
X365401Y138377D01*
X365340Y138274D01*
X365283Y138170D01*
X365229Y138064D01*
X365179Y137956D01*
X365132Y137847D01*
X365088Y137736D01*
X365048Y137624D01*
X365012Y137510D01*
X364980Y137396D01*
X364951Y137280D01*
X364926Y137164D01*
X364905Y137047D01*
X364888Y136929D01*
X364874Y136811D01*
X364865Y136692D01*
X364859Y136573D01*
X364857Y136454D01*
X366663Y139615D02*
X371630Y142325D01*
X355829Y139164D02*
X351765Y139164D01*
X355829Y139164D02*
X355941Y139162D01*
X356052Y139156D01*
X356163Y139146D01*
X356274Y139133D01*
X356384Y139115D01*
X356493Y139093D01*
X356602Y139068D01*
X356710Y139039D01*
X356816Y139006D01*
X356922Y138969D01*
X357026Y138929D01*
X357128Y138885D01*
X357229Y138837D01*
X357328Y138786D01*
X357426Y138731D01*
X357521Y138673D01*
X357614Y138612D01*
X357705Y138547D01*
X357794Y138479D01*
X357880Y138408D01*
X357963Y138335D01*
X358044Y138258D01*
X358123Y138178D01*
X358198Y138096D01*
X358270Y138011D01*
X358340Y137924D01*
X358406Y137834D01*
X358469Y137742D01*
X358529Y137647D01*
X358585Y137551D01*
X358638Y137453D01*
X358687Y137353D01*
X358733Y137251D01*
X358775Y137148D01*
X358814Y137043D01*
X358849Y136937D01*
X358880Y136830D01*
X358907Y136722D01*
X358931Y136613D01*
X358950Y136503D01*
X358966Y136393D01*
X358978Y136282D01*
X358986Y136170D01*
X358990Y136059D01*
X358990Y135947D01*
X358986Y135836D01*
X358978Y135724D01*
X358966Y135613D01*
X358950Y135503D01*
X358931Y135393D01*
X358907Y135284D01*
X358880Y135176D01*
X358849Y135069D01*
X358814Y134963D01*
X358775Y134858D01*
X358733Y134755D01*
X358687Y134653D01*
X358638Y134553D01*
X358585Y134455D01*
X358529Y134359D01*
X358469Y134264D01*
X358406Y134172D01*
X358340Y134082D01*
X358270Y133995D01*
X358198Y133910D01*
X358123Y133828D01*
X358044Y133748D01*
X357963Y133671D01*
X357880Y133598D01*
X357794Y133527D01*
X357705Y133459D01*
X357614Y133394D01*
X357521Y133333D01*
X357426Y133275D01*
X357328Y133220D01*
X357229Y133169D01*
X357128Y133121D01*
X357026Y133077D01*
X356922Y133037D01*
X356816Y133000D01*
X356710Y132967D01*
X356602Y132938D01*
X356493Y132913D01*
X356384Y132891D01*
X356274Y132873D01*
X356163Y132860D01*
X356052Y132850D01*
X355941Y132844D01*
X355829Y132842D01*
X351765Y132842D01*
X351765Y140970D01*
X351766Y140970D02*
X351768Y141071D01*
X351774Y141172D01*
X351783Y141273D01*
X351796Y141374D01*
X351813Y141474D01*
X351834Y141573D01*
X351858Y141671D01*
X351886Y141768D01*
X351918Y141865D01*
X351953Y141960D01*
X351992Y142053D01*
X352034Y142145D01*
X352080Y142236D01*
X352129Y142325D01*
X352181Y142411D01*
X352237Y142496D01*
X352295Y142579D01*
X352357Y142659D01*
X352422Y142737D01*
X352489Y142813D01*
X352559Y142886D01*
X352632Y142956D01*
X352708Y143023D01*
X352786Y143088D01*
X352866Y143150D01*
X352949Y143208D01*
X353034Y143264D01*
X353121Y143316D01*
X353209Y143365D01*
X353300Y143411D01*
X353392Y143453D01*
X353485Y143492D01*
X353580Y143527D01*
X353677Y143559D01*
X353774Y143587D01*
X353872Y143611D01*
X353971Y143632D01*
X354071Y143649D01*
X354172Y143662D01*
X354273Y143671D01*
X354374Y143677D01*
X354475Y143679D01*
X358087Y143679D01*
X344050Y143679D02*
X344050Y132842D01*
X344050Y143679D02*
X335922Y143679D01*
X335821Y143677D01*
X335720Y143671D01*
X335619Y143662D01*
X335518Y143649D01*
X335418Y143632D01*
X335319Y143611D01*
X335221Y143587D01*
X335124Y143559D01*
X335027Y143527D01*
X334932Y143492D01*
X334839Y143453D01*
X334747Y143411D01*
X334656Y143365D01*
X334568Y143316D01*
X334481Y143264D01*
X334396Y143208D01*
X334313Y143150D01*
X334233Y143088D01*
X334155Y143023D01*
X334079Y142956D01*
X334006Y142886D01*
X333936Y142813D01*
X333869Y142737D01*
X333804Y142659D01*
X333742Y142579D01*
X333684Y142496D01*
X333628Y142411D01*
X333576Y142325D01*
X333527Y142236D01*
X333481Y142145D01*
X333439Y142053D01*
X333400Y141960D01*
X333365Y141865D01*
X333333Y141768D01*
X333305Y141671D01*
X333281Y141573D01*
X333260Y141474D01*
X333243Y141374D01*
X333230Y141273D01*
X333221Y141172D01*
X333215Y141071D01*
X333213Y140970D01*
X333212Y140970D02*
X333212Y132842D01*
X338631Y132842D02*
X338631Y143679D01*
X327168Y149098D02*
X327168Y152710D01*
X320568Y139164D02*
X316053Y137358D01*
X320569Y139164D02*
X320657Y139201D01*
X320743Y139242D01*
X320828Y139286D01*
X320911Y139334D01*
X320991Y139385D01*
X321070Y139439D01*
X321146Y139497D01*
X321220Y139557D01*
X321292Y139621D01*
X321360Y139687D01*
X321426Y139757D01*
X321489Y139828D01*
X321550Y139903D01*
X321607Y139979D01*
X321660Y140058D01*
X321711Y140139D01*
X321758Y140222D01*
X321802Y140307D01*
X321842Y140394D01*
X321879Y140482D01*
X321912Y140572D01*
X321942Y140663D01*
X321967Y140755D01*
X321989Y140848D01*
X322007Y140942D01*
X322022Y141036D01*
X322032Y141131D01*
X322038Y141227D01*
X322041Y141322D01*
X322040Y141418D01*
X322034Y141513D01*
X322025Y141609D01*
X322012Y141703D01*
X321996Y141797D01*
X321975Y141891D01*
X321950Y141983D01*
X321922Y142074D01*
X321890Y142164D01*
X321855Y142253D01*
X321816Y142340D01*
X321773Y142426D01*
X321727Y142510D01*
X321677Y142591D01*
X321625Y142671D01*
X321569Y142749D01*
X321509Y142824D01*
X321447Y142896D01*
X321382Y142966D01*
X321314Y143034D01*
X321244Y143098D01*
X321171Y143160D01*
X321095Y143218D01*
X321017Y143274D01*
X320937Y143326D01*
X320855Y143375D01*
X320771Y143420D01*
X320685Y143462D01*
X320598Y143501D01*
X320509Y143536D01*
X320418Y143567D01*
X320327Y143594D01*
X320234Y143618D01*
X320141Y143638D01*
X320047Y143654D01*
X319952Y143666D01*
X319857Y143675D01*
X319761Y143679D01*
X319666Y143680D01*
X319419Y143673D01*
X319173Y143661D01*
X318927Y143643D01*
X318681Y143618D01*
X318437Y143588D01*
X318193Y143552D01*
X317950Y143511D01*
X317708Y143463D01*
X317467Y143409D01*
X317228Y143350D01*
X316990Y143285D01*
X316754Y143214D01*
X316519Y143138D01*
X316286Y143056D01*
X316056Y142968D01*
X315828Y142875D01*
X315601Y142777D01*
X316052Y137357D02*
X315964Y137320D01*
X315878Y137279D01*
X315793Y137235D01*
X315710Y137187D01*
X315630Y137136D01*
X315551Y137082D01*
X315475Y137024D01*
X315401Y136964D01*
X315329Y136900D01*
X315261Y136834D01*
X315195Y136764D01*
X315132Y136693D01*
X315071Y136618D01*
X315014Y136542D01*
X314961Y136463D01*
X314910Y136382D01*
X314863Y136299D01*
X314819Y136214D01*
X314779Y136127D01*
X314742Y136039D01*
X314709Y135949D01*
X314679Y135858D01*
X314654Y135766D01*
X314632Y135673D01*
X314614Y135579D01*
X314599Y135485D01*
X314589Y135390D01*
X314583Y135294D01*
X314580Y135199D01*
X314581Y135103D01*
X314587Y135008D01*
X314596Y134912D01*
X314609Y134818D01*
X314625Y134724D01*
X314646Y134630D01*
X314671Y134538D01*
X314699Y134447D01*
X314731Y134357D01*
X314766Y134268D01*
X314805Y134181D01*
X314848Y134095D01*
X314894Y134011D01*
X314944Y133930D01*
X314996Y133850D01*
X315052Y133772D01*
X315112Y133697D01*
X315174Y133625D01*
X315239Y133555D01*
X315307Y133487D01*
X315377Y133423D01*
X315450Y133361D01*
X315526Y133303D01*
X315604Y133247D01*
X315684Y133195D01*
X315766Y133146D01*
X315850Y133101D01*
X315936Y133059D01*
X316023Y133020D01*
X316112Y132985D01*
X316203Y132954D01*
X316294Y132927D01*
X316387Y132903D01*
X316480Y132883D01*
X316574Y132867D01*
X316669Y132855D01*
X316764Y132846D01*
X316860Y132842D01*
X316955Y132841D01*
X316956Y132842D02*
X317318Y132851D01*
X317680Y132869D01*
X318041Y132896D01*
X318401Y132931D01*
X318761Y132974D01*
X319120Y133026D01*
X319477Y133087D01*
X319832Y133156D01*
X320186Y133233D01*
X320538Y133319D01*
X320888Y133413D01*
X321236Y133516D01*
X321581Y133626D01*
X321923Y133745D01*
X299288Y132842D02*
X299288Y149098D01*
X294772Y149098D01*
X294639Y149096D01*
X294507Y149090D01*
X294375Y149080D01*
X294243Y149067D01*
X294111Y149049D01*
X293981Y149028D01*
X293850Y149003D01*
X293721Y148974D01*
X293593Y148941D01*
X293465Y148905D01*
X293339Y148865D01*
X293214Y148821D01*
X293090Y148773D01*
X292968Y148722D01*
X292847Y148667D01*
X292728Y148609D01*
X292610Y148547D01*
X292495Y148482D01*
X292381Y148413D01*
X292270Y148342D01*
X292161Y148266D01*
X292054Y148188D01*
X291949Y148107D01*
X291847Y148022D01*
X291747Y147935D01*
X291650Y147845D01*
X291555Y147752D01*
X291464Y147656D01*
X291375Y147558D01*
X291289Y147457D01*
X291206Y147353D01*
X291126Y147247D01*
X291050Y147139D01*
X290976Y147029D01*
X290906Y146916D01*
X290839Y146802D01*
X290776Y146685D01*
X290716Y146567D01*
X290659Y146447D01*
X290606Y146325D01*
X290557Y146202D01*
X290511Y146078D01*
X290469Y145952D01*
X290431Y145825D01*
X290396Y145697D01*
X290365Y145568D01*
X290338Y145439D01*
X290315Y145308D01*
X290295Y145177D01*
X290280Y145045D01*
X290268Y144913D01*
X290260Y144781D01*
X290256Y144648D01*
X290256Y144516D01*
X290260Y144383D01*
X290268Y144251D01*
X290280Y144119D01*
X290295Y143987D01*
X290315Y143856D01*
X290338Y143725D01*
X290365Y143596D01*
X290396Y143467D01*
X290431Y143339D01*
X290469Y143212D01*
X290511Y143086D01*
X290557Y142962D01*
X290606Y142839D01*
X290659Y142717D01*
X290716Y142597D01*
X290776Y142479D01*
X290839Y142362D01*
X290906Y142248D01*
X290976Y142135D01*
X291050Y142025D01*
X291126Y141917D01*
X291206Y141811D01*
X291289Y141707D01*
X291375Y141606D01*
X291464Y141508D01*
X291555Y141412D01*
X291650Y141319D01*
X291747Y141229D01*
X291847Y141142D01*
X291949Y141057D01*
X292054Y140976D01*
X292161Y140898D01*
X292270Y140822D01*
X292381Y140751D01*
X292495Y140682D01*
X292610Y140617D01*
X292728Y140555D01*
X292847Y140497D01*
X292968Y140442D01*
X293090Y140391D01*
X293214Y140343D01*
X293339Y140299D01*
X293465Y140259D01*
X293593Y140223D01*
X293721Y140190D01*
X293850Y140161D01*
X293981Y140136D01*
X294111Y140115D01*
X294243Y140097D01*
X294375Y140084D01*
X294507Y140074D01*
X294639Y140068D01*
X294772Y140066D01*
X294772Y140067D02*
X299288Y140067D01*
X293869Y140067D02*
X290257Y132842D01*
X283887Y136454D02*
X283887Y140067D01*
X283886Y140067D02*
X283884Y140186D01*
X283878Y140306D01*
X283868Y140425D01*
X283854Y140543D01*
X283837Y140662D01*
X283815Y140779D01*
X283790Y140896D01*
X283760Y141011D01*
X283727Y141126D01*
X283690Y141240D01*
X283650Y141352D01*
X283605Y141463D01*
X283557Y141572D01*
X283506Y141680D01*
X283451Y141786D01*
X283392Y141890D01*
X283330Y141992D01*
X283265Y142092D01*
X283196Y142190D01*
X283124Y142286D01*
X283049Y142379D01*
X282972Y142469D01*
X282891Y142557D01*
X282807Y142642D01*
X282720Y142724D01*
X282631Y142804D01*
X282539Y142880D01*
X282445Y142954D01*
X282348Y143024D01*
X282250Y143091D01*
X282149Y143155D01*
X282045Y143215D01*
X281940Y143272D01*
X281833Y143325D01*
X281725Y143375D01*
X281615Y143421D01*
X281503Y143463D01*
X281390Y143502D01*
X281276Y143537D01*
X281161Y143568D01*
X281044Y143596D01*
X280927Y143619D01*
X280810Y143639D01*
X280691Y143655D01*
X280572Y143667D01*
X280453Y143675D01*
X280334Y143679D01*
X280214Y143679D01*
X280095Y143675D01*
X279976Y143667D01*
X279857Y143655D01*
X279738Y143639D01*
X279621Y143619D01*
X279504Y143596D01*
X279387Y143568D01*
X279272Y143537D01*
X279158Y143502D01*
X279045Y143463D01*
X278933Y143421D01*
X278823Y143375D01*
X278715Y143325D01*
X278608Y143272D01*
X278503Y143215D01*
X278399Y143155D01*
X278298Y143091D01*
X278200Y143024D01*
X278103Y142954D01*
X278009Y142880D01*
X277917Y142804D01*
X277828Y142724D01*
X277741Y142642D01*
X277657Y142557D01*
X277576Y142469D01*
X277499Y142379D01*
X277424Y142286D01*
X277352Y142190D01*
X277283Y142092D01*
X277218Y141992D01*
X277156Y141890D01*
X277097Y141786D01*
X277042Y141680D01*
X276991Y141572D01*
X276943Y141463D01*
X276898Y141352D01*
X276858Y141240D01*
X276821Y141126D01*
X276788Y141011D01*
X276758Y140896D01*
X276733Y140779D01*
X276711Y140662D01*
X276694Y140543D01*
X276680Y140425D01*
X276670Y140306D01*
X276664Y140186D01*
X276662Y140067D01*
X276662Y136454D01*
X276664Y136335D01*
X276670Y136215D01*
X276680Y136096D01*
X276694Y135978D01*
X276711Y135859D01*
X276733Y135742D01*
X276758Y135625D01*
X276788Y135510D01*
X276821Y135395D01*
X276858Y135281D01*
X276898Y135169D01*
X276943Y135058D01*
X276991Y134949D01*
X277042Y134841D01*
X277097Y134735D01*
X277156Y134631D01*
X277218Y134529D01*
X277283Y134429D01*
X277352Y134331D01*
X277424Y134235D01*
X277499Y134142D01*
X277576Y134052D01*
X277657Y133964D01*
X277741Y133879D01*
X277828Y133797D01*
X277917Y133717D01*
X278009Y133641D01*
X278103Y133567D01*
X278200Y133497D01*
X278298Y133430D01*
X278399Y133366D01*
X278503Y133306D01*
X278608Y133249D01*
X278715Y133196D01*
X278823Y133146D01*
X278933Y133100D01*
X279045Y133058D01*
X279158Y133019D01*
X279272Y132984D01*
X279387Y132953D01*
X279504Y132925D01*
X279621Y132902D01*
X279738Y132882D01*
X279857Y132866D01*
X279976Y132854D01*
X280095Y132846D01*
X280214Y132842D01*
X280334Y132842D01*
X280453Y132846D01*
X280572Y132854D01*
X280691Y132866D01*
X280810Y132882D01*
X280927Y132902D01*
X281044Y132925D01*
X281161Y132953D01*
X281276Y132984D01*
X281390Y133019D01*
X281503Y133058D01*
X281615Y133100D01*
X281725Y133146D01*
X281833Y133196D01*
X281940Y133249D01*
X282045Y133306D01*
X282149Y133366D01*
X282250Y133430D01*
X282348Y133497D01*
X282445Y133567D01*
X282539Y133641D01*
X282631Y133717D01*
X282720Y133797D01*
X282807Y133879D01*
X282891Y133964D01*
X282972Y134052D01*
X283049Y134142D01*
X283124Y134235D01*
X283196Y134331D01*
X283265Y134429D01*
X283330Y134529D01*
X283392Y134631D01*
X283451Y134735D01*
X283506Y134841D01*
X283557Y134949D01*
X283605Y135058D01*
X283650Y135169D01*
X283690Y135281D01*
X283727Y135395D01*
X283760Y135510D01*
X283790Y135625D01*
X283815Y135742D01*
X283837Y135859D01*
X283854Y135978D01*
X283868Y136096D01*
X283878Y136215D01*
X283884Y136335D01*
X283886Y136454D01*
X267252Y139164D02*
X263188Y139164D01*
X267252Y139164D02*
X267364Y139162D01*
X267475Y139156D01*
X267586Y139146D01*
X267697Y139133D01*
X267807Y139115D01*
X267916Y139093D01*
X268025Y139068D01*
X268133Y139039D01*
X268239Y139006D01*
X268345Y138969D01*
X268449Y138929D01*
X268551Y138885D01*
X268652Y138837D01*
X268751Y138786D01*
X268849Y138731D01*
X268944Y138673D01*
X269037Y138612D01*
X269128Y138547D01*
X269217Y138479D01*
X269303Y138408D01*
X269386Y138335D01*
X269467Y138258D01*
X269546Y138178D01*
X269621Y138096D01*
X269693Y138011D01*
X269763Y137924D01*
X269829Y137834D01*
X269892Y137742D01*
X269952Y137647D01*
X270008Y137551D01*
X270061Y137453D01*
X270110Y137353D01*
X270156Y137251D01*
X270198Y137148D01*
X270237Y137043D01*
X270272Y136937D01*
X270303Y136830D01*
X270330Y136722D01*
X270354Y136613D01*
X270373Y136503D01*
X270389Y136393D01*
X270401Y136282D01*
X270409Y136170D01*
X270413Y136059D01*
X270413Y135947D01*
X270409Y135836D01*
X270401Y135724D01*
X270389Y135613D01*
X270373Y135503D01*
X270354Y135393D01*
X270330Y135284D01*
X270303Y135176D01*
X270272Y135069D01*
X270237Y134963D01*
X270198Y134858D01*
X270156Y134755D01*
X270110Y134653D01*
X270061Y134553D01*
X270008Y134455D01*
X269952Y134359D01*
X269892Y134264D01*
X269829Y134172D01*
X269763Y134082D01*
X269693Y133995D01*
X269621Y133910D01*
X269546Y133828D01*
X269467Y133748D01*
X269386Y133671D01*
X269303Y133598D01*
X269217Y133527D01*
X269128Y133459D01*
X269037Y133394D01*
X268944Y133333D01*
X268849Y133275D01*
X268751Y133220D01*
X268652Y133169D01*
X268551Y133121D01*
X268449Y133077D01*
X268345Y133037D01*
X268239Y133000D01*
X268133Y132967D01*
X268025Y132938D01*
X267916Y132913D01*
X267807Y132891D01*
X267697Y132873D01*
X267586Y132860D01*
X267475Y132850D01*
X267364Y132844D01*
X267252Y132842D01*
X263188Y132842D01*
X263188Y140970D01*
X263189Y140970D02*
X263191Y141071D01*
X263197Y141172D01*
X263206Y141273D01*
X263219Y141374D01*
X263236Y141474D01*
X263257Y141573D01*
X263281Y141671D01*
X263309Y141768D01*
X263341Y141865D01*
X263376Y141960D01*
X263415Y142053D01*
X263457Y142145D01*
X263503Y142236D01*
X263552Y142325D01*
X263604Y142411D01*
X263660Y142496D01*
X263718Y142579D01*
X263780Y142659D01*
X263845Y142737D01*
X263912Y142813D01*
X263982Y142886D01*
X264055Y142956D01*
X264131Y143023D01*
X264209Y143088D01*
X264289Y143150D01*
X264372Y143208D01*
X264457Y143264D01*
X264544Y143316D01*
X264632Y143365D01*
X264723Y143411D01*
X264815Y143453D01*
X264908Y143492D01*
X265003Y143527D01*
X265100Y143559D01*
X265197Y143587D01*
X265295Y143611D01*
X265394Y143632D01*
X265494Y143649D01*
X265595Y143662D01*
X265696Y143671D01*
X265797Y143677D01*
X265898Y143679D01*
X269510Y143679D01*
X254917Y139164D02*
X250402Y137358D01*
X254917Y139164D02*
X255005Y139201D01*
X255091Y139242D01*
X255176Y139286D01*
X255259Y139334D01*
X255339Y139385D01*
X255418Y139439D01*
X255494Y139497D01*
X255568Y139557D01*
X255640Y139621D01*
X255708Y139687D01*
X255774Y139757D01*
X255837Y139828D01*
X255898Y139903D01*
X255955Y139979D01*
X256008Y140058D01*
X256059Y140139D01*
X256106Y140222D01*
X256150Y140307D01*
X256190Y140394D01*
X256227Y140482D01*
X256260Y140572D01*
X256290Y140663D01*
X256315Y140755D01*
X256337Y140848D01*
X256355Y140942D01*
X256370Y141036D01*
X256380Y141131D01*
X256386Y141227D01*
X256389Y141322D01*
X256388Y141418D01*
X256382Y141513D01*
X256373Y141609D01*
X256360Y141703D01*
X256344Y141797D01*
X256323Y141891D01*
X256298Y141983D01*
X256270Y142074D01*
X256238Y142164D01*
X256203Y142253D01*
X256164Y142340D01*
X256121Y142426D01*
X256075Y142510D01*
X256025Y142591D01*
X255973Y142671D01*
X255917Y142749D01*
X255857Y142824D01*
X255795Y142896D01*
X255730Y142966D01*
X255662Y143034D01*
X255592Y143098D01*
X255519Y143160D01*
X255443Y143218D01*
X255365Y143274D01*
X255285Y143326D01*
X255203Y143375D01*
X255119Y143420D01*
X255033Y143462D01*
X254946Y143501D01*
X254857Y143536D01*
X254766Y143567D01*
X254675Y143594D01*
X254582Y143618D01*
X254489Y143638D01*
X254395Y143654D01*
X254300Y143666D01*
X254205Y143675D01*
X254109Y143679D01*
X254014Y143680D01*
X253767Y143673D01*
X253521Y143661D01*
X253275Y143643D01*
X253029Y143618D01*
X252785Y143588D01*
X252541Y143552D01*
X252298Y143511D01*
X252056Y143463D01*
X251815Y143409D01*
X251576Y143350D01*
X251338Y143285D01*
X251102Y143214D01*
X250867Y143138D01*
X250634Y143056D01*
X250404Y142968D01*
X250176Y142875D01*
X249949Y142777D01*
X250401Y137357D02*
X250313Y137320D01*
X250227Y137279D01*
X250142Y137235D01*
X250059Y137187D01*
X249979Y137136D01*
X249900Y137082D01*
X249824Y137024D01*
X249750Y136964D01*
X249678Y136900D01*
X249610Y136834D01*
X249544Y136764D01*
X249481Y136693D01*
X249420Y136618D01*
X249363Y136542D01*
X249310Y136463D01*
X249259Y136382D01*
X249212Y136299D01*
X249168Y136214D01*
X249128Y136127D01*
X249091Y136039D01*
X249058Y135949D01*
X249028Y135858D01*
X249003Y135766D01*
X248981Y135673D01*
X248963Y135579D01*
X248948Y135485D01*
X248938Y135390D01*
X248932Y135294D01*
X248929Y135199D01*
X248930Y135103D01*
X248936Y135008D01*
X248945Y134912D01*
X248958Y134818D01*
X248974Y134724D01*
X248995Y134630D01*
X249020Y134538D01*
X249048Y134447D01*
X249080Y134357D01*
X249115Y134268D01*
X249154Y134181D01*
X249197Y134095D01*
X249243Y134011D01*
X249293Y133930D01*
X249345Y133850D01*
X249401Y133772D01*
X249461Y133697D01*
X249523Y133625D01*
X249588Y133555D01*
X249656Y133487D01*
X249726Y133423D01*
X249799Y133361D01*
X249875Y133303D01*
X249953Y133247D01*
X250033Y133195D01*
X250115Y133146D01*
X250199Y133101D01*
X250285Y133059D01*
X250372Y133020D01*
X250461Y132985D01*
X250552Y132954D01*
X250643Y132927D01*
X250736Y132903D01*
X250829Y132883D01*
X250923Y132867D01*
X251018Y132855D01*
X251113Y132846D01*
X251209Y132842D01*
X251304Y132841D01*
X251305Y132842D02*
X251667Y132851D01*
X252029Y132869D01*
X252390Y132896D01*
X252750Y132931D01*
X253110Y132974D01*
X253469Y133026D01*
X253826Y133087D01*
X254181Y133156D01*
X254535Y133233D01*
X254887Y133319D01*
X255237Y133413D01*
X255585Y133516D01*
X255930Y133626D01*
X256272Y133745D01*
X244022Y143679D02*
X238603Y143679D01*
X242216Y149098D02*
X242216Y135551D01*
X242215Y135551D02*
X242213Y135450D01*
X242207Y135349D01*
X242198Y135248D01*
X242185Y135147D01*
X242168Y135047D01*
X242147Y134948D01*
X242123Y134850D01*
X242095Y134753D01*
X242063Y134656D01*
X242028Y134561D01*
X241989Y134468D01*
X241947Y134376D01*
X241901Y134285D01*
X241852Y134196D01*
X241800Y134110D01*
X241744Y134025D01*
X241686Y133942D01*
X241624Y133862D01*
X241559Y133784D01*
X241492Y133708D01*
X241422Y133635D01*
X241349Y133565D01*
X241273Y133498D01*
X241195Y133433D01*
X241115Y133371D01*
X241032Y133313D01*
X240947Y133257D01*
X240861Y133205D01*
X240772Y133156D01*
X240681Y133110D01*
X240589Y133068D01*
X240496Y133029D01*
X240401Y132994D01*
X240304Y132962D01*
X240207Y132934D01*
X240109Y132910D01*
X240010Y132889D01*
X239910Y132872D01*
X239809Y132859D01*
X239708Y132850D01*
X239607Y132844D01*
X239506Y132842D01*
X238603Y132842D01*
X233346Y127423D02*
X231540Y127423D01*
X226121Y143679D01*
X233346Y143679D02*
X229734Y132842D01*
X208371Y132842D02*
X208371Y149098D01*
X212886Y149098D02*
X203855Y149098D01*
X198436Y140067D02*
X198436Y136454D01*
X198436Y140067D02*
X198434Y140186D01*
X198428Y140306D01*
X198418Y140425D01*
X198404Y140543D01*
X198387Y140662D01*
X198365Y140779D01*
X198340Y140896D01*
X198310Y141011D01*
X198277Y141126D01*
X198240Y141240D01*
X198200Y141352D01*
X198155Y141463D01*
X198107Y141572D01*
X198056Y141680D01*
X198001Y141786D01*
X197942Y141890D01*
X197880Y141992D01*
X197815Y142092D01*
X197746Y142190D01*
X197674Y142286D01*
X197599Y142379D01*
X197522Y142469D01*
X197441Y142557D01*
X197357Y142642D01*
X197270Y142724D01*
X197181Y142804D01*
X197089Y142880D01*
X196995Y142954D01*
X196898Y143024D01*
X196800Y143091D01*
X196699Y143155D01*
X196595Y143215D01*
X196490Y143272D01*
X196383Y143325D01*
X196275Y143375D01*
X196165Y143421D01*
X196053Y143463D01*
X195940Y143502D01*
X195826Y143537D01*
X195711Y143568D01*
X195594Y143596D01*
X195477Y143619D01*
X195360Y143639D01*
X195241Y143655D01*
X195122Y143667D01*
X195003Y143675D01*
X194884Y143679D01*
X194764Y143679D01*
X194645Y143675D01*
X194526Y143667D01*
X194407Y143655D01*
X194288Y143639D01*
X194171Y143619D01*
X194054Y143596D01*
X193937Y143568D01*
X193822Y143537D01*
X193708Y143502D01*
X193595Y143463D01*
X193483Y143421D01*
X193373Y143375D01*
X193265Y143325D01*
X193158Y143272D01*
X193053Y143215D01*
X192949Y143155D01*
X192848Y143091D01*
X192750Y143024D01*
X192653Y142954D01*
X192559Y142880D01*
X192467Y142804D01*
X192378Y142724D01*
X192291Y142642D01*
X192207Y142557D01*
X192126Y142469D01*
X192049Y142379D01*
X191974Y142286D01*
X191902Y142190D01*
X191833Y142092D01*
X191768Y141992D01*
X191706Y141890D01*
X191647Y141786D01*
X191592Y141680D01*
X191541Y141572D01*
X191493Y141463D01*
X191448Y141352D01*
X191408Y141240D01*
X191371Y141126D01*
X191338Y141011D01*
X191308Y140896D01*
X191283Y140779D01*
X191261Y140662D01*
X191244Y140543D01*
X191230Y140425D01*
X191220Y140306D01*
X191214Y140186D01*
X191212Y140067D01*
X191211Y140067D02*
X191211Y136454D01*
X191212Y136454D02*
X191214Y136335D01*
X191220Y136215D01*
X191230Y136096D01*
X191244Y135978D01*
X191261Y135859D01*
X191283Y135742D01*
X191308Y135625D01*
X191338Y135510D01*
X191371Y135395D01*
X191408Y135281D01*
X191448Y135169D01*
X191493Y135058D01*
X191541Y134949D01*
X191592Y134841D01*
X191647Y134735D01*
X191706Y134631D01*
X191768Y134529D01*
X191833Y134429D01*
X191902Y134331D01*
X191974Y134235D01*
X192049Y134142D01*
X192126Y134052D01*
X192207Y133964D01*
X192291Y133879D01*
X192378Y133797D01*
X192467Y133717D01*
X192559Y133641D01*
X192653Y133567D01*
X192750Y133497D01*
X192848Y133430D01*
X192949Y133366D01*
X193053Y133306D01*
X193158Y133249D01*
X193265Y133196D01*
X193373Y133146D01*
X193483Y133100D01*
X193595Y133058D01*
X193708Y133019D01*
X193822Y132984D01*
X193937Y132953D01*
X194054Y132925D01*
X194171Y132902D01*
X194288Y132882D01*
X194407Y132866D01*
X194526Y132854D01*
X194645Y132846D01*
X194764Y132842D01*
X194884Y132842D01*
X195003Y132846D01*
X195122Y132854D01*
X195241Y132866D01*
X195360Y132882D01*
X195477Y132902D01*
X195594Y132925D01*
X195711Y132953D01*
X195826Y132984D01*
X195940Y133019D01*
X196053Y133058D01*
X196165Y133100D01*
X196275Y133146D01*
X196383Y133196D01*
X196490Y133249D01*
X196595Y133306D01*
X196699Y133366D01*
X196800Y133430D01*
X196898Y133497D01*
X196995Y133567D01*
X197089Y133641D01*
X197181Y133717D01*
X197270Y133797D01*
X197357Y133879D01*
X197441Y133964D01*
X197522Y134052D01*
X197599Y134142D01*
X197674Y134235D01*
X197746Y134331D01*
X197815Y134429D01*
X197880Y134529D01*
X197942Y134631D01*
X198001Y134735D01*
X198056Y134841D01*
X198107Y134949D01*
X198155Y135058D01*
X198200Y135169D01*
X198240Y135281D01*
X198277Y135395D01*
X198310Y135510D01*
X198340Y135625D01*
X198365Y135742D01*
X198387Y135859D01*
X198404Y135978D01*
X198418Y136096D01*
X198428Y136215D01*
X198434Y136335D01*
X198436Y136454D01*
X181802Y139164D02*
X177738Y139164D01*
X181802Y139164D02*
X181914Y139162D01*
X182025Y139156D01*
X182136Y139146D01*
X182247Y139133D01*
X182357Y139115D01*
X182466Y139093D01*
X182575Y139068D01*
X182683Y139039D01*
X182789Y139006D01*
X182895Y138969D01*
X182999Y138929D01*
X183101Y138885D01*
X183202Y138837D01*
X183301Y138786D01*
X183399Y138731D01*
X183494Y138673D01*
X183587Y138612D01*
X183678Y138547D01*
X183767Y138479D01*
X183853Y138408D01*
X183936Y138335D01*
X184017Y138258D01*
X184096Y138178D01*
X184171Y138096D01*
X184243Y138011D01*
X184313Y137924D01*
X184379Y137834D01*
X184442Y137742D01*
X184502Y137647D01*
X184558Y137551D01*
X184611Y137453D01*
X184660Y137353D01*
X184706Y137251D01*
X184748Y137148D01*
X184787Y137043D01*
X184822Y136937D01*
X184853Y136830D01*
X184880Y136722D01*
X184904Y136613D01*
X184923Y136503D01*
X184939Y136393D01*
X184951Y136282D01*
X184959Y136170D01*
X184963Y136059D01*
X184963Y135947D01*
X184959Y135836D01*
X184951Y135724D01*
X184939Y135613D01*
X184923Y135503D01*
X184904Y135393D01*
X184880Y135284D01*
X184853Y135176D01*
X184822Y135069D01*
X184787Y134963D01*
X184748Y134858D01*
X184706Y134755D01*
X184660Y134653D01*
X184611Y134553D01*
X184558Y134455D01*
X184502Y134359D01*
X184442Y134264D01*
X184379Y134172D01*
X184313Y134082D01*
X184243Y133995D01*
X184171Y133910D01*
X184096Y133828D01*
X184017Y133748D01*
X183936Y133671D01*
X183853Y133598D01*
X183767Y133527D01*
X183678Y133459D01*
X183587Y133394D01*
X183494Y133333D01*
X183399Y133275D01*
X183301Y133220D01*
X183202Y133169D01*
X183101Y133121D01*
X182999Y133077D01*
X182895Y133037D01*
X182789Y133000D01*
X182683Y132967D01*
X182575Y132938D01*
X182466Y132913D01*
X182357Y132891D01*
X182247Y132873D01*
X182136Y132860D01*
X182025Y132850D01*
X181914Y132844D01*
X181802Y132842D01*
X177738Y132842D01*
X177738Y140970D01*
X177740Y141071D01*
X177746Y141172D01*
X177755Y141273D01*
X177768Y141374D01*
X177785Y141474D01*
X177806Y141573D01*
X177830Y141671D01*
X177858Y141768D01*
X177890Y141865D01*
X177925Y141960D01*
X177964Y142053D01*
X178006Y142145D01*
X178052Y142236D01*
X178101Y142325D01*
X178153Y142411D01*
X178209Y142496D01*
X178267Y142579D01*
X178329Y142659D01*
X178394Y142737D01*
X178461Y142813D01*
X178531Y142886D01*
X178604Y142956D01*
X178680Y143023D01*
X178758Y143088D01*
X178838Y143150D01*
X178921Y143208D01*
X179006Y143264D01*
X179093Y143316D01*
X179181Y143365D01*
X179272Y143411D01*
X179364Y143453D01*
X179457Y143492D01*
X179552Y143527D01*
X179649Y143559D01*
X179746Y143587D01*
X179844Y143611D01*
X179943Y143632D01*
X180043Y143649D01*
X180144Y143662D01*
X180245Y143671D01*
X180346Y143677D01*
X180447Y143679D01*
X184059Y143679D01*
X169466Y139164D02*
X164951Y137358D01*
X169467Y139164D02*
X169555Y139201D01*
X169641Y139242D01*
X169726Y139286D01*
X169809Y139334D01*
X169889Y139385D01*
X169968Y139439D01*
X170044Y139497D01*
X170118Y139557D01*
X170190Y139621D01*
X170258Y139687D01*
X170324Y139757D01*
X170387Y139828D01*
X170448Y139903D01*
X170505Y139979D01*
X170558Y140058D01*
X170609Y140139D01*
X170656Y140222D01*
X170700Y140307D01*
X170740Y140394D01*
X170777Y140482D01*
X170810Y140572D01*
X170840Y140663D01*
X170865Y140755D01*
X170887Y140848D01*
X170905Y140942D01*
X170920Y141036D01*
X170930Y141131D01*
X170936Y141227D01*
X170939Y141322D01*
X170938Y141418D01*
X170932Y141513D01*
X170923Y141609D01*
X170910Y141703D01*
X170894Y141797D01*
X170873Y141891D01*
X170848Y141983D01*
X170820Y142074D01*
X170788Y142164D01*
X170753Y142253D01*
X170714Y142340D01*
X170671Y142426D01*
X170625Y142510D01*
X170575Y142591D01*
X170523Y142671D01*
X170467Y142749D01*
X170407Y142824D01*
X170345Y142896D01*
X170280Y142966D01*
X170212Y143034D01*
X170142Y143098D01*
X170069Y143160D01*
X169993Y143218D01*
X169915Y143274D01*
X169835Y143326D01*
X169753Y143375D01*
X169669Y143420D01*
X169583Y143462D01*
X169496Y143501D01*
X169407Y143536D01*
X169316Y143567D01*
X169225Y143594D01*
X169132Y143618D01*
X169039Y143638D01*
X168945Y143654D01*
X168850Y143666D01*
X168755Y143675D01*
X168659Y143679D01*
X168564Y143680D01*
X168317Y143673D01*
X168071Y143661D01*
X167825Y143643D01*
X167579Y143618D01*
X167335Y143588D01*
X167091Y143552D01*
X166848Y143511D01*
X166606Y143463D01*
X166365Y143409D01*
X166126Y143350D01*
X165888Y143285D01*
X165652Y143214D01*
X165417Y143138D01*
X165184Y143056D01*
X164954Y142968D01*
X164726Y142875D01*
X164499Y142777D01*
X164951Y137357D02*
X164863Y137320D01*
X164777Y137279D01*
X164692Y137235D01*
X164609Y137187D01*
X164529Y137136D01*
X164450Y137082D01*
X164374Y137024D01*
X164300Y136964D01*
X164228Y136900D01*
X164160Y136834D01*
X164094Y136764D01*
X164031Y136693D01*
X163970Y136618D01*
X163913Y136542D01*
X163860Y136463D01*
X163809Y136382D01*
X163762Y136299D01*
X163718Y136214D01*
X163678Y136127D01*
X163641Y136039D01*
X163608Y135949D01*
X163578Y135858D01*
X163553Y135766D01*
X163531Y135673D01*
X163513Y135579D01*
X163498Y135485D01*
X163488Y135390D01*
X163482Y135294D01*
X163479Y135199D01*
X163480Y135103D01*
X163486Y135008D01*
X163495Y134912D01*
X163508Y134818D01*
X163524Y134724D01*
X163545Y134630D01*
X163570Y134538D01*
X163598Y134447D01*
X163630Y134357D01*
X163665Y134268D01*
X163704Y134181D01*
X163747Y134095D01*
X163793Y134011D01*
X163843Y133930D01*
X163895Y133850D01*
X163951Y133772D01*
X164011Y133697D01*
X164073Y133625D01*
X164138Y133555D01*
X164206Y133487D01*
X164276Y133423D01*
X164349Y133361D01*
X164425Y133303D01*
X164503Y133247D01*
X164583Y133195D01*
X164665Y133146D01*
X164749Y133101D01*
X164835Y133059D01*
X164922Y133020D01*
X165011Y132985D01*
X165102Y132954D01*
X165193Y132927D01*
X165286Y132903D01*
X165379Y132883D01*
X165473Y132867D01*
X165568Y132855D01*
X165663Y132846D01*
X165759Y132842D01*
X165854Y132841D01*
X165854Y132842D02*
X166216Y132851D01*
X166578Y132869D01*
X166939Y132896D01*
X167299Y132931D01*
X167659Y132974D01*
X168018Y133026D01*
X168375Y133087D01*
X168730Y133156D01*
X169084Y133233D01*
X169436Y133319D01*
X169786Y133413D01*
X170134Y133516D01*
X170479Y133626D01*
X170821Y133745D01*
X158571Y143679D02*
X153153Y143679D01*
X156765Y149098D02*
X156765Y135551D01*
X156763Y135450D01*
X156757Y135349D01*
X156748Y135248D01*
X156735Y135147D01*
X156718Y135047D01*
X156697Y134948D01*
X156673Y134850D01*
X156645Y134753D01*
X156613Y134656D01*
X156578Y134561D01*
X156539Y134468D01*
X156497Y134376D01*
X156451Y134285D01*
X156402Y134196D01*
X156350Y134110D01*
X156294Y134025D01*
X156236Y133942D01*
X156174Y133862D01*
X156109Y133784D01*
X156042Y133708D01*
X155972Y133635D01*
X155899Y133565D01*
X155823Y133498D01*
X155745Y133433D01*
X155665Y133371D01*
X155582Y133313D01*
X155497Y133257D01*
X155411Y133205D01*
X155322Y133156D01*
X155231Y133110D01*
X155139Y133068D01*
X155046Y133029D01*
X154951Y132994D01*
X154854Y132962D01*
X154757Y132934D01*
X154659Y132910D01*
X154560Y132889D01*
X154460Y132872D01*
X154359Y132859D01*
X154258Y132850D01*
X154157Y132844D01*
X154056Y132842D01*
X153153Y132842D01*
X147895Y127423D02*
X146089Y127423D01*
X140671Y143679D01*
X147895Y143679D02*
X144283Y132842D01*
X366663Y106172D02*
X370276Y106172D01*
X370394Y106174D01*
X370512Y106180D01*
X370630Y106189D01*
X370747Y106203D01*
X370864Y106220D01*
X370981Y106241D01*
X371096Y106266D01*
X371211Y106295D01*
X371325Y106328D01*
X371437Y106364D01*
X371548Y106404D01*
X371658Y106447D01*
X371767Y106494D01*
X371874Y106544D01*
X371979Y106599D01*
X372082Y106656D01*
X372183Y106717D01*
X372283Y106781D01*
X372380Y106848D01*
X372475Y106918D01*
X372567Y106992D01*
X372658Y107068D01*
X372745Y107148D01*
X372830Y107230D01*
X372912Y107315D01*
X372992Y107402D01*
X373068Y107493D01*
X373142Y107585D01*
X373212Y107680D01*
X373279Y107777D01*
X373343Y107877D01*
X373404Y107978D01*
X373461Y108081D01*
X373516Y108186D01*
X373566Y108293D01*
X373613Y108402D01*
X373656Y108512D01*
X373696Y108623D01*
X373732Y108735D01*
X373765Y108849D01*
X373794Y108964D01*
X373819Y109079D01*
X373840Y109196D01*
X373857Y109313D01*
X373871Y109430D01*
X373880Y109548D01*
X373886Y109666D01*
X373888Y109784D01*
X373888Y118816D01*
X373886Y118934D01*
X373880Y119052D01*
X373871Y119170D01*
X373857Y119287D01*
X373840Y119404D01*
X373819Y119521D01*
X373794Y119636D01*
X373765Y119751D01*
X373732Y119865D01*
X373696Y119977D01*
X373656Y120088D01*
X373613Y120198D01*
X373566Y120307D01*
X373516Y120414D01*
X373461Y120519D01*
X373404Y120622D01*
X373343Y120723D01*
X373279Y120823D01*
X373212Y120920D01*
X373142Y121015D01*
X373068Y121107D01*
X372992Y121198D01*
X372912Y121285D01*
X372830Y121370D01*
X372745Y121452D01*
X372658Y121532D01*
X372567Y121608D01*
X372475Y121682D01*
X372380Y121752D01*
X372283Y121819D01*
X372183Y121883D01*
X372082Y121944D01*
X371979Y122001D01*
X371874Y122056D01*
X371767Y122106D01*
X371658Y122153D01*
X371548Y122196D01*
X371437Y122236D01*
X371325Y122272D01*
X371211Y122305D01*
X371096Y122334D01*
X370981Y122359D01*
X370864Y122380D01*
X370747Y122397D01*
X370630Y122411D01*
X370512Y122420D01*
X370394Y122426D01*
X370276Y122428D01*
X366663Y122428D01*
X360961Y113397D02*
X360961Y109784D01*
X360961Y113397D02*
X360959Y113516D01*
X360953Y113636D01*
X360943Y113755D01*
X360929Y113873D01*
X360912Y113992D01*
X360890Y114109D01*
X360865Y114226D01*
X360835Y114341D01*
X360802Y114456D01*
X360765Y114570D01*
X360725Y114682D01*
X360680Y114793D01*
X360632Y114902D01*
X360581Y115010D01*
X360526Y115116D01*
X360467Y115220D01*
X360405Y115322D01*
X360340Y115422D01*
X360271Y115520D01*
X360199Y115616D01*
X360124Y115709D01*
X360047Y115799D01*
X359966Y115887D01*
X359882Y115972D01*
X359795Y116054D01*
X359706Y116134D01*
X359614Y116210D01*
X359520Y116284D01*
X359423Y116354D01*
X359325Y116421D01*
X359224Y116485D01*
X359120Y116545D01*
X359015Y116602D01*
X358908Y116655D01*
X358800Y116705D01*
X358690Y116751D01*
X358578Y116793D01*
X358465Y116832D01*
X358351Y116867D01*
X358236Y116898D01*
X358119Y116926D01*
X358002Y116949D01*
X357885Y116969D01*
X357766Y116985D01*
X357647Y116997D01*
X357528Y117005D01*
X357409Y117009D01*
X357289Y117009D01*
X357170Y117005D01*
X357051Y116997D01*
X356932Y116985D01*
X356813Y116969D01*
X356696Y116949D01*
X356579Y116926D01*
X356462Y116898D01*
X356347Y116867D01*
X356233Y116832D01*
X356120Y116793D01*
X356008Y116751D01*
X355898Y116705D01*
X355790Y116655D01*
X355683Y116602D01*
X355578Y116545D01*
X355474Y116485D01*
X355373Y116421D01*
X355275Y116354D01*
X355178Y116284D01*
X355084Y116210D01*
X354992Y116134D01*
X354903Y116054D01*
X354816Y115972D01*
X354732Y115887D01*
X354651Y115799D01*
X354574Y115709D01*
X354499Y115616D01*
X354427Y115520D01*
X354358Y115422D01*
X354293Y115322D01*
X354231Y115220D01*
X354172Y115116D01*
X354117Y115010D01*
X354066Y114902D01*
X354018Y114793D01*
X353973Y114682D01*
X353933Y114570D01*
X353896Y114456D01*
X353863Y114341D01*
X353833Y114226D01*
X353808Y114109D01*
X353786Y113992D01*
X353769Y113873D01*
X353755Y113755D01*
X353745Y113636D01*
X353739Y113516D01*
X353737Y113397D01*
X353737Y109784D01*
X353739Y109665D01*
X353745Y109545D01*
X353755Y109426D01*
X353769Y109308D01*
X353786Y109189D01*
X353808Y109072D01*
X353833Y108955D01*
X353863Y108840D01*
X353896Y108725D01*
X353933Y108611D01*
X353973Y108499D01*
X354018Y108388D01*
X354066Y108279D01*
X354117Y108171D01*
X354172Y108065D01*
X354231Y107961D01*
X354293Y107859D01*
X354358Y107759D01*
X354427Y107661D01*
X354499Y107565D01*
X354574Y107472D01*
X354651Y107382D01*
X354732Y107294D01*
X354816Y107209D01*
X354903Y107127D01*
X354992Y107047D01*
X355084Y106971D01*
X355178Y106897D01*
X355275Y106827D01*
X355373Y106760D01*
X355474Y106696D01*
X355578Y106636D01*
X355683Y106579D01*
X355790Y106526D01*
X355898Y106476D01*
X356008Y106430D01*
X356120Y106388D01*
X356233Y106349D01*
X356347Y106314D01*
X356462Y106283D01*
X356579Y106255D01*
X356696Y106232D01*
X356813Y106212D01*
X356932Y106196D01*
X357051Y106184D01*
X357170Y106176D01*
X357289Y106172D01*
X357409Y106172D01*
X357528Y106176D01*
X357647Y106184D01*
X357766Y106196D01*
X357885Y106212D01*
X358002Y106232D01*
X358119Y106255D01*
X358236Y106283D01*
X358351Y106314D01*
X358465Y106349D01*
X358578Y106388D01*
X358690Y106430D01*
X358800Y106476D01*
X358908Y106526D01*
X359015Y106579D01*
X359120Y106636D01*
X359224Y106696D01*
X359325Y106760D01*
X359423Y106827D01*
X359520Y106897D01*
X359614Y106971D01*
X359706Y107047D01*
X359795Y107127D01*
X359882Y107209D01*
X359966Y107294D01*
X360047Y107382D01*
X360124Y107472D01*
X360199Y107565D01*
X360271Y107661D01*
X360340Y107759D01*
X360405Y107859D01*
X360467Y107961D01*
X360526Y108065D01*
X360581Y108171D01*
X360632Y108279D01*
X360680Y108388D01*
X360725Y108499D01*
X360765Y108611D01*
X360802Y108725D01*
X360835Y108840D01*
X360865Y108955D01*
X360890Y109072D01*
X360912Y109189D01*
X360929Y109308D01*
X360943Y109426D01*
X360953Y109545D01*
X360959Y109665D01*
X360961Y109784D01*
X346527Y106172D02*
X346527Y119719D01*
X346526Y119719D02*
X346524Y119820D01*
X346518Y119921D01*
X346509Y120022D01*
X346496Y120123D01*
X346479Y120223D01*
X346458Y120322D01*
X346434Y120420D01*
X346406Y120517D01*
X346374Y120614D01*
X346339Y120709D01*
X346300Y120802D01*
X346258Y120894D01*
X346212Y120985D01*
X346163Y121074D01*
X346111Y121160D01*
X346055Y121245D01*
X345997Y121328D01*
X345935Y121408D01*
X345870Y121486D01*
X345803Y121562D01*
X345733Y121635D01*
X345660Y121705D01*
X345584Y121772D01*
X345506Y121837D01*
X345426Y121899D01*
X345343Y121957D01*
X345258Y122013D01*
X345172Y122065D01*
X345083Y122114D01*
X344992Y122160D01*
X344900Y122202D01*
X344807Y122241D01*
X344712Y122276D01*
X344615Y122308D01*
X344518Y122336D01*
X344420Y122360D01*
X344321Y122381D01*
X344221Y122398D01*
X344120Y122411D01*
X344019Y122420D01*
X343918Y122426D01*
X343817Y122428D01*
X342914Y122428D01*
X342914Y117009D02*
X348333Y117009D01*
X337669Y119719D02*
X337669Y106172D01*
X337669Y119719D02*
X337667Y119820D01*
X337661Y119921D01*
X337652Y120022D01*
X337639Y120123D01*
X337622Y120223D01*
X337601Y120322D01*
X337577Y120420D01*
X337549Y120517D01*
X337517Y120614D01*
X337482Y120709D01*
X337443Y120802D01*
X337401Y120894D01*
X337355Y120985D01*
X337306Y121074D01*
X337254Y121160D01*
X337198Y121245D01*
X337140Y121328D01*
X337078Y121408D01*
X337013Y121486D01*
X336946Y121562D01*
X336876Y121635D01*
X336803Y121705D01*
X336727Y121772D01*
X336649Y121837D01*
X336569Y121899D01*
X336486Y121957D01*
X336401Y122013D01*
X336315Y122065D01*
X336226Y122114D01*
X336135Y122160D01*
X336043Y122202D01*
X335950Y122241D01*
X335855Y122276D01*
X335758Y122308D01*
X335661Y122336D01*
X335563Y122360D01*
X335464Y122381D01*
X335364Y122398D01*
X335263Y122411D01*
X335162Y122420D01*
X335061Y122426D01*
X334960Y122428D01*
X334057Y122428D01*
X334057Y117009D02*
X339475Y117009D01*
X326990Y106172D02*
X322474Y106172D01*
X326990Y106172D02*
X327091Y106174D01*
X327192Y106180D01*
X327293Y106189D01*
X327394Y106202D01*
X327494Y106219D01*
X327593Y106240D01*
X327691Y106264D01*
X327788Y106292D01*
X327885Y106324D01*
X327980Y106359D01*
X328073Y106398D01*
X328165Y106440D01*
X328256Y106486D01*
X328345Y106535D01*
X328431Y106587D01*
X328516Y106643D01*
X328599Y106701D01*
X328679Y106763D01*
X328757Y106828D01*
X328833Y106895D01*
X328906Y106965D01*
X328976Y107038D01*
X329043Y107114D01*
X329108Y107192D01*
X329170Y107272D01*
X329228Y107355D01*
X329284Y107440D01*
X329336Y107526D01*
X329385Y107615D01*
X329431Y107706D01*
X329473Y107798D01*
X329512Y107891D01*
X329547Y107986D01*
X329579Y108083D01*
X329607Y108180D01*
X329631Y108278D01*
X329652Y108377D01*
X329669Y108477D01*
X329682Y108578D01*
X329691Y108679D01*
X329697Y108780D01*
X329699Y108881D01*
X329699Y113397D01*
X329697Y113516D01*
X329691Y113636D01*
X329681Y113755D01*
X329667Y113873D01*
X329650Y113992D01*
X329628Y114109D01*
X329603Y114226D01*
X329573Y114341D01*
X329540Y114456D01*
X329503Y114570D01*
X329463Y114682D01*
X329418Y114793D01*
X329370Y114902D01*
X329319Y115010D01*
X329264Y115116D01*
X329205Y115220D01*
X329143Y115322D01*
X329078Y115422D01*
X329009Y115520D01*
X328937Y115616D01*
X328862Y115709D01*
X328785Y115799D01*
X328704Y115887D01*
X328620Y115972D01*
X328533Y116054D01*
X328444Y116134D01*
X328352Y116210D01*
X328258Y116284D01*
X328161Y116354D01*
X328063Y116421D01*
X327962Y116485D01*
X327858Y116545D01*
X327753Y116602D01*
X327646Y116655D01*
X327538Y116705D01*
X327428Y116751D01*
X327316Y116793D01*
X327203Y116832D01*
X327089Y116867D01*
X326974Y116898D01*
X326857Y116926D01*
X326740Y116949D01*
X326623Y116969D01*
X326504Y116985D01*
X326385Y116997D01*
X326266Y117005D01*
X326147Y117009D01*
X326027Y117009D01*
X325908Y117005D01*
X325789Y116997D01*
X325670Y116985D01*
X325551Y116969D01*
X325434Y116949D01*
X325317Y116926D01*
X325200Y116898D01*
X325085Y116867D01*
X324971Y116832D01*
X324858Y116793D01*
X324746Y116751D01*
X324636Y116705D01*
X324528Y116655D01*
X324421Y116602D01*
X324316Y116545D01*
X324212Y116485D01*
X324111Y116421D01*
X324013Y116354D01*
X323916Y116284D01*
X323822Y116210D01*
X323730Y116134D01*
X323641Y116054D01*
X323554Y115972D01*
X323470Y115887D01*
X323389Y115799D01*
X323312Y115709D01*
X323237Y115616D01*
X323165Y115520D01*
X323096Y115422D01*
X323031Y115322D01*
X322969Y115220D01*
X322910Y115116D01*
X322855Y115010D01*
X322804Y114902D01*
X322756Y114793D01*
X322711Y114682D01*
X322671Y114570D01*
X322634Y114456D01*
X322601Y114341D01*
X322571Y114226D01*
X322546Y114109D01*
X322524Y113992D01*
X322507Y113873D01*
X322493Y113755D01*
X322483Y113636D01*
X322477Y113516D01*
X322475Y113397D01*
X322474Y113397D02*
X322474Y111591D01*
X329699Y111591D01*
X313443Y106172D02*
X308927Y106172D01*
X313443Y106172D02*
X313544Y106174D01*
X313645Y106180D01*
X313746Y106189D01*
X313847Y106202D01*
X313947Y106219D01*
X314046Y106240D01*
X314144Y106264D01*
X314241Y106292D01*
X314338Y106324D01*
X314433Y106359D01*
X314526Y106398D01*
X314618Y106440D01*
X314709Y106486D01*
X314798Y106535D01*
X314884Y106587D01*
X314969Y106643D01*
X315052Y106701D01*
X315132Y106763D01*
X315210Y106828D01*
X315286Y106895D01*
X315359Y106965D01*
X315429Y107038D01*
X315496Y107114D01*
X315561Y107192D01*
X315623Y107272D01*
X315681Y107355D01*
X315737Y107440D01*
X315789Y107526D01*
X315838Y107615D01*
X315884Y107706D01*
X315926Y107798D01*
X315965Y107891D01*
X316000Y107986D01*
X316032Y108083D01*
X316060Y108180D01*
X316084Y108278D01*
X316105Y108377D01*
X316122Y108477D01*
X316135Y108578D01*
X316144Y108679D01*
X316150Y108780D01*
X316152Y108881D01*
X316152Y113397D01*
X316150Y113516D01*
X316144Y113636D01*
X316134Y113755D01*
X316120Y113873D01*
X316103Y113992D01*
X316081Y114109D01*
X316056Y114226D01*
X316026Y114341D01*
X315993Y114456D01*
X315956Y114570D01*
X315916Y114682D01*
X315871Y114793D01*
X315823Y114902D01*
X315772Y115010D01*
X315717Y115116D01*
X315658Y115220D01*
X315596Y115322D01*
X315531Y115422D01*
X315462Y115520D01*
X315390Y115616D01*
X315315Y115709D01*
X315238Y115799D01*
X315157Y115887D01*
X315073Y115972D01*
X314986Y116054D01*
X314897Y116134D01*
X314805Y116210D01*
X314711Y116284D01*
X314614Y116354D01*
X314516Y116421D01*
X314415Y116485D01*
X314311Y116545D01*
X314206Y116602D01*
X314099Y116655D01*
X313991Y116705D01*
X313881Y116751D01*
X313769Y116793D01*
X313656Y116832D01*
X313542Y116867D01*
X313427Y116898D01*
X313310Y116926D01*
X313193Y116949D01*
X313076Y116969D01*
X312957Y116985D01*
X312838Y116997D01*
X312719Y117005D01*
X312600Y117009D01*
X312480Y117009D01*
X312361Y117005D01*
X312242Y116997D01*
X312123Y116985D01*
X312004Y116969D01*
X311887Y116949D01*
X311770Y116926D01*
X311653Y116898D01*
X311538Y116867D01*
X311424Y116832D01*
X311311Y116793D01*
X311199Y116751D01*
X311089Y116705D01*
X310981Y116655D01*
X310874Y116602D01*
X310769Y116545D01*
X310665Y116485D01*
X310564Y116421D01*
X310466Y116354D01*
X310369Y116284D01*
X310275Y116210D01*
X310183Y116134D01*
X310094Y116054D01*
X310007Y115972D01*
X309923Y115887D01*
X309842Y115799D01*
X309765Y115709D01*
X309690Y115616D01*
X309618Y115520D01*
X309549Y115422D01*
X309484Y115322D01*
X309422Y115220D01*
X309363Y115116D01*
X309308Y115010D01*
X309257Y114902D01*
X309209Y114793D01*
X309164Y114682D01*
X309124Y114570D01*
X309087Y114456D01*
X309054Y114341D01*
X309024Y114226D01*
X308999Y114109D01*
X308977Y113992D01*
X308960Y113873D01*
X308946Y113755D01*
X308936Y113636D01*
X308930Y113516D01*
X308928Y113397D01*
X308927Y113397D02*
X308927Y111591D01*
X316152Y111591D01*
X290556Y106172D02*
X286944Y106172D01*
X290556Y106172D02*
X290674Y106174D01*
X290792Y106180D01*
X290910Y106189D01*
X291027Y106203D01*
X291144Y106220D01*
X291261Y106241D01*
X291376Y106266D01*
X291491Y106295D01*
X291605Y106328D01*
X291717Y106364D01*
X291828Y106404D01*
X291938Y106447D01*
X292047Y106494D01*
X292154Y106544D01*
X292259Y106599D01*
X292362Y106656D01*
X292463Y106717D01*
X292563Y106781D01*
X292660Y106848D01*
X292755Y106918D01*
X292847Y106992D01*
X292938Y107068D01*
X293025Y107148D01*
X293110Y107230D01*
X293192Y107315D01*
X293272Y107402D01*
X293348Y107493D01*
X293422Y107585D01*
X293492Y107680D01*
X293559Y107777D01*
X293623Y107877D01*
X293684Y107978D01*
X293741Y108081D01*
X293796Y108186D01*
X293846Y108293D01*
X293893Y108402D01*
X293936Y108512D01*
X293976Y108623D01*
X294012Y108735D01*
X294045Y108849D01*
X294074Y108964D01*
X294099Y109079D01*
X294120Y109196D01*
X294137Y109313D01*
X294151Y109430D01*
X294160Y109548D01*
X294166Y109666D01*
X294168Y109784D01*
X294169Y109784D02*
X294169Y118816D01*
X294168Y118816D02*
X294166Y118934D01*
X294160Y119052D01*
X294151Y119170D01*
X294137Y119287D01*
X294120Y119404D01*
X294099Y119521D01*
X294074Y119636D01*
X294045Y119751D01*
X294012Y119865D01*
X293976Y119977D01*
X293936Y120088D01*
X293893Y120198D01*
X293846Y120307D01*
X293796Y120414D01*
X293741Y120519D01*
X293684Y120622D01*
X293623Y120723D01*
X293559Y120823D01*
X293492Y120920D01*
X293422Y121015D01*
X293348Y121107D01*
X293272Y121198D01*
X293192Y121285D01*
X293110Y121370D01*
X293025Y121452D01*
X292938Y121532D01*
X292847Y121608D01*
X292755Y121682D01*
X292660Y121752D01*
X292563Y121819D01*
X292463Y121883D01*
X292362Y121944D01*
X292259Y122001D01*
X292154Y122056D01*
X292047Y122106D01*
X291938Y122153D01*
X291828Y122196D01*
X291717Y122236D01*
X291605Y122272D01*
X291491Y122305D01*
X291376Y122334D01*
X291261Y122359D01*
X291144Y122380D01*
X291027Y122397D01*
X290910Y122411D01*
X290792Y122420D01*
X290674Y122426D01*
X290556Y122428D01*
X286944Y122428D01*
X281242Y113397D02*
X281242Y109784D01*
X281242Y113397D02*
X281240Y113516D01*
X281234Y113636D01*
X281224Y113755D01*
X281210Y113873D01*
X281193Y113992D01*
X281171Y114109D01*
X281146Y114226D01*
X281116Y114341D01*
X281083Y114456D01*
X281046Y114570D01*
X281006Y114682D01*
X280961Y114793D01*
X280913Y114902D01*
X280862Y115010D01*
X280807Y115116D01*
X280748Y115220D01*
X280686Y115322D01*
X280621Y115422D01*
X280552Y115520D01*
X280480Y115616D01*
X280405Y115709D01*
X280328Y115799D01*
X280247Y115887D01*
X280163Y115972D01*
X280076Y116054D01*
X279987Y116134D01*
X279895Y116210D01*
X279801Y116284D01*
X279704Y116354D01*
X279606Y116421D01*
X279505Y116485D01*
X279401Y116545D01*
X279296Y116602D01*
X279189Y116655D01*
X279081Y116705D01*
X278971Y116751D01*
X278859Y116793D01*
X278746Y116832D01*
X278632Y116867D01*
X278517Y116898D01*
X278400Y116926D01*
X278283Y116949D01*
X278166Y116969D01*
X278047Y116985D01*
X277928Y116997D01*
X277809Y117005D01*
X277690Y117009D01*
X277570Y117009D01*
X277451Y117005D01*
X277332Y116997D01*
X277213Y116985D01*
X277094Y116969D01*
X276977Y116949D01*
X276860Y116926D01*
X276743Y116898D01*
X276628Y116867D01*
X276514Y116832D01*
X276401Y116793D01*
X276289Y116751D01*
X276179Y116705D01*
X276071Y116655D01*
X275964Y116602D01*
X275859Y116545D01*
X275755Y116485D01*
X275654Y116421D01*
X275556Y116354D01*
X275459Y116284D01*
X275365Y116210D01*
X275273Y116134D01*
X275184Y116054D01*
X275097Y115972D01*
X275013Y115887D01*
X274932Y115799D01*
X274855Y115709D01*
X274780Y115616D01*
X274708Y115520D01*
X274639Y115422D01*
X274574Y115322D01*
X274512Y115220D01*
X274453Y115116D01*
X274398Y115010D01*
X274347Y114902D01*
X274299Y114793D01*
X274254Y114682D01*
X274214Y114570D01*
X274177Y114456D01*
X274144Y114341D01*
X274114Y114226D01*
X274089Y114109D01*
X274067Y113992D01*
X274050Y113873D01*
X274036Y113755D01*
X274026Y113636D01*
X274020Y113516D01*
X274018Y113397D01*
X274017Y113397D02*
X274017Y109784D01*
X274018Y109784D02*
X274020Y109665D01*
X274026Y109545D01*
X274036Y109426D01*
X274050Y109308D01*
X274067Y109189D01*
X274089Y109072D01*
X274114Y108955D01*
X274144Y108840D01*
X274177Y108725D01*
X274214Y108611D01*
X274254Y108499D01*
X274299Y108388D01*
X274347Y108279D01*
X274398Y108171D01*
X274453Y108065D01*
X274512Y107961D01*
X274574Y107859D01*
X274639Y107759D01*
X274708Y107661D01*
X274780Y107565D01*
X274855Y107472D01*
X274932Y107382D01*
X275013Y107294D01*
X275097Y107209D01*
X275184Y107127D01*
X275273Y107047D01*
X275365Y106971D01*
X275459Y106897D01*
X275556Y106827D01*
X275654Y106760D01*
X275755Y106696D01*
X275859Y106636D01*
X275964Y106579D01*
X276071Y106526D01*
X276179Y106476D01*
X276289Y106430D01*
X276401Y106388D01*
X276514Y106349D01*
X276628Y106314D01*
X276743Y106283D01*
X276860Y106255D01*
X276977Y106232D01*
X277094Y106212D01*
X277213Y106196D01*
X277332Y106184D01*
X277451Y106176D01*
X277570Y106172D01*
X277690Y106172D01*
X277809Y106176D01*
X277928Y106184D01*
X278047Y106196D01*
X278166Y106212D01*
X278283Y106232D01*
X278400Y106255D01*
X278517Y106283D01*
X278632Y106314D01*
X278746Y106349D01*
X278859Y106388D01*
X278971Y106430D01*
X279081Y106476D01*
X279189Y106526D01*
X279296Y106579D01*
X279401Y106636D01*
X279505Y106696D01*
X279606Y106760D01*
X279704Y106827D01*
X279801Y106897D01*
X279895Y106971D01*
X279987Y107047D01*
X280076Y107127D01*
X280163Y107209D01*
X280247Y107294D01*
X280328Y107382D01*
X280405Y107472D01*
X280480Y107565D01*
X280552Y107661D01*
X280621Y107759D01*
X280686Y107859D01*
X280748Y107961D01*
X280807Y108065D01*
X280862Y108171D01*
X280913Y108279D01*
X280961Y108388D01*
X281006Y108499D01*
X281046Y108611D01*
X281083Y108725D01*
X281116Y108840D01*
X281146Y108955D01*
X281171Y109072D01*
X281193Y109189D01*
X281210Y109308D01*
X281224Y109426D01*
X281234Y109545D01*
X281240Y109665D01*
X281242Y109784D01*
X267174Y106172D02*
X267174Y117009D01*
X262659Y117009D01*
X262555Y117007D01*
X262452Y117001D01*
X262348Y116991D01*
X262245Y116977D01*
X262143Y116959D01*
X262042Y116938D01*
X261941Y116912D01*
X261842Y116883D01*
X261743Y116850D01*
X261646Y116813D01*
X261551Y116772D01*
X261457Y116728D01*
X261365Y116680D01*
X261275Y116629D01*
X261186Y116574D01*
X261100Y116516D01*
X261017Y116454D01*
X260935Y116390D01*
X260857Y116322D01*
X260781Y116252D01*
X260707Y116179D01*
X260637Y116102D01*
X260569Y116024D01*
X260505Y115942D01*
X260443Y115859D01*
X260385Y115773D01*
X260330Y115684D01*
X260279Y115594D01*
X260231Y115502D01*
X260187Y115408D01*
X260146Y115313D01*
X260109Y115216D01*
X260076Y115117D01*
X260047Y115018D01*
X260021Y114917D01*
X260000Y114816D01*
X259982Y114714D01*
X259968Y114611D01*
X259958Y114507D01*
X259952Y114404D01*
X259950Y114300D01*
X259949Y114300D02*
X259949Y106172D01*
X254403Y117009D02*
X248985Y117009D01*
X252597Y122428D02*
X252597Y108881D01*
X252595Y108780D01*
X252589Y108679D01*
X252580Y108578D01*
X252567Y108477D01*
X252550Y108377D01*
X252529Y108278D01*
X252505Y108180D01*
X252477Y108083D01*
X252445Y107986D01*
X252410Y107891D01*
X252371Y107798D01*
X252329Y107706D01*
X252283Y107615D01*
X252234Y107526D01*
X252182Y107440D01*
X252126Y107355D01*
X252068Y107272D01*
X252006Y107192D01*
X251941Y107114D01*
X251874Y107038D01*
X251804Y106965D01*
X251731Y106895D01*
X251655Y106828D01*
X251577Y106763D01*
X251497Y106701D01*
X251414Y106643D01*
X251329Y106587D01*
X251243Y106535D01*
X251154Y106486D01*
X251063Y106440D01*
X250971Y106398D01*
X250878Y106359D01*
X250783Y106324D01*
X250686Y106292D01*
X250589Y106264D01*
X250491Y106240D01*
X250392Y106219D01*
X250292Y106202D01*
X250191Y106189D01*
X250090Y106180D01*
X249989Y106174D01*
X249888Y106172D01*
X248985Y106172D01*
X242600Y106172D02*
X242600Y117009D01*
X237182Y117009D01*
X237182Y115203D01*
X232265Y113397D02*
X232265Y109784D01*
X232264Y113397D02*
X232262Y113516D01*
X232256Y113636D01*
X232246Y113755D01*
X232232Y113873D01*
X232215Y113992D01*
X232193Y114109D01*
X232168Y114226D01*
X232138Y114341D01*
X232105Y114456D01*
X232068Y114570D01*
X232028Y114682D01*
X231983Y114793D01*
X231935Y114902D01*
X231884Y115010D01*
X231829Y115116D01*
X231770Y115220D01*
X231708Y115322D01*
X231643Y115422D01*
X231574Y115520D01*
X231502Y115616D01*
X231427Y115709D01*
X231350Y115799D01*
X231269Y115887D01*
X231185Y115972D01*
X231098Y116054D01*
X231009Y116134D01*
X230917Y116210D01*
X230823Y116284D01*
X230726Y116354D01*
X230628Y116421D01*
X230527Y116485D01*
X230423Y116545D01*
X230318Y116602D01*
X230211Y116655D01*
X230103Y116705D01*
X229993Y116751D01*
X229881Y116793D01*
X229768Y116832D01*
X229654Y116867D01*
X229539Y116898D01*
X229422Y116926D01*
X229305Y116949D01*
X229188Y116969D01*
X229069Y116985D01*
X228950Y116997D01*
X228831Y117005D01*
X228712Y117009D01*
X228592Y117009D01*
X228473Y117005D01*
X228354Y116997D01*
X228235Y116985D01*
X228116Y116969D01*
X227999Y116949D01*
X227882Y116926D01*
X227765Y116898D01*
X227650Y116867D01*
X227536Y116832D01*
X227423Y116793D01*
X227311Y116751D01*
X227201Y116705D01*
X227093Y116655D01*
X226986Y116602D01*
X226881Y116545D01*
X226777Y116485D01*
X226676Y116421D01*
X226578Y116354D01*
X226481Y116284D01*
X226387Y116210D01*
X226295Y116134D01*
X226206Y116054D01*
X226119Y115972D01*
X226035Y115887D01*
X225954Y115799D01*
X225877Y115709D01*
X225802Y115616D01*
X225730Y115520D01*
X225661Y115422D01*
X225596Y115322D01*
X225534Y115220D01*
X225475Y115116D01*
X225420Y115010D01*
X225369Y114902D01*
X225321Y114793D01*
X225276Y114682D01*
X225236Y114570D01*
X225199Y114456D01*
X225166Y114341D01*
X225136Y114226D01*
X225111Y114109D01*
X225089Y113992D01*
X225072Y113873D01*
X225058Y113755D01*
X225048Y113636D01*
X225042Y113516D01*
X225040Y113397D01*
X225040Y109784D01*
X225042Y109665D01*
X225048Y109545D01*
X225058Y109426D01*
X225072Y109308D01*
X225089Y109189D01*
X225111Y109072D01*
X225136Y108955D01*
X225166Y108840D01*
X225199Y108725D01*
X225236Y108611D01*
X225276Y108499D01*
X225321Y108388D01*
X225369Y108279D01*
X225420Y108171D01*
X225475Y108065D01*
X225534Y107961D01*
X225596Y107859D01*
X225661Y107759D01*
X225730Y107661D01*
X225802Y107565D01*
X225877Y107472D01*
X225954Y107382D01*
X226035Y107294D01*
X226119Y107209D01*
X226206Y107127D01*
X226295Y107047D01*
X226387Y106971D01*
X226481Y106897D01*
X226578Y106827D01*
X226676Y106760D01*
X226777Y106696D01*
X226881Y106636D01*
X226986Y106579D01*
X227093Y106526D01*
X227201Y106476D01*
X227311Y106430D01*
X227423Y106388D01*
X227536Y106349D01*
X227650Y106314D01*
X227765Y106283D01*
X227882Y106255D01*
X227999Y106232D01*
X228116Y106212D01*
X228235Y106196D01*
X228354Y106184D01*
X228473Y106176D01*
X228592Y106172D01*
X228712Y106172D01*
X228831Y106176D01*
X228950Y106184D01*
X229069Y106196D01*
X229188Y106212D01*
X229305Y106232D01*
X229422Y106255D01*
X229539Y106283D01*
X229654Y106314D01*
X229768Y106349D01*
X229881Y106388D01*
X229993Y106430D01*
X230103Y106476D01*
X230211Y106526D01*
X230318Y106579D01*
X230423Y106636D01*
X230527Y106696D01*
X230628Y106760D01*
X230726Y106827D01*
X230823Y106897D01*
X230917Y106971D01*
X231009Y107047D01*
X231098Y107127D01*
X231185Y107209D01*
X231269Y107294D01*
X231350Y107382D01*
X231427Y107472D01*
X231502Y107565D01*
X231574Y107661D01*
X231643Y107759D01*
X231708Y107859D01*
X231770Y107961D01*
X231829Y108065D01*
X231884Y108171D01*
X231935Y108279D01*
X231983Y108388D01*
X232028Y108499D01*
X232068Y108611D01*
X232105Y108725D01*
X232138Y108840D01*
X232168Y108955D01*
X232193Y109072D01*
X232215Y109189D01*
X232232Y109308D01*
X232246Y109426D01*
X232256Y109545D01*
X232262Y109665D01*
X232264Y109784D01*
X218481Y108881D02*
X218481Y122428D01*
X218480Y108881D02*
X218478Y108780D01*
X218472Y108679D01*
X218463Y108578D01*
X218450Y108477D01*
X218433Y108377D01*
X218412Y108278D01*
X218388Y108180D01*
X218360Y108083D01*
X218328Y107986D01*
X218293Y107891D01*
X218254Y107798D01*
X218212Y107706D01*
X218166Y107615D01*
X218117Y107526D01*
X218065Y107440D01*
X218009Y107355D01*
X217951Y107272D01*
X217889Y107192D01*
X217824Y107114D01*
X217757Y107038D01*
X217687Y106965D01*
X217614Y106895D01*
X217538Y106828D01*
X217460Y106763D01*
X217380Y106701D01*
X217297Y106643D01*
X217212Y106587D01*
X217126Y106535D01*
X217037Y106486D01*
X216946Y106440D01*
X216854Y106398D01*
X216761Y106359D01*
X216666Y106324D01*
X216569Y106292D01*
X216472Y106264D01*
X216374Y106240D01*
X216275Y106219D01*
X216175Y106202D01*
X216074Y106189D01*
X215973Y106180D01*
X215872Y106174D01*
X215771Y106172D01*
X210144Y108881D02*
X210144Y122428D01*
X210144Y108881D02*
X210142Y108780D01*
X210136Y108679D01*
X210127Y108578D01*
X210114Y108477D01*
X210097Y108377D01*
X210076Y108278D01*
X210052Y108180D01*
X210024Y108083D01*
X209992Y107986D01*
X209957Y107891D01*
X209918Y107798D01*
X209876Y107706D01*
X209830Y107615D01*
X209781Y107526D01*
X209729Y107440D01*
X209673Y107355D01*
X209615Y107272D01*
X209553Y107192D01*
X209488Y107114D01*
X209421Y107038D01*
X209351Y106965D01*
X209278Y106895D01*
X209202Y106828D01*
X209124Y106763D01*
X209044Y106701D01*
X208961Y106643D01*
X208876Y106587D01*
X208790Y106535D01*
X208701Y106486D01*
X208610Y106440D01*
X208518Y106398D01*
X208425Y106359D01*
X208330Y106324D01*
X208233Y106292D01*
X208136Y106264D01*
X208038Y106240D01*
X207939Y106219D01*
X207839Y106202D01*
X207738Y106189D01*
X207637Y106180D01*
X207536Y106174D01*
X207435Y106172D01*
X199335Y106172D02*
X194819Y106172D01*
X199335Y106172D02*
X199436Y106174D01*
X199537Y106180D01*
X199638Y106189D01*
X199739Y106202D01*
X199839Y106219D01*
X199938Y106240D01*
X200036Y106264D01*
X200133Y106292D01*
X200230Y106324D01*
X200325Y106359D01*
X200418Y106398D01*
X200510Y106440D01*
X200601Y106486D01*
X200690Y106535D01*
X200776Y106587D01*
X200861Y106643D01*
X200944Y106701D01*
X201024Y106763D01*
X201102Y106828D01*
X201178Y106895D01*
X201251Y106965D01*
X201321Y107038D01*
X201388Y107114D01*
X201453Y107192D01*
X201515Y107272D01*
X201573Y107355D01*
X201629Y107440D01*
X201681Y107526D01*
X201730Y107615D01*
X201776Y107706D01*
X201818Y107798D01*
X201857Y107891D01*
X201892Y107986D01*
X201924Y108083D01*
X201952Y108180D01*
X201976Y108278D01*
X201997Y108377D01*
X202014Y108477D01*
X202027Y108578D01*
X202036Y108679D01*
X202042Y108780D01*
X202044Y108881D01*
X202044Y113397D01*
X202042Y113516D01*
X202036Y113636D01*
X202026Y113755D01*
X202012Y113873D01*
X201995Y113992D01*
X201973Y114109D01*
X201948Y114226D01*
X201918Y114341D01*
X201885Y114456D01*
X201848Y114570D01*
X201808Y114682D01*
X201763Y114793D01*
X201715Y114902D01*
X201664Y115010D01*
X201609Y115116D01*
X201550Y115220D01*
X201488Y115322D01*
X201423Y115422D01*
X201354Y115520D01*
X201282Y115616D01*
X201207Y115709D01*
X201130Y115799D01*
X201049Y115887D01*
X200965Y115972D01*
X200878Y116054D01*
X200789Y116134D01*
X200697Y116210D01*
X200603Y116284D01*
X200506Y116354D01*
X200408Y116421D01*
X200307Y116485D01*
X200203Y116545D01*
X200098Y116602D01*
X199991Y116655D01*
X199883Y116705D01*
X199773Y116751D01*
X199661Y116793D01*
X199548Y116832D01*
X199434Y116867D01*
X199319Y116898D01*
X199202Y116926D01*
X199085Y116949D01*
X198968Y116969D01*
X198849Y116985D01*
X198730Y116997D01*
X198611Y117005D01*
X198492Y117009D01*
X198372Y117009D01*
X198253Y117005D01*
X198134Y116997D01*
X198015Y116985D01*
X197896Y116969D01*
X197779Y116949D01*
X197662Y116926D01*
X197545Y116898D01*
X197430Y116867D01*
X197316Y116832D01*
X197203Y116793D01*
X197091Y116751D01*
X196981Y116705D01*
X196873Y116655D01*
X196766Y116602D01*
X196661Y116545D01*
X196557Y116485D01*
X196456Y116421D01*
X196358Y116354D01*
X196261Y116284D01*
X196167Y116210D01*
X196075Y116134D01*
X195986Y116054D01*
X195899Y115972D01*
X195815Y115887D01*
X195734Y115799D01*
X195657Y115709D01*
X195582Y115616D01*
X195510Y115520D01*
X195441Y115422D01*
X195376Y115322D01*
X195314Y115220D01*
X195255Y115116D01*
X195200Y115010D01*
X195149Y114902D01*
X195101Y114793D01*
X195056Y114682D01*
X195016Y114570D01*
X194979Y114456D01*
X194946Y114341D01*
X194916Y114226D01*
X194891Y114109D01*
X194869Y113992D01*
X194852Y113873D01*
X194838Y113755D01*
X194828Y113636D01*
X194822Y113516D01*
X194820Y113397D01*
X194819Y113397D02*
X194819Y111591D01*
X202044Y111591D01*
X187891Y106172D02*
X187891Y117009D01*
X182473Y117009D01*
X182473Y115203D01*
X368469Y79502D02*
X373888Y95758D01*
X363051Y95758D02*
X368469Y79502D01*
X352387Y95758D02*
X352262Y95756D01*
X352137Y95750D01*
X352012Y95741D01*
X351888Y95727D01*
X351764Y95710D01*
X351640Y95689D01*
X351518Y95664D01*
X351396Y95635D01*
X351275Y95603D01*
X351155Y95567D01*
X351036Y95527D01*
X350919Y95484D01*
X350803Y95437D01*
X350688Y95386D01*
X350576Y95332D01*
X350464Y95274D01*
X350355Y95214D01*
X350248Y95149D01*
X350142Y95082D01*
X350039Y95011D01*
X349938Y94937D01*
X349839Y94860D01*
X349743Y94780D01*
X349649Y94697D01*
X349558Y94612D01*
X349469Y94523D01*
X349384Y94432D01*
X349301Y94338D01*
X349221Y94242D01*
X349144Y94143D01*
X349070Y94042D01*
X348999Y93939D01*
X348932Y93833D01*
X348867Y93726D01*
X348807Y93617D01*
X348749Y93505D01*
X348695Y93393D01*
X348644Y93278D01*
X348597Y93162D01*
X348554Y93045D01*
X348514Y92926D01*
X348478Y92806D01*
X348446Y92685D01*
X348417Y92563D01*
X348392Y92441D01*
X348371Y92317D01*
X348354Y92193D01*
X348340Y92069D01*
X348331Y91944D01*
X348325Y91819D01*
X348323Y91694D01*
X352387Y95758D02*
X352530Y95756D01*
X352672Y95750D01*
X352815Y95740D01*
X352957Y95727D01*
X353098Y95709D01*
X353240Y95688D01*
X353380Y95663D01*
X353520Y95634D01*
X353659Y95601D01*
X353797Y95564D01*
X353934Y95524D01*
X354069Y95480D01*
X354204Y95432D01*
X354337Y95380D01*
X354469Y95325D01*
X354599Y95266D01*
X354727Y95204D01*
X354854Y95138D01*
X354979Y95069D01*
X355102Y94997D01*
X355223Y94921D01*
X355341Y94842D01*
X355458Y94759D01*
X355572Y94674D01*
X355684Y94585D01*
X355793Y94494D01*
X355900Y94399D01*
X356005Y94302D01*
X356106Y94201D01*
X356205Y94098D01*
X356301Y93993D01*
X356394Y93884D01*
X356484Y93773D01*
X356571Y93660D01*
X356655Y93545D01*
X356735Y93427D01*
X356813Y93307D01*
X356887Y93185D01*
X356957Y93061D01*
X357025Y92935D01*
X357088Y92807D01*
X357149Y92678D01*
X357206Y92547D01*
X357259Y92415D01*
X357308Y92281D01*
X357354Y92146D01*
X349678Y88533D02*
X349584Y88625D01*
X349494Y88719D01*
X349406Y88816D01*
X349321Y88916D01*
X349239Y89018D01*
X349160Y89123D01*
X349085Y89230D01*
X349013Y89339D01*
X348944Y89450D01*
X348878Y89564D01*
X348816Y89679D01*
X348757Y89796D01*
X348702Y89915D01*
X348651Y90035D01*
X348603Y90157D01*
X348558Y90280D01*
X348518Y90404D01*
X348481Y90530D01*
X348448Y90657D01*
X348419Y90784D01*
X348393Y90913D01*
X348372Y91042D01*
X348354Y91172D01*
X348341Y91302D01*
X348331Y91432D01*
X348325Y91563D01*
X348323Y91694D01*
X349677Y88533D02*
X357354Y79502D01*
X348323Y79502D01*
M02*
