G04 EAGLE Gerber RS-274X export*
G75*
%MOMM*%
%FSLAX34Y34*%
%LPD*%
%INSoldermask Top*%
%IPPOS*%
%AMOC8*
5,1,8,0,0,1.08239X$1,22.5*%
G01*
%ADD10C,4.013200*%
%ADD11R,1.303200X1.203200*%
%ADD12R,1.733200X1.733200*%
%ADD13C,1.733200*%
%ADD14C,1.853200*%
%ADD15C,1.303200*%
%ADD16R,1.203200X1.303200*%
%ADD17C,1.879600*%
%ADD18R,0.762000X1.473200*%
%ADD19R,1.727200X1.727200*%
%ADD20C,1.727200*%
%ADD21R,2.743200X2.743200*%
%ADD22C,0.349006*%
%ADD23R,3.663200X1.533200*%
%ADD24R,0.993200X1.133200*%
%ADD25R,0.653200X1.603200*%
%ADD26C,0.959600*%


D10*
X36830Y24130D03*
X579120Y22860D03*
X568960Y482600D03*
X33020Y485140D03*
D11*
X475370Y161290D03*
X492370Y161290D03*
X475370Y140970D03*
X492370Y140970D03*
D12*
X552450Y149860D03*
D13*
X552450Y124460D03*
X552450Y99060D03*
X552450Y73660D03*
D14*
X554990Y289560D03*
X554990Y314560D03*
X554990Y340360D03*
D15*
X580390Y289560D03*
X580390Y314960D03*
X580390Y340360D03*
D16*
X203590Y39370D03*
X220590Y39370D03*
X256150Y39370D03*
X239150Y39370D03*
D17*
X529590Y414020D03*
X504190Y414020D03*
X554990Y414020D03*
D18*
X493268Y218694D03*
X483870Y218694D03*
X474472Y218694D03*
X474472Y192786D03*
X483870Y192786D03*
X493268Y192786D03*
D19*
X39370Y66040D03*
D20*
X64770Y66040D03*
X90170Y66040D03*
X115570Y66040D03*
X140970Y66040D03*
X166370Y66040D03*
X191770Y66040D03*
X217170Y66040D03*
X242570Y66040D03*
X267970Y66040D03*
X293370Y66040D03*
X318770Y66040D03*
X344170Y66040D03*
X369570Y66040D03*
X394970Y66040D03*
X394970Y218440D03*
X369570Y218440D03*
X344170Y218440D03*
X318770Y218440D03*
X293370Y218440D03*
X267970Y218440D03*
X242570Y218440D03*
X217170Y218440D03*
X191770Y218440D03*
X166370Y218440D03*
X140970Y218440D03*
X115570Y218440D03*
X90170Y218440D03*
X64770Y218440D03*
X39370Y218440D03*
D14*
X13970Y66040D03*
X13970Y218440D03*
X420370Y218440D03*
X420370Y66040D03*
D21*
X557530Y236220D03*
X557530Y198120D03*
D22*
X432751Y276139D02*
X432751Y293581D01*
X432751Y276139D02*
X428309Y276139D01*
X428309Y293581D01*
X432751Y293581D01*
X432751Y279454D02*
X428309Y279454D01*
X428309Y282769D02*
X432751Y282769D01*
X432751Y286084D02*
X428309Y286084D01*
X428309Y289399D02*
X432751Y289399D01*
X432751Y292714D02*
X428309Y292714D01*
X458151Y293581D02*
X458151Y276139D01*
X453709Y276139D01*
X453709Y293581D01*
X458151Y293581D01*
X458151Y279454D02*
X453709Y279454D01*
X453709Y282769D02*
X458151Y282769D01*
X458151Y286084D02*
X453709Y286084D01*
X453709Y289399D02*
X458151Y289399D01*
X458151Y292714D02*
X453709Y292714D01*
X458151Y336339D02*
X458151Y353781D01*
X458151Y336339D02*
X453709Y336339D01*
X453709Y353781D01*
X458151Y353781D01*
X458151Y339654D02*
X453709Y339654D01*
X453709Y342969D02*
X458151Y342969D01*
X458151Y346284D02*
X453709Y346284D01*
X453709Y349599D02*
X458151Y349599D01*
X458151Y352914D02*
X453709Y352914D01*
X432751Y353781D02*
X432751Y336339D01*
X428309Y336339D01*
X428309Y353781D01*
X432751Y353781D01*
X432751Y339654D02*
X428309Y339654D01*
X428309Y342969D02*
X432751Y342969D01*
X432751Y346284D02*
X428309Y346284D01*
X428309Y349599D02*
X432751Y349599D01*
X432751Y352914D02*
X428309Y352914D01*
X374331Y293581D02*
X374331Y276139D01*
X369889Y276139D01*
X369889Y293581D01*
X374331Y293581D01*
X374331Y279454D02*
X369889Y279454D01*
X369889Y282769D02*
X374331Y282769D01*
X374331Y286084D02*
X369889Y286084D01*
X369889Y289399D02*
X374331Y289399D01*
X374331Y292714D02*
X369889Y292714D01*
X399731Y293581D02*
X399731Y276139D01*
X395289Y276139D01*
X395289Y293581D01*
X399731Y293581D01*
X399731Y279454D02*
X395289Y279454D01*
X395289Y282769D02*
X399731Y282769D01*
X399731Y286084D02*
X395289Y286084D01*
X395289Y289399D02*
X399731Y289399D01*
X399731Y292714D02*
X395289Y292714D01*
X399731Y336339D02*
X399731Y353781D01*
X399731Y336339D02*
X395289Y336339D01*
X395289Y353781D01*
X399731Y353781D01*
X399731Y339654D02*
X395289Y339654D01*
X395289Y342969D02*
X399731Y342969D01*
X399731Y346284D02*
X395289Y346284D01*
X395289Y349599D02*
X399731Y349599D01*
X399731Y352914D02*
X395289Y352914D01*
X374331Y353781D02*
X374331Y336339D01*
X369889Y336339D01*
X369889Y353781D01*
X374331Y353781D01*
X374331Y339654D02*
X369889Y339654D01*
X369889Y342969D02*
X374331Y342969D01*
X374331Y346284D02*
X369889Y346284D01*
X369889Y349599D02*
X374331Y349599D01*
X374331Y352914D02*
X369889Y352914D01*
X315911Y293581D02*
X315911Y276139D01*
X311469Y276139D01*
X311469Y293581D01*
X315911Y293581D01*
X315911Y279454D02*
X311469Y279454D01*
X311469Y282769D02*
X315911Y282769D01*
X315911Y286084D02*
X311469Y286084D01*
X311469Y289399D02*
X315911Y289399D01*
X315911Y292714D02*
X311469Y292714D01*
X341311Y293581D02*
X341311Y276139D01*
X336869Y276139D01*
X336869Y293581D01*
X341311Y293581D01*
X341311Y279454D02*
X336869Y279454D01*
X336869Y282769D02*
X341311Y282769D01*
X341311Y286084D02*
X336869Y286084D01*
X336869Y289399D02*
X341311Y289399D01*
X341311Y292714D02*
X336869Y292714D01*
X341311Y336339D02*
X341311Y353781D01*
X341311Y336339D02*
X336869Y336339D01*
X336869Y353781D01*
X341311Y353781D01*
X341311Y339654D02*
X336869Y339654D01*
X336869Y342969D02*
X341311Y342969D01*
X341311Y346284D02*
X336869Y346284D01*
X336869Y349599D02*
X341311Y349599D01*
X341311Y352914D02*
X336869Y352914D01*
X315911Y353781D02*
X315911Y336339D01*
X311469Y336339D01*
X311469Y353781D01*
X315911Y353781D01*
X315911Y339654D02*
X311469Y339654D01*
X311469Y342969D02*
X315911Y342969D01*
X315911Y346284D02*
X311469Y346284D01*
X311469Y349599D02*
X315911Y349599D01*
X315911Y352914D02*
X311469Y352914D01*
X260031Y293581D02*
X260031Y276139D01*
X255589Y276139D01*
X255589Y293581D01*
X260031Y293581D01*
X260031Y279454D02*
X255589Y279454D01*
X255589Y282769D02*
X260031Y282769D01*
X260031Y286084D02*
X255589Y286084D01*
X255589Y289399D02*
X260031Y289399D01*
X260031Y292714D02*
X255589Y292714D01*
X285431Y293581D02*
X285431Y276139D01*
X280989Y276139D01*
X280989Y293581D01*
X285431Y293581D01*
X285431Y279454D02*
X280989Y279454D01*
X280989Y282769D02*
X285431Y282769D01*
X285431Y286084D02*
X280989Y286084D01*
X280989Y289399D02*
X285431Y289399D01*
X285431Y292714D02*
X280989Y292714D01*
X285431Y336339D02*
X285431Y353781D01*
X285431Y336339D02*
X280989Y336339D01*
X280989Y353781D01*
X285431Y353781D01*
X285431Y339654D02*
X280989Y339654D01*
X280989Y342969D02*
X285431Y342969D01*
X285431Y346284D02*
X280989Y346284D01*
X280989Y349599D02*
X285431Y349599D01*
X285431Y352914D02*
X280989Y352914D01*
X260031Y353781D02*
X260031Y336339D01*
X255589Y336339D01*
X255589Y353781D01*
X260031Y353781D01*
X260031Y339654D02*
X255589Y339654D01*
X255589Y342969D02*
X260031Y342969D01*
X260031Y346284D02*
X255589Y346284D01*
X255589Y349599D02*
X260031Y349599D01*
X260031Y352914D02*
X255589Y352914D01*
X204151Y293581D02*
X204151Y276139D01*
X199709Y276139D01*
X199709Y293581D01*
X204151Y293581D01*
X204151Y279454D02*
X199709Y279454D01*
X199709Y282769D02*
X204151Y282769D01*
X204151Y286084D02*
X199709Y286084D01*
X199709Y289399D02*
X204151Y289399D01*
X204151Y292714D02*
X199709Y292714D01*
X229551Y293581D02*
X229551Y276139D01*
X225109Y276139D01*
X225109Y293581D01*
X229551Y293581D01*
X229551Y279454D02*
X225109Y279454D01*
X225109Y282769D02*
X229551Y282769D01*
X229551Y286084D02*
X225109Y286084D01*
X225109Y289399D02*
X229551Y289399D01*
X229551Y292714D02*
X225109Y292714D01*
X229551Y336339D02*
X229551Y353781D01*
X229551Y336339D02*
X225109Y336339D01*
X225109Y353781D01*
X229551Y353781D01*
X229551Y339654D02*
X225109Y339654D01*
X225109Y342969D02*
X229551Y342969D01*
X229551Y346284D02*
X225109Y346284D01*
X225109Y349599D02*
X229551Y349599D01*
X229551Y352914D02*
X225109Y352914D01*
X204151Y353781D02*
X204151Y336339D01*
X199709Y336339D01*
X199709Y353781D01*
X204151Y353781D01*
X204151Y339654D02*
X199709Y339654D01*
X199709Y342969D02*
X204151Y342969D01*
X204151Y346284D02*
X199709Y346284D01*
X199709Y349599D02*
X204151Y349599D01*
X204151Y352914D02*
X199709Y352914D01*
X148271Y293581D02*
X148271Y276139D01*
X143829Y276139D01*
X143829Y293581D01*
X148271Y293581D01*
X148271Y279454D02*
X143829Y279454D01*
X143829Y282769D02*
X148271Y282769D01*
X148271Y286084D02*
X143829Y286084D01*
X143829Y289399D02*
X148271Y289399D01*
X148271Y292714D02*
X143829Y292714D01*
X173671Y293581D02*
X173671Y276139D01*
X169229Y276139D01*
X169229Y293581D01*
X173671Y293581D01*
X173671Y279454D02*
X169229Y279454D01*
X169229Y282769D02*
X173671Y282769D01*
X173671Y286084D02*
X169229Y286084D01*
X169229Y289399D02*
X173671Y289399D01*
X173671Y292714D02*
X169229Y292714D01*
X173671Y336339D02*
X173671Y353781D01*
X173671Y336339D02*
X169229Y336339D01*
X169229Y353781D01*
X173671Y353781D01*
X173671Y339654D02*
X169229Y339654D01*
X169229Y342969D02*
X173671Y342969D01*
X173671Y346284D02*
X169229Y346284D01*
X169229Y349599D02*
X173671Y349599D01*
X173671Y352914D02*
X169229Y352914D01*
X148271Y353781D02*
X148271Y336339D01*
X143829Y336339D01*
X143829Y353781D01*
X148271Y353781D01*
X148271Y339654D02*
X143829Y339654D01*
X143829Y342969D02*
X148271Y342969D01*
X148271Y346284D02*
X143829Y346284D01*
X143829Y349599D02*
X148271Y349599D01*
X148271Y352914D02*
X143829Y352914D01*
X92391Y293581D02*
X92391Y276139D01*
X87949Y276139D01*
X87949Y293581D01*
X92391Y293581D01*
X92391Y279454D02*
X87949Y279454D01*
X87949Y282769D02*
X92391Y282769D01*
X92391Y286084D02*
X87949Y286084D01*
X87949Y289399D02*
X92391Y289399D01*
X92391Y292714D02*
X87949Y292714D01*
X117791Y293581D02*
X117791Y276139D01*
X113349Y276139D01*
X113349Y293581D01*
X117791Y293581D01*
X117791Y279454D02*
X113349Y279454D01*
X113349Y282769D02*
X117791Y282769D01*
X117791Y286084D02*
X113349Y286084D01*
X113349Y289399D02*
X117791Y289399D01*
X117791Y292714D02*
X113349Y292714D01*
X117791Y336339D02*
X117791Y353781D01*
X117791Y336339D02*
X113349Y336339D01*
X113349Y353781D01*
X117791Y353781D01*
X117791Y339654D02*
X113349Y339654D01*
X113349Y342969D02*
X117791Y342969D01*
X117791Y346284D02*
X113349Y346284D01*
X113349Y349599D02*
X117791Y349599D01*
X117791Y352914D02*
X113349Y352914D01*
X92391Y353781D02*
X92391Y336339D01*
X87949Y336339D01*
X87949Y353781D01*
X92391Y353781D01*
X92391Y339654D02*
X87949Y339654D01*
X87949Y342969D02*
X92391Y342969D01*
X92391Y346284D02*
X87949Y346284D01*
X87949Y349599D02*
X92391Y349599D01*
X92391Y352914D02*
X87949Y352914D01*
X33971Y293581D02*
X33971Y276139D01*
X29529Y276139D01*
X29529Y293581D01*
X33971Y293581D01*
X33971Y279454D02*
X29529Y279454D01*
X29529Y282769D02*
X33971Y282769D01*
X33971Y286084D02*
X29529Y286084D01*
X29529Y289399D02*
X33971Y289399D01*
X33971Y292714D02*
X29529Y292714D01*
X59371Y293581D02*
X59371Y276139D01*
X54929Y276139D01*
X54929Y293581D01*
X59371Y293581D01*
X59371Y279454D02*
X54929Y279454D01*
X54929Y282769D02*
X59371Y282769D01*
X59371Y286084D02*
X54929Y286084D01*
X54929Y289399D02*
X59371Y289399D01*
X59371Y292714D02*
X54929Y292714D01*
X59371Y336339D02*
X59371Y353781D01*
X59371Y336339D02*
X54929Y336339D01*
X54929Y353781D01*
X59371Y353781D01*
X59371Y339654D02*
X54929Y339654D01*
X54929Y342969D02*
X59371Y342969D01*
X59371Y346284D02*
X54929Y346284D01*
X54929Y349599D02*
X59371Y349599D01*
X59371Y352914D02*
X54929Y352914D01*
X33971Y353781D02*
X33971Y336339D01*
X29529Y336339D01*
X29529Y353781D01*
X33971Y353781D01*
X33971Y339654D02*
X29529Y339654D01*
X29529Y342969D02*
X33971Y342969D01*
X33971Y346284D02*
X29529Y346284D01*
X29529Y349599D02*
X33971Y349599D01*
X33971Y352914D02*
X29529Y352914D01*
D23*
X443230Y371880D03*
X443230Y430760D03*
X384810Y428220D03*
X384810Y369340D03*
X326390Y369340D03*
X326390Y428220D03*
X270510Y428220D03*
X270510Y369340D03*
X214630Y369340D03*
X214630Y428220D03*
X158750Y428220D03*
X158750Y369340D03*
X100330Y369340D03*
X100330Y428220D03*
X44450Y428220D03*
X44450Y369340D03*
D24*
X428570Y256540D03*
X412170Y256540D03*
X372690Y256540D03*
X356290Y256540D03*
X314270Y256540D03*
X297870Y256540D03*
X258390Y256540D03*
X241990Y256540D03*
X202510Y259080D03*
X186110Y259080D03*
X145470Y256540D03*
X161870Y256540D03*
X89590Y256540D03*
X105990Y256540D03*
X28630Y256540D03*
X45030Y256540D03*
D25*
X474120Y66900D03*
X480620Y66900D03*
X487120Y66900D03*
X493620Y66900D03*
X493620Y110900D03*
X487120Y110900D03*
X480620Y110900D03*
X474120Y110900D03*
D26*
X346710Y190500D03*
X458470Y200660D03*
X519430Y109220D03*
X509270Y91440D03*
X450850Y218440D03*
X299720Y285750D03*
X283210Y266700D03*
X270510Y284480D03*
X412750Y171450D03*
X412750Y156210D03*
X412750Y142240D03*
M02*
