G04 EAGLE Gerber RS-274X export*
G75*
%MOMM*%
%FSLAX34Y34*%
%LPD*%
%INSoldermask Bottom*%
%IPPOS*%
%AMOC8*
5,1,8,0,0,1.08239X$1,22.5*%
G01*
%ADD10C,4.013200*%
%ADD11R,1.733200X1.733200*%
%ADD12C,1.733200*%
%ADD13C,1.853200*%
%ADD14C,1.303200*%
%ADD15C,1.879600*%
%ADD16R,1.727200X1.727200*%
%ADD17C,1.727200*%
%ADD18R,2.743200X2.743200*%
%ADD19C,0.959600*%


D10*
X36830Y24130D03*
X579120Y22860D03*
X568960Y482600D03*
X33020Y485140D03*
D11*
X552450Y149860D03*
D12*
X552450Y124460D03*
X552450Y99060D03*
X552450Y73660D03*
D13*
X554990Y289560D03*
X554990Y314560D03*
X554990Y340360D03*
D14*
X580390Y289560D03*
X580390Y314960D03*
X580390Y340360D03*
D15*
X529590Y414020D03*
X504190Y414020D03*
X554990Y414020D03*
D16*
X39370Y66040D03*
D17*
X64770Y66040D03*
X90170Y66040D03*
X115570Y66040D03*
X140970Y66040D03*
X166370Y66040D03*
X191770Y66040D03*
X217170Y66040D03*
X242570Y66040D03*
X267970Y66040D03*
X293370Y66040D03*
X318770Y66040D03*
X344170Y66040D03*
X369570Y66040D03*
X394970Y66040D03*
X394970Y218440D03*
X369570Y218440D03*
X344170Y218440D03*
X318770Y218440D03*
X293370Y218440D03*
X267970Y218440D03*
X242570Y218440D03*
X217170Y218440D03*
X191770Y218440D03*
X166370Y218440D03*
X140970Y218440D03*
X115570Y218440D03*
X90170Y218440D03*
X64770Y218440D03*
X39370Y218440D03*
D13*
X13970Y66040D03*
X13970Y218440D03*
X420370Y218440D03*
X420370Y66040D03*
D18*
X557530Y236220D03*
X557530Y198120D03*
D19*
X346710Y190500D03*
X458470Y200660D03*
X519430Y109220D03*
X509270Y91440D03*
X450850Y218440D03*
X299720Y285750D03*
X283210Y266700D03*
X270510Y284480D03*
X412750Y171450D03*
X412750Y156210D03*
X412750Y142240D03*
M02*
