G04 EAGLE Gerber RS-274X export*
G75*
%MOMM*%
%FSLAX34Y34*%
%LPD*%
%INBottom Copper*%
%IPPOS*%
%AMOC8*
5,1,8,0,0,1.08239X$1,22.5*%
G01*
%ADD10R,1.530000X1.530000*%
%ADD11C,1.530000*%
%ADD12C,1.650000*%
%ADD13C,1.676400*%
%ADD14R,1.524000X1.524000*%
%ADD15C,1.524000*%
%ADD16R,2.540000X2.540000*%
%ADD17C,0.756400*%
%ADD18C,0.254000*%
%ADD19C,0.304800*%

G36*
X371165Y10178D02*
X371165Y10178D01*
X371304Y10191D01*
X371323Y10198D01*
X371343Y10201D01*
X371472Y10252D01*
X371603Y10299D01*
X371620Y10310D01*
X371639Y10318D01*
X371751Y10399D01*
X371866Y10477D01*
X371880Y10493D01*
X371896Y10504D01*
X371985Y10612D01*
X372077Y10716D01*
X372086Y10734D01*
X372099Y10749D01*
X372158Y10875D01*
X372221Y10999D01*
X372226Y11019D01*
X372234Y11037D01*
X372260Y11173D01*
X372291Y11309D01*
X372290Y11330D01*
X372294Y11349D01*
X372285Y11488D01*
X372281Y11627D01*
X372276Y11647D01*
X372274Y11667D01*
X372232Y11799D01*
X372193Y11933D01*
X372183Y11950D01*
X372176Y11969D01*
X372102Y12087D01*
X372031Y12207D01*
X372013Y12228D01*
X372006Y12238D01*
X371991Y12252D01*
X371925Y12327D01*
X367723Y16529D01*
X365339Y22285D01*
X365339Y28515D01*
X367723Y34271D01*
X372129Y38677D01*
X375597Y40113D01*
X375717Y40182D01*
X375840Y40247D01*
X375855Y40260D01*
X375873Y40270D01*
X375973Y40367D01*
X376076Y40461D01*
X376087Y40478D01*
X376101Y40492D01*
X376174Y40610D01*
X376250Y40726D01*
X376257Y40746D01*
X376267Y40763D01*
X376308Y40896D01*
X376353Y41027D01*
X376355Y41047D01*
X376361Y41067D01*
X376368Y41206D01*
X376379Y41344D01*
X376375Y41364D01*
X376376Y41384D01*
X376348Y41521D01*
X376324Y41658D01*
X376316Y41676D01*
X376312Y41696D01*
X376251Y41821D01*
X376194Y41948D01*
X376181Y41963D01*
X376172Y41982D01*
X376081Y42088D01*
X375995Y42196D01*
X375979Y42208D01*
X375966Y42224D01*
X375852Y42304D01*
X375741Y42387D01*
X375716Y42400D01*
X375706Y42407D01*
X375687Y42414D01*
X375596Y42458D01*
X375463Y42513D01*
X372713Y45263D01*
X371225Y48856D01*
X371225Y52744D01*
X372713Y56337D01*
X375463Y59087D01*
X379056Y60575D01*
X382944Y60575D01*
X386537Y59087D01*
X389287Y56337D01*
X390775Y52744D01*
X390775Y48856D01*
X389287Y45263D01*
X386537Y42513D01*
X386404Y42458D01*
X386283Y42389D01*
X386160Y42324D01*
X386145Y42311D01*
X386127Y42301D01*
X386028Y42204D01*
X385924Y42110D01*
X385913Y42093D01*
X385899Y42079D01*
X385826Y41961D01*
X385750Y41845D01*
X385743Y41825D01*
X385733Y41808D01*
X385692Y41676D01*
X385647Y41544D01*
X385645Y41524D01*
X385639Y41504D01*
X385632Y41365D01*
X385621Y41227D01*
X385625Y41207D01*
X385624Y41187D01*
X385652Y41051D01*
X385676Y40913D01*
X385684Y40895D01*
X385688Y40875D01*
X385749Y40750D01*
X385806Y40623D01*
X385819Y40608D01*
X385828Y40589D01*
X385918Y40484D01*
X386005Y40375D01*
X386021Y40363D01*
X386034Y40347D01*
X386148Y40267D01*
X386259Y40184D01*
X386284Y40171D01*
X386294Y40164D01*
X386313Y40157D01*
X386403Y40113D01*
X389871Y38677D01*
X392802Y35745D01*
X392897Y35672D01*
X392986Y35593D01*
X393022Y35575D01*
X393054Y35550D01*
X393163Y35503D01*
X393269Y35449D01*
X393308Y35440D01*
X393346Y35424D01*
X393463Y35405D01*
X393579Y35379D01*
X393620Y35380D01*
X393660Y35374D01*
X393778Y35385D01*
X393897Y35389D01*
X393936Y35400D01*
X393976Y35404D01*
X394089Y35444D01*
X394203Y35477D01*
X394237Y35498D01*
X394276Y35511D01*
X394374Y35578D01*
X394477Y35639D01*
X394522Y35679D01*
X394539Y35690D01*
X394552Y35705D01*
X394597Y35745D01*
X397529Y38677D01*
X400796Y40030D01*
X400918Y40099D01*
X401040Y40164D01*
X401055Y40177D01*
X401073Y40188D01*
X401173Y40285D01*
X401275Y40378D01*
X401287Y40395D01*
X401301Y40409D01*
X401374Y40528D01*
X401450Y40644D01*
X401457Y40663D01*
X401467Y40680D01*
X401508Y40813D01*
X401553Y40944D01*
X401555Y40965D01*
X401561Y40984D01*
X401568Y41123D01*
X401579Y41261D01*
X401575Y41281D01*
X401576Y41302D01*
X401548Y41438D01*
X401524Y41575D01*
X401516Y41593D01*
X401512Y41613D01*
X401451Y41738D01*
X401394Y41865D01*
X401381Y41881D01*
X401372Y41899D01*
X401282Y42005D01*
X401195Y42113D01*
X401179Y42125D01*
X401166Y42141D01*
X401052Y42221D01*
X400941Y42304D01*
X400916Y42317D01*
X400906Y42324D01*
X400887Y42331D01*
X400796Y42375D01*
X400463Y42513D01*
X397713Y45263D01*
X396225Y48856D01*
X396225Y52744D01*
X397713Y56337D01*
X400463Y59087D01*
X404056Y60575D01*
X407944Y60575D01*
X411537Y59087D01*
X414287Y56337D01*
X415775Y52744D01*
X415775Y48856D01*
X414287Y45263D01*
X411513Y42489D01*
X411483Y42472D01*
X411360Y42407D01*
X411345Y42393D01*
X411327Y42383D01*
X411227Y42287D01*
X411125Y42193D01*
X411113Y42176D01*
X411099Y42162D01*
X411026Y42044D01*
X410950Y41927D01*
X410943Y41908D01*
X410933Y41891D01*
X410892Y41758D01*
X410847Y41627D01*
X410845Y41607D01*
X410839Y41587D01*
X410832Y41448D01*
X410821Y41310D01*
X410825Y41290D01*
X410824Y41269D01*
X410852Y41134D01*
X410876Y40996D01*
X410884Y40978D01*
X410888Y40958D01*
X410949Y40833D01*
X411006Y40706D01*
X411019Y40691D01*
X411028Y40672D01*
X411118Y40567D01*
X411205Y40458D01*
X411221Y40446D01*
X411234Y40430D01*
X411348Y40350D01*
X411459Y40267D01*
X411484Y40254D01*
X411494Y40247D01*
X411513Y40240D01*
X411604Y40196D01*
X415271Y38677D01*
X418202Y35745D01*
X418297Y35672D01*
X418386Y35593D01*
X418422Y35575D01*
X418454Y35550D01*
X418563Y35503D01*
X418669Y35449D01*
X418708Y35440D01*
X418746Y35424D01*
X418863Y35405D01*
X418979Y35379D01*
X419020Y35380D01*
X419060Y35374D01*
X419178Y35385D01*
X419297Y35389D01*
X419336Y35400D01*
X419376Y35404D01*
X419489Y35444D01*
X419603Y35477D01*
X419637Y35498D01*
X419676Y35511D01*
X419774Y35578D01*
X419877Y35639D01*
X419922Y35679D01*
X419939Y35690D01*
X419952Y35705D01*
X419997Y35745D01*
X422929Y38677D01*
X426396Y40113D01*
X426517Y40182D01*
X426640Y40247D01*
X426655Y40260D01*
X426673Y40270D01*
X426773Y40368D01*
X426875Y40461D01*
X426887Y40477D01*
X426901Y40492D01*
X426974Y40611D01*
X427050Y40726D01*
X427057Y40746D01*
X427067Y40763D01*
X427108Y40896D01*
X427153Y41027D01*
X427155Y41047D01*
X427161Y41067D01*
X427168Y41206D01*
X427179Y41344D01*
X427175Y41364D01*
X427176Y41384D01*
X427148Y41520D01*
X427124Y41658D01*
X427116Y41676D01*
X427112Y41696D01*
X427051Y41821D01*
X426994Y41948D01*
X426981Y41963D01*
X426972Y41982D01*
X426882Y42088D01*
X426795Y42196D01*
X426779Y42208D01*
X426766Y42224D01*
X426651Y42304D01*
X426541Y42387D01*
X426516Y42400D01*
X426506Y42407D01*
X426487Y42414D01*
X426396Y42458D01*
X426263Y42513D01*
X423513Y45263D01*
X422025Y48856D01*
X422025Y52744D01*
X423513Y56337D01*
X426263Y59087D01*
X429856Y60575D01*
X433744Y60575D01*
X437337Y59087D01*
X440087Y56337D01*
X441575Y52744D01*
X441575Y48856D01*
X440087Y45263D01*
X437337Y42513D01*
X437204Y42458D01*
X437083Y42389D01*
X436960Y42324D01*
X436945Y42311D01*
X436927Y42301D01*
X436828Y42204D01*
X436725Y42110D01*
X436713Y42093D01*
X436699Y42079D01*
X436626Y41961D01*
X436550Y41845D01*
X436543Y41825D01*
X436533Y41808D01*
X436492Y41675D01*
X436447Y41544D01*
X436445Y41524D01*
X436439Y41504D01*
X436432Y41365D01*
X436421Y41227D01*
X436425Y41207D01*
X436424Y41187D01*
X436452Y41050D01*
X436476Y40913D01*
X436484Y40895D01*
X436488Y40875D01*
X436549Y40750D01*
X436606Y40623D01*
X436619Y40608D01*
X436628Y40589D01*
X436718Y40484D01*
X436805Y40375D01*
X436821Y40363D01*
X436834Y40347D01*
X436948Y40268D01*
X437059Y40184D01*
X437084Y40171D01*
X437094Y40164D01*
X437113Y40157D01*
X437204Y40113D01*
X440671Y38677D01*
X445077Y34271D01*
X446833Y30031D01*
X446902Y29910D01*
X446967Y29787D01*
X446980Y29772D01*
X446990Y29755D01*
X447087Y29655D01*
X447181Y29552D01*
X447198Y29541D01*
X447212Y29526D01*
X447330Y29454D01*
X447446Y29377D01*
X447466Y29371D01*
X447483Y29360D01*
X447615Y29319D01*
X447747Y29274D01*
X447767Y29272D01*
X447787Y29266D01*
X447925Y29260D01*
X448064Y29249D01*
X448084Y29252D01*
X448104Y29251D01*
X448240Y29279D01*
X448378Y29303D01*
X448396Y29311D01*
X448416Y29316D01*
X448541Y29377D01*
X448668Y29434D01*
X448683Y29446D01*
X448702Y29455D01*
X448808Y29546D01*
X448916Y29632D01*
X448928Y29648D01*
X448944Y29662D01*
X449024Y29776D01*
X449107Y29886D01*
X449120Y29912D01*
X449127Y29922D01*
X449134Y29941D01*
X449178Y30031D01*
X450520Y33270D01*
X456950Y39700D01*
X465353Y43181D01*
X474447Y43181D01*
X477034Y42109D01*
X477082Y42096D01*
X477127Y42075D01*
X477235Y42054D01*
X477341Y42025D01*
X477391Y42024D01*
X477440Y42015D01*
X477549Y42022D01*
X477659Y42020D01*
X477707Y42032D01*
X477757Y42035D01*
X477861Y42069D01*
X477968Y42094D01*
X478012Y42118D01*
X478059Y42133D01*
X478152Y42192D01*
X478249Y42243D01*
X478286Y42276D01*
X478328Y42303D01*
X478403Y42383D01*
X478485Y42457D01*
X478512Y42498D01*
X478546Y42535D01*
X478599Y42631D01*
X478659Y42723D01*
X478676Y42770D01*
X478700Y42813D01*
X478727Y42919D01*
X478763Y43023D01*
X478767Y43073D01*
X478779Y43121D01*
X478789Y43282D01*
X478789Y350418D01*
X478783Y350468D01*
X478785Y350517D01*
X478763Y350625D01*
X478749Y350734D01*
X478731Y350780D01*
X478721Y350829D01*
X478673Y350927D01*
X478632Y351029D01*
X478603Y351070D01*
X478581Y351114D01*
X478510Y351198D01*
X478446Y351287D01*
X478407Y351318D01*
X478375Y351356D01*
X478285Y351419D01*
X478201Y351490D01*
X478156Y351511D01*
X478115Y351539D01*
X478012Y351578D01*
X477913Y351625D01*
X477864Y351634D01*
X477818Y351652D01*
X477708Y351664D01*
X477601Y351685D01*
X477551Y351682D01*
X477502Y351687D01*
X477393Y351672D01*
X477283Y351665D01*
X477236Y351650D01*
X477187Y351643D01*
X477034Y351591D01*
X474447Y350519D01*
X465353Y350519D01*
X456950Y354000D01*
X450520Y360430D01*
X448111Y366246D01*
X448096Y366271D01*
X448087Y366299D01*
X448018Y366409D01*
X447953Y366522D01*
X447933Y366543D01*
X447917Y366568D01*
X447822Y366657D01*
X447732Y366750D01*
X447707Y366766D01*
X447685Y366786D01*
X447572Y366849D01*
X447461Y366917D01*
X447433Y366925D01*
X447407Y366940D01*
X447281Y366972D01*
X447157Y367010D01*
X447127Y367012D01*
X447099Y367019D01*
X446938Y367029D01*
X39690Y367029D01*
X39660Y367026D01*
X39631Y367028D01*
X39503Y367006D01*
X39374Y366989D01*
X39347Y366979D01*
X39318Y366974D01*
X39199Y366920D01*
X39078Y366872D01*
X39055Y366855D01*
X39028Y366843D01*
X38926Y366762D01*
X38821Y366686D01*
X38802Y366663D01*
X38779Y366644D01*
X38701Y366541D01*
X38618Y366441D01*
X38606Y366414D01*
X38588Y366390D01*
X38517Y366246D01*
X37160Y362970D01*
X34958Y360768D01*
X34928Y360729D01*
X34891Y360695D01*
X34831Y360604D01*
X34763Y360517D01*
X34743Y360471D01*
X34716Y360430D01*
X34681Y360326D01*
X34637Y360225D01*
X34629Y360176D01*
X34613Y360129D01*
X34604Y360020D01*
X34587Y359911D01*
X34592Y359861D01*
X34588Y359812D01*
X34606Y359704D01*
X34617Y359594D01*
X34634Y359548D01*
X34642Y359499D01*
X34687Y359398D01*
X34724Y359295D01*
X34752Y359254D01*
X34773Y359209D01*
X34841Y359123D01*
X34903Y359032D01*
X34940Y358999D01*
X34971Y358960D01*
X35059Y358894D01*
X35141Y358821D01*
X35186Y358799D01*
X35225Y358769D01*
X35370Y358698D01*
X35829Y358508D01*
X41008Y353329D01*
X42416Y349930D01*
X42440Y349887D01*
X42457Y349840D01*
X42519Y349749D01*
X42573Y349654D01*
X42608Y349618D01*
X42636Y349577D01*
X42718Y349505D01*
X42794Y349425D01*
X42837Y349399D01*
X42874Y349367D01*
X42972Y349317D01*
X43066Y349259D01*
X43113Y349245D01*
X43157Y349222D01*
X43265Y349198D01*
X43370Y349166D01*
X43419Y349163D01*
X43468Y349152D01*
X43578Y349156D01*
X43687Y349150D01*
X43736Y349161D01*
X43786Y349162D01*
X43891Y349193D01*
X43999Y349215D01*
X44043Y349237D01*
X44091Y349250D01*
X44186Y349306D01*
X44284Y349354D01*
X44322Y349387D01*
X44365Y349412D01*
X44486Y349518D01*
X45620Y350653D01*
X48981Y352045D01*
X52619Y352045D01*
X55980Y350653D01*
X58553Y348080D01*
X59945Y344719D01*
X59945Y341081D01*
X58553Y337720D01*
X55980Y335147D01*
X52619Y333755D01*
X48981Y333755D01*
X45620Y335147D01*
X44486Y336282D01*
X44447Y336312D01*
X44413Y336349D01*
X44321Y336409D01*
X44235Y336477D01*
X44189Y336496D01*
X44147Y336524D01*
X44043Y336559D01*
X43943Y336603D01*
X43894Y336611D01*
X43847Y336627D01*
X43737Y336636D01*
X43629Y336653D01*
X43579Y336648D01*
X43530Y336652D01*
X43421Y336633D01*
X43312Y336623D01*
X43265Y336606D01*
X43216Y336598D01*
X43116Y336553D01*
X43013Y336515D01*
X42972Y336487D01*
X42926Y336467D01*
X42841Y336399D01*
X42750Y336337D01*
X42717Y336300D01*
X42678Y336268D01*
X42612Y336181D01*
X42539Y336098D01*
X42516Y336054D01*
X42487Y336014D01*
X42416Y335870D01*
X41008Y332471D01*
X35829Y327292D01*
X29062Y324489D01*
X21738Y324489D01*
X14971Y327292D01*
X10191Y332073D01*
X10078Y332160D01*
X9967Y332251D01*
X9952Y332258D01*
X9939Y332268D01*
X9808Y332325D01*
X9678Y332385D01*
X9662Y332388D01*
X9647Y332394D01*
X9506Y332416D01*
X9365Y332442D01*
X9349Y332441D01*
X9333Y332444D01*
X9190Y332430D01*
X9048Y332421D01*
X9033Y332416D01*
X9017Y332414D01*
X8882Y332365D01*
X8746Y332321D01*
X8733Y332312D01*
X8717Y332306D01*
X8599Y332226D01*
X8479Y332149D01*
X8468Y332137D01*
X8454Y332128D01*
X8359Y332020D01*
X8262Y331916D01*
X8255Y331902D01*
X8244Y331889D01*
X8179Y331762D01*
X8110Y331636D01*
X8107Y331621D01*
X8099Y331606D01*
X8068Y331467D01*
X8033Y331328D01*
X8032Y331306D01*
X8030Y331296D01*
X8030Y331277D01*
X8024Y331167D01*
X8851Y203043D01*
X8868Y202910D01*
X8870Y202891D01*
X8873Y202850D01*
X8875Y202844D01*
X8881Y202775D01*
X8889Y202752D01*
X8893Y202728D01*
X8943Y202603D01*
X8989Y202476D01*
X9002Y202456D01*
X9011Y202433D01*
X9092Y202324D01*
X9167Y202213D01*
X9185Y202197D01*
X9200Y202177D01*
X9305Y202091D01*
X9406Y202002D01*
X9427Y201991D01*
X9446Y201976D01*
X9569Y201919D01*
X9689Y201858D01*
X9713Y201852D01*
X9735Y201842D01*
X9868Y201818D01*
X9999Y201788D01*
X10024Y201789D01*
X10048Y201784D01*
X10182Y201794D01*
X10317Y201798D01*
X10341Y201805D01*
X10365Y201806D01*
X10493Y201849D01*
X10623Y201886D01*
X10644Y201899D01*
X10667Y201906D01*
X10780Y201979D01*
X10897Y202048D01*
X10922Y202070D01*
X10934Y202078D01*
X10949Y202094D01*
X11017Y202154D01*
X14971Y206108D01*
X21738Y208911D01*
X29062Y208911D01*
X35829Y206108D01*
X41008Y200929D01*
X41215Y200428D01*
X41230Y200403D01*
X41239Y200375D01*
X41308Y200265D01*
X41373Y200152D01*
X41393Y200131D01*
X41409Y200106D01*
X41504Y200017D01*
X41594Y199924D01*
X41619Y199908D01*
X41641Y199888D01*
X41754Y199825D01*
X41865Y199757D01*
X41893Y199749D01*
X41919Y199734D01*
X42045Y199702D01*
X42169Y199664D01*
X42199Y199662D01*
X42227Y199655D01*
X42388Y199645D01*
X59052Y199645D01*
X59945Y198752D01*
X59945Y182248D01*
X59052Y181355D01*
X42388Y181355D01*
X42359Y181352D01*
X42329Y181354D01*
X42201Y181332D01*
X42072Y181315D01*
X42045Y181305D01*
X42016Y181300D01*
X41897Y181246D01*
X41777Y181198D01*
X41753Y181181D01*
X41726Y181169D01*
X41625Y181088D01*
X41519Y181012D01*
X41500Y180989D01*
X41477Y180970D01*
X41399Y180867D01*
X41316Y180767D01*
X41304Y180740D01*
X41286Y180716D01*
X41215Y180572D01*
X41008Y180071D01*
X35829Y174892D01*
X29062Y172089D01*
X21738Y172089D01*
X14971Y174892D01*
X11180Y178683D01*
X11067Y178771D01*
X10957Y178861D01*
X10942Y178868D01*
X10929Y178878D01*
X10798Y178935D01*
X10668Y178995D01*
X10652Y178998D01*
X10637Y179004D01*
X10496Y179027D01*
X10355Y179053D01*
X10339Y179051D01*
X10323Y179054D01*
X10180Y179041D01*
X10038Y179031D01*
X10023Y179026D01*
X10007Y179024D01*
X9871Y178976D01*
X9736Y178931D01*
X9723Y178922D01*
X9707Y178917D01*
X9589Y178836D01*
X9469Y178759D01*
X9458Y178747D01*
X9444Y178738D01*
X9349Y178630D01*
X9252Y178526D01*
X9244Y178512D01*
X9234Y178500D01*
X9168Y178372D01*
X9100Y178246D01*
X9096Y178231D01*
X9089Y178216D01*
X9058Y178077D01*
X9023Y177938D01*
X9022Y177916D01*
X9019Y177906D01*
X9020Y177887D01*
X9014Y177777D01*
X9204Y148292D01*
X9222Y148159D01*
X9234Y148024D01*
X9243Y148001D01*
X9246Y147977D01*
X9296Y147852D01*
X9342Y147725D01*
X9356Y147705D01*
X9365Y147682D01*
X9445Y147573D01*
X9521Y147462D01*
X9539Y147446D01*
X9553Y147426D01*
X9658Y147340D01*
X9759Y147251D01*
X9781Y147240D01*
X9800Y147225D01*
X9922Y147168D01*
X10042Y147107D01*
X10066Y147101D01*
X10088Y147091D01*
X10221Y147067D01*
X10353Y147037D01*
X10377Y147038D01*
X10401Y147033D01*
X10536Y147043D01*
X10670Y147047D01*
X10694Y147053D01*
X10718Y147055D01*
X10846Y147098D01*
X10976Y147135D01*
X10997Y147147D01*
X11020Y147155D01*
X11133Y147228D01*
X11250Y147297D01*
X11276Y147319D01*
X11288Y147327D01*
X11302Y147343D01*
X11371Y147403D01*
X11542Y147575D01*
X61976Y147575D01*
X62094Y147590D01*
X62213Y147597D01*
X62251Y147610D01*
X62292Y147615D01*
X62402Y147658D01*
X62515Y147695D01*
X62550Y147717D01*
X62587Y147732D01*
X62683Y147801D01*
X62784Y147865D01*
X62812Y147895D01*
X62845Y147918D01*
X62921Y148010D01*
X63002Y148097D01*
X63022Y148132D01*
X63047Y148163D01*
X63098Y148271D01*
X63156Y148375D01*
X63166Y148415D01*
X63183Y148451D01*
X63205Y148568D01*
X63235Y148683D01*
X63239Y148743D01*
X63243Y148763D01*
X63241Y148784D01*
X63245Y148844D01*
X63245Y204358D01*
X64882Y205995D01*
X90058Y205995D01*
X91695Y204358D01*
X91695Y196592D01*
X91712Y196454D01*
X91725Y196315D01*
X91732Y196296D01*
X91735Y196276D01*
X91786Y196147D01*
X91833Y196016D01*
X91844Y195999D01*
X91852Y195980D01*
X91933Y195868D01*
X92011Y195753D01*
X92027Y195739D01*
X92038Y195723D01*
X92146Y195634D01*
X92250Y195542D01*
X92268Y195533D01*
X92283Y195520D01*
X92409Y195461D01*
X92533Y195398D01*
X92553Y195393D01*
X92571Y195385D01*
X92707Y195359D01*
X92843Y195328D01*
X92864Y195329D01*
X92883Y195325D01*
X93022Y195333D01*
X93161Y195338D01*
X93181Y195343D01*
X93201Y195345D01*
X93333Y195387D01*
X93467Y195426D01*
X93484Y195436D01*
X93503Y195443D01*
X93621Y195517D01*
X93741Y195588D01*
X93762Y195606D01*
X93772Y195613D01*
X93786Y195628D01*
X93861Y195694D01*
X96420Y198253D01*
X99781Y199645D01*
X103419Y199645D01*
X106780Y198253D01*
X109353Y195680D01*
X110745Y192319D01*
X110745Y188681D01*
X109353Y185320D01*
X106780Y182747D01*
X103419Y181355D01*
X99781Y181355D01*
X96420Y182747D01*
X93861Y185306D01*
X93752Y185391D01*
X93645Y185480D01*
X93626Y185488D01*
X93610Y185501D01*
X93482Y185556D01*
X93357Y185615D01*
X93337Y185619D01*
X93318Y185627D01*
X93180Y185649D01*
X93044Y185675D01*
X93024Y185674D01*
X93004Y185677D01*
X92865Y185664D01*
X92727Y185655D01*
X92708Y185649D01*
X92688Y185647D01*
X92556Y185600D01*
X92425Y185557D01*
X92407Y185547D01*
X92388Y185540D01*
X92273Y185462D01*
X92156Y185387D01*
X92142Y185372D01*
X92125Y185361D01*
X92033Y185257D01*
X91938Y185156D01*
X91928Y185138D01*
X91915Y185123D01*
X91851Y184999D01*
X91784Y184877D01*
X91779Y184858D01*
X91770Y184839D01*
X91740Y184704D01*
X91705Y184569D01*
X91703Y184541D01*
X91700Y184529D01*
X91701Y184509D01*
X91695Y184408D01*
X91695Y98044D01*
X91710Y97926D01*
X91717Y97807D01*
X91730Y97769D01*
X91735Y97728D01*
X91778Y97618D01*
X91815Y97505D01*
X91837Y97470D01*
X91852Y97433D01*
X91921Y97337D01*
X91985Y97236D01*
X92015Y97208D01*
X92038Y97175D01*
X92130Y97099D01*
X92217Y97018D01*
X92252Y96998D01*
X92283Y96973D01*
X92391Y96922D01*
X92495Y96864D01*
X92535Y96854D01*
X92571Y96837D01*
X92688Y96815D01*
X92803Y96785D01*
X92863Y96781D01*
X92883Y96777D01*
X92904Y96779D01*
X92964Y96775D01*
X250078Y96775D01*
X251715Y95138D01*
X251715Y64882D01*
X250078Y63245D01*
X192967Y63245D01*
X192898Y63237D01*
X192828Y63238D01*
X192740Y63217D01*
X192651Y63205D01*
X192586Y63180D01*
X192518Y63163D01*
X192439Y63121D01*
X192356Y63088D01*
X192299Y63047D01*
X192237Y63015D01*
X192171Y62954D01*
X192098Y62902D01*
X192054Y62848D01*
X192002Y62801D01*
X191953Y62726D01*
X191895Y62657D01*
X191866Y62593D01*
X191827Y62535D01*
X191798Y62450D01*
X191760Y62369D01*
X191747Y62300D01*
X191724Y62234D01*
X191717Y62145D01*
X191700Y62057D01*
X191704Y61987D01*
X191699Y61917D01*
X191714Y61829D01*
X191720Y61739D01*
X191741Y61673D01*
X191753Y61604D01*
X191790Y61522D01*
X191818Y61437D01*
X191855Y61378D01*
X191884Y61314D01*
X191940Y61244D01*
X191988Y61168D01*
X192039Y61120D01*
X192082Y61066D01*
X192154Y61011D01*
X192220Y60950D01*
X192281Y60916D01*
X192337Y60874D01*
X192481Y60803D01*
X193506Y60379D01*
X194999Y58886D01*
X195807Y56936D01*
X195807Y54824D01*
X194999Y52874D01*
X193506Y51381D01*
X191556Y50573D01*
X189444Y50573D01*
X187494Y51381D01*
X186162Y52714D01*
X186083Y52774D01*
X186011Y52842D01*
X185958Y52871D01*
X185910Y52908D01*
X185819Y52948D01*
X185733Y52996D01*
X185674Y53011D01*
X185618Y53035D01*
X185521Y53050D01*
X185425Y53075D01*
X185325Y53081D01*
X185304Y53085D01*
X185292Y53083D01*
X185264Y53085D01*
X67422Y53085D01*
X65414Y55094D01*
X57634Y62874D01*
X55625Y64882D01*
X55625Y109064D01*
X55613Y109162D01*
X55610Y109261D01*
X55593Y109320D01*
X55585Y109380D01*
X55549Y109472D01*
X55521Y109567D01*
X55491Y109619D01*
X55468Y109675D01*
X55410Y109755D01*
X55360Y109841D01*
X55294Y109916D01*
X55282Y109933D01*
X55272Y109940D01*
X55254Y109962D01*
X53921Y111294D01*
X53113Y113244D01*
X53113Y115356D01*
X53948Y117370D01*
X53961Y117418D01*
X53982Y117463D01*
X54003Y117571D01*
X54032Y117677D01*
X54032Y117727D01*
X54042Y117776D01*
X54035Y117885D01*
X54037Y117995D01*
X54025Y118043D01*
X54022Y118093D01*
X53988Y118197D01*
X53963Y118304D01*
X53939Y118348D01*
X53924Y118395D01*
X53865Y118488D01*
X53814Y118585D01*
X53780Y118622D01*
X53754Y118664D01*
X53674Y118739D01*
X53600Y118821D01*
X53558Y118848D01*
X53522Y118882D01*
X53426Y118935D01*
X53334Y118995D01*
X53287Y119012D01*
X53244Y119036D01*
X53137Y119063D01*
X53033Y119099D01*
X52984Y119103D01*
X52936Y119115D01*
X52775Y119125D01*
X11536Y119125D01*
X11452Y119190D01*
X11341Y119281D01*
X11326Y119288D01*
X11314Y119298D01*
X11183Y119354D01*
X11052Y119415D01*
X11037Y119418D01*
X11022Y119424D01*
X10881Y119446D01*
X10740Y119472D01*
X10724Y119471D01*
X10708Y119474D01*
X10565Y119460D01*
X10422Y119451D01*
X10407Y119446D01*
X10391Y119444D01*
X10256Y119395D01*
X10121Y119351D01*
X10107Y119342D01*
X10092Y119337D01*
X9973Y119256D01*
X9853Y119179D01*
X9842Y119167D01*
X9829Y119158D01*
X9734Y119050D01*
X9637Y118946D01*
X9629Y118932D01*
X9618Y118920D01*
X9553Y118792D01*
X9485Y118666D01*
X9481Y118651D01*
X9474Y118636D01*
X9442Y118496D01*
X9407Y118358D01*
X9406Y118336D01*
X9404Y118326D01*
X9404Y118307D01*
X9398Y118197D01*
X9893Y41584D01*
X9899Y41539D01*
X9896Y41494D01*
X9919Y41382D01*
X9934Y41269D01*
X9951Y41227D01*
X9961Y41182D01*
X10011Y41080D01*
X10053Y40974D01*
X10080Y40937D01*
X10100Y40896D01*
X10174Y40810D01*
X10242Y40718D01*
X10277Y40689D01*
X10307Y40654D01*
X10400Y40589D01*
X10488Y40517D01*
X10530Y40498D01*
X10567Y40471D01*
X10673Y40431D01*
X10777Y40383D01*
X10822Y40375D01*
X10864Y40359D01*
X10978Y40346D01*
X11089Y40325D01*
X11135Y40328D01*
X11180Y40323D01*
X11293Y40339D01*
X11407Y40347D01*
X11450Y40361D01*
X11495Y40368D01*
X11648Y40420D01*
X15393Y41972D01*
X15437Y41996D01*
X15483Y42013D01*
X15574Y42075D01*
X15670Y42129D01*
X15705Y42164D01*
X15747Y42192D01*
X15819Y42274D01*
X15898Y42350D01*
X15924Y42393D01*
X15957Y42430D01*
X16007Y42528D01*
X16064Y42621D01*
X16079Y42669D01*
X16102Y42713D01*
X16126Y42820D01*
X16158Y42925D01*
X16160Y42975D01*
X16171Y43024D01*
X16168Y43133D01*
X16173Y43243D01*
X16163Y43292D01*
X16162Y43341D01*
X16131Y43447D01*
X16109Y43555D01*
X16087Y43599D01*
X16073Y43647D01*
X16017Y43741D01*
X15969Y43840D01*
X15937Y43878D01*
X15912Y43921D01*
X15871Y43967D01*
X15869Y43969D01*
X15867Y43972D01*
X15805Y44042D01*
X15717Y44130D01*
X15382Y44709D01*
X15209Y45356D01*
X15209Y50801D01*
X24130Y50801D01*
X24248Y50816D01*
X24367Y50823D01*
X24405Y50836D01*
X24445Y50841D01*
X24556Y50884D01*
X24669Y50921D01*
X24703Y50943D01*
X24741Y50958D01*
X24837Y51028D01*
X24938Y51091D01*
X24966Y51121D01*
X24998Y51144D01*
X25074Y51236D01*
X25156Y51323D01*
X25175Y51358D01*
X25201Y51389D01*
X25252Y51497D01*
X25309Y51601D01*
X25320Y51641D01*
X25337Y51677D01*
X25359Y51794D01*
X25389Y51909D01*
X25393Y51970D01*
X25397Y51990D01*
X25395Y52010D01*
X25399Y52070D01*
X25399Y53341D01*
X25401Y53341D01*
X25401Y52070D01*
X25416Y51952D01*
X25423Y51833D01*
X25436Y51795D01*
X25441Y51754D01*
X25485Y51644D01*
X25521Y51531D01*
X25543Y51496D01*
X25558Y51459D01*
X25628Y51363D01*
X25691Y51262D01*
X25721Y51234D01*
X25745Y51201D01*
X25836Y51126D01*
X25923Y51044D01*
X25958Y51024D01*
X25990Y50999D01*
X26097Y50948D01*
X26202Y50890D01*
X26241Y50880D01*
X26277Y50863D01*
X26394Y50841D01*
X26509Y50811D01*
X26570Y50807D01*
X26590Y50803D01*
X26610Y50805D01*
X26670Y50801D01*
X35591Y50801D01*
X35591Y45356D01*
X35418Y44709D01*
X35083Y44130D01*
X34610Y43657D01*
X34031Y43322D01*
X33413Y43157D01*
X33355Y43133D01*
X33293Y43118D01*
X33208Y43073D01*
X33118Y43037D01*
X33068Y42999D01*
X33012Y42970D01*
X32941Y42905D01*
X32863Y42847D01*
X32823Y42798D01*
X32777Y42756D01*
X32724Y42675D01*
X32663Y42600D01*
X32637Y42543D01*
X32602Y42490D01*
X32571Y42399D01*
X32530Y42311D01*
X32519Y42249D01*
X32499Y42189D01*
X32491Y42093D01*
X32474Y41998D01*
X32478Y41935D01*
X32473Y41872D01*
X32490Y41777D01*
X32497Y41681D01*
X32517Y41621D01*
X32528Y41559D01*
X32567Y41471D01*
X32598Y41379D01*
X32633Y41326D01*
X32658Y41269D01*
X32719Y41194D01*
X32771Y41112D01*
X32818Y41070D01*
X32857Y41020D01*
X32934Y40962D01*
X33005Y40897D01*
X33061Y40867D01*
X33111Y40829D01*
X33256Y40758D01*
X35810Y39700D01*
X42240Y33270D01*
X45721Y24867D01*
X45721Y15773D01*
X44123Y11916D01*
X44110Y11868D01*
X44089Y11823D01*
X44068Y11715D01*
X44039Y11609D01*
X44038Y11559D01*
X44029Y11510D01*
X44036Y11401D01*
X44034Y11291D01*
X44046Y11243D01*
X44049Y11193D01*
X44083Y11089D01*
X44108Y10982D01*
X44132Y10938D01*
X44147Y10891D01*
X44206Y10798D01*
X44257Y10701D01*
X44290Y10664D01*
X44317Y10622D01*
X44397Y10547D01*
X44471Y10465D01*
X44512Y10438D01*
X44549Y10404D01*
X44645Y10351D01*
X44737Y10291D01*
X44784Y10274D01*
X44827Y10250D01*
X44933Y10223D01*
X45037Y10187D01*
X45087Y10183D01*
X45135Y10171D01*
X45296Y10161D01*
X371027Y10161D01*
X371165Y10178D01*
G37*
G36*
X184484Y64777D02*
X184484Y64777D01*
X184533Y64775D01*
X184641Y64797D01*
X184750Y64811D01*
X184796Y64829D01*
X184845Y64839D01*
X184943Y64887D01*
X185046Y64928D01*
X185086Y64957D01*
X185130Y64979D01*
X185214Y65050D01*
X185303Y65114D01*
X185335Y65153D01*
X185372Y65185D01*
X185436Y65275D01*
X185506Y65359D01*
X185527Y65404D01*
X185555Y65445D01*
X185594Y65548D01*
X185641Y65647D01*
X185651Y65696D01*
X185668Y65742D01*
X185680Y65852D01*
X185701Y65960D01*
X185698Y66009D01*
X185703Y66058D01*
X185688Y66167D01*
X185681Y66277D01*
X185666Y66324D01*
X185659Y66373D01*
X185607Y66526D01*
X185193Y67524D01*
X185193Y69636D01*
X186001Y71586D01*
X187494Y73079D01*
X189444Y73887D01*
X191556Y73887D01*
X193506Y73079D01*
X194584Y72000D01*
X194663Y71940D01*
X194735Y71872D01*
X194788Y71843D01*
X194836Y71806D01*
X194927Y71766D01*
X195013Y71718D01*
X195072Y71703D01*
X195128Y71679D01*
X195225Y71664D01*
X195321Y71639D01*
X195421Y71633D01*
X195442Y71629D01*
X195454Y71631D01*
X195482Y71629D01*
X204463Y71629D01*
X210949Y65143D01*
X211027Y65082D01*
X211099Y65014D01*
X211152Y64985D01*
X211200Y64948D01*
X211291Y64908D01*
X211378Y64860D01*
X211436Y64845D01*
X211492Y64821D01*
X211590Y64806D01*
X211686Y64781D01*
X211786Y64775D01*
X211806Y64771D01*
X211819Y64773D01*
X211847Y64771D01*
X248920Y64771D01*
X249038Y64786D01*
X249157Y64793D01*
X249195Y64806D01*
X249236Y64811D01*
X249346Y64854D01*
X249459Y64891D01*
X249494Y64913D01*
X249531Y64928D01*
X249627Y64998D01*
X249728Y65061D01*
X249756Y65091D01*
X249789Y65114D01*
X249865Y65206D01*
X249946Y65293D01*
X249966Y65328D01*
X249991Y65359D01*
X250042Y65467D01*
X250100Y65571D01*
X250110Y65611D01*
X250127Y65647D01*
X250149Y65764D01*
X250179Y65879D01*
X250183Y65940D01*
X250187Y65960D01*
X250185Y65980D01*
X250189Y66040D01*
X250189Y93980D01*
X250174Y94098D01*
X250167Y94217D01*
X250154Y94255D01*
X250149Y94296D01*
X250106Y94406D01*
X250069Y94519D01*
X250047Y94554D01*
X250032Y94591D01*
X249963Y94687D01*
X249899Y94788D01*
X249869Y94816D01*
X249846Y94849D01*
X249754Y94925D01*
X249667Y95006D01*
X249632Y95026D01*
X249601Y95051D01*
X249493Y95102D01*
X249389Y95160D01*
X249349Y95170D01*
X249313Y95187D01*
X249196Y95209D01*
X249081Y95239D01*
X249021Y95243D01*
X249001Y95247D01*
X248980Y95245D01*
X248920Y95249D01*
X90169Y95249D01*
X90169Y203200D01*
X90154Y203318D01*
X90147Y203437D01*
X90134Y203475D01*
X90129Y203516D01*
X90086Y203626D01*
X90049Y203739D01*
X90027Y203774D01*
X90012Y203811D01*
X89943Y203907D01*
X89879Y204008D01*
X89849Y204036D01*
X89826Y204069D01*
X89734Y204145D01*
X89647Y204226D01*
X89612Y204246D01*
X89581Y204271D01*
X89473Y204322D01*
X89369Y204380D01*
X89329Y204390D01*
X89293Y204407D01*
X89176Y204429D01*
X89061Y204459D01*
X89001Y204463D01*
X88981Y204467D01*
X88960Y204465D01*
X88900Y204469D01*
X66040Y204469D01*
X65922Y204454D01*
X65803Y204447D01*
X65765Y204434D01*
X65724Y204429D01*
X65614Y204386D01*
X65501Y204349D01*
X65466Y204327D01*
X65429Y204312D01*
X65333Y204243D01*
X65232Y204179D01*
X65204Y204149D01*
X65171Y204126D01*
X65096Y204034D01*
X65014Y203947D01*
X64994Y203912D01*
X64969Y203881D01*
X64918Y203773D01*
X64860Y203669D01*
X64850Y203629D01*
X64833Y203593D01*
X64811Y203476D01*
X64781Y203361D01*
X64777Y203301D01*
X64773Y203281D01*
X64775Y203260D01*
X64771Y203200D01*
X64771Y195737D01*
X64773Y195717D01*
X64771Y195697D01*
X64793Y195559D01*
X64811Y195421D01*
X64818Y195403D01*
X64821Y195383D01*
X64876Y195255D01*
X64928Y195125D01*
X64939Y195109D01*
X64947Y195091D01*
X65032Y194981D01*
X65114Y194868D01*
X65130Y194855D01*
X65142Y194840D01*
X65252Y194754D01*
X65359Y194665D01*
X65378Y194657D01*
X65393Y194644D01*
X65521Y194589D01*
X65647Y194530D01*
X65667Y194526D01*
X65685Y194518D01*
X65823Y194496D01*
X65960Y194470D01*
X65979Y194471D01*
X65999Y194468D01*
X66138Y194481D01*
X66277Y194490D01*
X66296Y194496D01*
X66316Y194498D01*
X66447Y194545D01*
X66579Y194588D01*
X66596Y194598D01*
X66615Y194605D01*
X66730Y194683D01*
X66848Y194758D01*
X66862Y194772D01*
X66878Y194784D01*
X66970Y194888D01*
X67066Y194989D01*
X67076Y195007D01*
X67089Y195022D01*
X67171Y195160D01*
X67510Y195825D01*
X68450Y197119D01*
X69581Y198250D01*
X70875Y199190D01*
X72300Y199916D01*
X73661Y200359D01*
X73661Y191770D01*
X73676Y191652D01*
X73683Y191533D01*
X73696Y191495D01*
X73701Y191455D01*
X73744Y191344D01*
X73781Y191231D01*
X73803Y191197D01*
X73818Y191159D01*
X73888Y191063D01*
X73951Y190962D01*
X73981Y190934D01*
X74004Y190902D01*
X74096Y190826D01*
X74183Y190744D01*
X74218Y190725D01*
X74249Y190699D01*
X74357Y190648D01*
X74461Y190591D01*
X74501Y190580D01*
X74537Y190563D01*
X74654Y190541D01*
X74769Y190511D01*
X74830Y190507D01*
X74850Y190503D01*
X74870Y190505D01*
X74930Y190501D01*
X76201Y190501D01*
X76201Y190499D01*
X74930Y190499D01*
X74812Y190484D01*
X74693Y190477D01*
X74655Y190464D01*
X74614Y190459D01*
X74504Y190415D01*
X74391Y190379D01*
X74356Y190357D01*
X74319Y190342D01*
X74223Y190272D01*
X74122Y190209D01*
X74094Y190179D01*
X74061Y190155D01*
X73986Y190064D01*
X73904Y189977D01*
X73884Y189942D01*
X73859Y189910D01*
X73808Y189803D01*
X73750Y189698D01*
X73740Y189659D01*
X73723Y189623D01*
X73701Y189506D01*
X73671Y189391D01*
X73667Y189330D01*
X73663Y189310D01*
X73665Y189290D01*
X73661Y189230D01*
X73661Y180641D01*
X72300Y181084D01*
X70875Y181810D01*
X69581Y182750D01*
X68450Y183881D01*
X67510Y185175D01*
X67171Y185840D01*
X67160Y185856D01*
X67152Y185875D01*
X67071Y185987D01*
X66992Y186103D01*
X66977Y186116D01*
X66966Y186132D01*
X66858Y186221D01*
X66754Y186313D01*
X66736Y186322D01*
X66721Y186335D01*
X66595Y186394D01*
X66470Y186458D01*
X66451Y186462D01*
X66433Y186470D01*
X66296Y186496D01*
X66160Y186527D01*
X66140Y186526D01*
X66121Y186530D01*
X65981Y186521D01*
X65842Y186517D01*
X65823Y186512D01*
X65803Y186510D01*
X65670Y186467D01*
X65537Y186429D01*
X65520Y186418D01*
X65501Y186412D01*
X65383Y186338D01*
X65263Y186267D01*
X65249Y186253D01*
X65232Y186242D01*
X65136Y186141D01*
X65038Y186042D01*
X65028Y186025D01*
X65014Y186011D01*
X64947Y185889D01*
X64876Y185769D01*
X64870Y185749D01*
X64860Y185732D01*
X64826Y185597D01*
X64787Y185463D01*
X64786Y185443D01*
X64781Y185424D01*
X64771Y185263D01*
X64771Y146049D01*
X12700Y146049D01*
X12582Y146034D01*
X12463Y146027D01*
X12425Y146014D01*
X12384Y146009D01*
X12274Y145966D01*
X12161Y145929D01*
X12126Y145907D01*
X12089Y145892D01*
X11993Y145823D01*
X11892Y145759D01*
X11864Y145729D01*
X11831Y145706D01*
X11756Y145614D01*
X11674Y145527D01*
X11654Y145492D01*
X11629Y145461D01*
X11578Y145353D01*
X11520Y145249D01*
X11510Y145209D01*
X11493Y145173D01*
X11471Y145056D01*
X11441Y144941D01*
X11437Y144881D01*
X11433Y144861D01*
X11435Y144840D01*
X11431Y144780D01*
X11431Y121920D01*
X11446Y121802D01*
X11453Y121683D01*
X11466Y121645D01*
X11471Y121604D01*
X11514Y121494D01*
X11551Y121381D01*
X11573Y121346D01*
X11588Y121309D01*
X11658Y121213D01*
X11721Y121112D01*
X11751Y121084D01*
X11774Y121051D01*
X11866Y120976D01*
X11953Y120894D01*
X11988Y120874D01*
X12019Y120849D01*
X12127Y120798D01*
X12231Y120740D01*
X12271Y120730D01*
X12307Y120713D01*
X12424Y120691D01*
X12539Y120661D01*
X12600Y120657D01*
X12620Y120653D01*
X12640Y120655D01*
X12700Y120651D01*
X16813Y120651D01*
X16951Y120668D01*
X17090Y120681D01*
X17109Y120688D01*
X17129Y120691D01*
X17258Y120742D01*
X17389Y120789D01*
X17406Y120800D01*
X17424Y120808D01*
X17537Y120889D01*
X17652Y120967D01*
X17665Y120983D01*
X17682Y120994D01*
X17770Y121102D01*
X17862Y121206D01*
X17872Y121224D01*
X17885Y121239D01*
X17944Y121365D01*
X18007Y121489D01*
X18011Y121509D01*
X18020Y121527D01*
X18046Y121663D01*
X18077Y121799D01*
X18076Y121820D01*
X18080Y121840D01*
X18071Y121978D01*
X18067Y122117D01*
X18061Y122137D01*
X18060Y122157D01*
X18017Y122289D01*
X17979Y122423D01*
X17968Y122440D01*
X17962Y122459D01*
X17888Y122577D01*
X17817Y122697D01*
X17798Y122718D01*
X17792Y122728D01*
X17777Y122742D01*
X17711Y122818D01*
X17627Y122901D01*
X16684Y124199D01*
X15956Y125628D01*
X15510Y127001D01*
X24130Y127001D01*
X24248Y127016D01*
X24367Y127023D01*
X24405Y127036D01*
X24445Y127041D01*
X24556Y127084D01*
X24669Y127121D01*
X24703Y127143D01*
X24741Y127158D01*
X24837Y127228D01*
X24938Y127291D01*
X24966Y127321D01*
X24998Y127344D01*
X25074Y127436D01*
X25156Y127523D01*
X25175Y127558D01*
X25201Y127589D01*
X25252Y127697D01*
X25309Y127801D01*
X25320Y127841D01*
X25337Y127877D01*
X25359Y127994D01*
X25389Y128109D01*
X25393Y128170D01*
X25397Y128190D01*
X25395Y128210D01*
X25399Y128270D01*
X25399Y129541D01*
X25401Y129541D01*
X25401Y128270D01*
X25416Y128152D01*
X25423Y128033D01*
X25436Y127995D01*
X25441Y127954D01*
X25485Y127844D01*
X25521Y127731D01*
X25543Y127696D01*
X25558Y127659D01*
X25628Y127563D01*
X25691Y127462D01*
X25721Y127434D01*
X25745Y127401D01*
X25836Y127326D01*
X25923Y127244D01*
X25958Y127224D01*
X25990Y127199D01*
X26097Y127148D01*
X26202Y127090D01*
X26241Y127080D01*
X26277Y127063D01*
X26394Y127041D01*
X26509Y127011D01*
X26570Y127007D01*
X26590Y127003D01*
X26610Y127005D01*
X26670Y127001D01*
X35290Y127001D01*
X34844Y125628D01*
X34116Y124199D01*
X33173Y122901D01*
X33089Y122818D01*
X33004Y122708D01*
X32915Y122601D01*
X32907Y122582D01*
X32894Y122566D01*
X32839Y122438D01*
X32780Y122313D01*
X32776Y122293D01*
X32768Y122275D01*
X32746Y122137D01*
X32720Y122001D01*
X32721Y121980D01*
X32718Y121960D01*
X32731Y121822D01*
X32740Y121683D01*
X32746Y121664D01*
X32748Y121644D01*
X32795Y121513D01*
X32838Y121381D01*
X32849Y121364D01*
X32856Y121345D01*
X32934Y121230D01*
X33008Y121112D01*
X33023Y121098D01*
X33034Y121081D01*
X33138Y120990D01*
X33240Y120894D01*
X33257Y120884D01*
X33273Y120871D01*
X33397Y120808D01*
X33518Y120740D01*
X33538Y120735D01*
X33556Y120726D01*
X33692Y120696D01*
X33826Y120661D01*
X33854Y120659D01*
X33866Y120657D01*
X33887Y120657D01*
X33987Y120651D01*
X74931Y120651D01*
X74931Y66040D01*
X74946Y65922D01*
X74953Y65803D01*
X74966Y65765D01*
X74971Y65724D01*
X75014Y65614D01*
X75051Y65501D01*
X75073Y65466D01*
X75088Y65429D01*
X75158Y65333D01*
X75221Y65232D01*
X75251Y65204D01*
X75274Y65171D01*
X75366Y65096D01*
X75453Y65014D01*
X75488Y64994D01*
X75519Y64969D01*
X75627Y64918D01*
X75731Y64860D01*
X75771Y64850D01*
X75807Y64833D01*
X75924Y64811D01*
X76039Y64781D01*
X76100Y64777D01*
X76120Y64773D01*
X76140Y64775D01*
X76200Y64771D01*
X184434Y64771D01*
X184484Y64777D01*
G37*
%LPC*%
G36*
X428138Y324489D02*
X428138Y324489D01*
X421371Y327292D01*
X416192Y332471D01*
X414784Y335870D01*
X414760Y335913D01*
X414743Y335960D01*
X414681Y336051D01*
X414627Y336146D01*
X414592Y336182D01*
X414564Y336223D01*
X414482Y336295D01*
X414406Y336375D01*
X414363Y336401D01*
X414326Y336433D01*
X414228Y336483D01*
X414134Y336541D01*
X414087Y336555D01*
X414043Y336578D01*
X413935Y336602D01*
X413830Y336634D01*
X413781Y336637D01*
X413732Y336648D01*
X413622Y336644D01*
X413513Y336650D01*
X413464Y336639D01*
X413414Y336638D01*
X413309Y336607D01*
X413201Y336585D01*
X413157Y336563D01*
X413109Y336550D01*
X413014Y336494D01*
X412916Y336446D01*
X412878Y336413D01*
X412835Y336388D01*
X412714Y336282D01*
X411580Y335147D01*
X408219Y333755D01*
X404581Y333755D01*
X401220Y335147D01*
X398647Y337720D01*
X397255Y341081D01*
X397255Y344719D01*
X398647Y348080D01*
X401220Y350653D01*
X404581Y352045D01*
X408219Y352045D01*
X411580Y350653D01*
X412714Y349518D01*
X412753Y349488D01*
X412787Y349451D01*
X412879Y349391D01*
X412965Y349323D01*
X413011Y349304D01*
X413053Y349276D01*
X413157Y349241D01*
X413257Y349197D01*
X413306Y349189D01*
X413353Y349173D01*
X413463Y349164D01*
X413571Y349147D01*
X413621Y349152D01*
X413670Y349148D01*
X413779Y349167D01*
X413888Y349177D01*
X413935Y349194D01*
X413984Y349202D01*
X414084Y349247D01*
X414187Y349285D01*
X414228Y349313D01*
X414274Y349333D01*
X414359Y349401D01*
X414450Y349463D01*
X414483Y349500D01*
X414522Y349532D01*
X414588Y349619D01*
X414661Y349702D01*
X414684Y349746D01*
X414713Y349786D01*
X414784Y349930D01*
X416192Y353329D01*
X421371Y358508D01*
X428138Y361311D01*
X435462Y361311D01*
X442229Y358508D01*
X447408Y353329D01*
X450211Y346562D01*
X450211Y339238D01*
X447408Y332471D01*
X442229Y327292D01*
X435462Y324489D01*
X428138Y324489D01*
G37*
%LPD*%
%LPC*%
G36*
X428138Y172089D02*
X428138Y172089D01*
X421371Y174892D01*
X416192Y180071D01*
X414784Y183470D01*
X414760Y183513D01*
X414743Y183560D01*
X414681Y183651D01*
X414627Y183746D01*
X414592Y183782D01*
X414564Y183823D01*
X414482Y183895D01*
X414406Y183975D01*
X414363Y184001D01*
X414326Y184033D01*
X414228Y184083D01*
X414134Y184141D01*
X414087Y184155D01*
X414043Y184178D01*
X413935Y184202D01*
X413830Y184234D01*
X413781Y184237D01*
X413732Y184248D01*
X413622Y184244D01*
X413513Y184250D01*
X413464Y184239D01*
X413414Y184238D01*
X413309Y184207D01*
X413201Y184185D01*
X413157Y184163D01*
X413109Y184150D01*
X413014Y184094D01*
X412916Y184046D01*
X412878Y184013D01*
X412835Y183988D01*
X412714Y183882D01*
X411580Y182747D01*
X408219Y181355D01*
X404581Y181355D01*
X401220Y182747D01*
X398647Y185320D01*
X397255Y188681D01*
X397255Y192319D01*
X398647Y195680D01*
X401220Y198253D01*
X404581Y199645D01*
X408219Y199645D01*
X411580Y198253D01*
X412714Y197118D01*
X412753Y197088D01*
X412787Y197051D01*
X412879Y196991D01*
X412965Y196923D01*
X413011Y196904D01*
X413053Y196876D01*
X413157Y196841D01*
X413257Y196797D01*
X413306Y196789D01*
X413353Y196773D01*
X413463Y196764D01*
X413571Y196747D01*
X413621Y196752D01*
X413670Y196748D01*
X413779Y196767D01*
X413888Y196777D01*
X413935Y196794D01*
X413984Y196802D01*
X414084Y196847D01*
X414187Y196885D01*
X414228Y196913D01*
X414274Y196933D01*
X414359Y197001D01*
X414450Y197063D01*
X414483Y197100D01*
X414522Y197132D01*
X414588Y197219D01*
X414661Y197302D01*
X414684Y197346D01*
X414713Y197386D01*
X414784Y197530D01*
X416192Y200929D01*
X421371Y206108D01*
X428138Y208911D01*
X435462Y208911D01*
X442229Y206108D01*
X447408Y200929D01*
X450211Y194162D01*
X450211Y186838D01*
X447408Y180071D01*
X442229Y174892D01*
X435462Y172089D01*
X428138Y172089D01*
G37*
%LPD*%
%LPC*%
G36*
X139068Y16255D02*
X139068Y16255D01*
X138175Y17148D01*
X138175Y43812D01*
X139068Y44705D01*
X165732Y44705D01*
X166625Y43812D01*
X166625Y17148D01*
X165732Y16255D01*
X139068Y16255D01*
G37*
%LPD*%
%LPC*%
G36*
X177168Y16255D02*
X177168Y16255D01*
X176275Y17148D01*
X176275Y43812D01*
X177168Y44705D01*
X203832Y44705D01*
X204725Y43812D01*
X204725Y17148D01*
X203832Y16255D01*
X177168Y16255D01*
G37*
%LPD*%
%LPC*%
G36*
X404429Y104393D02*
X404429Y104393D01*
X400788Y105901D01*
X398001Y108688D01*
X396493Y112329D01*
X396493Y116271D01*
X398001Y119912D01*
X400788Y122699D01*
X404429Y124207D01*
X408371Y124207D01*
X412012Y122699D01*
X414799Y119912D01*
X416307Y116271D01*
X416307Y112329D01*
X414799Y108688D01*
X412012Y105901D01*
X408371Y104393D01*
X404429Y104393D01*
G37*
%LPD*%
%LPC*%
G36*
X379029Y104393D02*
X379029Y104393D01*
X375388Y105901D01*
X372601Y108688D01*
X371093Y112329D01*
X371093Y116271D01*
X372601Y119912D01*
X375388Y122699D01*
X379029Y124207D01*
X382971Y124207D01*
X386612Y122699D01*
X389399Y119912D01*
X390907Y116271D01*
X390907Y112329D01*
X389399Y108688D01*
X386612Y105901D01*
X382971Y104393D01*
X379029Y104393D01*
G37*
%LPD*%
%LPC*%
G36*
X429829Y104393D02*
X429829Y104393D01*
X426188Y105901D01*
X423401Y108688D01*
X421893Y112329D01*
X421893Y116271D01*
X423401Y119912D01*
X426188Y122699D01*
X429829Y124207D01*
X433771Y124207D01*
X437412Y122699D01*
X440199Y119912D01*
X441707Y116271D01*
X441707Y112329D01*
X440199Y108688D01*
X437412Y105901D01*
X433771Y104393D01*
X429829Y104393D01*
G37*
%LPD*%
%LPC*%
G36*
X23575Y69565D02*
X23575Y69565D01*
X20203Y70962D01*
X17622Y73543D01*
X16225Y76915D01*
X16225Y80565D01*
X17622Y83937D01*
X20203Y86518D01*
X23575Y87915D01*
X27225Y87915D01*
X30597Y86518D01*
X33178Y83937D01*
X34575Y80565D01*
X34575Y76915D01*
X33178Y73543D01*
X30597Y70962D01*
X27225Y69565D01*
X23575Y69565D01*
G37*
%LPD*%
%LPC*%
G36*
X23575Y94965D02*
X23575Y94965D01*
X20203Y96362D01*
X17622Y98943D01*
X16225Y102315D01*
X16225Y105965D01*
X17622Y109337D01*
X20203Y111918D01*
X23575Y113315D01*
X27225Y113315D01*
X30597Y111918D01*
X33178Y109337D01*
X34575Y105965D01*
X34575Y102315D01*
X33178Y98943D01*
X30597Y96362D01*
X27225Y94965D01*
X23575Y94965D01*
G37*
%LPD*%
%LPC*%
G36*
X226781Y333755D02*
X226781Y333755D01*
X223420Y335147D01*
X220847Y337720D01*
X219455Y341081D01*
X219455Y344719D01*
X220847Y348080D01*
X223420Y350653D01*
X226781Y352045D01*
X230419Y352045D01*
X233780Y350653D01*
X236353Y348080D01*
X237745Y344719D01*
X237745Y341081D01*
X236353Y337720D01*
X233780Y335147D01*
X230419Y333755D01*
X226781Y333755D01*
G37*
%LPD*%
%LPC*%
G36*
X252181Y333755D02*
X252181Y333755D01*
X248820Y335147D01*
X246247Y337720D01*
X244855Y341081D01*
X244855Y344719D01*
X246247Y348080D01*
X248820Y350653D01*
X252181Y352045D01*
X255819Y352045D01*
X259180Y350653D01*
X261753Y348080D01*
X263145Y344719D01*
X263145Y341081D01*
X261753Y337720D01*
X259180Y335147D01*
X255819Y333755D01*
X252181Y333755D01*
G37*
%LPD*%
%LPC*%
G36*
X353781Y333755D02*
X353781Y333755D01*
X350420Y335147D01*
X347847Y337720D01*
X346455Y341081D01*
X346455Y344719D01*
X347847Y348080D01*
X350420Y350653D01*
X353781Y352045D01*
X357419Y352045D01*
X360780Y350653D01*
X363353Y348080D01*
X364745Y344719D01*
X364745Y341081D01*
X363353Y337720D01*
X360780Y335147D01*
X357419Y333755D01*
X353781Y333755D01*
G37*
%LPD*%
%LPC*%
G36*
X302981Y333755D02*
X302981Y333755D01*
X299620Y335147D01*
X297047Y337720D01*
X295655Y341081D01*
X295655Y344719D01*
X297047Y348080D01*
X299620Y350653D01*
X302981Y352045D01*
X306619Y352045D01*
X309980Y350653D01*
X312553Y348080D01*
X313945Y344719D01*
X313945Y341081D01*
X312553Y337720D01*
X309980Y335147D01*
X306619Y333755D01*
X302981Y333755D01*
G37*
%LPD*%
%LPC*%
G36*
X277581Y333755D02*
X277581Y333755D01*
X274220Y335147D01*
X271647Y337720D01*
X270255Y341081D01*
X270255Y344719D01*
X271647Y348080D01*
X274220Y350653D01*
X277581Y352045D01*
X281219Y352045D01*
X284580Y350653D01*
X287153Y348080D01*
X288545Y344719D01*
X288545Y341081D01*
X287153Y337720D01*
X284580Y335147D01*
X281219Y333755D01*
X277581Y333755D01*
G37*
%LPD*%
%LPC*%
G36*
X201381Y181355D02*
X201381Y181355D01*
X198020Y182747D01*
X195447Y185320D01*
X194055Y188681D01*
X194055Y192319D01*
X195447Y195680D01*
X198020Y198253D01*
X201381Y199645D01*
X205019Y199645D01*
X208380Y198253D01*
X210953Y195680D01*
X212345Y192319D01*
X212345Y188681D01*
X210953Y185320D01*
X208380Y182747D01*
X205019Y181355D01*
X201381Y181355D01*
G37*
%LPD*%
%LPC*%
G36*
X150581Y333755D02*
X150581Y333755D01*
X147220Y335147D01*
X144647Y337720D01*
X143255Y341081D01*
X143255Y344719D01*
X144647Y348080D01*
X147220Y350653D01*
X150581Y352045D01*
X154219Y352045D01*
X157580Y350653D01*
X160153Y348080D01*
X161545Y344719D01*
X161545Y341081D01*
X160153Y337720D01*
X157580Y335147D01*
X154219Y333755D01*
X150581Y333755D01*
G37*
%LPD*%
%LPC*%
G36*
X125181Y333755D02*
X125181Y333755D01*
X121820Y335147D01*
X119247Y337720D01*
X117855Y341081D01*
X117855Y344719D01*
X119247Y348080D01*
X121820Y350653D01*
X125181Y352045D01*
X128819Y352045D01*
X132180Y350653D01*
X134753Y348080D01*
X136145Y344719D01*
X136145Y341081D01*
X134753Y337720D01*
X132180Y335147D01*
X128819Y333755D01*
X125181Y333755D01*
G37*
%LPD*%
%LPC*%
G36*
X99781Y333755D02*
X99781Y333755D01*
X96420Y335147D01*
X93847Y337720D01*
X92455Y341081D01*
X92455Y344719D01*
X93847Y348080D01*
X96420Y350653D01*
X99781Y352045D01*
X103419Y352045D01*
X106780Y350653D01*
X109353Y348080D01*
X110745Y344719D01*
X110745Y341081D01*
X109353Y337720D01*
X106780Y335147D01*
X103419Y333755D01*
X99781Y333755D01*
G37*
%LPD*%
%LPC*%
G36*
X74381Y333755D02*
X74381Y333755D01*
X71020Y335147D01*
X68447Y337720D01*
X67055Y341081D01*
X67055Y344719D01*
X68447Y348080D01*
X71020Y350653D01*
X74381Y352045D01*
X78019Y352045D01*
X81380Y350653D01*
X83953Y348080D01*
X85345Y344719D01*
X85345Y341081D01*
X83953Y337720D01*
X81380Y335147D01*
X78019Y333755D01*
X74381Y333755D01*
G37*
%LPD*%
%LPC*%
G36*
X379181Y333755D02*
X379181Y333755D01*
X375820Y335147D01*
X373247Y337720D01*
X371855Y341081D01*
X371855Y344719D01*
X373247Y348080D01*
X375820Y350653D01*
X379181Y352045D01*
X382819Y352045D01*
X386180Y350653D01*
X388753Y348080D01*
X390145Y344719D01*
X390145Y341081D01*
X388753Y337720D01*
X386180Y335147D01*
X382819Y333755D01*
X379181Y333755D01*
G37*
%LPD*%
%LPC*%
G36*
X201381Y333755D02*
X201381Y333755D01*
X198020Y335147D01*
X195447Y337720D01*
X194055Y341081D01*
X194055Y344719D01*
X195447Y348080D01*
X198020Y350653D01*
X201381Y352045D01*
X205019Y352045D01*
X208380Y350653D01*
X210953Y348080D01*
X212345Y344719D01*
X212345Y341081D01*
X210953Y337720D01*
X208380Y335147D01*
X205019Y333755D01*
X201381Y333755D01*
G37*
%LPD*%
%LPC*%
G36*
X175981Y181355D02*
X175981Y181355D01*
X172620Y182747D01*
X170047Y185320D01*
X168655Y188681D01*
X168655Y192319D01*
X170047Y195680D01*
X172620Y198253D01*
X175981Y199645D01*
X179619Y199645D01*
X182980Y198253D01*
X185553Y195680D01*
X186945Y192319D01*
X186945Y188681D01*
X185553Y185320D01*
X182980Y182747D01*
X179619Y181355D01*
X175981Y181355D01*
G37*
%LPD*%
%LPC*%
G36*
X175981Y333755D02*
X175981Y333755D01*
X172620Y335147D01*
X170047Y337720D01*
X168655Y341081D01*
X168655Y344719D01*
X170047Y348080D01*
X172620Y350653D01*
X175981Y352045D01*
X179619Y352045D01*
X182980Y350653D01*
X185553Y348080D01*
X186945Y344719D01*
X186945Y341081D01*
X185553Y337720D01*
X182980Y335147D01*
X179619Y333755D01*
X175981Y333755D01*
G37*
%LPD*%
%LPC*%
G36*
X302981Y181355D02*
X302981Y181355D01*
X299620Y182747D01*
X297047Y185320D01*
X295655Y188681D01*
X295655Y192319D01*
X297047Y195680D01*
X299620Y198253D01*
X302981Y199645D01*
X306619Y199645D01*
X309980Y198253D01*
X312553Y195680D01*
X313945Y192319D01*
X313945Y188681D01*
X312553Y185320D01*
X309980Y182747D01*
X306619Y181355D01*
X302981Y181355D01*
G37*
%LPD*%
%LPC*%
G36*
X328381Y181355D02*
X328381Y181355D01*
X325020Y182747D01*
X322447Y185320D01*
X321055Y188681D01*
X321055Y192319D01*
X322447Y195680D01*
X325020Y198253D01*
X328381Y199645D01*
X332019Y199645D01*
X335380Y198253D01*
X337953Y195680D01*
X339345Y192319D01*
X339345Y188681D01*
X337953Y185320D01*
X335380Y182747D01*
X332019Y181355D01*
X328381Y181355D01*
G37*
%LPD*%
%LPC*%
G36*
X353781Y181355D02*
X353781Y181355D01*
X350420Y182747D01*
X347847Y185320D01*
X346455Y188681D01*
X346455Y192319D01*
X347847Y195680D01*
X350420Y198253D01*
X353781Y199645D01*
X357419Y199645D01*
X360780Y198253D01*
X363353Y195680D01*
X364745Y192319D01*
X364745Y188681D01*
X363353Y185320D01*
X360780Y182747D01*
X357419Y181355D01*
X353781Y181355D01*
G37*
%LPD*%
%LPC*%
G36*
X252181Y181355D02*
X252181Y181355D01*
X248820Y182747D01*
X246247Y185320D01*
X244855Y188681D01*
X244855Y192319D01*
X246247Y195680D01*
X248820Y198253D01*
X252181Y199645D01*
X255819Y199645D01*
X259180Y198253D01*
X261753Y195680D01*
X263145Y192319D01*
X263145Y188681D01*
X261753Y185320D01*
X259180Y182747D01*
X255819Y181355D01*
X252181Y181355D01*
G37*
%LPD*%
%LPC*%
G36*
X125181Y181355D02*
X125181Y181355D01*
X121820Y182747D01*
X119247Y185320D01*
X117855Y188681D01*
X117855Y192319D01*
X119247Y195680D01*
X121820Y198253D01*
X125181Y199645D01*
X128819Y199645D01*
X132180Y198253D01*
X134753Y195680D01*
X136145Y192319D01*
X136145Y188681D01*
X134753Y185320D01*
X132180Y182747D01*
X128819Y181355D01*
X125181Y181355D01*
G37*
%LPD*%
%LPC*%
G36*
X226781Y181355D02*
X226781Y181355D01*
X223420Y182747D01*
X220847Y185320D01*
X219455Y188681D01*
X219455Y192319D01*
X220847Y195680D01*
X223420Y198253D01*
X226781Y199645D01*
X230419Y199645D01*
X233780Y198253D01*
X236353Y195680D01*
X237745Y192319D01*
X237745Y188681D01*
X236353Y185320D01*
X233780Y182747D01*
X230419Y181355D01*
X226781Y181355D01*
G37*
%LPD*%
%LPC*%
G36*
X150581Y181355D02*
X150581Y181355D01*
X147220Y182747D01*
X144647Y185320D01*
X143255Y188681D01*
X143255Y192319D01*
X144647Y195680D01*
X147220Y198253D01*
X150581Y199645D01*
X154219Y199645D01*
X157580Y198253D01*
X160153Y195680D01*
X161545Y192319D01*
X161545Y188681D01*
X160153Y185320D01*
X157580Y182747D01*
X154219Y181355D01*
X150581Y181355D01*
G37*
%LPD*%
%LPC*%
G36*
X277581Y181355D02*
X277581Y181355D01*
X274220Y182747D01*
X271647Y185320D01*
X270255Y188681D01*
X270255Y192319D01*
X271647Y195680D01*
X274220Y198253D01*
X277581Y199645D01*
X281219Y199645D01*
X284580Y198253D01*
X287153Y195680D01*
X288545Y192319D01*
X288545Y188681D01*
X287153Y185320D01*
X284580Y182747D01*
X281219Y181355D01*
X277581Y181355D01*
G37*
%LPD*%
%LPC*%
G36*
X27939Y55879D02*
X27939Y55879D01*
X27939Y63531D01*
X33384Y63531D01*
X34031Y63358D01*
X34610Y63023D01*
X35083Y62550D01*
X35418Y61971D01*
X35591Y61324D01*
X35591Y55879D01*
X27939Y55879D01*
G37*
%LPD*%
%LPC*%
G36*
X15209Y55879D02*
X15209Y55879D01*
X15209Y61324D01*
X15382Y61971D01*
X15717Y62550D01*
X16190Y63023D01*
X16769Y63358D01*
X17416Y63531D01*
X22861Y63531D01*
X22861Y55879D01*
X15209Y55879D01*
G37*
%LPD*%
%LPC*%
G36*
X27939Y132079D02*
X27939Y132079D01*
X27939Y139430D01*
X29312Y138984D01*
X30741Y138256D01*
X32039Y137313D01*
X33173Y136179D01*
X34116Y134881D01*
X34844Y133452D01*
X35290Y132079D01*
X27939Y132079D01*
G37*
%LPD*%
%LPC*%
G36*
X15510Y132079D02*
X15510Y132079D01*
X15956Y133452D01*
X16684Y134881D01*
X17627Y136179D01*
X18761Y137313D01*
X20059Y138256D01*
X21488Y138984D01*
X22861Y139430D01*
X22861Y132079D01*
X15510Y132079D01*
G37*
%LPD*%
%LPC*%
G36*
X383539Y193039D02*
X383539Y193039D01*
X383539Y200359D01*
X384900Y199916D01*
X386325Y199190D01*
X387619Y198250D01*
X388750Y197119D01*
X389690Y195825D01*
X390416Y194400D01*
X390859Y193039D01*
X383539Y193039D01*
G37*
%LPD*%
%LPC*%
G36*
X78739Y193039D02*
X78739Y193039D01*
X78739Y200359D01*
X80100Y199916D01*
X81525Y199190D01*
X82819Y198250D01*
X83950Y197119D01*
X84890Y195825D01*
X85616Y194400D01*
X86059Y193039D01*
X78739Y193039D01*
G37*
%LPD*%
%LPC*%
G36*
X332739Y345439D02*
X332739Y345439D01*
X332739Y352759D01*
X334100Y352316D01*
X335525Y351590D01*
X336819Y350650D01*
X337950Y349519D01*
X338890Y348225D01*
X339616Y346800D01*
X340059Y345439D01*
X332739Y345439D01*
G37*
%LPD*%
%LPC*%
G36*
X383539Y187961D02*
X383539Y187961D01*
X390859Y187961D01*
X390416Y186600D01*
X389690Y185175D01*
X388750Y183881D01*
X387619Y182750D01*
X386325Y181810D01*
X384900Y181084D01*
X383539Y180641D01*
X383539Y187961D01*
G37*
%LPD*%
%LPC*%
G36*
X371141Y193039D02*
X371141Y193039D01*
X371584Y194400D01*
X372310Y195825D01*
X373250Y197119D01*
X374381Y198250D01*
X375675Y199190D01*
X377100Y199916D01*
X378461Y200359D01*
X378461Y193039D01*
X371141Y193039D01*
G37*
%LPD*%
%LPC*%
G36*
X332739Y340361D02*
X332739Y340361D01*
X340059Y340361D01*
X339616Y339000D01*
X338890Y337575D01*
X337950Y336281D01*
X336819Y335150D01*
X335525Y334210D01*
X334100Y333484D01*
X332739Y333041D01*
X332739Y340361D01*
G37*
%LPD*%
%LPC*%
G36*
X320341Y345439D02*
X320341Y345439D01*
X320784Y346800D01*
X321510Y348225D01*
X322450Y349519D01*
X323581Y350650D01*
X324875Y351590D01*
X326300Y352316D01*
X327661Y352759D01*
X327661Y345439D01*
X320341Y345439D01*
G37*
%LPD*%
%LPC*%
G36*
X78739Y187961D02*
X78739Y187961D01*
X86059Y187961D01*
X85616Y186600D01*
X84890Y185175D01*
X83950Y183881D01*
X82819Y182750D01*
X81525Y181810D01*
X80100Y181084D01*
X78739Y180641D01*
X78739Y187961D01*
G37*
%LPD*%
%LPC*%
G36*
X326300Y333484D02*
X326300Y333484D01*
X324875Y334210D01*
X323581Y335150D01*
X322450Y336281D01*
X321510Y337575D01*
X320784Y339000D01*
X320341Y340361D01*
X327661Y340361D01*
X327661Y333041D01*
X326300Y333484D01*
G37*
%LPD*%
%LPC*%
G36*
X377100Y181084D02*
X377100Y181084D01*
X375675Y181810D01*
X374381Y182750D01*
X373250Y183881D01*
X372310Y185175D01*
X371584Y186600D01*
X371141Y187961D01*
X378461Y187961D01*
X378461Y180641D01*
X377100Y181084D01*
G37*
%LPD*%
%LPC*%
G36*
X380999Y190499D02*
X380999Y190499D01*
X380999Y190501D01*
X381001Y190501D01*
X381001Y190499D01*
X380999Y190499D01*
G37*
%LPD*%
%LPC*%
G36*
X330199Y342899D02*
X330199Y342899D01*
X330199Y342901D01*
X330201Y342901D01*
X330201Y342899D01*
X330199Y342899D01*
G37*
%LPD*%
D10*
X25400Y53340D03*
D11*
X25400Y78740D03*
X25400Y104140D03*
X25400Y129540D03*
D12*
X381000Y50800D03*
X406000Y50800D03*
X431800Y50800D03*
D13*
X406400Y114300D03*
X431800Y114300D03*
X381000Y114300D03*
D14*
X50800Y190500D03*
D15*
X76200Y190500D03*
X101600Y190500D03*
X127000Y190500D03*
X152400Y190500D03*
X177800Y190500D03*
X203200Y190500D03*
X228600Y190500D03*
X254000Y190500D03*
X279400Y190500D03*
X304800Y190500D03*
X330200Y190500D03*
X355600Y190500D03*
X381000Y190500D03*
X406400Y190500D03*
X406400Y342900D03*
X381000Y342900D03*
X355600Y342900D03*
X330200Y342900D03*
X304800Y342900D03*
X279400Y342900D03*
X254000Y342900D03*
X228600Y342900D03*
X203200Y342900D03*
X177800Y342900D03*
X152400Y342900D03*
X127000Y342900D03*
X101600Y342900D03*
X76200Y342900D03*
X50800Y342900D03*
D16*
X190500Y30480D03*
X152400Y30480D03*
D17*
X58420Y114300D03*
X190500Y55880D03*
D18*
X68580Y55880D01*
X58420Y66040D02*
X58420Y114300D01*
X58420Y66040D02*
X68580Y55880D01*
D17*
X335280Y160020D03*
X218440Y53340D03*
X127000Y43180D03*
X104140Y43180D03*
X53340Y60960D03*
X190500Y68580D03*
D19*
X203200Y68580D01*
X218440Y53340D01*
D17*
X81280Y73660D03*
X88900Y81280D03*
X210820Y71120D03*
X220980Y71120D03*
M02*
