G04 EAGLE Gerber RS-274X export*
G75*
%MOMM*%
%FSLAX34Y34*%
%LPD*%
%INSilkscreen Bottom*%
%IPPOS*%
%AMOC8*
5,1,8,0,0,1.08239X$1,22.5*%
G01*
%ADD10C,0.152400*%


D10*
X368667Y288854D02*
X368669Y288736D01*
X368675Y288618D01*
X368684Y288500D01*
X368698Y288383D01*
X368715Y288266D01*
X368736Y288149D01*
X368761Y288034D01*
X368790Y287919D01*
X368823Y287805D01*
X368859Y287693D01*
X368899Y287582D01*
X368942Y287472D01*
X368989Y287363D01*
X369039Y287256D01*
X369094Y287151D01*
X369151Y287048D01*
X369212Y286947D01*
X369276Y286847D01*
X369343Y286750D01*
X369413Y286655D01*
X369487Y286563D01*
X369563Y286472D01*
X369643Y286385D01*
X369725Y286300D01*
X369810Y286218D01*
X369897Y286138D01*
X369988Y286062D01*
X370080Y285988D01*
X370175Y285918D01*
X370272Y285851D01*
X370372Y285787D01*
X370473Y285726D01*
X370576Y285669D01*
X370681Y285614D01*
X370788Y285564D01*
X370897Y285517D01*
X371007Y285474D01*
X371118Y285434D01*
X371230Y285398D01*
X371344Y285365D01*
X371459Y285336D01*
X371574Y285311D01*
X371691Y285290D01*
X371808Y285273D01*
X371925Y285259D01*
X372043Y285250D01*
X372161Y285244D01*
X372279Y285242D01*
X372462Y285244D01*
X372644Y285251D01*
X372826Y285262D01*
X373008Y285277D01*
X373190Y285297D01*
X373371Y285321D01*
X373551Y285349D01*
X373731Y285381D01*
X373910Y285418D01*
X374087Y285459D01*
X374264Y285505D01*
X374440Y285554D01*
X374615Y285608D01*
X374788Y285666D01*
X374959Y285728D01*
X375130Y285794D01*
X375298Y285865D01*
X375465Y285939D01*
X375630Y286017D01*
X375793Y286099D01*
X375954Y286185D01*
X376113Y286275D01*
X376270Y286369D01*
X376424Y286466D01*
X376576Y286567D01*
X376726Y286672D01*
X376873Y286780D01*
X377017Y286891D01*
X377159Y287006D01*
X377298Y287125D01*
X377434Y287247D01*
X377567Y287372D01*
X377697Y287500D01*
X377246Y297886D02*
X377244Y298004D01*
X377238Y298122D01*
X377229Y298240D01*
X377215Y298357D01*
X377198Y298474D01*
X377177Y298591D01*
X377152Y298706D01*
X377123Y298821D01*
X377090Y298935D01*
X377054Y299047D01*
X377014Y299158D01*
X376971Y299268D01*
X376924Y299377D01*
X376874Y299484D01*
X376819Y299589D01*
X376762Y299692D01*
X376701Y299793D01*
X376637Y299893D01*
X376570Y299990D01*
X376500Y300085D01*
X376426Y300177D01*
X376350Y300268D01*
X376270Y300355D01*
X376188Y300440D01*
X376103Y300522D01*
X376016Y300602D01*
X375925Y300678D01*
X375833Y300752D01*
X375738Y300822D01*
X375641Y300889D01*
X375541Y300953D01*
X375440Y301014D01*
X375337Y301071D01*
X375232Y301126D01*
X375125Y301176D01*
X375016Y301223D01*
X374906Y301266D01*
X374795Y301306D01*
X374683Y301342D01*
X374569Y301375D01*
X374454Y301404D01*
X374339Y301429D01*
X374222Y301450D01*
X374105Y301467D01*
X373988Y301481D01*
X373870Y301490D01*
X373752Y301496D01*
X373634Y301498D01*
X373473Y301496D01*
X373311Y301490D01*
X373150Y301481D01*
X372989Y301467D01*
X372829Y301450D01*
X372669Y301429D01*
X372509Y301404D01*
X372350Y301375D01*
X372192Y301343D01*
X372035Y301307D01*
X371879Y301267D01*
X371723Y301223D01*
X371569Y301175D01*
X371416Y301124D01*
X371264Y301070D01*
X371113Y301011D01*
X370964Y300950D01*
X370817Y300884D01*
X370671Y300815D01*
X370526Y300743D01*
X370384Y300667D01*
X370243Y300588D01*
X370104Y300506D01*
X369968Y300420D01*
X369833Y300331D01*
X369700Y300239D01*
X369570Y300143D01*
X375441Y294725D02*
X375542Y294787D01*
X375642Y294852D01*
X375739Y294921D01*
X375834Y294993D01*
X375927Y295067D01*
X376017Y295145D01*
X376105Y295226D01*
X376190Y295309D01*
X376272Y295395D01*
X376351Y295484D01*
X376428Y295575D01*
X376501Y295669D01*
X376572Y295765D01*
X376639Y295863D01*
X376703Y295963D01*
X376764Y296066D01*
X376821Y296170D01*
X376875Y296276D01*
X376925Y296384D01*
X376972Y296493D01*
X377016Y296604D01*
X377056Y296716D01*
X377092Y296830D01*
X377124Y296944D01*
X377153Y297060D01*
X377178Y297176D01*
X377199Y297293D01*
X377216Y297411D01*
X377230Y297529D01*
X377239Y297648D01*
X377245Y297767D01*
X377247Y297886D01*
X370473Y292015D02*
X370372Y291953D01*
X370272Y291888D01*
X370175Y291819D01*
X370080Y291747D01*
X369987Y291673D01*
X369897Y291595D01*
X369809Y291514D01*
X369724Y291431D01*
X369642Y291345D01*
X369563Y291256D01*
X369486Y291165D01*
X369413Y291071D01*
X369342Y290975D01*
X369275Y290877D01*
X369211Y290777D01*
X369150Y290674D01*
X369093Y290570D01*
X369039Y290464D01*
X368989Y290356D01*
X368942Y290247D01*
X368898Y290136D01*
X368858Y290024D01*
X368822Y289910D01*
X368790Y289796D01*
X368761Y289680D01*
X368736Y289564D01*
X368715Y289447D01*
X368698Y289329D01*
X368684Y289211D01*
X368675Y289092D01*
X368669Y288973D01*
X368667Y288854D01*
X370473Y292015D02*
X375440Y294725D01*
X359639Y291564D02*
X355575Y291564D01*
X359639Y291564D02*
X359751Y291562D01*
X359862Y291556D01*
X359973Y291546D01*
X360084Y291533D01*
X360194Y291515D01*
X360303Y291493D01*
X360412Y291468D01*
X360520Y291439D01*
X360626Y291406D01*
X360732Y291369D01*
X360836Y291329D01*
X360938Y291285D01*
X361039Y291237D01*
X361138Y291186D01*
X361236Y291131D01*
X361331Y291073D01*
X361424Y291012D01*
X361515Y290947D01*
X361604Y290879D01*
X361690Y290808D01*
X361773Y290735D01*
X361854Y290658D01*
X361933Y290578D01*
X362008Y290496D01*
X362080Y290411D01*
X362150Y290324D01*
X362216Y290234D01*
X362279Y290142D01*
X362339Y290047D01*
X362395Y289951D01*
X362448Y289853D01*
X362497Y289753D01*
X362543Y289651D01*
X362585Y289548D01*
X362624Y289443D01*
X362659Y289337D01*
X362690Y289230D01*
X362717Y289122D01*
X362741Y289013D01*
X362760Y288903D01*
X362776Y288793D01*
X362788Y288682D01*
X362796Y288570D01*
X362800Y288459D01*
X362800Y288347D01*
X362796Y288236D01*
X362788Y288124D01*
X362776Y288013D01*
X362760Y287903D01*
X362741Y287793D01*
X362717Y287684D01*
X362690Y287576D01*
X362659Y287469D01*
X362624Y287363D01*
X362585Y287258D01*
X362543Y287155D01*
X362497Y287053D01*
X362448Y286953D01*
X362395Y286855D01*
X362339Y286759D01*
X362279Y286664D01*
X362216Y286572D01*
X362150Y286482D01*
X362080Y286395D01*
X362008Y286310D01*
X361933Y286228D01*
X361854Y286148D01*
X361773Y286071D01*
X361690Y285998D01*
X361604Y285927D01*
X361515Y285859D01*
X361424Y285794D01*
X361331Y285733D01*
X361236Y285675D01*
X361138Y285620D01*
X361039Y285569D01*
X360938Y285521D01*
X360836Y285477D01*
X360732Y285437D01*
X360626Y285400D01*
X360520Y285367D01*
X360412Y285338D01*
X360303Y285313D01*
X360194Y285291D01*
X360084Y285273D01*
X359973Y285260D01*
X359862Y285250D01*
X359751Y285244D01*
X359639Y285242D01*
X355575Y285242D01*
X355575Y293370D01*
X355576Y293370D02*
X355578Y293471D01*
X355584Y293572D01*
X355593Y293673D01*
X355606Y293774D01*
X355623Y293874D01*
X355644Y293973D01*
X355668Y294071D01*
X355696Y294168D01*
X355728Y294265D01*
X355763Y294360D01*
X355802Y294453D01*
X355844Y294545D01*
X355890Y294636D01*
X355939Y294725D01*
X355991Y294811D01*
X356047Y294896D01*
X356105Y294979D01*
X356167Y295059D01*
X356232Y295137D01*
X356299Y295213D01*
X356369Y295286D01*
X356442Y295356D01*
X356518Y295423D01*
X356596Y295488D01*
X356676Y295550D01*
X356759Y295608D01*
X356844Y295664D01*
X356931Y295716D01*
X357019Y295765D01*
X357110Y295811D01*
X357202Y295853D01*
X357295Y295892D01*
X357390Y295927D01*
X357487Y295959D01*
X357584Y295987D01*
X357682Y296011D01*
X357781Y296032D01*
X357881Y296049D01*
X357982Y296062D01*
X358083Y296071D01*
X358184Y296077D01*
X358285Y296079D01*
X361897Y296079D01*
X347860Y296079D02*
X347860Y285242D01*
X347860Y296079D02*
X339732Y296079D01*
X339631Y296077D01*
X339530Y296071D01*
X339429Y296062D01*
X339328Y296049D01*
X339228Y296032D01*
X339129Y296011D01*
X339031Y295987D01*
X338934Y295959D01*
X338837Y295927D01*
X338742Y295892D01*
X338649Y295853D01*
X338557Y295811D01*
X338466Y295765D01*
X338378Y295716D01*
X338291Y295664D01*
X338206Y295608D01*
X338123Y295550D01*
X338043Y295488D01*
X337965Y295423D01*
X337889Y295356D01*
X337816Y295286D01*
X337746Y295213D01*
X337679Y295137D01*
X337614Y295059D01*
X337552Y294979D01*
X337494Y294896D01*
X337438Y294811D01*
X337386Y294725D01*
X337337Y294636D01*
X337291Y294545D01*
X337249Y294453D01*
X337210Y294360D01*
X337175Y294265D01*
X337143Y294168D01*
X337115Y294071D01*
X337091Y293973D01*
X337070Y293874D01*
X337053Y293774D01*
X337040Y293673D01*
X337031Y293572D01*
X337025Y293471D01*
X337023Y293370D01*
X337022Y293370D02*
X337022Y285242D01*
X342441Y285242D02*
X342441Y296079D01*
X330978Y301498D02*
X330978Y305110D01*
X324378Y291564D02*
X319863Y289758D01*
X324379Y291564D02*
X324467Y291601D01*
X324553Y291642D01*
X324638Y291686D01*
X324721Y291734D01*
X324801Y291785D01*
X324880Y291839D01*
X324956Y291897D01*
X325030Y291957D01*
X325102Y292021D01*
X325170Y292087D01*
X325236Y292157D01*
X325299Y292228D01*
X325360Y292303D01*
X325417Y292379D01*
X325470Y292458D01*
X325521Y292539D01*
X325568Y292622D01*
X325612Y292707D01*
X325652Y292794D01*
X325689Y292882D01*
X325722Y292972D01*
X325752Y293063D01*
X325777Y293155D01*
X325799Y293248D01*
X325817Y293342D01*
X325832Y293436D01*
X325842Y293531D01*
X325848Y293627D01*
X325851Y293722D01*
X325850Y293818D01*
X325844Y293913D01*
X325835Y294009D01*
X325822Y294103D01*
X325806Y294197D01*
X325785Y294291D01*
X325760Y294383D01*
X325732Y294474D01*
X325700Y294564D01*
X325665Y294653D01*
X325626Y294740D01*
X325583Y294826D01*
X325537Y294910D01*
X325487Y294991D01*
X325435Y295071D01*
X325379Y295149D01*
X325319Y295224D01*
X325257Y295296D01*
X325192Y295366D01*
X325124Y295434D01*
X325054Y295498D01*
X324981Y295560D01*
X324905Y295618D01*
X324827Y295674D01*
X324747Y295726D01*
X324665Y295775D01*
X324581Y295820D01*
X324495Y295862D01*
X324408Y295901D01*
X324319Y295936D01*
X324228Y295967D01*
X324137Y295994D01*
X324044Y296018D01*
X323951Y296038D01*
X323857Y296054D01*
X323762Y296066D01*
X323667Y296075D01*
X323571Y296079D01*
X323476Y296080D01*
X323229Y296073D01*
X322983Y296061D01*
X322737Y296043D01*
X322491Y296018D01*
X322247Y295988D01*
X322003Y295952D01*
X321760Y295911D01*
X321518Y295863D01*
X321277Y295809D01*
X321038Y295750D01*
X320800Y295685D01*
X320564Y295614D01*
X320329Y295538D01*
X320096Y295456D01*
X319866Y295368D01*
X319638Y295275D01*
X319411Y295177D01*
X319862Y289757D02*
X319774Y289720D01*
X319688Y289679D01*
X319603Y289635D01*
X319520Y289587D01*
X319440Y289536D01*
X319361Y289482D01*
X319285Y289424D01*
X319211Y289364D01*
X319139Y289300D01*
X319071Y289234D01*
X319005Y289164D01*
X318942Y289093D01*
X318881Y289018D01*
X318824Y288942D01*
X318771Y288863D01*
X318720Y288782D01*
X318673Y288699D01*
X318629Y288614D01*
X318589Y288527D01*
X318552Y288439D01*
X318519Y288349D01*
X318489Y288258D01*
X318464Y288166D01*
X318442Y288073D01*
X318424Y287979D01*
X318409Y287885D01*
X318399Y287790D01*
X318393Y287694D01*
X318390Y287599D01*
X318391Y287503D01*
X318397Y287408D01*
X318406Y287312D01*
X318419Y287218D01*
X318435Y287124D01*
X318456Y287030D01*
X318481Y286938D01*
X318509Y286847D01*
X318541Y286757D01*
X318576Y286668D01*
X318615Y286581D01*
X318658Y286495D01*
X318704Y286411D01*
X318754Y286330D01*
X318806Y286250D01*
X318862Y286172D01*
X318922Y286097D01*
X318984Y286025D01*
X319049Y285955D01*
X319117Y285887D01*
X319187Y285823D01*
X319260Y285761D01*
X319336Y285703D01*
X319414Y285647D01*
X319494Y285595D01*
X319576Y285546D01*
X319660Y285501D01*
X319746Y285459D01*
X319833Y285420D01*
X319922Y285385D01*
X320013Y285354D01*
X320104Y285327D01*
X320197Y285303D01*
X320290Y285283D01*
X320384Y285267D01*
X320479Y285255D01*
X320574Y285246D01*
X320670Y285242D01*
X320765Y285241D01*
X320766Y285242D02*
X321128Y285251D01*
X321490Y285269D01*
X321851Y285296D01*
X322211Y285331D01*
X322571Y285374D01*
X322930Y285426D01*
X323287Y285487D01*
X323642Y285556D01*
X323996Y285633D01*
X324348Y285719D01*
X324698Y285813D01*
X325046Y285916D01*
X325391Y286026D01*
X325733Y286145D01*
X303098Y285242D02*
X303098Y301498D01*
X298582Y301498D01*
X298449Y301496D01*
X298317Y301490D01*
X298185Y301480D01*
X298053Y301467D01*
X297921Y301449D01*
X297791Y301428D01*
X297660Y301403D01*
X297531Y301374D01*
X297403Y301341D01*
X297275Y301305D01*
X297149Y301265D01*
X297024Y301221D01*
X296900Y301173D01*
X296778Y301122D01*
X296657Y301067D01*
X296538Y301009D01*
X296420Y300947D01*
X296305Y300882D01*
X296191Y300813D01*
X296080Y300742D01*
X295971Y300666D01*
X295864Y300588D01*
X295759Y300507D01*
X295657Y300422D01*
X295557Y300335D01*
X295460Y300245D01*
X295365Y300152D01*
X295274Y300056D01*
X295185Y299958D01*
X295099Y299857D01*
X295016Y299753D01*
X294936Y299647D01*
X294860Y299539D01*
X294786Y299429D01*
X294716Y299316D01*
X294649Y299202D01*
X294586Y299085D01*
X294526Y298967D01*
X294469Y298847D01*
X294416Y298725D01*
X294367Y298602D01*
X294321Y298478D01*
X294279Y298352D01*
X294241Y298225D01*
X294206Y298097D01*
X294175Y297968D01*
X294148Y297839D01*
X294125Y297708D01*
X294105Y297577D01*
X294090Y297445D01*
X294078Y297313D01*
X294070Y297181D01*
X294066Y297048D01*
X294066Y296916D01*
X294070Y296783D01*
X294078Y296651D01*
X294090Y296519D01*
X294105Y296387D01*
X294125Y296256D01*
X294148Y296125D01*
X294175Y295996D01*
X294206Y295867D01*
X294241Y295739D01*
X294279Y295612D01*
X294321Y295486D01*
X294367Y295362D01*
X294416Y295239D01*
X294469Y295117D01*
X294526Y294997D01*
X294586Y294879D01*
X294649Y294762D01*
X294716Y294648D01*
X294786Y294535D01*
X294860Y294425D01*
X294936Y294317D01*
X295016Y294211D01*
X295099Y294107D01*
X295185Y294006D01*
X295274Y293908D01*
X295365Y293812D01*
X295460Y293719D01*
X295557Y293629D01*
X295657Y293542D01*
X295759Y293457D01*
X295864Y293376D01*
X295971Y293298D01*
X296080Y293222D01*
X296191Y293151D01*
X296305Y293082D01*
X296420Y293017D01*
X296538Y292955D01*
X296657Y292897D01*
X296778Y292842D01*
X296900Y292791D01*
X297024Y292743D01*
X297149Y292699D01*
X297275Y292659D01*
X297403Y292623D01*
X297531Y292590D01*
X297660Y292561D01*
X297791Y292536D01*
X297921Y292515D01*
X298053Y292497D01*
X298185Y292484D01*
X298317Y292474D01*
X298449Y292468D01*
X298582Y292466D01*
X298582Y292467D02*
X303098Y292467D01*
X297679Y292467D02*
X294067Y285242D01*
X287697Y288854D02*
X287697Y292467D01*
X287696Y292467D02*
X287694Y292586D01*
X287688Y292706D01*
X287678Y292825D01*
X287664Y292943D01*
X287647Y293062D01*
X287625Y293179D01*
X287600Y293296D01*
X287570Y293411D01*
X287537Y293526D01*
X287500Y293640D01*
X287460Y293752D01*
X287415Y293863D01*
X287367Y293972D01*
X287316Y294080D01*
X287261Y294186D01*
X287202Y294290D01*
X287140Y294392D01*
X287075Y294492D01*
X287006Y294590D01*
X286934Y294686D01*
X286859Y294779D01*
X286782Y294869D01*
X286701Y294957D01*
X286617Y295042D01*
X286530Y295124D01*
X286441Y295204D01*
X286349Y295280D01*
X286255Y295354D01*
X286158Y295424D01*
X286060Y295491D01*
X285959Y295555D01*
X285855Y295615D01*
X285750Y295672D01*
X285643Y295725D01*
X285535Y295775D01*
X285425Y295821D01*
X285313Y295863D01*
X285200Y295902D01*
X285086Y295937D01*
X284971Y295968D01*
X284854Y295996D01*
X284737Y296019D01*
X284620Y296039D01*
X284501Y296055D01*
X284382Y296067D01*
X284263Y296075D01*
X284144Y296079D01*
X284024Y296079D01*
X283905Y296075D01*
X283786Y296067D01*
X283667Y296055D01*
X283548Y296039D01*
X283431Y296019D01*
X283314Y295996D01*
X283197Y295968D01*
X283082Y295937D01*
X282968Y295902D01*
X282855Y295863D01*
X282743Y295821D01*
X282633Y295775D01*
X282525Y295725D01*
X282418Y295672D01*
X282313Y295615D01*
X282209Y295555D01*
X282108Y295491D01*
X282010Y295424D01*
X281913Y295354D01*
X281819Y295280D01*
X281727Y295204D01*
X281638Y295124D01*
X281551Y295042D01*
X281467Y294957D01*
X281386Y294869D01*
X281309Y294779D01*
X281234Y294686D01*
X281162Y294590D01*
X281093Y294492D01*
X281028Y294392D01*
X280966Y294290D01*
X280907Y294186D01*
X280852Y294080D01*
X280801Y293972D01*
X280753Y293863D01*
X280708Y293752D01*
X280668Y293640D01*
X280631Y293526D01*
X280598Y293411D01*
X280568Y293296D01*
X280543Y293179D01*
X280521Y293062D01*
X280504Y292943D01*
X280490Y292825D01*
X280480Y292706D01*
X280474Y292586D01*
X280472Y292467D01*
X280472Y288854D01*
X280474Y288735D01*
X280480Y288615D01*
X280490Y288496D01*
X280504Y288378D01*
X280521Y288259D01*
X280543Y288142D01*
X280568Y288025D01*
X280598Y287910D01*
X280631Y287795D01*
X280668Y287681D01*
X280708Y287569D01*
X280753Y287458D01*
X280801Y287349D01*
X280852Y287241D01*
X280907Y287135D01*
X280966Y287031D01*
X281028Y286929D01*
X281093Y286829D01*
X281162Y286731D01*
X281234Y286635D01*
X281309Y286542D01*
X281386Y286452D01*
X281467Y286364D01*
X281551Y286279D01*
X281638Y286197D01*
X281727Y286117D01*
X281819Y286041D01*
X281913Y285967D01*
X282010Y285897D01*
X282108Y285830D01*
X282209Y285766D01*
X282313Y285706D01*
X282418Y285649D01*
X282525Y285596D01*
X282633Y285546D01*
X282743Y285500D01*
X282855Y285458D01*
X282968Y285419D01*
X283082Y285384D01*
X283197Y285353D01*
X283314Y285325D01*
X283431Y285302D01*
X283548Y285282D01*
X283667Y285266D01*
X283786Y285254D01*
X283905Y285246D01*
X284024Y285242D01*
X284144Y285242D01*
X284263Y285246D01*
X284382Y285254D01*
X284501Y285266D01*
X284620Y285282D01*
X284737Y285302D01*
X284854Y285325D01*
X284971Y285353D01*
X285086Y285384D01*
X285200Y285419D01*
X285313Y285458D01*
X285425Y285500D01*
X285535Y285546D01*
X285643Y285596D01*
X285750Y285649D01*
X285855Y285706D01*
X285959Y285766D01*
X286060Y285830D01*
X286158Y285897D01*
X286255Y285967D01*
X286349Y286041D01*
X286441Y286117D01*
X286530Y286197D01*
X286617Y286279D01*
X286701Y286364D01*
X286782Y286452D01*
X286859Y286542D01*
X286934Y286635D01*
X287006Y286731D01*
X287075Y286829D01*
X287140Y286929D01*
X287202Y287031D01*
X287261Y287135D01*
X287316Y287241D01*
X287367Y287349D01*
X287415Y287458D01*
X287460Y287569D01*
X287500Y287681D01*
X287537Y287795D01*
X287570Y287910D01*
X287600Y288025D01*
X287625Y288142D01*
X287647Y288259D01*
X287664Y288378D01*
X287678Y288496D01*
X287688Y288615D01*
X287694Y288735D01*
X287696Y288854D01*
X271062Y291564D02*
X266998Y291564D01*
X271062Y291564D02*
X271174Y291562D01*
X271285Y291556D01*
X271396Y291546D01*
X271507Y291533D01*
X271617Y291515D01*
X271726Y291493D01*
X271835Y291468D01*
X271943Y291439D01*
X272049Y291406D01*
X272155Y291369D01*
X272259Y291329D01*
X272361Y291285D01*
X272462Y291237D01*
X272561Y291186D01*
X272659Y291131D01*
X272754Y291073D01*
X272847Y291012D01*
X272938Y290947D01*
X273027Y290879D01*
X273113Y290808D01*
X273196Y290735D01*
X273277Y290658D01*
X273356Y290578D01*
X273431Y290496D01*
X273503Y290411D01*
X273573Y290324D01*
X273639Y290234D01*
X273702Y290142D01*
X273762Y290047D01*
X273818Y289951D01*
X273871Y289853D01*
X273920Y289753D01*
X273966Y289651D01*
X274008Y289548D01*
X274047Y289443D01*
X274082Y289337D01*
X274113Y289230D01*
X274140Y289122D01*
X274164Y289013D01*
X274183Y288903D01*
X274199Y288793D01*
X274211Y288682D01*
X274219Y288570D01*
X274223Y288459D01*
X274223Y288347D01*
X274219Y288236D01*
X274211Y288124D01*
X274199Y288013D01*
X274183Y287903D01*
X274164Y287793D01*
X274140Y287684D01*
X274113Y287576D01*
X274082Y287469D01*
X274047Y287363D01*
X274008Y287258D01*
X273966Y287155D01*
X273920Y287053D01*
X273871Y286953D01*
X273818Y286855D01*
X273762Y286759D01*
X273702Y286664D01*
X273639Y286572D01*
X273573Y286482D01*
X273503Y286395D01*
X273431Y286310D01*
X273356Y286228D01*
X273277Y286148D01*
X273196Y286071D01*
X273113Y285998D01*
X273027Y285927D01*
X272938Y285859D01*
X272847Y285794D01*
X272754Y285733D01*
X272659Y285675D01*
X272561Y285620D01*
X272462Y285569D01*
X272361Y285521D01*
X272259Y285477D01*
X272155Y285437D01*
X272049Y285400D01*
X271943Y285367D01*
X271835Y285338D01*
X271726Y285313D01*
X271617Y285291D01*
X271507Y285273D01*
X271396Y285260D01*
X271285Y285250D01*
X271174Y285244D01*
X271062Y285242D01*
X266998Y285242D01*
X266998Y293370D01*
X266999Y293370D02*
X267001Y293471D01*
X267007Y293572D01*
X267016Y293673D01*
X267029Y293774D01*
X267046Y293874D01*
X267067Y293973D01*
X267091Y294071D01*
X267119Y294168D01*
X267151Y294265D01*
X267186Y294360D01*
X267225Y294453D01*
X267267Y294545D01*
X267313Y294636D01*
X267362Y294725D01*
X267414Y294811D01*
X267470Y294896D01*
X267528Y294979D01*
X267590Y295059D01*
X267655Y295137D01*
X267722Y295213D01*
X267792Y295286D01*
X267865Y295356D01*
X267941Y295423D01*
X268019Y295488D01*
X268099Y295550D01*
X268182Y295608D01*
X268267Y295664D01*
X268354Y295716D01*
X268442Y295765D01*
X268533Y295811D01*
X268625Y295853D01*
X268718Y295892D01*
X268813Y295927D01*
X268910Y295959D01*
X269007Y295987D01*
X269105Y296011D01*
X269204Y296032D01*
X269304Y296049D01*
X269405Y296062D01*
X269506Y296071D01*
X269607Y296077D01*
X269708Y296079D01*
X273320Y296079D01*
X258727Y291564D02*
X254212Y289758D01*
X258727Y291564D02*
X258815Y291601D01*
X258901Y291642D01*
X258986Y291686D01*
X259069Y291734D01*
X259149Y291785D01*
X259228Y291839D01*
X259304Y291897D01*
X259378Y291957D01*
X259450Y292021D01*
X259518Y292087D01*
X259584Y292157D01*
X259647Y292228D01*
X259708Y292303D01*
X259765Y292379D01*
X259818Y292458D01*
X259869Y292539D01*
X259916Y292622D01*
X259960Y292707D01*
X260000Y292794D01*
X260037Y292882D01*
X260070Y292972D01*
X260100Y293063D01*
X260125Y293155D01*
X260147Y293248D01*
X260165Y293342D01*
X260180Y293436D01*
X260190Y293531D01*
X260196Y293627D01*
X260199Y293722D01*
X260198Y293818D01*
X260192Y293913D01*
X260183Y294009D01*
X260170Y294103D01*
X260154Y294197D01*
X260133Y294291D01*
X260108Y294383D01*
X260080Y294474D01*
X260048Y294564D01*
X260013Y294653D01*
X259974Y294740D01*
X259931Y294826D01*
X259885Y294910D01*
X259835Y294991D01*
X259783Y295071D01*
X259727Y295149D01*
X259667Y295224D01*
X259605Y295296D01*
X259540Y295366D01*
X259472Y295434D01*
X259402Y295498D01*
X259329Y295560D01*
X259253Y295618D01*
X259175Y295674D01*
X259095Y295726D01*
X259013Y295775D01*
X258929Y295820D01*
X258843Y295862D01*
X258756Y295901D01*
X258667Y295936D01*
X258576Y295967D01*
X258485Y295994D01*
X258392Y296018D01*
X258299Y296038D01*
X258205Y296054D01*
X258110Y296066D01*
X258015Y296075D01*
X257919Y296079D01*
X257824Y296080D01*
X257577Y296073D01*
X257331Y296061D01*
X257085Y296043D01*
X256839Y296018D01*
X256595Y295988D01*
X256351Y295952D01*
X256108Y295911D01*
X255866Y295863D01*
X255625Y295809D01*
X255386Y295750D01*
X255148Y295685D01*
X254912Y295614D01*
X254677Y295538D01*
X254444Y295456D01*
X254214Y295368D01*
X253986Y295275D01*
X253759Y295177D01*
X254211Y289757D02*
X254123Y289720D01*
X254037Y289679D01*
X253952Y289635D01*
X253869Y289587D01*
X253789Y289536D01*
X253710Y289482D01*
X253634Y289424D01*
X253560Y289364D01*
X253488Y289300D01*
X253420Y289234D01*
X253354Y289164D01*
X253291Y289093D01*
X253230Y289018D01*
X253173Y288942D01*
X253120Y288863D01*
X253069Y288782D01*
X253022Y288699D01*
X252978Y288614D01*
X252938Y288527D01*
X252901Y288439D01*
X252868Y288349D01*
X252838Y288258D01*
X252813Y288166D01*
X252791Y288073D01*
X252773Y287979D01*
X252758Y287885D01*
X252748Y287790D01*
X252742Y287694D01*
X252739Y287599D01*
X252740Y287503D01*
X252746Y287408D01*
X252755Y287312D01*
X252768Y287218D01*
X252784Y287124D01*
X252805Y287030D01*
X252830Y286938D01*
X252858Y286847D01*
X252890Y286757D01*
X252925Y286668D01*
X252964Y286581D01*
X253007Y286495D01*
X253053Y286411D01*
X253103Y286330D01*
X253155Y286250D01*
X253211Y286172D01*
X253271Y286097D01*
X253333Y286025D01*
X253398Y285955D01*
X253466Y285887D01*
X253536Y285823D01*
X253609Y285761D01*
X253685Y285703D01*
X253763Y285647D01*
X253843Y285595D01*
X253925Y285546D01*
X254009Y285501D01*
X254095Y285459D01*
X254182Y285420D01*
X254271Y285385D01*
X254362Y285354D01*
X254453Y285327D01*
X254546Y285303D01*
X254639Y285283D01*
X254733Y285267D01*
X254828Y285255D01*
X254923Y285246D01*
X255019Y285242D01*
X255114Y285241D01*
X255115Y285242D02*
X255477Y285251D01*
X255839Y285269D01*
X256200Y285296D01*
X256560Y285331D01*
X256920Y285374D01*
X257279Y285426D01*
X257636Y285487D01*
X257991Y285556D01*
X258345Y285633D01*
X258697Y285719D01*
X259047Y285813D01*
X259395Y285916D01*
X259740Y286026D01*
X260082Y286145D01*
X247832Y296079D02*
X242413Y296079D01*
X246026Y301498D02*
X246026Y287951D01*
X246025Y287951D02*
X246023Y287850D01*
X246017Y287749D01*
X246008Y287648D01*
X245995Y287547D01*
X245978Y287447D01*
X245957Y287348D01*
X245933Y287250D01*
X245905Y287153D01*
X245873Y287056D01*
X245838Y286961D01*
X245799Y286868D01*
X245757Y286776D01*
X245711Y286685D01*
X245662Y286597D01*
X245610Y286510D01*
X245554Y286425D01*
X245496Y286342D01*
X245434Y286262D01*
X245369Y286184D01*
X245302Y286108D01*
X245232Y286035D01*
X245159Y285965D01*
X245083Y285898D01*
X245005Y285833D01*
X244925Y285771D01*
X244842Y285713D01*
X244757Y285657D01*
X244671Y285605D01*
X244582Y285556D01*
X244491Y285510D01*
X244399Y285468D01*
X244306Y285429D01*
X244211Y285394D01*
X244114Y285362D01*
X244017Y285334D01*
X243919Y285310D01*
X243820Y285289D01*
X243720Y285272D01*
X243619Y285259D01*
X243518Y285250D01*
X243417Y285244D01*
X243316Y285242D01*
X242413Y285242D01*
X237156Y279823D02*
X235350Y279823D01*
X229931Y296079D01*
X237156Y296079D02*
X233544Y285242D01*
X212181Y285242D02*
X212181Y301498D01*
X216696Y301498D02*
X207665Y301498D01*
X202246Y292467D02*
X202246Y288854D01*
X202246Y292467D02*
X202244Y292586D01*
X202238Y292706D01*
X202228Y292825D01*
X202214Y292943D01*
X202197Y293062D01*
X202175Y293179D01*
X202150Y293296D01*
X202120Y293411D01*
X202087Y293526D01*
X202050Y293640D01*
X202010Y293752D01*
X201965Y293863D01*
X201917Y293972D01*
X201866Y294080D01*
X201811Y294186D01*
X201752Y294290D01*
X201690Y294392D01*
X201625Y294492D01*
X201556Y294590D01*
X201484Y294686D01*
X201409Y294779D01*
X201332Y294869D01*
X201251Y294957D01*
X201167Y295042D01*
X201080Y295124D01*
X200991Y295204D01*
X200899Y295280D01*
X200805Y295354D01*
X200708Y295424D01*
X200610Y295491D01*
X200509Y295555D01*
X200405Y295615D01*
X200300Y295672D01*
X200193Y295725D01*
X200085Y295775D01*
X199975Y295821D01*
X199863Y295863D01*
X199750Y295902D01*
X199636Y295937D01*
X199521Y295968D01*
X199404Y295996D01*
X199287Y296019D01*
X199170Y296039D01*
X199051Y296055D01*
X198932Y296067D01*
X198813Y296075D01*
X198694Y296079D01*
X198574Y296079D01*
X198455Y296075D01*
X198336Y296067D01*
X198217Y296055D01*
X198098Y296039D01*
X197981Y296019D01*
X197864Y295996D01*
X197747Y295968D01*
X197632Y295937D01*
X197518Y295902D01*
X197405Y295863D01*
X197293Y295821D01*
X197183Y295775D01*
X197075Y295725D01*
X196968Y295672D01*
X196863Y295615D01*
X196759Y295555D01*
X196658Y295491D01*
X196560Y295424D01*
X196463Y295354D01*
X196369Y295280D01*
X196277Y295204D01*
X196188Y295124D01*
X196101Y295042D01*
X196017Y294957D01*
X195936Y294869D01*
X195859Y294779D01*
X195784Y294686D01*
X195712Y294590D01*
X195643Y294492D01*
X195578Y294392D01*
X195516Y294290D01*
X195457Y294186D01*
X195402Y294080D01*
X195351Y293972D01*
X195303Y293863D01*
X195258Y293752D01*
X195218Y293640D01*
X195181Y293526D01*
X195148Y293411D01*
X195118Y293296D01*
X195093Y293179D01*
X195071Y293062D01*
X195054Y292943D01*
X195040Y292825D01*
X195030Y292706D01*
X195024Y292586D01*
X195022Y292467D01*
X195021Y292467D02*
X195021Y288854D01*
X195022Y288854D02*
X195024Y288735D01*
X195030Y288615D01*
X195040Y288496D01*
X195054Y288378D01*
X195071Y288259D01*
X195093Y288142D01*
X195118Y288025D01*
X195148Y287910D01*
X195181Y287795D01*
X195218Y287681D01*
X195258Y287569D01*
X195303Y287458D01*
X195351Y287349D01*
X195402Y287241D01*
X195457Y287135D01*
X195516Y287031D01*
X195578Y286929D01*
X195643Y286829D01*
X195712Y286731D01*
X195784Y286635D01*
X195859Y286542D01*
X195936Y286452D01*
X196017Y286364D01*
X196101Y286279D01*
X196188Y286197D01*
X196277Y286117D01*
X196369Y286041D01*
X196463Y285967D01*
X196560Y285897D01*
X196658Y285830D01*
X196759Y285766D01*
X196863Y285706D01*
X196968Y285649D01*
X197075Y285596D01*
X197183Y285546D01*
X197293Y285500D01*
X197405Y285458D01*
X197518Y285419D01*
X197632Y285384D01*
X197747Y285353D01*
X197864Y285325D01*
X197981Y285302D01*
X198098Y285282D01*
X198217Y285266D01*
X198336Y285254D01*
X198455Y285246D01*
X198574Y285242D01*
X198694Y285242D01*
X198813Y285246D01*
X198932Y285254D01*
X199051Y285266D01*
X199170Y285282D01*
X199287Y285302D01*
X199404Y285325D01*
X199521Y285353D01*
X199636Y285384D01*
X199750Y285419D01*
X199863Y285458D01*
X199975Y285500D01*
X200085Y285546D01*
X200193Y285596D01*
X200300Y285649D01*
X200405Y285706D01*
X200509Y285766D01*
X200610Y285830D01*
X200708Y285897D01*
X200805Y285967D01*
X200899Y286041D01*
X200991Y286117D01*
X201080Y286197D01*
X201167Y286279D01*
X201251Y286364D01*
X201332Y286452D01*
X201409Y286542D01*
X201484Y286635D01*
X201556Y286731D01*
X201625Y286829D01*
X201690Y286929D01*
X201752Y287031D01*
X201811Y287135D01*
X201866Y287241D01*
X201917Y287349D01*
X201965Y287458D01*
X202010Y287569D01*
X202050Y287681D01*
X202087Y287795D01*
X202120Y287910D01*
X202150Y288025D01*
X202175Y288142D01*
X202197Y288259D01*
X202214Y288378D01*
X202228Y288496D01*
X202238Y288615D01*
X202244Y288735D01*
X202246Y288854D01*
X185612Y291564D02*
X181548Y291564D01*
X185612Y291564D02*
X185724Y291562D01*
X185835Y291556D01*
X185946Y291546D01*
X186057Y291533D01*
X186167Y291515D01*
X186276Y291493D01*
X186385Y291468D01*
X186493Y291439D01*
X186599Y291406D01*
X186705Y291369D01*
X186809Y291329D01*
X186911Y291285D01*
X187012Y291237D01*
X187111Y291186D01*
X187209Y291131D01*
X187304Y291073D01*
X187397Y291012D01*
X187488Y290947D01*
X187577Y290879D01*
X187663Y290808D01*
X187746Y290735D01*
X187827Y290658D01*
X187906Y290578D01*
X187981Y290496D01*
X188053Y290411D01*
X188123Y290324D01*
X188189Y290234D01*
X188252Y290142D01*
X188312Y290047D01*
X188368Y289951D01*
X188421Y289853D01*
X188470Y289753D01*
X188516Y289651D01*
X188558Y289548D01*
X188597Y289443D01*
X188632Y289337D01*
X188663Y289230D01*
X188690Y289122D01*
X188714Y289013D01*
X188733Y288903D01*
X188749Y288793D01*
X188761Y288682D01*
X188769Y288570D01*
X188773Y288459D01*
X188773Y288347D01*
X188769Y288236D01*
X188761Y288124D01*
X188749Y288013D01*
X188733Y287903D01*
X188714Y287793D01*
X188690Y287684D01*
X188663Y287576D01*
X188632Y287469D01*
X188597Y287363D01*
X188558Y287258D01*
X188516Y287155D01*
X188470Y287053D01*
X188421Y286953D01*
X188368Y286855D01*
X188312Y286759D01*
X188252Y286664D01*
X188189Y286572D01*
X188123Y286482D01*
X188053Y286395D01*
X187981Y286310D01*
X187906Y286228D01*
X187827Y286148D01*
X187746Y286071D01*
X187663Y285998D01*
X187577Y285927D01*
X187488Y285859D01*
X187397Y285794D01*
X187304Y285733D01*
X187209Y285675D01*
X187111Y285620D01*
X187012Y285569D01*
X186911Y285521D01*
X186809Y285477D01*
X186705Y285437D01*
X186599Y285400D01*
X186493Y285367D01*
X186385Y285338D01*
X186276Y285313D01*
X186167Y285291D01*
X186057Y285273D01*
X185946Y285260D01*
X185835Y285250D01*
X185724Y285244D01*
X185612Y285242D01*
X181548Y285242D01*
X181548Y293370D01*
X181550Y293471D01*
X181556Y293572D01*
X181565Y293673D01*
X181578Y293774D01*
X181595Y293874D01*
X181616Y293973D01*
X181640Y294071D01*
X181668Y294168D01*
X181700Y294265D01*
X181735Y294360D01*
X181774Y294453D01*
X181816Y294545D01*
X181862Y294636D01*
X181911Y294725D01*
X181963Y294811D01*
X182019Y294896D01*
X182077Y294979D01*
X182139Y295059D01*
X182204Y295137D01*
X182271Y295213D01*
X182341Y295286D01*
X182414Y295356D01*
X182490Y295423D01*
X182568Y295488D01*
X182648Y295550D01*
X182731Y295608D01*
X182816Y295664D01*
X182903Y295716D01*
X182991Y295765D01*
X183082Y295811D01*
X183174Y295853D01*
X183267Y295892D01*
X183362Y295927D01*
X183459Y295959D01*
X183556Y295987D01*
X183654Y296011D01*
X183753Y296032D01*
X183853Y296049D01*
X183954Y296062D01*
X184055Y296071D01*
X184156Y296077D01*
X184257Y296079D01*
X187869Y296079D01*
X173276Y291564D02*
X168761Y289758D01*
X173277Y291564D02*
X173365Y291601D01*
X173451Y291642D01*
X173536Y291686D01*
X173619Y291734D01*
X173699Y291785D01*
X173778Y291839D01*
X173854Y291897D01*
X173928Y291957D01*
X174000Y292021D01*
X174068Y292087D01*
X174134Y292157D01*
X174197Y292228D01*
X174258Y292303D01*
X174315Y292379D01*
X174368Y292458D01*
X174419Y292539D01*
X174466Y292622D01*
X174510Y292707D01*
X174550Y292794D01*
X174587Y292882D01*
X174620Y292972D01*
X174650Y293063D01*
X174675Y293155D01*
X174697Y293248D01*
X174715Y293342D01*
X174730Y293436D01*
X174740Y293531D01*
X174746Y293627D01*
X174749Y293722D01*
X174748Y293818D01*
X174742Y293913D01*
X174733Y294009D01*
X174720Y294103D01*
X174704Y294197D01*
X174683Y294291D01*
X174658Y294383D01*
X174630Y294474D01*
X174598Y294564D01*
X174563Y294653D01*
X174524Y294740D01*
X174481Y294826D01*
X174435Y294910D01*
X174385Y294991D01*
X174333Y295071D01*
X174277Y295149D01*
X174217Y295224D01*
X174155Y295296D01*
X174090Y295366D01*
X174022Y295434D01*
X173952Y295498D01*
X173879Y295560D01*
X173803Y295618D01*
X173725Y295674D01*
X173645Y295726D01*
X173563Y295775D01*
X173479Y295820D01*
X173393Y295862D01*
X173306Y295901D01*
X173217Y295936D01*
X173126Y295967D01*
X173035Y295994D01*
X172942Y296018D01*
X172849Y296038D01*
X172755Y296054D01*
X172660Y296066D01*
X172565Y296075D01*
X172469Y296079D01*
X172374Y296080D01*
X172127Y296073D01*
X171881Y296061D01*
X171635Y296043D01*
X171389Y296018D01*
X171145Y295988D01*
X170901Y295952D01*
X170658Y295911D01*
X170416Y295863D01*
X170175Y295809D01*
X169936Y295750D01*
X169698Y295685D01*
X169462Y295614D01*
X169227Y295538D01*
X168994Y295456D01*
X168764Y295368D01*
X168536Y295275D01*
X168309Y295177D01*
X168761Y289757D02*
X168673Y289720D01*
X168587Y289679D01*
X168502Y289635D01*
X168419Y289587D01*
X168339Y289536D01*
X168260Y289482D01*
X168184Y289424D01*
X168110Y289364D01*
X168038Y289300D01*
X167970Y289234D01*
X167904Y289164D01*
X167841Y289093D01*
X167780Y289018D01*
X167723Y288942D01*
X167670Y288863D01*
X167619Y288782D01*
X167572Y288699D01*
X167528Y288614D01*
X167488Y288527D01*
X167451Y288439D01*
X167418Y288349D01*
X167388Y288258D01*
X167363Y288166D01*
X167341Y288073D01*
X167323Y287979D01*
X167308Y287885D01*
X167298Y287790D01*
X167292Y287694D01*
X167289Y287599D01*
X167290Y287503D01*
X167296Y287408D01*
X167305Y287312D01*
X167318Y287218D01*
X167334Y287124D01*
X167355Y287030D01*
X167380Y286938D01*
X167408Y286847D01*
X167440Y286757D01*
X167475Y286668D01*
X167514Y286581D01*
X167557Y286495D01*
X167603Y286411D01*
X167653Y286330D01*
X167705Y286250D01*
X167761Y286172D01*
X167821Y286097D01*
X167883Y286025D01*
X167948Y285955D01*
X168016Y285887D01*
X168086Y285823D01*
X168159Y285761D01*
X168235Y285703D01*
X168313Y285647D01*
X168393Y285595D01*
X168475Y285546D01*
X168559Y285501D01*
X168645Y285459D01*
X168732Y285420D01*
X168821Y285385D01*
X168912Y285354D01*
X169003Y285327D01*
X169096Y285303D01*
X169189Y285283D01*
X169283Y285267D01*
X169378Y285255D01*
X169473Y285246D01*
X169569Y285242D01*
X169664Y285241D01*
X169664Y285242D02*
X170026Y285251D01*
X170388Y285269D01*
X170749Y285296D01*
X171109Y285331D01*
X171469Y285374D01*
X171828Y285426D01*
X172185Y285487D01*
X172540Y285556D01*
X172894Y285633D01*
X173246Y285719D01*
X173596Y285813D01*
X173944Y285916D01*
X174289Y286026D01*
X174631Y286145D01*
X162381Y296079D02*
X156963Y296079D01*
X160575Y301498D02*
X160575Y287951D01*
X160573Y287850D01*
X160567Y287749D01*
X160558Y287648D01*
X160545Y287547D01*
X160528Y287447D01*
X160507Y287348D01*
X160483Y287250D01*
X160455Y287153D01*
X160423Y287056D01*
X160388Y286961D01*
X160349Y286868D01*
X160307Y286776D01*
X160261Y286685D01*
X160212Y286597D01*
X160160Y286510D01*
X160104Y286425D01*
X160046Y286342D01*
X159984Y286262D01*
X159919Y286184D01*
X159852Y286108D01*
X159782Y286035D01*
X159709Y285965D01*
X159633Y285898D01*
X159555Y285833D01*
X159475Y285771D01*
X159392Y285713D01*
X159307Y285657D01*
X159221Y285605D01*
X159132Y285556D01*
X159041Y285510D01*
X158949Y285468D01*
X158856Y285429D01*
X158761Y285394D01*
X158664Y285362D01*
X158567Y285334D01*
X158469Y285310D01*
X158370Y285289D01*
X158270Y285272D01*
X158169Y285259D01*
X158068Y285250D01*
X157967Y285244D01*
X157866Y285242D01*
X156963Y285242D01*
X151705Y279823D02*
X149899Y279823D01*
X144481Y296079D01*
X151705Y296079D02*
X148093Y285242D01*
X370473Y258572D02*
X374086Y258572D01*
X374204Y258574D01*
X374322Y258580D01*
X374440Y258589D01*
X374557Y258603D01*
X374674Y258620D01*
X374791Y258641D01*
X374906Y258666D01*
X375021Y258695D01*
X375135Y258728D01*
X375247Y258764D01*
X375358Y258804D01*
X375468Y258847D01*
X375577Y258894D01*
X375684Y258944D01*
X375789Y258999D01*
X375892Y259056D01*
X375993Y259117D01*
X376093Y259181D01*
X376190Y259248D01*
X376285Y259318D01*
X376377Y259392D01*
X376468Y259468D01*
X376555Y259548D01*
X376640Y259630D01*
X376722Y259715D01*
X376802Y259802D01*
X376878Y259893D01*
X376952Y259985D01*
X377022Y260080D01*
X377089Y260177D01*
X377153Y260277D01*
X377214Y260378D01*
X377271Y260481D01*
X377326Y260586D01*
X377376Y260693D01*
X377423Y260802D01*
X377466Y260912D01*
X377506Y261023D01*
X377542Y261135D01*
X377575Y261249D01*
X377604Y261364D01*
X377629Y261479D01*
X377650Y261596D01*
X377667Y261713D01*
X377681Y261830D01*
X377690Y261948D01*
X377696Y262066D01*
X377698Y262184D01*
X377698Y271216D01*
X377696Y271334D01*
X377690Y271452D01*
X377681Y271570D01*
X377667Y271687D01*
X377650Y271804D01*
X377629Y271921D01*
X377604Y272036D01*
X377575Y272151D01*
X377542Y272265D01*
X377506Y272377D01*
X377466Y272488D01*
X377423Y272598D01*
X377376Y272707D01*
X377326Y272814D01*
X377271Y272919D01*
X377214Y273022D01*
X377153Y273123D01*
X377089Y273223D01*
X377022Y273320D01*
X376952Y273415D01*
X376878Y273507D01*
X376802Y273598D01*
X376722Y273685D01*
X376640Y273770D01*
X376555Y273852D01*
X376468Y273932D01*
X376377Y274008D01*
X376285Y274082D01*
X376190Y274152D01*
X376093Y274219D01*
X375993Y274283D01*
X375892Y274344D01*
X375789Y274401D01*
X375684Y274456D01*
X375577Y274506D01*
X375468Y274553D01*
X375358Y274596D01*
X375247Y274636D01*
X375135Y274672D01*
X375021Y274705D01*
X374906Y274734D01*
X374791Y274759D01*
X374674Y274780D01*
X374557Y274797D01*
X374440Y274811D01*
X374322Y274820D01*
X374204Y274826D01*
X374086Y274828D01*
X370473Y274828D01*
X364771Y265797D02*
X364771Y262184D01*
X364771Y265797D02*
X364769Y265916D01*
X364763Y266036D01*
X364753Y266155D01*
X364739Y266273D01*
X364722Y266392D01*
X364700Y266509D01*
X364675Y266626D01*
X364645Y266741D01*
X364612Y266856D01*
X364575Y266970D01*
X364535Y267082D01*
X364490Y267193D01*
X364442Y267302D01*
X364391Y267410D01*
X364336Y267516D01*
X364277Y267620D01*
X364215Y267722D01*
X364150Y267822D01*
X364081Y267920D01*
X364009Y268016D01*
X363934Y268109D01*
X363857Y268199D01*
X363776Y268287D01*
X363692Y268372D01*
X363605Y268454D01*
X363516Y268534D01*
X363424Y268610D01*
X363330Y268684D01*
X363233Y268754D01*
X363135Y268821D01*
X363034Y268885D01*
X362930Y268945D01*
X362825Y269002D01*
X362718Y269055D01*
X362610Y269105D01*
X362500Y269151D01*
X362388Y269193D01*
X362275Y269232D01*
X362161Y269267D01*
X362046Y269298D01*
X361929Y269326D01*
X361812Y269349D01*
X361695Y269369D01*
X361576Y269385D01*
X361457Y269397D01*
X361338Y269405D01*
X361219Y269409D01*
X361099Y269409D01*
X360980Y269405D01*
X360861Y269397D01*
X360742Y269385D01*
X360623Y269369D01*
X360506Y269349D01*
X360389Y269326D01*
X360272Y269298D01*
X360157Y269267D01*
X360043Y269232D01*
X359930Y269193D01*
X359818Y269151D01*
X359708Y269105D01*
X359600Y269055D01*
X359493Y269002D01*
X359388Y268945D01*
X359284Y268885D01*
X359183Y268821D01*
X359085Y268754D01*
X358988Y268684D01*
X358894Y268610D01*
X358802Y268534D01*
X358713Y268454D01*
X358626Y268372D01*
X358542Y268287D01*
X358461Y268199D01*
X358384Y268109D01*
X358309Y268016D01*
X358237Y267920D01*
X358168Y267822D01*
X358103Y267722D01*
X358041Y267620D01*
X357982Y267516D01*
X357927Y267410D01*
X357876Y267302D01*
X357828Y267193D01*
X357783Y267082D01*
X357743Y266970D01*
X357706Y266856D01*
X357673Y266741D01*
X357643Y266626D01*
X357618Y266509D01*
X357596Y266392D01*
X357579Y266273D01*
X357565Y266155D01*
X357555Y266036D01*
X357549Y265916D01*
X357547Y265797D01*
X357547Y262184D01*
X357549Y262065D01*
X357555Y261945D01*
X357565Y261826D01*
X357579Y261708D01*
X357596Y261589D01*
X357618Y261472D01*
X357643Y261355D01*
X357673Y261240D01*
X357706Y261125D01*
X357743Y261011D01*
X357783Y260899D01*
X357828Y260788D01*
X357876Y260679D01*
X357927Y260571D01*
X357982Y260465D01*
X358041Y260361D01*
X358103Y260259D01*
X358168Y260159D01*
X358237Y260061D01*
X358309Y259965D01*
X358384Y259872D01*
X358461Y259782D01*
X358542Y259694D01*
X358626Y259609D01*
X358713Y259527D01*
X358802Y259447D01*
X358894Y259371D01*
X358988Y259297D01*
X359085Y259227D01*
X359183Y259160D01*
X359284Y259096D01*
X359388Y259036D01*
X359493Y258979D01*
X359600Y258926D01*
X359708Y258876D01*
X359818Y258830D01*
X359930Y258788D01*
X360043Y258749D01*
X360157Y258714D01*
X360272Y258683D01*
X360389Y258655D01*
X360506Y258632D01*
X360623Y258612D01*
X360742Y258596D01*
X360861Y258584D01*
X360980Y258576D01*
X361099Y258572D01*
X361219Y258572D01*
X361338Y258576D01*
X361457Y258584D01*
X361576Y258596D01*
X361695Y258612D01*
X361812Y258632D01*
X361929Y258655D01*
X362046Y258683D01*
X362161Y258714D01*
X362275Y258749D01*
X362388Y258788D01*
X362500Y258830D01*
X362610Y258876D01*
X362718Y258926D01*
X362825Y258979D01*
X362930Y259036D01*
X363034Y259096D01*
X363135Y259160D01*
X363233Y259227D01*
X363330Y259297D01*
X363424Y259371D01*
X363516Y259447D01*
X363605Y259527D01*
X363692Y259609D01*
X363776Y259694D01*
X363857Y259782D01*
X363934Y259872D01*
X364009Y259965D01*
X364081Y260061D01*
X364150Y260159D01*
X364215Y260259D01*
X364277Y260361D01*
X364336Y260465D01*
X364391Y260571D01*
X364442Y260679D01*
X364490Y260788D01*
X364535Y260899D01*
X364575Y261011D01*
X364612Y261125D01*
X364645Y261240D01*
X364675Y261355D01*
X364700Y261472D01*
X364722Y261589D01*
X364739Y261708D01*
X364753Y261826D01*
X364763Y261945D01*
X364769Y262065D01*
X364771Y262184D01*
X350337Y258572D02*
X350337Y272119D01*
X350336Y272119D02*
X350334Y272220D01*
X350328Y272321D01*
X350319Y272422D01*
X350306Y272523D01*
X350289Y272623D01*
X350268Y272722D01*
X350244Y272820D01*
X350216Y272917D01*
X350184Y273014D01*
X350149Y273109D01*
X350110Y273202D01*
X350068Y273294D01*
X350022Y273385D01*
X349973Y273474D01*
X349921Y273560D01*
X349865Y273645D01*
X349807Y273728D01*
X349745Y273808D01*
X349680Y273886D01*
X349613Y273962D01*
X349543Y274035D01*
X349470Y274105D01*
X349394Y274172D01*
X349316Y274237D01*
X349236Y274299D01*
X349153Y274357D01*
X349068Y274413D01*
X348982Y274465D01*
X348893Y274514D01*
X348802Y274560D01*
X348710Y274602D01*
X348617Y274641D01*
X348522Y274676D01*
X348425Y274708D01*
X348328Y274736D01*
X348230Y274760D01*
X348131Y274781D01*
X348031Y274798D01*
X347930Y274811D01*
X347829Y274820D01*
X347728Y274826D01*
X347627Y274828D01*
X346724Y274828D01*
X346724Y269409D02*
X352143Y269409D01*
X341479Y272119D02*
X341479Y258572D01*
X341479Y272119D02*
X341477Y272220D01*
X341471Y272321D01*
X341462Y272422D01*
X341449Y272523D01*
X341432Y272623D01*
X341411Y272722D01*
X341387Y272820D01*
X341359Y272917D01*
X341327Y273014D01*
X341292Y273109D01*
X341253Y273202D01*
X341211Y273294D01*
X341165Y273385D01*
X341116Y273474D01*
X341064Y273560D01*
X341008Y273645D01*
X340950Y273728D01*
X340888Y273808D01*
X340823Y273886D01*
X340756Y273962D01*
X340686Y274035D01*
X340613Y274105D01*
X340537Y274172D01*
X340459Y274237D01*
X340379Y274299D01*
X340296Y274357D01*
X340211Y274413D01*
X340125Y274465D01*
X340036Y274514D01*
X339945Y274560D01*
X339853Y274602D01*
X339760Y274641D01*
X339665Y274676D01*
X339568Y274708D01*
X339471Y274736D01*
X339373Y274760D01*
X339274Y274781D01*
X339174Y274798D01*
X339073Y274811D01*
X338972Y274820D01*
X338871Y274826D01*
X338770Y274828D01*
X337867Y274828D01*
X337867Y269409D02*
X343285Y269409D01*
X330800Y258572D02*
X326284Y258572D01*
X330800Y258572D02*
X330901Y258574D01*
X331002Y258580D01*
X331103Y258589D01*
X331204Y258602D01*
X331304Y258619D01*
X331403Y258640D01*
X331501Y258664D01*
X331598Y258692D01*
X331695Y258724D01*
X331790Y258759D01*
X331883Y258798D01*
X331975Y258840D01*
X332066Y258886D01*
X332155Y258935D01*
X332241Y258987D01*
X332326Y259043D01*
X332409Y259101D01*
X332489Y259163D01*
X332567Y259228D01*
X332643Y259295D01*
X332716Y259365D01*
X332786Y259438D01*
X332853Y259514D01*
X332918Y259592D01*
X332980Y259672D01*
X333038Y259755D01*
X333094Y259840D01*
X333146Y259926D01*
X333195Y260015D01*
X333241Y260106D01*
X333283Y260198D01*
X333322Y260291D01*
X333357Y260386D01*
X333389Y260483D01*
X333417Y260580D01*
X333441Y260678D01*
X333462Y260777D01*
X333479Y260877D01*
X333492Y260978D01*
X333501Y261079D01*
X333507Y261180D01*
X333509Y261281D01*
X333509Y265797D01*
X333507Y265916D01*
X333501Y266036D01*
X333491Y266155D01*
X333477Y266273D01*
X333460Y266392D01*
X333438Y266509D01*
X333413Y266626D01*
X333383Y266741D01*
X333350Y266856D01*
X333313Y266970D01*
X333273Y267082D01*
X333228Y267193D01*
X333180Y267302D01*
X333129Y267410D01*
X333074Y267516D01*
X333015Y267620D01*
X332953Y267722D01*
X332888Y267822D01*
X332819Y267920D01*
X332747Y268016D01*
X332672Y268109D01*
X332595Y268199D01*
X332514Y268287D01*
X332430Y268372D01*
X332343Y268454D01*
X332254Y268534D01*
X332162Y268610D01*
X332068Y268684D01*
X331971Y268754D01*
X331873Y268821D01*
X331772Y268885D01*
X331668Y268945D01*
X331563Y269002D01*
X331456Y269055D01*
X331348Y269105D01*
X331238Y269151D01*
X331126Y269193D01*
X331013Y269232D01*
X330899Y269267D01*
X330784Y269298D01*
X330667Y269326D01*
X330550Y269349D01*
X330433Y269369D01*
X330314Y269385D01*
X330195Y269397D01*
X330076Y269405D01*
X329957Y269409D01*
X329837Y269409D01*
X329718Y269405D01*
X329599Y269397D01*
X329480Y269385D01*
X329361Y269369D01*
X329244Y269349D01*
X329127Y269326D01*
X329010Y269298D01*
X328895Y269267D01*
X328781Y269232D01*
X328668Y269193D01*
X328556Y269151D01*
X328446Y269105D01*
X328338Y269055D01*
X328231Y269002D01*
X328126Y268945D01*
X328022Y268885D01*
X327921Y268821D01*
X327823Y268754D01*
X327726Y268684D01*
X327632Y268610D01*
X327540Y268534D01*
X327451Y268454D01*
X327364Y268372D01*
X327280Y268287D01*
X327199Y268199D01*
X327122Y268109D01*
X327047Y268016D01*
X326975Y267920D01*
X326906Y267822D01*
X326841Y267722D01*
X326779Y267620D01*
X326720Y267516D01*
X326665Y267410D01*
X326614Y267302D01*
X326566Y267193D01*
X326521Y267082D01*
X326481Y266970D01*
X326444Y266856D01*
X326411Y266741D01*
X326381Y266626D01*
X326356Y266509D01*
X326334Y266392D01*
X326317Y266273D01*
X326303Y266155D01*
X326293Y266036D01*
X326287Y265916D01*
X326285Y265797D01*
X326284Y265797D02*
X326284Y263991D01*
X333509Y263991D01*
X317253Y258572D02*
X312737Y258572D01*
X317253Y258572D02*
X317354Y258574D01*
X317455Y258580D01*
X317556Y258589D01*
X317657Y258602D01*
X317757Y258619D01*
X317856Y258640D01*
X317954Y258664D01*
X318051Y258692D01*
X318148Y258724D01*
X318243Y258759D01*
X318336Y258798D01*
X318428Y258840D01*
X318519Y258886D01*
X318608Y258935D01*
X318694Y258987D01*
X318779Y259043D01*
X318862Y259101D01*
X318942Y259163D01*
X319020Y259228D01*
X319096Y259295D01*
X319169Y259365D01*
X319239Y259438D01*
X319306Y259514D01*
X319371Y259592D01*
X319433Y259672D01*
X319491Y259755D01*
X319547Y259840D01*
X319599Y259926D01*
X319648Y260015D01*
X319694Y260106D01*
X319736Y260198D01*
X319775Y260291D01*
X319810Y260386D01*
X319842Y260483D01*
X319870Y260580D01*
X319894Y260678D01*
X319915Y260777D01*
X319932Y260877D01*
X319945Y260978D01*
X319954Y261079D01*
X319960Y261180D01*
X319962Y261281D01*
X319962Y265797D01*
X319960Y265916D01*
X319954Y266036D01*
X319944Y266155D01*
X319930Y266273D01*
X319913Y266392D01*
X319891Y266509D01*
X319866Y266626D01*
X319836Y266741D01*
X319803Y266856D01*
X319766Y266970D01*
X319726Y267082D01*
X319681Y267193D01*
X319633Y267302D01*
X319582Y267410D01*
X319527Y267516D01*
X319468Y267620D01*
X319406Y267722D01*
X319341Y267822D01*
X319272Y267920D01*
X319200Y268016D01*
X319125Y268109D01*
X319048Y268199D01*
X318967Y268287D01*
X318883Y268372D01*
X318796Y268454D01*
X318707Y268534D01*
X318615Y268610D01*
X318521Y268684D01*
X318424Y268754D01*
X318326Y268821D01*
X318225Y268885D01*
X318121Y268945D01*
X318016Y269002D01*
X317909Y269055D01*
X317801Y269105D01*
X317691Y269151D01*
X317579Y269193D01*
X317466Y269232D01*
X317352Y269267D01*
X317237Y269298D01*
X317120Y269326D01*
X317003Y269349D01*
X316886Y269369D01*
X316767Y269385D01*
X316648Y269397D01*
X316529Y269405D01*
X316410Y269409D01*
X316290Y269409D01*
X316171Y269405D01*
X316052Y269397D01*
X315933Y269385D01*
X315814Y269369D01*
X315697Y269349D01*
X315580Y269326D01*
X315463Y269298D01*
X315348Y269267D01*
X315234Y269232D01*
X315121Y269193D01*
X315009Y269151D01*
X314899Y269105D01*
X314791Y269055D01*
X314684Y269002D01*
X314579Y268945D01*
X314475Y268885D01*
X314374Y268821D01*
X314276Y268754D01*
X314179Y268684D01*
X314085Y268610D01*
X313993Y268534D01*
X313904Y268454D01*
X313817Y268372D01*
X313733Y268287D01*
X313652Y268199D01*
X313575Y268109D01*
X313500Y268016D01*
X313428Y267920D01*
X313359Y267822D01*
X313294Y267722D01*
X313232Y267620D01*
X313173Y267516D01*
X313118Y267410D01*
X313067Y267302D01*
X313019Y267193D01*
X312974Y267082D01*
X312934Y266970D01*
X312897Y266856D01*
X312864Y266741D01*
X312834Y266626D01*
X312809Y266509D01*
X312787Y266392D01*
X312770Y266273D01*
X312756Y266155D01*
X312746Y266036D01*
X312740Y265916D01*
X312738Y265797D01*
X312737Y265797D02*
X312737Y263991D01*
X319962Y263991D01*
X294366Y258572D02*
X290754Y258572D01*
X294366Y258572D02*
X294484Y258574D01*
X294602Y258580D01*
X294720Y258589D01*
X294837Y258603D01*
X294954Y258620D01*
X295071Y258641D01*
X295186Y258666D01*
X295301Y258695D01*
X295415Y258728D01*
X295527Y258764D01*
X295638Y258804D01*
X295748Y258847D01*
X295857Y258894D01*
X295964Y258944D01*
X296069Y258999D01*
X296172Y259056D01*
X296273Y259117D01*
X296373Y259181D01*
X296470Y259248D01*
X296565Y259318D01*
X296657Y259392D01*
X296748Y259468D01*
X296835Y259548D01*
X296920Y259630D01*
X297002Y259715D01*
X297082Y259802D01*
X297158Y259893D01*
X297232Y259985D01*
X297302Y260080D01*
X297369Y260177D01*
X297433Y260277D01*
X297494Y260378D01*
X297551Y260481D01*
X297606Y260586D01*
X297656Y260693D01*
X297703Y260802D01*
X297746Y260912D01*
X297786Y261023D01*
X297822Y261135D01*
X297855Y261249D01*
X297884Y261364D01*
X297909Y261479D01*
X297930Y261596D01*
X297947Y261713D01*
X297961Y261830D01*
X297970Y261948D01*
X297976Y262066D01*
X297978Y262184D01*
X297979Y262184D02*
X297979Y271216D01*
X297978Y271216D02*
X297976Y271334D01*
X297970Y271452D01*
X297961Y271570D01*
X297947Y271687D01*
X297930Y271804D01*
X297909Y271921D01*
X297884Y272036D01*
X297855Y272151D01*
X297822Y272265D01*
X297786Y272377D01*
X297746Y272488D01*
X297703Y272598D01*
X297656Y272707D01*
X297606Y272814D01*
X297551Y272919D01*
X297494Y273022D01*
X297433Y273123D01*
X297369Y273223D01*
X297302Y273320D01*
X297232Y273415D01*
X297158Y273507D01*
X297082Y273598D01*
X297002Y273685D01*
X296920Y273770D01*
X296835Y273852D01*
X296748Y273932D01*
X296657Y274008D01*
X296565Y274082D01*
X296470Y274152D01*
X296373Y274219D01*
X296273Y274283D01*
X296172Y274344D01*
X296069Y274401D01*
X295964Y274456D01*
X295857Y274506D01*
X295748Y274553D01*
X295638Y274596D01*
X295527Y274636D01*
X295415Y274672D01*
X295301Y274705D01*
X295186Y274734D01*
X295071Y274759D01*
X294954Y274780D01*
X294837Y274797D01*
X294720Y274811D01*
X294602Y274820D01*
X294484Y274826D01*
X294366Y274828D01*
X290754Y274828D01*
X285052Y265797D02*
X285052Y262184D01*
X285052Y265797D02*
X285050Y265916D01*
X285044Y266036D01*
X285034Y266155D01*
X285020Y266273D01*
X285003Y266392D01*
X284981Y266509D01*
X284956Y266626D01*
X284926Y266741D01*
X284893Y266856D01*
X284856Y266970D01*
X284816Y267082D01*
X284771Y267193D01*
X284723Y267302D01*
X284672Y267410D01*
X284617Y267516D01*
X284558Y267620D01*
X284496Y267722D01*
X284431Y267822D01*
X284362Y267920D01*
X284290Y268016D01*
X284215Y268109D01*
X284138Y268199D01*
X284057Y268287D01*
X283973Y268372D01*
X283886Y268454D01*
X283797Y268534D01*
X283705Y268610D01*
X283611Y268684D01*
X283514Y268754D01*
X283416Y268821D01*
X283315Y268885D01*
X283211Y268945D01*
X283106Y269002D01*
X282999Y269055D01*
X282891Y269105D01*
X282781Y269151D01*
X282669Y269193D01*
X282556Y269232D01*
X282442Y269267D01*
X282327Y269298D01*
X282210Y269326D01*
X282093Y269349D01*
X281976Y269369D01*
X281857Y269385D01*
X281738Y269397D01*
X281619Y269405D01*
X281500Y269409D01*
X281380Y269409D01*
X281261Y269405D01*
X281142Y269397D01*
X281023Y269385D01*
X280904Y269369D01*
X280787Y269349D01*
X280670Y269326D01*
X280553Y269298D01*
X280438Y269267D01*
X280324Y269232D01*
X280211Y269193D01*
X280099Y269151D01*
X279989Y269105D01*
X279881Y269055D01*
X279774Y269002D01*
X279669Y268945D01*
X279565Y268885D01*
X279464Y268821D01*
X279366Y268754D01*
X279269Y268684D01*
X279175Y268610D01*
X279083Y268534D01*
X278994Y268454D01*
X278907Y268372D01*
X278823Y268287D01*
X278742Y268199D01*
X278665Y268109D01*
X278590Y268016D01*
X278518Y267920D01*
X278449Y267822D01*
X278384Y267722D01*
X278322Y267620D01*
X278263Y267516D01*
X278208Y267410D01*
X278157Y267302D01*
X278109Y267193D01*
X278064Y267082D01*
X278024Y266970D01*
X277987Y266856D01*
X277954Y266741D01*
X277924Y266626D01*
X277899Y266509D01*
X277877Y266392D01*
X277860Y266273D01*
X277846Y266155D01*
X277836Y266036D01*
X277830Y265916D01*
X277828Y265797D01*
X277827Y265797D02*
X277827Y262184D01*
X277828Y262184D02*
X277830Y262065D01*
X277836Y261945D01*
X277846Y261826D01*
X277860Y261708D01*
X277877Y261589D01*
X277899Y261472D01*
X277924Y261355D01*
X277954Y261240D01*
X277987Y261125D01*
X278024Y261011D01*
X278064Y260899D01*
X278109Y260788D01*
X278157Y260679D01*
X278208Y260571D01*
X278263Y260465D01*
X278322Y260361D01*
X278384Y260259D01*
X278449Y260159D01*
X278518Y260061D01*
X278590Y259965D01*
X278665Y259872D01*
X278742Y259782D01*
X278823Y259694D01*
X278907Y259609D01*
X278994Y259527D01*
X279083Y259447D01*
X279175Y259371D01*
X279269Y259297D01*
X279366Y259227D01*
X279464Y259160D01*
X279565Y259096D01*
X279669Y259036D01*
X279774Y258979D01*
X279881Y258926D01*
X279989Y258876D01*
X280099Y258830D01*
X280211Y258788D01*
X280324Y258749D01*
X280438Y258714D01*
X280553Y258683D01*
X280670Y258655D01*
X280787Y258632D01*
X280904Y258612D01*
X281023Y258596D01*
X281142Y258584D01*
X281261Y258576D01*
X281380Y258572D01*
X281500Y258572D01*
X281619Y258576D01*
X281738Y258584D01*
X281857Y258596D01*
X281976Y258612D01*
X282093Y258632D01*
X282210Y258655D01*
X282327Y258683D01*
X282442Y258714D01*
X282556Y258749D01*
X282669Y258788D01*
X282781Y258830D01*
X282891Y258876D01*
X282999Y258926D01*
X283106Y258979D01*
X283211Y259036D01*
X283315Y259096D01*
X283416Y259160D01*
X283514Y259227D01*
X283611Y259297D01*
X283705Y259371D01*
X283797Y259447D01*
X283886Y259527D01*
X283973Y259609D01*
X284057Y259694D01*
X284138Y259782D01*
X284215Y259872D01*
X284290Y259965D01*
X284362Y260061D01*
X284431Y260159D01*
X284496Y260259D01*
X284558Y260361D01*
X284617Y260465D01*
X284672Y260571D01*
X284723Y260679D01*
X284771Y260788D01*
X284816Y260899D01*
X284856Y261011D01*
X284893Y261125D01*
X284926Y261240D01*
X284956Y261355D01*
X284981Y261472D01*
X285003Y261589D01*
X285020Y261708D01*
X285034Y261826D01*
X285044Y261945D01*
X285050Y262065D01*
X285052Y262184D01*
X270984Y258572D02*
X270984Y269409D01*
X266469Y269409D01*
X266365Y269407D01*
X266262Y269401D01*
X266158Y269391D01*
X266055Y269377D01*
X265953Y269359D01*
X265852Y269338D01*
X265751Y269312D01*
X265652Y269283D01*
X265553Y269250D01*
X265456Y269213D01*
X265361Y269172D01*
X265267Y269128D01*
X265175Y269080D01*
X265085Y269029D01*
X264996Y268974D01*
X264910Y268916D01*
X264827Y268854D01*
X264745Y268790D01*
X264667Y268722D01*
X264591Y268652D01*
X264517Y268579D01*
X264447Y268502D01*
X264379Y268424D01*
X264315Y268342D01*
X264253Y268259D01*
X264195Y268173D01*
X264140Y268084D01*
X264089Y267994D01*
X264041Y267902D01*
X263997Y267808D01*
X263956Y267713D01*
X263919Y267616D01*
X263886Y267517D01*
X263857Y267418D01*
X263831Y267317D01*
X263810Y267216D01*
X263792Y267114D01*
X263778Y267011D01*
X263768Y266907D01*
X263762Y266804D01*
X263760Y266700D01*
X263759Y266700D02*
X263759Y258572D01*
X258213Y269409D02*
X252795Y269409D01*
X256407Y274828D02*
X256407Y261281D01*
X256405Y261180D01*
X256399Y261079D01*
X256390Y260978D01*
X256377Y260877D01*
X256360Y260777D01*
X256339Y260678D01*
X256315Y260580D01*
X256287Y260483D01*
X256255Y260386D01*
X256220Y260291D01*
X256181Y260198D01*
X256139Y260106D01*
X256093Y260015D01*
X256044Y259926D01*
X255992Y259840D01*
X255936Y259755D01*
X255878Y259672D01*
X255816Y259592D01*
X255751Y259514D01*
X255684Y259438D01*
X255614Y259365D01*
X255541Y259295D01*
X255465Y259228D01*
X255387Y259163D01*
X255307Y259101D01*
X255224Y259043D01*
X255139Y258987D01*
X255053Y258935D01*
X254964Y258886D01*
X254873Y258840D01*
X254781Y258798D01*
X254688Y258759D01*
X254593Y258724D01*
X254496Y258692D01*
X254399Y258664D01*
X254301Y258640D01*
X254202Y258619D01*
X254102Y258602D01*
X254001Y258589D01*
X253900Y258580D01*
X253799Y258574D01*
X253698Y258572D01*
X252795Y258572D01*
X246410Y258572D02*
X246410Y269409D01*
X240992Y269409D01*
X240992Y267603D01*
X236075Y265797D02*
X236075Y262184D01*
X236074Y265797D02*
X236072Y265916D01*
X236066Y266036D01*
X236056Y266155D01*
X236042Y266273D01*
X236025Y266392D01*
X236003Y266509D01*
X235978Y266626D01*
X235948Y266741D01*
X235915Y266856D01*
X235878Y266970D01*
X235838Y267082D01*
X235793Y267193D01*
X235745Y267302D01*
X235694Y267410D01*
X235639Y267516D01*
X235580Y267620D01*
X235518Y267722D01*
X235453Y267822D01*
X235384Y267920D01*
X235312Y268016D01*
X235237Y268109D01*
X235160Y268199D01*
X235079Y268287D01*
X234995Y268372D01*
X234908Y268454D01*
X234819Y268534D01*
X234727Y268610D01*
X234633Y268684D01*
X234536Y268754D01*
X234438Y268821D01*
X234337Y268885D01*
X234233Y268945D01*
X234128Y269002D01*
X234021Y269055D01*
X233913Y269105D01*
X233803Y269151D01*
X233691Y269193D01*
X233578Y269232D01*
X233464Y269267D01*
X233349Y269298D01*
X233232Y269326D01*
X233115Y269349D01*
X232998Y269369D01*
X232879Y269385D01*
X232760Y269397D01*
X232641Y269405D01*
X232522Y269409D01*
X232402Y269409D01*
X232283Y269405D01*
X232164Y269397D01*
X232045Y269385D01*
X231926Y269369D01*
X231809Y269349D01*
X231692Y269326D01*
X231575Y269298D01*
X231460Y269267D01*
X231346Y269232D01*
X231233Y269193D01*
X231121Y269151D01*
X231011Y269105D01*
X230903Y269055D01*
X230796Y269002D01*
X230691Y268945D01*
X230587Y268885D01*
X230486Y268821D01*
X230388Y268754D01*
X230291Y268684D01*
X230197Y268610D01*
X230105Y268534D01*
X230016Y268454D01*
X229929Y268372D01*
X229845Y268287D01*
X229764Y268199D01*
X229687Y268109D01*
X229612Y268016D01*
X229540Y267920D01*
X229471Y267822D01*
X229406Y267722D01*
X229344Y267620D01*
X229285Y267516D01*
X229230Y267410D01*
X229179Y267302D01*
X229131Y267193D01*
X229086Y267082D01*
X229046Y266970D01*
X229009Y266856D01*
X228976Y266741D01*
X228946Y266626D01*
X228921Y266509D01*
X228899Y266392D01*
X228882Y266273D01*
X228868Y266155D01*
X228858Y266036D01*
X228852Y265916D01*
X228850Y265797D01*
X228850Y262184D01*
X228852Y262065D01*
X228858Y261945D01*
X228868Y261826D01*
X228882Y261708D01*
X228899Y261589D01*
X228921Y261472D01*
X228946Y261355D01*
X228976Y261240D01*
X229009Y261125D01*
X229046Y261011D01*
X229086Y260899D01*
X229131Y260788D01*
X229179Y260679D01*
X229230Y260571D01*
X229285Y260465D01*
X229344Y260361D01*
X229406Y260259D01*
X229471Y260159D01*
X229540Y260061D01*
X229612Y259965D01*
X229687Y259872D01*
X229764Y259782D01*
X229845Y259694D01*
X229929Y259609D01*
X230016Y259527D01*
X230105Y259447D01*
X230197Y259371D01*
X230291Y259297D01*
X230388Y259227D01*
X230486Y259160D01*
X230587Y259096D01*
X230691Y259036D01*
X230796Y258979D01*
X230903Y258926D01*
X231011Y258876D01*
X231121Y258830D01*
X231233Y258788D01*
X231346Y258749D01*
X231460Y258714D01*
X231575Y258683D01*
X231692Y258655D01*
X231809Y258632D01*
X231926Y258612D01*
X232045Y258596D01*
X232164Y258584D01*
X232283Y258576D01*
X232402Y258572D01*
X232522Y258572D01*
X232641Y258576D01*
X232760Y258584D01*
X232879Y258596D01*
X232998Y258612D01*
X233115Y258632D01*
X233232Y258655D01*
X233349Y258683D01*
X233464Y258714D01*
X233578Y258749D01*
X233691Y258788D01*
X233803Y258830D01*
X233913Y258876D01*
X234021Y258926D01*
X234128Y258979D01*
X234233Y259036D01*
X234337Y259096D01*
X234438Y259160D01*
X234536Y259227D01*
X234633Y259297D01*
X234727Y259371D01*
X234819Y259447D01*
X234908Y259527D01*
X234995Y259609D01*
X235079Y259694D01*
X235160Y259782D01*
X235237Y259872D01*
X235312Y259965D01*
X235384Y260061D01*
X235453Y260159D01*
X235518Y260259D01*
X235580Y260361D01*
X235639Y260465D01*
X235694Y260571D01*
X235745Y260679D01*
X235793Y260788D01*
X235838Y260899D01*
X235878Y261011D01*
X235915Y261125D01*
X235948Y261240D01*
X235978Y261355D01*
X236003Y261472D01*
X236025Y261589D01*
X236042Y261708D01*
X236056Y261826D01*
X236066Y261945D01*
X236072Y262065D01*
X236074Y262184D01*
X222291Y261281D02*
X222291Y274828D01*
X222290Y261281D02*
X222288Y261180D01*
X222282Y261079D01*
X222273Y260978D01*
X222260Y260877D01*
X222243Y260777D01*
X222222Y260678D01*
X222198Y260580D01*
X222170Y260483D01*
X222138Y260386D01*
X222103Y260291D01*
X222064Y260198D01*
X222022Y260106D01*
X221976Y260015D01*
X221927Y259926D01*
X221875Y259840D01*
X221819Y259755D01*
X221761Y259672D01*
X221699Y259592D01*
X221634Y259514D01*
X221567Y259438D01*
X221497Y259365D01*
X221424Y259295D01*
X221348Y259228D01*
X221270Y259163D01*
X221190Y259101D01*
X221107Y259043D01*
X221022Y258987D01*
X220936Y258935D01*
X220847Y258886D01*
X220756Y258840D01*
X220664Y258798D01*
X220571Y258759D01*
X220476Y258724D01*
X220379Y258692D01*
X220282Y258664D01*
X220184Y258640D01*
X220085Y258619D01*
X219985Y258602D01*
X219884Y258589D01*
X219783Y258580D01*
X219682Y258574D01*
X219581Y258572D01*
X213954Y261281D02*
X213954Y274828D01*
X213954Y261281D02*
X213952Y261180D01*
X213946Y261079D01*
X213937Y260978D01*
X213924Y260877D01*
X213907Y260777D01*
X213886Y260678D01*
X213862Y260580D01*
X213834Y260483D01*
X213802Y260386D01*
X213767Y260291D01*
X213728Y260198D01*
X213686Y260106D01*
X213640Y260015D01*
X213591Y259926D01*
X213539Y259840D01*
X213483Y259755D01*
X213425Y259672D01*
X213363Y259592D01*
X213298Y259514D01*
X213231Y259438D01*
X213161Y259365D01*
X213088Y259295D01*
X213012Y259228D01*
X212934Y259163D01*
X212854Y259101D01*
X212771Y259043D01*
X212686Y258987D01*
X212600Y258935D01*
X212511Y258886D01*
X212420Y258840D01*
X212328Y258798D01*
X212235Y258759D01*
X212140Y258724D01*
X212043Y258692D01*
X211946Y258664D01*
X211848Y258640D01*
X211749Y258619D01*
X211649Y258602D01*
X211548Y258589D01*
X211447Y258580D01*
X211346Y258574D01*
X211245Y258572D01*
X203145Y258572D02*
X198629Y258572D01*
X203145Y258572D02*
X203246Y258574D01*
X203347Y258580D01*
X203448Y258589D01*
X203549Y258602D01*
X203649Y258619D01*
X203748Y258640D01*
X203846Y258664D01*
X203943Y258692D01*
X204040Y258724D01*
X204135Y258759D01*
X204228Y258798D01*
X204320Y258840D01*
X204411Y258886D01*
X204500Y258935D01*
X204586Y258987D01*
X204671Y259043D01*
X204754Y259101D01*
X204834Y259163D01*
X204912Y259228D01*
X204988Y259295D01*
X205061Y259365D01*
X205131Y259438D01*
X205198Y259514D01*
X205263Y259592D01*
X205325Y259672D01*
X205383Y259755D01*
X205439Y259840D01*
X205491Y259926D01*
X205540Y260015D01*
X205586Y260106D01*
X205628Y260198D01*
X205667Y260291D01*
X205702Y260386D01*
X205734Y260483D01*
X205762Y260580D01*
X205786Y260678D01*
X205807Y260777D01*
X205824Y260877D01*
X205837Y260978D01*
X205846Y261079D01*
X205852Y261180D01*
X205854Y261281D01*
X205854Y265797D01*
X205852Y265916D01*
X205846Y266036D01*
X205836Y266155D01*
X205822Y266273D01*
X205805Y266392D01*
X205783Y266509D01*
X205758Y266626D01*
X205728Y266741D01*
X205695Y266856D01*
X205658Y266970D01*
X205618Y267082D01*
X205573Y267193D01*
X205525Y267302D01*
X205474Y267410D01*
X205419Y267516D01*
X205360Y267620D01*
X205298Y267722D01*
X205233Y267822D01*
X205164Y267920D01*
X205092Y268016D01*
X205017Y268109D01*
X204940Y268199D01*
X204859Y268287D01*
X204775Y268372D01*
X204688Y268454D01*
X204599Y268534D01*
X204507Y268610D01*
X204413Y268684D01*
X204316Y268754D01*
X204218Y268821D01*
X204117Y268885D01*
X204013Y268945D01*
X203908Y269002D01*
X203801Y269055D01*
X203693Y269105D01*
X203583Y269151D01*
X203471Y269193D01*
X203358Y269232D01*
X203244Y269267D01*
X203129Y269298D01*
X203012Y269326D01*
X202895Y269349D01*
X202778Y269369D01*
X202659Y269385D01*
X202540Y269397D01*
X202421Y269405D01*
X202302Y269409D01*
X202182Y269409D01*
X202063Y269405D01*
X201944Y269397D01*
X201825Y269385D01*
X201706Y269369D01*
X201589Y269349D01*
X201472Y269326D01*
X201355Y269298D01*
X201240Y269267D01*
X201126Y269232D01*
X201013Y269193D01*
X200901Y269151D01*
X200791Y269105D01*
X200683Y269055D01*
X200576Y269002D01*
X200471Y268945D01*
X200367Y268885D01*
X200266Y268821D01*
X200168Y268754D01*
X200071Y268684D01*
X199977Y268610D01*
X199885Y268534D01*
X199796Y268454D01*
X199709Y268372D01*
X199625Y268287D01*
X199544Y268199D01*
X199467Y268109D01*
X199392Y268016D01*
X199320Y267920D01*
X199251Y267822D01*
X199186Y267722D01*
X199124Y267620D01*
X199065Y267516D01*
X199010Y267410D01*
X198959Y267302D01*
X198911Y267193D01*
X198866Y267082D01*
X198826Y266970D01*
X198789Y266856D01*
X198756Y266741D01*
X198726Y266626D01*
X198701Y266509D01*
X198679Y266392D01*
X198662Y266273D01*
X198648Y266155D01*
X198638Y266036D01*
X198632Y265916D01*
X198630Y265797D01*
X198629Y265797D02*
X198629Y263991D01*
X205854Y263991D01*
X191701Y258572D02*
X191701Y269409D01*
X186283Y269409D01*
X186283Y267603D01*
X372279Y231902D02*
X377698Y248158D01*
X366861Y248158D02*
X372279Y231902D01*
X361164Y244546D02*
X356648Y248158D01*
X356648Y231902D01*
X352133Y231902D02*
X361164Y231902D01*
M02*
