G04 EAGLE Gerber RS-274X export*
G75*
%MOMM*%
%FSLAX34Y34*%
%LPD*%
%INSilkscreen Top*%
%IPPOS*%
%AMOC8*
5,1,8,0,0,1.08239X$1,22.5*%
G01*
%ADD10C,0.152400*%
%ADD11C,0.050800*%
%ADD12C,0.101600*%
%ADD13C,0.200000*%
%ADD14C,0.127000*%
%ADD15C,0.076200*%
%ADD16C,0.000000*%


D10*
X430022Y148759D02*
X430022Y140631D01*
X430024Y140530D01*
X430030Y140429D01*
X430039Y140328D01*
X430052Y140227D01*
X430069Y140127D01*
X430090Y140028D01*
X430114Y139930D01*
X430142Y139833D01*
X430174Y139736D01*
X430209Y139641D01*
X430248Y139548D01*
X430290Y139456D01*
X430336Y139365D01*
X430385Y139277D01*
X430437Y139190D01*
X430493Y139105D01*
X430551Y139022D01*
X430613Y138942D01*
X430678Y138864D01*
X430745Y138788D01*
X430815Y138715D01*
X430888Y138645D01*
X430964Y138578D01*
X431042Y138513D01*
X431122Y138451D01*
X431205Y138393D01*
X431290Y138337D01*
X431377Y138285D01*
X431465Y138236D01*
X431556Y138190D01*
X431648Y138148D01*
X431741Y138109D01*
X431836Y138074D01*
X431933Y138042D01*
X432030Y138014D01*
X432128Y137990D01*
X432227Y137969D01*
X432327Y137952D01*
X432428Y137939D01*
X432529Y137930D01*
X432630Y137924D01*
X432731Y137922D01*
X437247Y137922D01*
X437247Y148759D01*
X444961Y154178D02*
X444961Y137922D01*
X444961Y154178D02*
X449477Y154178D01*
X449610Y154176D01*
X449742Y154170D01*
X449874Y154160D01*
X450006Y154147D01*
X450138Y154129D01*
X450268Y154108D01*
X450399Y154083D01*
X450528Y154054D01*
X450656Y154021D01*
X450784Y153985D01*
X450910Y153945D01*
X451035Y153901D01*
X451159Y153853D01*
X451281Y153802D01*
X451402Y153747D01*
X451521Y153689D01*
X451639Y153627D01*
X451754Y153562D01*
X451868Y153493D01*
X451979Y153422D01*
X452088Y153346D01*
X452195Y153268D01*
X452300Y153187D01*
X452402Y153102D01*
X452502Y153015D01*
X452599Y152925D01*
X452694Y152832D01*
X452785Y152736D01*
X452874Y152638D01*
X452960Y152537D01*
X453043Y152433D01*
X453123Y152327D01*
X453199Y152219D01*
X453273Y152109D01*
X453343Y151996D01*
X453410Y151882D01*
X453473Y151765D01*
X453533Y151647D01*
X453590Y151527D01*
X453643Y151405D01*
X453692Y151282D01*
X453738Y151158D01*
X453780Y151032D01*
X453818Y150905D01*
X453853Y150777D01*
X453884Y150648D01*
X453911Y150519D01*
X453934Y150388D01*
X453954Y150257D01*
X453969Y150125D01*
X453981Y149993D01*
X453989Y149861D01*
X453993Y149728D01*
X453993Y149596D01*
X453989Y149463D01*
X453981Y149331D01*
X453969Y149199D01*
X453954Y149067D01*
X453934Y148936D01*
X453911Y148805D01*
X453884Y148676D01*
X453853Y148547D01*
X453818Y148419D01*
X453780Y148292D01*
X453738Y148166D01*
X453692Y148042D01*
X453643Y147919D01*
X453590Y147797D01*
X453533Y147677D01*
X453473Y147559D01*
X453410Y147442D01*
X453343Y147328D01*
X453273Y147215D01*
X453199Y147105D01*
X453123Y146997D01*
X453043Y146891D01*
X452960Y146787D01*
X452874Y146686D01*
X452785Y146588D01*
X452694Y146492D01*
X452599Y146399D01*
X452502Y146309D01*
X452402Y146222D01*
X452300Y146137D01*
X452195Y146056D01*
X452088Y145978D01*
X451979Y145902D01*
X451868Y145831D01*
X451754Y145762D01*
X451639Y145697D01*
X451521Y145635D01*
X451402Y145577D01*
X451281Y145522D01*
X451159Y145471D01*
X451035Y145423D01*
X450910Y145379D01*
X450784Y145339D01*
X450656Y145303D01*
X450528Y145270D01*
X450399Y145241D01*
X450268Y145216D01*
X450138Y145195D01*
X450006Y145177D01*
X449874Y145164D01*
X449742Y145154D01*
X449610Y145148D01*
X449477Y145146D01*
X449477Y145147D02*
X444961Y145147D01*
X365958Y146953D02*
X361442Y146953D01*
X365958Y146954D02*
X366091Y146952D01*
X366223Y146946D01*
X366355Y146936D01*
X366487Y146923D01*
X366619Y146905D01*
X366749Y146884D01*
X366880Y146859D01*
X367009Y146830D01*
X367137Y146797D01*
X367265Y146761D01*
X367391Y146721D01*
X367516Y146677D01*
X367640Y146629D01*
X367762Y146578D01*
X367883Y146523D01*
X368002Y146465D01*
X368120Y146403D01*
X368235Y146338D01*
X368349Y146269D01*
X368460Y146198D01*
X368569Y146122D01*
X368676Y146044D01*
X368781Y145963D01*
X368883Y145878D01*
X368983Y145791D01*
X369080Y145701D01*
X369175Y145608D01*
X369266Y145512D01*
X369355Y145414D01*
X369441Y145313D01*
X369524Y145209D01*
X369604Y145103D01*
X369680Y144995D01*
X369754Y144885D01*
X369824Y144772D01*
X369891Y144658D01*
X369954Y144541D01*
X370014Y144423D01*
X370071Y144303D01*
X370124Y144181D01*
X370173Y144058D01*
X370219Y143934D01*
X370261Y143808D01*
X370299Y143681D01*
X370334Y143553D01*
X370365Y143424D01*
X370392Y143295D01*
X370415Y143164D01*
X370435Y143033D01*
X370450Y142901D01*
X370462Y142769D01*
X370470Y142637D01*
X370474Y142504D01*
X370474Y142372D01*
X370470Y142239D01*
X370462Y142107D01*
X370450Y141975D01*
X370435Y141843D01*
X370415Y141712D01*
X370392Y141581D01*
X370365Y141452D01*
X370334Y141323D01*
X370299Y141195D01*
X370261Y141068D01*
X370219Y140942D01*
X370173Y140818D01*
X370124Y140695D01*
X370071Y140573D01*
X370014Y140453D01*
X369954Y140335D01*
X369891Y140218D01*
X369824Y140104D01*
X369754Y139991D01*
X369680Y139881D01*
X369604Y139773D01*
X369524Y139667D01*
X369441Y139563D01*
X369355Y139462D01*
X369266Y139364D01*
X369175Y139268D01*
X369080Y139175D01*
X368983Y139085D01*
X368883Y138998D01*
X368781Y138913D01*
X368676Y138832D01*
X368569Y138754D01*
X368460Y138678D01*
X368349Y138607D01*
X368235Y138538D01*
X368120Y138473D01*
X368002Y138411D01*
X367883Y138353D01*
X367762Y138298D01*
X367640Y138247D01*
X367516Y138199D01*
X367391Y138155D01*
X367265Y138115D01*
X367137Y138079D01*
X367009Y138046D01*
X366880Y138017D01*
X366749Y137992D01*
X366619Y137971D01*
X366487Y137953D01*
X366355Y137940D01*
X366223Y137930D01*
X366091Y137924D01*
X365958Y137922D01*
X361442Y137922D01*
X361442Y154178D01*
X365958Y154178D01*
X366077Y154176D01*
X366197Y154170D01*
X366316Y154160D01*
X366434Y154146D01*
X366553Y154129D01*
X366670Y154107D01*
X366787Y154082D01*
X366902Y154052D01*
X367017Y154019D01*
X367131Y153982D01*
X367243Y153942D01*
X367354Y153897D01*
X367463Y153849D01*
X367571Y153798D01*
X367677Y153743D01*
X367781Y153684D01*
X367883Y153622D01*
X367983Y153557D01*
X368081Y153488D01*
X368177Y153416D01*
X368270Y153341D01*
X368360Y153264D01*
X368448Y153183D01*
X368533Y153099D01*
X368615Y153012D01*
X368695Y152923D01*
X368771Y152831D01*
X368845Y152737D01*
X368915Y152640D01*
X368982Y152542D01*
X369046Y152441D01*
X369106Y152337D01*
X369163Y152232D01*
X369216Y152125D01*
X369266Y152017D01*
X369312Y151907D01*
X369354Y151795D01*
X369393Y151682D01*
X369428Y151568D01*
X369459Y151453D01*
X369487Y151336D01*
X369510Y151219D01*
X369530Y151102D01*
X369546Y150983D01*
X369558Y150864D01*
X369566Y150745D01*
X369570Y150626D01*
X369570Y150506D01*
X369566Y150387D01*
X369558Y150268D01*
X369546Y150149D01*
X369530Y150030D01*
X369510Y149913D01*
X369487Y149796D01*
X369459Y149679D01*
X369428Y149564D01*
X369393Y149450D01*
X369354Y149337D01*
X369312Y149225D01*
X369266Y149115D01*
X369216Y149007D01*
X369163Y148900D01*
X369106Y148795D01*
X369046Y148691D01*
X368982Y148590D01*
X368915Y148492D01*
X368845Y148395D01*
X368771Y148301D01*
X368695Y148209D01*
X368615Y148120D01*
X368533Y148033D01*
X368448Y147949D01*
X368360Y147868D01*
X368270Y147791D01*
X368177Y147716D01*
X368081Y147644D01*
X367983Y147575D01*
X367883Y147510D01*
X367781Y147448D01*
X367677Y147389D01*
X367571Y147334D01*
X367463Y147283D01*
X367354Y147235D01*
X367243Y147190D01*
X367131Y147150D01*
X367017Y147113D01*
X366902Y147080D01*
X366787Y147050D01*
X366670Y147025D01*
X366553Y147003D01*
X366434Y146986D01*
X366316Y146972D01*
X366197Y146962D01*
X366077Y146956D01*
X365958Y146954D01*
X377073Y154178D02*
X377073Y137922D01*
X377073Y154178D02*
X381589Y154178D01*
X381722Y154176D01*
X381854Y154170D01*
X381986Y154160D01*
X382118Y154147D01*
X382250Y154129D01*
X382380Y154108D01*
X382511Y154083D01*
X382640Y154054D01*
X382768Y154021D01*
X382896Y153985D01*
X383022Y153945D01*
X383147Y153901D01*
X383271Y153853D01*
X383393Y153802D01*
X383514Y153747D01*
X383633Y153689D01*
X383751Y153627D01*
X383866Y153562D01*
X383980Y153493D01*
X384091Y153422D01*
X384200Y153346D01*
X384307Y153268D01*
X384412Y153187D01*
X384514Y153102D01*
X384614Y153015D01*
X384711Y152925D01*
X384806Y152832D01*
X384897Y152736D01*
X384986Y152638D01*
X385072Y152537D01*
X385155Y152433D01*
X385235Y152327D01*
X385311Y152219D01*
X385385Y152109D01*
X385455Y151996D01*
X385522Y151882D01*
X385585Y151765D01*
X385645Y151647D01*
X385702Y151527D01*
X385755Y151405D01*
X385804Y151282D01*
X385850Y151158D01*
X385892Y151032D01*
X385930Y150905D01*
X385965Y150777D01*
X385996Y150648D01*
X386023Y150519D01*
X386046Y150388D01*
X386066Y150257D01*
X386081Y150125D01*
X386093Y149993D01*
X386101Y149861D01*
X386105Y149728D01*
X386105Y149596D01*
X386101Y149463D01*
X386093Y149331D01*
X386081Y149199D01*
X386066Y149067D01*
X386046Y148936D01*
X386023Y148805D01*
X385996Y148676D01*
X385965Y148547D01*
X385930Y148419D01*
X385892Y148292D01*
X385850Y148166D01*
X385804Y148042D01*
X385755Y147919D01*
X385702Y147797D01*
X385645Y147677D01*
X385585Y147559D01*
X385522Y147442D01*
X385455Y147328D01*
X385385Y147215D01*
X385311Y147105D01*
X385235Y146997D01*
X385155Y146891D01*
X385072Y146787D01*
X384986Y146686D01*
X384897Y146588D01*
X384806Y146492D01*
X384711Y146399D01*
X384614Y146309D01*
X384514Y146222D01*
X384412Y146137D01*
X384307Y146056D01*
X384200Y145978D01*
X384091Y145902D01*
X383980Y145831D01*
X383866Y145762D01*
X383751Y145697D01*
X383633Y145635D01*
X383514Y145577D01*
X383393Y145522D01*
X383271Y145471D01*
X383147Y145423D01*
X383022Y145379D01*
X382896Y145339D01*
X382768Y145303D01*
X382640Y145270D01*
X382511Y145241D01*
X382380Y145216D01*
X382250Y145195D01*
X382118Y145177D01*
X381986Y145164D01*
X381854Y145154D01*
X381722Y145148D01*
X381589Y145146D01*
X381589Y145147D02*
X377073Y145147D01*
D11*
X45635Y130020D02*
X40894Y130020D01*
X43265Y132390D02*
X43265Y127649D01*
X48604Y127254D02*
X50580Y127254D01*
X50667Y127256D01*
X50755Y127262D01*
X50842Y127271D01*
X50928Y127285D01*
X51014Y127302D01*
X51098Y127323D01*
X51182Y127348D01*
X51265Y127377D01*
X51346Y127409D01*
X51426Y127444D01*
X51504Y127483D01*
X51581Y127526D01*
X51655Y127572D01*
X51727Y127621D01*
X51797Y127673D01*
X51865Y127729D01*
X51930Y127787D01*
X51993Y127848D01*
X52052Y127912D01*
X52109Y127979D01*
X52163Y128047D01*
X52214Y128119D01*
X52261Y128192D01*
X52306Y128267D01*
X52347Y128345D01*
X52384Y128424D01*
X52418Y128504D01*
X52448Y128586D01*
X52475Y128669D01*
X52498Y128754D01*
X52517Y128839D01*
X52532Y128925D01*
X52544Y129012D01*
X52552Y129099D01*
X52556Y129186D01*
X52556Y129274D01*
X52552Y129361D01*
X52544Y129448D01*
X52532Y129535D01*
X52517Y129621D01*
X52498Y129706D01*
X52475Y129791D01*
X52448Y129874D01*
X52418Y129956D01*
X52384Y130036D01*
X52347Y130115D01*
X52306Y130193D01*
X52261Y130268D01*
X52214Y130341D01*
X52163Y130413D01*
X52109Y130481D01*
X52052Y130548D01*
X51993Y130612D01*
X51930Y130673D01*
X51865Y130731D01*
X51797Y130787D01*
X51727Y130839D01*
X51655Y130888D01*
X51581Y130934D01*
X51504Y130977D01*
X51426Y131016D01*
X51346Y131051D01*
X51265Y131083D01*
X51182Y131112D01*
X51098Y131137D01*
X51014Y131158D01*
X50928Y131175D01*
X50842Y131189D01*
X50755Y131198D01*
X50667Y131204D01*
X50580Y131206D01*
X50975Y134366D02*
X48604Y134366D01*
X50975Y134366D02*
X51054Y134364D01*
X51132Y134358D01*
X51210Y134348D01*
X51288Y134335D01*
X51365Y134317D01*
X51441Y134296D01*
X51515Y134271D01*
X51589Y134242D01*
X51661Y134210D01*
X51731Y134174D01*
X51799Y134134D01*
X51865Y134091D01*
X51929Y134045D01*
X51991Y133996D01*
X52050Y133944D01*
X52106Y133889D01*
X52160Y133831D01*
X52210Y133771D01*
X52258Y133708D01*
X52302Y133643D01*
X52343Y133576D01*
X52381Y133507D01*
X52415Y133436D01*
X52446Y133363D01*
X52473Y133289D01*
X52496Y133214D01*
X52515Y133138D01*
X52531Y133060D01*
X52543Y132982D01*
X52551Y132904D01*
X52555Y132825D01*
X52555Y132747D01*
X52551Y132668D01*
X52543Y132590D01*
X52531Y132512D01*
X52515Y132434D01*
X52496Y132358D01*
X52473Y132283D01*
X52446Y132209D01*
X52415Y132136D01*
X52381Y132065D01*
X52343Y131996D01*
X52302Y131929D01*
X52258Y131864D01*
X52210Y131801D01*
X52160Y131741D01*
X52106Y131683D01*
X52050Y131628D01*
X51991Y131576D01*
X51929Y131527D01*
X51865Y131481D01*
X51799Y131438D01*
X51731Y131398D01*
X51661Y131362D01*
X51589Y131330D01*
X51515Y131301D01*
X51441Y131276D01*
X51365Y131255D01*
X51288Y131237D01*
X51210Y131224D01*
X51132Y131214D01*
X51054Y131208D01*
X50975Y131206D01*
X50975Y131205D02*
X49395Y131205D01*
X55067Y134366D02*
X57438Y127254D01*
X59808Y134366D01*
X62320Y127254D02*
X64296Y127254D01*
X64383Y127256D01*
X64471Y127262D01*
X64558Y127271D01*
X64644Y127285D01*
X64730Y127302D01*
X64814Y127323D01*
X64898Y127348D01*
X64981Y127377D01*
X65062Y127409D01*
X65142Y127444D01*
X65220Y127483D01*
X65297Y127526D01*
X65371Y127572D01*
X65443Y127621D01*
X65513Y127673D01*
X65581Y127729D01*
X65646Y127787D01*
X65709Y127848D01*
X65768Y127912D01*
X65825Y127979D01*
X65879Y128047D01*
X65930Y128119D01*
X65977Y128192D01*
X66022Y128267D01*
X66063Y128345D01*
X66100Y128424D01*
X66134Y128504D01*
X66164Y128586D01*
X66191Y128669D01*
X66214Y128754D01*
X66233Y128839D01*
X66248Y128925D01*
X66260Y129012D01*
X66268Y129099D01*
X66272Y129186D01*
X66272Y129274D01*
X66268Y129361D01*
X66260Y129448D01*
X66248Y129535D01*
X66233Y129621D01*
X66214Y129706D01*
X66191Y129791D01*
X66164Y129874D01*
X66134Y129956D01*
X66100Y130036D01*
X66063Y130115D01*
X66022Y130193D01*
X65977Y130268D01*
X65930Y130341D01*
X65879Y130413D01*
X65825Y130481D01*
X65768Y130548D01*
X65709Y130612D01*
X65646Y130673D01*
X65581Y130731D01*
X65513Y130787D01*
X65443Y130839D01*
X65371Y130888D01*
X65297Y130934D01*
X65220Y130977D01*
X65142Y131016D01*
X65062Y131051D01*
X64981Y131083D01*
X64898Y131112D01*
X64814Y131137D01*
X64730Y131158D01*
X64644Y131175D01*
X64558Y131189D01*
X64471Y131198D01*
X64383Y131204D01*
X64296Y131206D01*
X64691Y134366D02*
X62320Y134366D01*
X64691Y134366D02*
X64770Y134364D01*
X64848Y134358D01*
X64926Y134348D01*
X65004Y134335D01*
X65081Y134317D01*
X65157Y134296D01*
X65231Y134271D01*
X65305Y134242D01*
X65377Y134210D01*
X65447Y134174D01*
X65515Y134134D01*
X65581Y134091D01*
X65645Y134045D01*
X65707Y133996D01*
X65766Y133944D01*
X65822Y133889D01*
X65876Y133831D01*
X65926Y133771D01*
X65974Y133708D01*
X66018Y133643D01*
X66059Y133576D01*
X66097Y133507D01*
X66131Y133436D01*
X66162Y133363D01*
X66189Y133289D01*
X66212Y133214D01*
X66231Y133138D01*
X66247Y133060D01*
X66259Y132982D01*
X66267Y132904D01*
X66271Y132825D01*
X66271Y132747D01*
X66267Y132668D01*
X66259Y132590D01*
X66247Y132512D01*
X66231Y132434D01*
X66212Y132358D01*
X66189Y132283D01*
X66162Y132209D01*
X66131Y132136D01*
X66097Y132065D01*
X66059Y131996D01*
X66018Y131929D01*
X65974Y131864D01*
X65926Y131801D01*
X65876Y131741D01*
X65822Y131683D01*
X65766Y131628D01*
X65707Y131576D01*
X65645Y131527D01*
X65581Y131481D01*
X65515Y131438D01*
X65447Y131398D01*
X65377Y131362D01*
X65305Y131330D01*
X65231Y131301D01*
X65157Y131276D01*
X65081Y131255D01*
X65004Y131237D01*
X64926Y131224D01*
X64848Y131214D01*
X64770Y131208D01*
X64691Y131206D01*
X64691Y131205D02*
X63110Y131205D01*
X47385Y47385D02*
X46200Y47385D01*
X47385Y47385D02*
X47385Y43434D01*
X45014Y43434D01*
X44936Y43436D01*
X44859Y43442D01*
X44782Y43451D01*
X44706Y43464D01*
X44630Y43481D01*
X44555Y43502D01*
X44482Y43526D01*
X44409Y43554D01*
X44338Y43586D01*
X44269Y43621D01*
X44202Y43659D01*
X44136Y43700D01*
X44073Y43745D01*
X44012Y43793D01*
X43953Y43843D01*
X43897Y43897D01*
X43843Y43953D01*
X43793Y44012D01*
X43745Y44073D01*
X43700Y44136D01*
X43659Y44202D01*
X43621Y44269D01*
X43586Y44338D01*
X43554Y44409D01*
X43526Y44482D01*
X43502Y44555D01*
X43481Y44630D01*
X43464Y44706D01*
X43451Y44782D01*
X43442Y44859D01*
X43436Y44936D01*
X43434Y45014D01*
X43434Y48966D01*
X43436Y49044D01*
X43442Y49121D01*
X43451Y49198D01*
X43464Y49274D01*
X43481Y49350D01*
X43502Y49425D01*
X43526Y49498D01*
X43554Y49571D01*
X43586Y49642D01*
X43621Y49711D01*
X43659Y49778D01*
X43700Y49844D01*
X43745Y49907D01*
X43793Y49968D01*
X43843Y50027D01*
X43897Y50083D01*
X43953Y50137D01*
X44012Y50187D01*
X44073Y50235D01*
X44136Y50280D01*
X44202Y50321D01*
X44269Y50359D01*
X44338Y50394D01*
X44409Y50426D01*
X44482Y50454D01*
X44555Y50478D01*
X44630Y50499D01*
X44706Y50516D01*
X44782Y50529D01*
X44859Y50538D01*
X44936Y50544D01*
X45014Y50546D01*
X47385Y50546D01*
X50749Y50546D02*
X50749Y43434D01*
X54700Y43434D02*
X50749Y50546D01*
X54700Y50546D02*
X54700Y43434D01*
X58064Y43434D02*
X58064Y50546D01*
X60040Y50546D01*
X60126Y50544D01*
X60212Y50538D01*
X60298Y50529D01*
X60383Y50516D01*
X60468Y50499D01*
X60551Y50479D01*
X60634Y50455D01*
X60716Y50427D01*
X60796Y50396D01*
X60875Y50361D01*
X60952Y50323D01*
X61028Y50281D01*
X61102Y50237D01*
X61173Y50189D01*
X61243Y50138D01*
X61310Y50084D01*
X61375Y50027D01*
X61437Y49967D01*
X61497Y49905D01*
X61554Y49840D01*
X61608Y49773D01*
X61659Y49703D01*
X61707Y49632D01*
X61751Y49558D01*
X61793Y49482D01*
X61831Y49405D01*
X61866Y49326D01*
X61897Y49246D01*
X61925Y49164D01*
X61949Y49081D01*
X61969Y48998D01*
X61986Y48913D01*
X61999Y48828D01*
X62008Y48742D01*
X62014Y48656D01*
X62016Y48570D01*
X62015Y48570D02*
X62015Y45410D01*
X62016Y45410D02*
X62014Y45324D01*
X62008Y45238D01*
X61999Y45152D01*
X61986Y45067D01*
X61969Y44982D01*
X61949Y44899D01*
X61925Y44816D01*
X61897Y44734D01*
X61866Y44654D01*
X61831Y44575D01*
X61793Y44498D01*
X61751Y44422D01*
X61707Y44348D01*
X61659Y44277D01*
X61608Y44207D01*
X61554Y44140D01*
X61497Y44075D01*
X61437Y44013D01*
X61375Y43953D01*
X61310Y43896D01*
X61243Y43842D01*
X61173Y43791D01*
X61102Y43743D01*
X61028Y43699D01*
X60952Y43657D01*
X60875Y43619D01*
X60796Y43584D01*
X60716Y43553D01*
X60634Y43525D01*
X60551Y43501D01*
X60468Y43481D01*
X60383Y43464D01*
X60298Y43451D01*
X60212Y43442D01*
X60126Y43436D01*
X60040Y43434D01*
X58064Y43434D01*
X48006Y91525D02*
X48004Y91603D01*
X47998Y91680D01*
X47989Y91757D01*
X47976Y91833D01*
X47959Y91909D01*
X47938Y91984D01*
X47914Y92057D01*
X47886Y92130D01*
X47854Y92201D01*
X47819Y92270D01*
X47781Y92337D01*
X47740Y92403D01*
X47695Y92466D01*
X47647Y92527D01*
X47597Y92586D01*
X47543Y92642D01*
X47487Y92696D01*
X47428Y92746D01*
X47367Y92794D01*
X47304Y92839D01*
X47238Y92880D01*
X47171Y92918D01*
X47102Y92953D01*
X47031Y92985D01*
X46958Y93013D01*
X46885Y93037D01*
X46810Y93058D01*
X46734Y93075D01*
X46658Y93088D01*
X46581Y93097D01*
X46504Y93103D01*
X46426Y93105D01*
X48006Y91525D02*
X48004Y91410D01*
X47998Y91296D01*
X47988Y91182D01*
X47975Y91068D01*
X47957Y90955D01*
X47935Y90842D01*
X47910Y90730D01*
X47881Y90620D01*
X47848Y90510D01*
X47811Y90401D01*
X47771Y90294D01*
X47727Y90188D01*
X47679Y90084D01*
X47628Y89981D01*
X47573Y89881D01*
X47515Y89782D01*
X47453Y89685D01*
X47389Y89591D01*
X47321Y89498D01*
X47249Y89408D01*
X47175Y89321D01*
X47098Y89236D01*
X47018Y89154D01*
X42474Y89352D02*
X42396Y89354D01*
X42319Y89360D01*
X42242Y89369D01*
X42166Y89382D01*
X42090Y89399D01*
X42015Y89420D01*
X41942Y89444D01*
X41869Y89472D01*
X41798Y89504D01*
X41729Y89539D01*
X41662Y89577D01*
X41596Y89618D01*
X41533Y89663D01*
X41472Y89711D01*
X41413Y89761D01*
X41357Y89815D01*
X41303Y89871D01*
X41253Y89930D01*
X41205Y89991D01*
X41160Y90054D01*
X41119Y90120D01*
X41081Y90187D01*
X41046Y90256D01*
X41014Y90327D01*
X40986Y90400D01*
X40962Y90473D01*
X40941Y90548D01*
X40924Y90624D01*
X40911Y90700D01*
X40902Y90777D01*
X40896Y90854D01*
X40894Y90932D01*
X40896Y91038D01*
X40902Y91144D01*
X40911Y91249D01*
X40924Y91354D01*
X40941Y91459D01*
X40962Y91563D01*
X40986Y91666D01*
X41014Y91768D01*
X41046Y91869D01*
X41081Y91969D01*
X41120Y92067D01*
X41163Y92165D01*
X41208Y92260D01*
X41257Y92354D01*
X41310Y92446D01*
X41366Y92536D01*
X41425Y92624D01*
X41487Y92710D01*
X43857Y90142D02*
X43815Y90075D01*
X43770Y90010D01*
X43721Y89947D01*
X43670Y89886D01*
X43615Y89829D01*
X43558Y89774D01*
X43498Y89721D01*
X43436Y89672D01*
X43371Y89626D01*
X43305Y89584D01*
X43236Y89544D01*
X43165Y89508D01*
X43092Y89476D01*
X43018Y89447D01*
X42943Y89422D01*
X42867Y89401D01*
X42789Y89383D01*
X42711Y89370D01*
X42632Y89360D01*
X42553Y89354D01*
X42474Y89352D01*
X45043Y92315D02*
X45085Y92382D01*
X45130Y92447D01*
X45179Y92510D01*
X45230Y92571D01*
X45285Y92628D01*
X45342Y92683D01*
X45402Y92736D01*
X45464Y92785D01*
X45529Y92831D01*
X45595Y92873D01*
X45664Y92913D01*
X45735Y92949D01*
X45808Y92981D01*
X45882Y93010D01*
X45957Y93035D01*
X46033Y93056D01*
X46111Y93074D01*
X46189Y93087D01*
X46268Y93097D01*
X46347Y93103D01*
X46426Y93105D01*
X45043Y92315D02*
X43857Y90142D01*
X40894Y96012D02*
X48006Y96012D01*
X40894Y96012D02*
X40894Y97988D01*
X40896Y98074D01*
X40902Y98160D01*
X40911Y98246D01*
X40924Y98331D01*
X40941Y98416D01*
X40961Y98499D01*
X40985Y98582D01*
X41013Y98664D01*
X41044Y98744D01*
X41079Y98823D01*
X41117Y98900D01*
X41159Y98976D01*
X41203Y99050D01*
X41251Y99121D01*
X41302Y99191D01*
X41356Y99258D01*
X41413Y99323D01*
X41473Y99385D01*
X41535Y99445D01*
X41600Y99502D01*
X41667Y99556D01*
X41737Y99607D01*
X41808Y99655D01*
X41882Y99699D01*
X41958Y99741D01*
X42035Y99779D01*
X42114Y99814D01*
X42194Y99845D01*
X42276Y99873D01*
X42359Y99897D01*
X42442Y99917D01*
X42527Y99934D01*
X42612Y99947D01*
X42698Y99956D01*
X42784Y99962D01*
X42870Y99964D01*
X42870Y99963D02*
X46030Y99963D01*
X46030Y99964D02*
X46116Y99962D01*
X46202Y99956D01*
X46288Y99947D01*
X46373Y99934D01*
X46458Y99917D01*
X46541Y99897D01*
X46624Y99873D01*
X46706Y99845D01*
X46786Y99814D01*
X46865Y99779D01*
X46942Y99741D01*
X47018Y99699D01*
X47092Y99655D01*
X47163Y99607D01*
X47233Y99556D01*
X47300Y99502D01*
X47365Y99445D01*
X47427Y99385D01*
X47487Y99323D01*
X47544Y99258D01*
X47598Y99191D01*
X47649Y99121D01*
X47697Y99050D01*
X47741Y98976D01*
X47783Y98900D01*
X47821Y98823D01*
X47856Y98744D01*
X47887Y98664D01*
X47915Y98582D01*
X47939Y98499D01*
X47959Y98416D01*
X47976Y98331D01*
X47989Y98246D01*
X47998Y98160D01*
X48004Y98074D01*
X48006Y97988D01*
X48006Y96012D01*
X48006Y102703D02*
X40894Y105074D01*
X48006Y107445D01*
X46228Y106852D02*
X46228Y103296D01*
X46426Y67705D02*
X46504Y67703D01*
X46581Y67697D01*
X46658Y67688D01*
X46734Y67675D01*
X46810Y67658D01*
X46885Y67637D01*
X46958Y67613D01*
X47031Y67585D01*
X47102Y67553D01*
X47171Y67518D01*
X47238Y67480D01*
X47304Y67439D01*
X47367Y67394D01*
X47428Y67346D01*
X47487Y67296D01*
X47543Y67242D01*
X47597Y67186D01*
X47647Y67127D01*
X47695Y67066D01*
X47740Y67003D01*
X47781Y66937D01*
X47819Y66870D01*
X47854Y66801D01*
X47886Y66730D01*
X47914Y66657D01*
X47938Y66584D01*
X47959Y66509D01*
X47976Y66433D01*
X47989Y66357D01*
X47998Y66280D01*
X48004Y66203D01*
X48006Y66125D01*
X48004Y66010D01*
X47998Y65896D01*
X47988Y65782D01*
X47975Y65668D01*
X47957Y65555D01*
X47935Y65442D01*
X47910Y65330D01*
X47881Y65220D01*
X47848Y65110D01*
X47811Y65001D01*
X47771Y64894D01*
X47727Y64788D01*
X47679Y64684D01*
X47628Y64581D01*
X47573Y64481D01*
X47515Y64382D01*
X47453Y64285D01*
X47389Y64191D01*
X47321Y64098D01*
X47249Y64008D01*
X47175Y63921D01*
X47098Y63836D01*
X47018Y63754D01*
X42474Y63952D02*
X42396Y63954D01*
X42319Y63960D01*
X42242Y63969D01*
X42166Y63982D01*
X42090Y63999D01*
X42015Y64020D01*
X41942Y64044D01*
X41869Y64072D01*
X41798Y64104D01*
X41729Y64139D01*
X41662Y64177D01*
X41596Y64218D01*
X41533Y64263D01*
X41472Y64311D01*
X41413Y64361D01*
X41357Y64415D01*
X41303Y64471D01*
X41253Y64530D01*
X41205Y64591D01*
X41160Y64654D01*
X41119Y64720D01*
X41081Y64787D01*
X41046Y64856D01*
X41014Y64927D01*
X40986Y65000D01*
X40962Y65073D01*
X40941Y65148D01*
X40924Y65224D01*
X40911Y65300D01*
X40902Y65377D01*
X40896Y65454D01*
X40894Y65532D01*
X40896Y65638D01*
X40902Y65744D01*
X40911Y65849D01*
X40924Y65954D01*
X40941Y66059D01*
X40962Y66163D01*
X40986Y66266D01*
X41014Y66368D01*
X41046Y66469D01*
X41081Y66569D01*
X41120Y66667D01*
X41163Y66765D01*
X41208Y66860D01*
X41257Y66954D01*
X41310Y67046D01*
X41366Y67136D01*
X41425Y67224D01*
X41487Y67310D01*
X43857Y64742D02*
X43815Y64675D01*
X43770Y64610D01*
X43721Y64547D01*
X43670Y64486D01*
X43615Y64429D01*
X43558Y64374D01*
X43498Y64321D01*
X43436Y64272D01*
X43371Y64226D01*
X43305Y64184D01*
X43236Y64144D01*
X43165Y64108D01*
X43092Y64076D01*
X43018Y64047D01*
X42943Y64022D01*
X42867Y64001D01*
X42789Y63983D01*
X42711Y63970D01*
X42632Y63960D01*
X42553Y63954D01*
X42474Y63952D01*
X45043Y66915D02*
X45085Y66982D01*
X45130Y67047D01*
X45179Y67110D01*
X45230Y67171D01*
X45285Y67228D01*
X45342Y67283D01*
X45402Y67336D01*
X45464Y67385D01*
X45529Y67431D01*
X45595Y67473D01*
X45664Y67513D01*
X45735Y67549D01*
X45808Y67581D01*
X45882Y67610D01*
X45957Y67635D01*
X46033Y67656D01*
X46111Y67674D01*
X46189Y67687D01*
X46268Y67697D01*
X46347Y67703D01*
X46426Y67705D01*
X45043Y66915D02*
X43857Y64742D01*
X48006Y71946D02*
X48006Y73526D01*
X48006Y71946D02*
X48004Y71868D01*
X47998Y71791D01*
X47989Y71714D01*
X47976Y71638D01*
X47959Y71562D01*
X47938Y71487D01*
X47914Y71414D01*
X47886Y71341D01*
X47854Y71270D01*
X47819Y71201D01*
X47781Y71134D01*
X47740Y71068D01*
X47695Y71005D01*
X47647Y70944D01*
X47597Y70885D01*
X47543Y70829D01*
X47487Y70775D01*
X47428Y70725D01*
X47367Y70677D01*
X47304Y70632D01*
X47238Y70591D01*
X47171Y70553D01*
X47102Y70518D01*
X47031Y70486D01*
X46958Y70458D01*
X46885Y70434D01*
X46810Y70413D01*
X46734Y70396D01*
X46658Y70383D01*
X46581Y70374D01*
X46504Y70368D01*
X46426Y70366D01*
X46426Y70365D02*
X42474Y70365D01*
X42396Y70367D01*
X42319Y70373D01*
X42242Y70382D01*
X42166Y70395D01*
X42090Y70412D01*
X42015Y70433D01*
X41941Y70457D01*
X41869Y70485D01*
X41798Y70517D01*
X41729Y70552D01*
X41661Y70590D01*
X41596Y70631D01*
X41532Y70676D01*
X41471Y70724D01*
X41412Y70775D01*
X41356Y70828D01*
X41303Y70884D01*
X41252Y70943D01*
X41204Y71004D01*
X41159Y71068D01*
X41118Y71133D01*
X41080Y71201D01*
X41045Y71270D01*
X41013Y71341D01*
X40985Y71413D01*
X40961Y71487D01*
X40940Y71562D01*
X40923Y71638D01*
X40910Y71714D01*
X40901Y71791D01*
X40895Y71868D01*
X40893Y71946D01*
X40894Y71946D02*
X40894Y73526D01*
X40894Y76339D02*
X48006Y76339D01*
X48006Y79500D01*
D12*
X134112Y29276D02*
X134112Y26679D01*
X134110Y26580D01*
X134104Y26480D01*
X134095Y26381D01*
X134082Y26283D01*
X134065Y26185D01*
X134044Y26087D01*
X134019Y25991D01*
X133991Y25896D01*
X133959Y25802D01*
X133924Y25709D01*
X133885Y25617D01*
X133842Y25527D01*
X133797Y25439D01*
X133747Y25352D01*
X133695Y25268D01*
X133639Y25185D01*
X133581Y25105D01*
X133519Y25027D01*
X133454Y24952D01*
X133386Y24879D01*
X133316Y24809D01*
X133243Y24741D01*
X133168Y24676D01*
X133090Y24614D01*
X133010Y24556D01*
X132927Y24500D01*
X132843Y24448D01*
X132756Y24398D01*
X132668Y24353D01*
X132578Y24310D01*
X132486Y24271D01*
X132393Y24236D01*
X132299Y24204D01*
X132204Y24176D01*
X132108Y24151D01*
X132010Y24130D01*
X131912Y24113D01*
X131814Y24100D01*
X131715Y24091D01*
X131615Y24085D01*
X131516Y24083D01*
X125024Y24083D01*
X125024Y24082D02*
X124925Y24084D01*
X124825Y24090D01*
X124726Y24099D01*
X124628Y24112D01*
X124530Y24130D01*
X124432Y24150D01*
X124336Y24175D01*
X124240Y24203D01*
X124146Y24235D01*
X124053Y24270D01*
X123962Y24309D01*
X123872Y24352D01*
X123783Y24397D01*
X123697Y24447D01*
X123612Y24499D01*
X123530Y24555D01*
X123450Y24614D01*
X123372Y24675D01*
X123296Y24740D01*
X123223Y24808D01*
X123153Y24878D01*
X123085Y24951D01*
X123020Y25027D01*
X122959Y25105D01*
X122900Y25185D01*
X122844Y25267D01*
X122792Y25352D01*
X122743Y25438D01*
X122697Y25527D01*
X122654Y25617D01*
X122615Y25708D01*
X122580Y25801D01*
X122548Y25895D01*
X122520Y25991D01*
X122495Y26087D01*
X122475Y26185D01*
X122457Y26283D01*
X122444Y26381D01*
X122435Y26480D01*
X122429Y26579D01*
X122427Y26679D01*
X122428Y26679D02*
X122428Y29276D01*
X125024Y33641D02*
X122428Y36886D01*
X134112Y36886D01*
X134112Y33641D02*
X134112Y40132D01*
X108712Y26736D02*
X108712Y24139D01*
X108710Y24040D01*
X108704Y23940D01*
X108695Y23841D01*
X108682Y23743D01*
X108665Y23645D01*
X108644Y23547D01*
X108619Y23451D01*
X108591Y23356D01*
X108559Y23262D01*
X108524Y23169D01*
X108485Y23077D01*
X108442Y22987D01*
X108397Y22899D01*
X108347Y22812D01*
X108295Y22728D01*
X108239Y22645D01*
X108181Y22565D01*
X108119Y22487D01*
X108054Y22412D01*
X107986Y22339D01*
X107916Y22269D01*
X107843Y22201D01*
X107768Y22136D01*
X107690Y22074D01*
X107610Y22016D01*
X107527Y21960D01*
X107443Y21908D01*
X107356Y21858D01*
X107268Y21813D01*
X107178Y21770D01*
X107086Y21731D01*
X106993Y21696D01*
X106899Y21664D01*
X106804Y21636D01*
X106708Y21611D01*
X106610Y21590D01*
X106512Y21573D01*
X106414Y21560D01*
X106315Y21551D01*
X106215Y21545D01*
X106116Y21543D01*
X99624Y21543D01*
X99624Y21542D02*
X99525Y21544D01*
X99425Y21550D01*
X99326Y21559D01*
X99228Y21572D01*
X99130Y21590D01*
X99032Y21610D01*
X98936Y21635D01*
X98840Y21663D01*
X98746Y21695D01*
X98653Y21730D01*
X98562Y21769D01*
X98472Y21812D01*
X98383Y21857D01*
X98297Y21907D01*
X98212Y21959D01*
X98130Y22015D01*
X98050Y22074D01*
X97972Y22135D01*
X97896Y22200D01*
X97823Y22268D01*
X97753Y22338D01*
X97685Y22411D01*
X97620Y22487D01*
X97559Y22565D01*
X97500Y22645D01*
X97444Y22727D01*
X97392Y22812D01*
X97343Y22898D01*
X97297Y22987D01*
X97254Y23077D01*
X97215Y23168D01*
X97180Y23261D01*
X97148Y23355D01*
X97120Y23451D01*
X97095Y23547D01*
X97075Y23645D01*
X97057Y23743D01*
X97044Y23841D01*
X97035Y23940D01*
X97029Y24039D01*
X97027Y24139D01*
X97028Y24139D02*
X97028Y26736D01*
X97028Y34671D02*
X97030Y34778D01*
X97036Y34884D01*
X97046Y34990D01*
X97059Y35096D01*
X97077Y35202D01*
X97098Y35306D01*
X97123Y35410D01*
X97152Y35513D01*
X97184Y35614D01*
X97221Y35714D01*
X97261Y35813D01*
X97304Y35911D01*
X97351Y36007D01*
X97402Y36101D01*
X97456Y36193D01*
X97513Y36283D01*
X97573Y36371D01*
X97637Y36456D01*
X97704Y36539D01*
X97774Y36620D01*
X97846Y36698D01*
X97922Y36774D01*
X98000Y36846D01*
X98081Y36916D01*
X98164Y36983D01*
X98249Y37047D01*
X98337Y37107D01*
X98427Y37164D01*
X98519Y37218D01*
X98613Y37269D01*
X98709Y37316D01*
X98807Y37359D01*
X98906Y37399D01*
X99006Y37436D01*
X99107Y37468D01*
X99210Y37497D01*
X99314Y37522D01*
X99418Y37543D01*
X99524Y37561D01*
X99630Y37574D01*
X99736Y37584D01*
X99842Y37590D01*
X99949Y37592D01*
X97028Y34671D02*
X97030Y34550D01*
X97036Y34429D01*
X97046Y34309D01*
X97059Y34188D01*
X97077Y34069D01*
X97098Y33949D01*
X97123Y33831D01*
X97152Y33714D01*
X97185Y33597D01*
X97221Y33482D01*
X97262Y33368D01*
X97305Y33255D01*
X97353Y33143D01*
X97404Y33034D01*
X97459Y32926D01*
X97517Y32819D01*
X97578Y32715D01*
X97643Y32613D01*
X97711Y32513D01*
X97782Y32415D01*
X97856Y32319D01*
X97933Y32226D01*
X98014Y32136D01*
X98097Y32048D01*
X98183Y31963D01*
X98272Y31880D01*
X98363Y31801D01*
X98457Y31724D01*
X98553Y31651D01*
X98651Y31581D01*
X98752Y31514D01*
X98855Y31450D01*
X98960Y31390D01*
X99067Y31332D01*
X99175Y31279D01*
X99285Y31229D01*
X99397Y31183D01*
X99510Y31140D01*
X99625Y31101D01*
X102221Y36618D02*
X102143Y36697D01*
X102063Y36773D01*
X101980Y36846D01*
X101894Y36916D01*
X101807Y36983D01*
X101716Y37047D01*
X101624Y37107D01*
X101530Y37165D01*
X101433Y37219D01*
X101335Y37269D01*
X101235Y37316D01*
X101134Y37360D01*
X101031Y37400D01*
X100926Y37436D01*
X100821Y37468D01*
X100714Y37497D01*
X100607Y37522D01*
X100498Y37544D01*
X100389Y37561D01*
X100280Y37575D01*
X100170Y37584D01*
X100059Y37590D01*
X99949Y37592D01*
X102221Y36618D02*
X108712Y31101D01*
X108712Y37592D01*
X342392Y144789D02*
X342392Y147386D01*
X342392Y144789D02*
X342390Y144690D01*
X342384Y144590D01*
X342375Y144491D01*
X342362Y144393D01*
X342345Y144295D01*
X342324Y144197D01*
X342299Y144101D01*
X342271Y144006D01*
X342239Y143912D01*
X342204Y143819D01*
X342165Y143727D01*
X342122Y143637D01*
X342077Y143549D01*
X342027Y143462D01*
X341975Y143378D01*
X341919Y143295D01*
X341861Y143215D01*
X341799Y143137D01*
X341734Y143062D01*
X341666Y142989D01*
X341596Y142919D01*
X341523Y142851D01*
X341448Y142786D01*
X341370Y142724D01*
X341290Y142666D01*
X341207Y142610D01*
X341123Y142558D01*
X341036Y142508D01*
X340948Y142463D01*
X340858Y142420D01*
X340766Y142381D01*
X340673Y142346D01*
X340579Y142314D01*
X340484Y142286D01*
X340388Y142261D01*
X340290Y142240D01*
X340192Y142223D01*
X340094Y142210D01*
X339995Y142201D01*
X339895Y142195D01*
X339796Y142193D01*
X333304Y142193D01*
X333304Y142192D02*
X333205Y142194D01*
X333105Y142200D01*
X333006Y142209D01*
X332908Y142222D01*
X332810Y142240D01*
X332712Y142260D01*
X332616Y142285D01*
X332520Y142313D01*
X332426Y142345D01*
X332333Y142380D01*
X332242Y142419D01*
X332152Y142462D01*
X332063Y142507D01*
X331977Y142557D01*
X331892Y142609D01*
X331810Y142665D01*
X331730Y142724D01*
X331652Y142785D01*
X331576Y142850D01*
X331503Y142918D01*
X331433Y142988D01*
X331365Y143061D01*
X331300Y143137D01*
X331239Y143215D01*
X331180Y143295D01*
X331124Y143377D01*
X331072Y143462D01*
X331023Y143548D01*
X330977Y143637D01*
X330934Y143727D01*
X330895Y143818D01*
X330860Y143911D01*
X330828Y144005D01*
X330800Y144101D01*
X330775Y144197D01*
X330755Y144295D01*
X330737Y144393D01*
X330724Y144491D01*
X330715Y144590D01*
X330709Y144689D01*
X330707Y144789D01*
X330708Y144789D02*
X330708Y147386D01*
X342392Y151751D02*
X342392Y154996D01*
X342390Y155109D01*
X342384Y155222D01*
X342374Y155335D01*
X342360Y155448D01*
X342343Y155560D01*
X342321Y155671D01*
X342296Y155781D01*
X342266Y155891D01*
X342233Y155999D01*
X342196Y156106D01*
X342156Y156212D01*
X342111Y156316D01*
X342063Y156419D01*
X342012Y156520D01*
X341957Y156619D01*
X341899Y156716D01*
X341837Y156811D01*
X341772Y156904D01*
X341704Y156994D01*
X341633Y157082D01*
X341558Y157168D01*
X341481Y157251D01*
X341401Y157331D01*
X341318Y157408D01*
X341232Y157483D01*
X341144Y157554D01*
X341054Y157622D01*
X340961Y157687D01*
X340866Y157749D01*
X340769Y157807D01*
X340670Y157862D01*
X340569Y157913D01*
X340466Y157961D01*
X340362Y158006D01*
X340256Y158046D01*
X340149Y158083D01*
X340041Y158116D01*
X339931Y158146D01*
X339821Y158171D01*
X339710Y158193D01*
X339598Y158210D01*
X339485Y158224D01*
X339372Y158234D01*
X339259Y158240D01*
X339146Y158242D01*
X339033Y158240D01*
X338920Y158234D01*
X338807Y158224D01*
X338694Y158210D01*
X338582Y158193D01*
X338471Y158171D01*
X338361Y158146D01*
X338251Y158116D01*
X338143Y158083D01*
X338036Y158046D01*
X337930Y158006D01*
X337826Y157961D01*
X337723Y157913D01*
X337622Y157862D01*
X337523Y157807D01*
X337426Y157749D01*
X337331Y157687D01*
X337238Y157622D01*
X337148Y157554D01*
X337060Y157483D01*
X336974Y157408D01*
X336891Y157331D01*
X336811Y157251D01*
X336734Y157168D01*
X336659Y157082D01*
X336588Y156994D01*
X336520Y156904D01*
X336455Y156811D01*
X336393Y156716D01*
X336335Y156619D01*
X336280Y156520D01*
X336229Y156419D01*
X336181Y156316D01*
X336136Y156212D01*
X336096Y156106D01*
X336059Y155999D01*
X336026Y155891D01*
X335996Y155781D01*
X335971Y155671D01*
X335949Y155560D01*
X335932Y155448D01*
X335918Y155335D01*
X335908Y155222D01*
X335902Y155109D01*
X335900Y154996D01*
X330708Y155646D02*
X330708Y151751D01*
X330708Y155646D02*
X330710Y155747D01*
X330716Y155847D01*
X330726Y155947D01*
X330739Y156047D01*
X330757Y156146D01*
X330778Y156245D01*
X330803Y156342D01*
X330832Y156439D01*
X330865Y156534D01*
X330901Y156628D01*
X330941Y156720D01*
X330984Y156811D01*
X331031Y156900D01*
X331081Y156987D01*
X331135Y157073D01*
X331192Y157156D01*
X331252Y157236D01*
X331315Y157315D01*
X331382Y157391D01*
X331451Y157464D01*
X331523Y157534D01*
X331597Y157602D01*
X331674Y157667D01*
X331754Y157728D01*
X331836Y157787D01*
X331920Y157842D01*
X332006Y157894D01*
X332094Y157943D01*
X332184Y157988D01*
X332276Y158030D01*
X332369Y158068D01*
X332464Y158102D01*
X332559Y158133D01*
X332656Y158160D01*
X332754Y158183D01*
X332853Y158203D01*
X332953Y158218D01*
X333053Y158230D01*
X333153Y158238D01*
X333254Y158242D01*
X333354Y158242D01*
X333455Y158238D01*
X333555Y158230D01*
X333655Y158218D01*
X333755Y158203D01*
X333854Y158183D01*
X333952Y158160D01*
X334049Y158133D01*
X334144Y158102D01*
X334239Y158068D01*
X334332Y158030D01*
X334424Y157988D01*
X334514Y157943D01*
X334602Y157894D01*
X334688Y157842D01*
X334772Y157787D01*
X334854Y157728D01*
X334934Y157667D01*
X335011Y157602D01*
X335085Y157534D01*
X335157Y157464D01*
X335226Y157391D01*
X335293Y157315D01*
X335356Y157236D01*
X335416Y157156D01*
X335473Y157073D01*
X335527Y156987D01*
X335577Y156900D01*
X335624Y156811D01*
X335667Y156720D01*
X335707Y156628D01*
X335743Y156534D01*
X335776Y156439D01*
X335805Y156342D01*
X335830Y156245D01*
X335851Y156146D01*
X335869Y156047D01*
X335882Y155947D01*
X335892Y155847D01*
X335898Y155747D01*
X335900Y155646D01*
X335901Y155646D02*
X335901Y153049D01*
D13*
X37450Y38090D02*
X13350Y38090D01*
X13350Y144790D02*
X37450Y144790D01*
X13350Y144790D02*
X13350Y38090D01*
X37450Y38090D02*
X37450Y144790D01*
X24400Y31590D02*
X24402Y31653D01*
X24408Y31715D01*
X24418Y31777D01*
X24431Y31839D01*
X24449Y31899D01*
X24470Y31958D01*
X24495Y32016D01*
X24524Y32072D01*
X24556Y32126D01*
X24591Y32178D01*
X24629Y32227D01*
X24671Y32275D01*
X24715Y32319D01*
X24763Y32361D01*
X24812Y32399D01*
X24864Y32434D01*
X24918Y32466D01*
X24974Y32495D01*
X25032Y32520D01*
X25091Y32541D01*
X25151Y32559D01*
X25213Y32572D01*
X25275Y32582D01*
X25337Y32588D01*
X25400Y32590D01*
X25463Y32588D01*
X25525Y32582D01*
X25587Y32572D01*
X25649Y32559D01*
X25709Y32541D01*
X25768Y32520D01*
X25826Y32495D01*
X25882Y32466D01*
X25936Y32434D01*
X25988Y32399D01*
X26037Y32361D01*
X26085Y32319D01*
X26129Y32275D01*
X26171Y32227D01*
X26209Y32178D01*
X26244Y32126D01*
X26276Y32072D01*
X26305Y32016D01*
X26330Y31958D01*
X26351Y31899D01*
X26369Y31839D01*
X26382Y31777D01*
X26392Y31715D01*
X26398Y31653D01*
X26400Y31590D01*
X26398Y31527D01*
X26392Y31465D01*
X26382Y31403D01*
X26369Y31341D01*
X26351Y31281D01*
X26330Y31222D01*
X26305Y31164D01*
X26276Y31108D01*
X26244Y31054D01*
X26209Y31002D01*
X26171Y30953D01*
X26129Y30905D01*
X26085Y30861D01*
X26037Y30819D01*
X25988Y30781D01*
X25936Y30746D01*
X25882Y30714D01*
X25826Y30685D01*
X25768Y30660D01*
X25709Y30639D01*
X25649Y30621D01*
X25587Y30608D01*
X25525Y30598D01*
X25463Y30592D01*
X25400Y30590D01*
X25337Y30592D01*
X25275Y30598D01*
X25213Y30608D01*
X25151Y30621D01*
X25091Y30639D01*
X25032Y30660D01*
X24974Y30685D01*
X24918Y30714D01*
X24864Y30746D01*
X24812Y30781D01*
X24763Y30819D01*
X24715Y30861D01*
X24671Y30905D01*
X24629Y30953D01*
X24591Y31002D01*
X24556Y31054D01*
X24524Y31108D01*
X24495Y31164D01*
X24470Y31222D01*
X24449Y31281D01*
X24431Y31341D01*
X24418Y31403D01*
X24408Y31465D01*
X24402Y31527D01*
X24400Y31590D01*
D12*
X-2254Y32493D02*
X-11342Y32493D01*
X-2254Y32492D02*
X-2155Y32490D01*
X-2055Y32484D01*
X-1956Y32475D01*
X-1858Y32462D01*
X-1760Y32445D01*
X-1662Y32424D01*
X-1566Y32399D01*
X-1471Y32371D01*
X-1377Y32339D01*
X-1284Y32304D01*
X-1192Y32265D01*
X-1102Y32222D01*
X-1014Y32177D01*
X-927Y32127D01*
X-843Y32075D01*
X-760Y32019D01*
X-680Y31961D01*
X-602Y31899D01*
X-527Y31834D01*
X-454Y31766D01*
X-384Y31696D01*
X-316Y31623D01*
X-251Y31548D01*
X-189Y31470D01*
X-131Y31390D01*
X-75Y31307D01*
X-23Y31223D01*
X27Y31136D01*
X72Y31048D01*
X115Y30958D01*
X154Y30866D01*
X189Y30773D01*
X221Y30679D01*
X249Y30584D01*
X274Y30488D01*
X295Y30390D01*
X312Y30292D01*
X325Y30194D01*
X334Y30095D01*
X340Y29995D01*
X342Y29896D01*
X342Y28598D01*
X-8746Y37766D02*
X-11342Y41012D01*
X342Y41012D01*
X342Y44257D02*
X342Y37766D01*
D14*
X366000Y19800D02*
X366000Y81800D01*
X446800Y81800D02*
X446800Y19800D01*
X446800Y81800D02*
X366000Y81800D01*
X366000Y19800D02*
X373400Y19800D01*
X439400Y19800D02*
X446800Y19800D01*
D13*
X358600Y50800D02*
X358602Y50863D01*
X358608Y50925D01*
X358618Y50987D01*
X358631Y51049D01*
X358649Y51109D01*
X358670Y51168D01*
X358695Y51226D01*
X358724Y51282D01*
X358756Y51336D01*
X358791Y51388D01*
X358829Y51437D01*
X358871Y51485D01*
X358915Y51529D01*
X358963Y51571D01*
X359012Y51609D01*
X359064Y51644D01*
X359118Y51676D01*
X359174Y51705D01*
X359232Y51730D01*
X359291Y51751D01*
X359351Y51769D01*
X359413Y51782D01*
X359475Y51792D01*
X359537Y51798D01*
X359600Y51800D01*
X359663Y51798D01*
X359725Y51792D01*
X359787Y51782D01*
X359849Y51769D01*
X359909Y51751D01*
X359968Y51730D01*
X360026Y51705D01*
X360082Y51676D01*
X360136Y51644D01*
X360188Y51609D01*
X360237Y51571D01*
X360285Y51529D01*
X360329Y51485D01*
X360371Y51437D01*
X360409Y51388D01*
X360444Y51336D01*
X360476Y51282D01*
X360505Y51226D01*
X360530Y51168D01*
X360551Y51109D01*
X360569Y51049D01*
X360582Y50987D01*
X360592Y50925D01*
X360598Y50863D01*
X360600Y50800D01*
X360598Y50737D01*
X360592Y50675D01*
X360582Y50613D01*
X360569Y50551D01*
X360551Y50491D01*
X360530Y50432D01*
X360505Y50374D01*
X360476Y50318D01*
X360444Y50264D01*
X360409Y50212D01*
X360371Y50163D01*
X360329Y50115D01*
X360285Y50071D01*
X360237Y50029D01*
X360188Y49991D01*
X360136Y49956D01*
X360082Y49924D01*
X360026Y49895D01*
X359968Y49870D01*
X359909Y49849D01*
X359849Y49831D01*
X359787Y49818D01*
X359725Y49808D01*
X359663Y49802D01*
X359600Y49800D01*
X359537Y49802D01*
X359475Y49808D01*
X359413Y49818D01*
X359351Y49831D01*
X359291Y49849D01*
X359232Y49870D01*
X359174Y49895D01*
X359118Y49924D01*
X359064Y49956D01*
X359012Y49991D01*
X358963Y50029D01*
X358915Y50071D01*
X358871Y50115D01*
X358829Y50163D01*
X358791Y50212D01*
X358756Y50264D01*
X358724Y50318D01*
X358695Y50374D01*
X358670Y50432D01*
X358649Y50491D01*
X358631Y50551D01*
X358618Y50613D01*
X358608Y50675D01*
X358602Y50737D01*
X358600Y50800D01*
D12*
X460243Y81284D02*
X460243Y90372D01*
X460242Y81284D02*
X460240Y81185D01*
X460234Y81085D01*
X460225Y80986D01*
X460212Y80888D01*
X460195Y80790D01*
X460174Y80692D01*
X460149Y80596D01*
X460121Y80501D01*
X460089Y80407D01*
X460054Y80314D01*
X460015Y80222D01*
X459972Y80132D01*
X459927Y80044D01*
X459877Y79957D01*
X459825Y79873D01*
X459769Y79790D01*
X459711Y79710D01*
X459649Y79632D01*
X459584Y79557D01*
X459516Y79484D01*
X459446Y79414D01*
X459373Y79346D01*
X459298Y79281D01*
X459220Y79219D01*
X459140Y79161D01*
X459057Y79105D01*
X458973Y79053D01*
X458886Y79003D01*
X458798Y78958D01*
X458708Y78915D01*
X458616Y78876D01*
X458523Y78841D01*
X458429Y78809D01*
X458334Y78781D01*
X458238Y78756D01*
X458140Y78735D01*
X458042Y78718D01*
X457944Y78705D01*
X457845Y78696D01*
X457745Y78690D01*
X457646Y78688D01*
X456348Y78688D01*
X465516Y78688D02*
X468762Y78688D01*
X468875Y78690D01*
X468988Y78696D01*
X469101Y78706D01*
X469214Y78720D01*
X469326Y78737D01*
X469437Y78759D01*
X469547Y78784D01*
X469657Y78814D01*
X469765Y78847D01*
X469872Y78884D01*
X469978Y78924D01*
X470082Y78969D01*
X470185Y79017D01*
X470286Y79068D01*
X470385Y79123D01*
X470482Y79181D01*
X470577Y79243D01*
X470670Y79308D01*
X470760Y79376D01*
X470848Y79447D01*
X470934Y79522D01*
X471017Y79599D01*
X471097Y79679D01*
X471174Y79762D01*
X471249Y79848D01*
X471320Y79936D01*
X471388Y80026D01*
X471453Y80119D01*
X471515Y80214D01*
X471573Y80311D01*
X471628Y80410D01*
X471679Y80511D01*
X471727Y80614D01*
X471772Y80718D01*
X471812Y80824D01*
X471849Y80931D01*
X471882Y81039D01*
X471912Y81149D01*
X471937Y81259D01*
X471959Y81370D01*
X471976Y81482D01*
X471990Y81595D01*
X472000Y81708D01*
X472006Y81821D01*
X472008Y81934D01*
X472006Y82047D01*
X472000Y82160D01*
X471990Y82273D01*
X471976Y82386D01*
X471959Y82498D01*
X471937Y82609D01*
X471912Y82719D01*
X471882Y82829D01*
X471849Y82937D01*
X471812Y83044D01*
X471772Y83150D01*
X471727Y83254D01*
X471679Y83357D01*
X471628Y83458D01*
X471573Y83557D01*
X471515Y83654D01*
X471453Y83749D01*
X471388Y83842D01*
X471320Y83932D01*
X471249Y84020D01*
X471174Y84106D01*
X471097Y84189D01*
X471017Y84269D01*
X470934Y84346D01*
X470848Y84421D01*
X470760Y84492D01*
X470670Y84560D01*
X470577Y84625D01*
X470482Y84687D01*
X470385Y84745D01*
X470286Y84800D01*
X470185Y84851D01*
X470082Y84899D01*
X469978Y84944D01*
X469872Y84984D01*
X469765Y85021D01*
X469657Y85054D01*
X469547Y85084D01*
X469437Y85109D01*
X469326Y85131D01*
X469214Y85148D01*
X469101Y85162D01*
X468988Y85172D01*
X468875Y85178D01*
X468762Y85180D01*
X469411Y90372D02*
X465516Y90372D01*
X469411Y90372D02*
X469512Y90370D01*
X469612Y90364D01*
X469712Y90354D01*
X469812Y90341D01*
X469911Y90323D01*
X470010Y90302D01*
X470107Y90277D01*
X470204Y90248D01*
X470299Y90215D01*
X470393Y90179D01*
X470485Y90139D01*
X470576Y90096D01*
X470665Y90049D01*
X470752Y89999D01*
X470838Y89945D01*
X470921Y89888D01*
X471001Y89828D01*
X471080Y89765D01*
X471156Y89698D01*
X471229Y89629D01*
X471299Y89557D01*
X471367Y89483D01*
X471432Y89406D01*
X471493Y89326D01*
X471552Y89244D01*
X471607Y89160D01*
X471659Y89074D01*
X471708Y88986D01*
X471753Y88896D01*
X471795Y88804D01*
X471833Y88711D01*
X471867Y88616D01*
X471898Y88521D01*
X471925Y88424D01*
X471948Y88326D01*
X471968Y88227D01*
X471983Y88127D01*
X471995Y88027D01*
X472003Y87927D01*
X472007Y87826D01*
X472007Y87726D01*
X472003Y87625D01*
X471995Y87525D01*
X471983Y87425D01*
X471968Y87325D01*
X471948Y87226D01*
X471925Y87128D01*
X471898Y87031D01*
X471867Y86936D01*
X471833Y86841D01*
X471795Y86748D01*
X471753Y86656D01*
X471708Y86566D01*
X471659Y86478D01*
X471607Y86392D01*
X471552Y86308D01*
X471493Y86226D01*
X471432Y86146D01*
X471367Y86069D01*
X471299Y85995D01*
X471229Y85923D01*
X471156Y85854D01*
X471080Y85787D01*
X471001Y85724D01*
X470921Y85664D01*
X470838Y85607D01*
X470752Y85553D01*
X470665Y85503D01*
X470576Y85456D01*
X470485Y85413D01*
X470393Y85373D01*
X470299Y85337D01*
X470204Y85304D01*
X470107Y85275D01*
X470010Y85250D01*
X469911Y85229D01*
X469812Y85211D01*
X469712Y85198D01*
X469612Y85188D01*
X469512Y85182D01*
X469411Y85180D01*
X469411Y85179D02*
X466814Y85179D01*
D13*
X193040Y144780D02*
X193040Y160020D01*
X193040Y144780D02*
X204470Y144780D01*
X204470Y160020D02*
X193040Y160020D01*
X212090Y160020D02*
X223520Y160020D01*
X223520Y144780D01*
X212090Y144780D01*
D15*
X176451Y151241D02*
X176451Y158607D01*
X178497Y158607D01*
X178586Y158605D01*
X178675Y158599D01*
X178764Y158589D01*
X178852Y158576D01*
X178940Y158559D01*
X179027Y158537D01*
X179112Y158512D01*
X179197Y158484D01*
X179280Y158451D01*
X179362Y158415D01*
X179442Y158376D01*
X179520Y158333D01*
X179596Y158287D01*
X179671Y158237D01*
X179743Y158184D01*
X179812Y158128D01*
X179879Y158069D01*
X179944Y158008D01*
X180005Y157943D01*
X180064Y157876D01*
X180120Y157807D01*
X180173Y157735D01*
X180223Y157660D01*
X180269Y157584D01*
X180312Y157506D01*
X180351Y157426D01*
X180387Y157344D01*
X180420Y157261D01*
X180448Y157176D01*
X180473Y157091D01*
X180495Y157004D01*
X180512Y156916D01*
X180525Y156828D01*
X180535Y156739D01*
X180541Y156650D01*
X180543Y156561D01*
X180541Y156472D01*
X180535Y156383D01*
X180525Y156294D01*
X180512Y156206D01*
X180495Y156118D01*
X180473Y156031D01*
X180448Y155946D01*
X180420Y155861D01*
X180387Y155778D01*
X180351Y155696D01*
X180312Y155616D01*
X180269Y155538D01*
X180223Y155462D01*
X180173Y155387D01*
X180120Y155315D01*
X180064Y155246D01*
X180005Y155179D01*
X179944Y155114D01*
X179879Y155053D01*
X179812Y154994D01*
X179743Y154938D01*
X179671Y154885D01*
X179596Y154835D01*
X179520Y154789D01*
X179442Y154746D01*
X179362Y154707D01*
X179280Y154671D01*
X179197Y154638D01*
X179112Y154610D01*
X179027Y154585D01*
X178940Y154563D01*
X178852Y154546D01*
X178764Y154533D01*
X178675Y154523D01*
X178586Y154517D01*
X178497Y154515D01*
X176451Y154515D01*
X178906Y154515D02*
X180543Y151241D01*
X183715Y156970D02*
X185761Y158607D01*
X185761Y151241D01*
X183715Y151241D02*
X187807Y151241D01*
D13*
X261620Y144780D02*
X261620Y160020D01*
X250190Y160020D01*
X250190Y144780D02*
X261620Y144780D01*
X242570Y144780D02*
X231140Y144780D01*
X231140Y160020D01*
X242570Y160020D01*
D15*
X231293Y138319D02*
X231293Y130953D01*
X231293Y138319D02*
X233339Y138319D01*
X233428Y138317D01*
X233517Y138311D01*
X233606Y138301D01*
X233694Y138288D01*
X233782Y138271D01*
X233869Y138249D01*
X233954Y138224D01*
X234039Y138196D01*
X234122Y138163D01*
X234204Y138127D01*
X234284Y138088D01*
X234362Y138045D01*
X234438Y137999D01*
X234513Y137949D01*
X234585Y137896D01*
X234654Y137840D01*
X234721Y137781D01*
X234786Y137720D01*
X234847Y137655D01*
X234906Y137588D01*
X234962Y137519D01*
X235015Y137447D01*
X235065Y137372D01*
X235111Y137296D01*
X235154Y137218D01*
X235193Y137138D01*
X235229Y137056D01*
X235262Y136973D01*
X235290Y136888D01*
X235315Y136803D01*
X235337Y136716D01*
X235354Y136628D01*
X235367Y136540D01*
X235377Y136451D01*
X235383Y136362D01*
X235385Y136273D01*
X235383Y136184D01*
X235377Y136095D01*
X235367Y136006D01*
X235354Y135918D01*
X235337Y135830D01*
X235315Y135743D01*
X235290Y135658D01*
X235262Y135573D01*
X235229Y135490D01*
X235193Y135408D01*
X235154Y135328D01*
X235111Y135250D01*
X235065Y135174D01*
X235015Y135099D01*
X234962Y135027D01*
X234906Y134958D01*
X234847Y134891D01*
X234786Y134826D01*
X234721Y134765D01*
X234654Y134706D01*
X234585Y134650D01*
X234513Y134597D01*
X234438Y134547D01*
X234362Y134501D01*
X234284Y134458D01*
X234204Y134419D01*
X234122Y134383D01*
X234039Y134350D01*
X233954Y134322D01*
X233869Y134297D01*
X233782Y134275D01*
X233694Y134258D01*
X233606Y134245D01*
X233517Y134235D01*
X233428Y134229D01*
X233339Y134227D01*
X231293Y134227D01*
X233748Y134227D02*
X235385Y130953D01*
X242650Y136478D02*
X242648Y136563D01*
X242642Y136648D01*
X242632Y136732D01*
X242619Y136816D01*
X242601Y136900D01*
X242580Y136982D01*
X242555Y137063D01*
X242526Y137143D01*
X242493Y137222D01*
X242457Y137299D01*
X242417Y137374D01*
X242374Y137448D01*
X242328Y137519D01*
X242278Y137588D01*
X242225Y137655D01*
X242169Y137719D01*
X242110Y137780D01*
X242049Y137839D01*
X241985Y137895D01*
X241918Y137948D01*
X241849Y137998D01*
X241778Y138044D01*
X241704Y138087D01*
X241629Y138127D01*
X241552Y138163D01*
X241473Y138196D01*
X241393Y138225D01*
X241312Y138250D01*
X241230Y138271D01*
X241146Y138289D01*
X241062Y138302D01*
X240978Y138312D01*
X240893Y138318D01*
X240808Y138320D01*
X240808Y138319D02*
X240712Y138317D01*
X240616Y138311D01*
X240521Y138301D01*
X240426Y138288D01*
X240331Y138270D01*
X240238Y138249D01*
X240145Y138224D01*
X240054Y138195D01*
X239963Y138163D01*
X239874Y138127D01*
X239787Y138087D01*
X239701Y138044D01*
X239617Y137998D01*
X239535Y137948D01*
X239455Y137894D01*
X239378Y137838D01*
X239303Y137778D01*
X239230Y137716D01*
X239160Y137650D01*
X239092Y137582D01*
X239027Y137511D01*
X238966Y137438D01*
X238907Y137362D01*
X238851Y137283D01*
X238799Y137203D01*
X238750Y137120D01*
X238704Y137036D01*
X238662Y136950D01*
X238624Y136862D01*
X238589Y136773D01*
X238557Y136682D01*
X242035Y135046D02*
X242095Y135105D01*
X242152Y135167D01*
X242207Y135231D01*
X242258Y135298D01*
X242307Y135367D01*
X242353Y135437D01*
X242396Y135510D01*
X242436Y135584D01*
X242472Y135660D01*
X242505Y135738D01*
X242535Y135817D01*
X242562Y135897D01*
X242585Y135978D01*
X242604Y136060D01*
X242620Y136142D01*
X242633Y136226D01*
X242642Y136310D01*
X242647Y136394D01*
X242649Y136478D01*
X242035Y135045D02*
X238557Y130953D01*
X242649Y130953D01*
D13*
X284480Y167640D02*
X299720Y167640D01*
X284480Y167640D02*
X284480Y156210D01*
X299720Y156210D02*
X299720Y167640D01*
X299720Y148590D02*
X299720Y137160D01*
X284480Y137160D01*
X284480Y148590D01*
D15*
X280527Y157633D02*
X273161Y157633D01*
X273161Y159679D01*
X273163Y159768D01*
X273169Y159857D01*
X273179Y159946D01*
X273192Y160034D01*
X273209Y160122D01*
X273231Y160209D01*
X273256Y160294D01*
X273284Y160379D01*
X273317Y160462D01*
X273353Y160544D01*
X273392Y160624D01*
X273435Y160702D01*
X273481Y160778D01*
X273531Y160853D01*
X273584Y160925D01*
X273640Y160994D01*
X273699Y161061D01*
X273760Y161126D01*
X273825Y161187D01*
X273892Y161246D01*
X273961Y161302D01*
X274033Y161355D01*
X274108Y161405D01*
X274184Y161451D01*
X274262Y161494D01*
X274342Y161533D01*
X274424Y161569D01*
X274507Y161602D01*
X274592Y161630D01*
X274677Y161655D01*
X274764Y161677D01*
X274852Y161694D01*
X274940Y161707D01*
X275029Y161717D01*
X275118Y161723D01*
X275207Y161725D01*
X275296Y161723D01*
X275385Y161717D01*
X275474Y161707D01*
X275562Y161694D01*
X275650Y161677D01*
X275737Y161655D01*
X275822Y161630D01*
X275907Y161602D01*
X275990Y161569D01*
X276072Y161533D01*
X276152Y161494D01*
X276230Y161451D01*
X276306Y161405D01*
X276381Y161355D01*
X276453Y161302D01*
X276522Y161246D01*
X276589Y161187D01*
X276654Y161126D01*
X276715Y161061D01*
X276774Y160994D01*
X276830Y160925D01*
X276883Y160853D01*
X276933Y160778D01*
X276979Y160702D01*
X277022Y160624D01*
X277061Y160544D01*
X277097Y160462D01*
X277130Y160379D01*
X277158Y160294D01*
X277183Y160209D01*
X277205Y160122D01*
X277222Y160034D01*
X277235Y159946D01*
X277245Y159857D01*
X277251Y159768D01*
X277253Y159679D01*
X277253Y157633D01*
X277253Y160088D02*
X280527Y161725D01*
X280527Y164897D02*
X280527Y166943D01*
X280525Y167032D01*
X280519Y167121D01*
X280509Y167210D01*
X280496Y167298D01*
X280479Y167386D01*
X280457Y167473D01*
X280432Y167558D01*
X280404Y167643D01*
X280371Y167726D01*
X280335Y167808D01*
X280296Y167888D01*
X280253Y167966D01*
X280207Y168042D01*
X280157Y168117D01*
X280104Y168189D01*
X280048Y168258D01*
X279989Y168325D01*
X279928Y168390D01*
X279863Y168451D01*
X279796Y168510D01*
X279727Y168566D01*
X279655Y168619D01*
X279580Y168669D01*
X279504Y168715D01*
X279426Y168758D01*
X279346Y168797D01*
X279264Y168833D01*
X279181Y168866D01*
X279096Y168894D01*
X279011Y168919D01*
X278924Y168941D01*
X278836Y168958D01*
X278748Y168971D01*
X278659Y168981D01*
X278570Y168987D01*
X278481Y168989D01*
X278392Y168987D01*
X278303Y168981D01*
X278214Y168971D01*
X278126Y168958D01*
X278038Y168941D01*
X277951Y168919D01*
X277866Y168894D01*
X277781Y168866D01*
X277698Y168833D01*
X277616Y168797D01*
X277536Y168758D01*
X277458Y168715D01*
X277382Y168669D01*
X277307Y168619D01*
X277235Y168566D01*
X277166Y168510D01*
X277099Y168451D01*
X277034Y168390D01*
X276973Y168325D01*
X276914Y168258D01*
X276858Y168189D01*
X276805Y168117D01*
X276755Y168042D01*
X276709Y167966D01*
X276666Y167888D01*
X276627Y167808D01*
X276591Y167726D01*
X276558Y167643D01*
X276530Y167558D01*
X276505Y167473D01*
X276483Y167386D01*
X276466Y167298D01*
X276453Y167210D01*
X276443Y167121D01*
X276437Y167032D01*
X276435Y166943D01*
X273161Y167352D02*
X273161Y164897D01*
X273161Y167352D02*
X273163Y167431D01*
X273169Y167510D01*
X273178Y167589D01*
X273191Y167667D01*
X273209Y167744D01*
X273229Y167820D01*
X273254Y167895D01*
X273282Y167969D01*
X273313Y168042D01*
X273349Y168113D01*
X273387Y168182D01*
X273429Y168249D01*
X273474Y168314D01*
X273522Y168377D01*
X273573Y168438D01*
X273627Y168495D01*
X273683Y168551D01*
X273742Y168603D01*
X273804Y168653D01*
X273868Y168699D01*
X273934Y168743D01*
X274002Y168783D01*
X274072Y168819D01*
X274144Y168853D01*
X274218Y168883D01*
X274292Y168909D01*
X274368Y168932D01*
X274445Y168950D01*
X274522Y168966D01*
X274601Y168977D01*
X274679Y168985D01*
X274758Y168989D01*
X274838Y168989D01*
X274917Y168985D01*
X274995Y168977D01*
X275074Y168966D01*
X275151Y168950D01*
X275228Y168932D01*
X275304Y168909D01*
X275378Y168883D01*
X275452Y168853D01*
X275524Y168819D01*
X275594Y168783D01*
X275662Y168743D01*
X275728Y168699D01*
X275792Y168653D01*
X275854Y168603D01*
X275913Y168551D01*
X275969Y168495D01*
X276023Y168438D01*
X276074Y168377D01*
X276122Y168314D01*
X276167Y168249D01*
X276209Y168182D01*
X276247Y168113D01*
X276283Y168042D01*
X276314Y167969D01*
X276342Y167895D01*
X276367Y167820D01*
X276387Y167744D01*
X276405Y167667D01*
X276418Y167589D01*
X276427Y167510D01*
X276433Y167431D01*
X276435Y167352D01*
X276435Y165715D01*
D14*
X408940Y93980D02*
X464820Y93980D01*
X408940Y93980D02*
X406400Y96520D01*
X403860Y93980D01*
X347980Y93980D01*
X347980Y99060D01*
X353060Y99060D01*
X353060Y129540D01*
X347980Y129540D01*
X347980Y134620D01*
X403860Y134620D01*
X406400Y132080D01*
X408940Y134620D01*
X464820Y134620D01*
X464820Y129540D01*
X459740Y129540D01*
X459740Y99060D01*
X464820Y99060D01*
X464820Y93980D01*
X429260Y104140D02*
X383540Y104140D01*
X383540Y124460D01*
X429260Y124460D01*
X429260Y104140D01*
X426720Y104140D02*
X426720Y124460D01*
X424180Y124460D02*
X424180Y104140D01*
X421640Y104140D02*
X421640Y124460D01*
X419100Y124460D02*
X419100Y104140D01*
X416560Y104140D02*
X416560Y124460D01*
X414020Y124460D02*
X414020Y104140D01*
X411480Y104140D02*
X411480Y124460D01*
D12*
X346583Y25964D02*
X346581Y25865D01*
X346575Y25765D01*
X346566Y25666D01*
X346553Y25568D01*
X346536Y25470D01*
X346515Y25372D01*
X346490Y25276D01*
X346462Y25181D01*
X346430Y25087D01*
X346395Y24994D01*
X346356Y24902D01*
X346313Y24812D01*
X346268Y24724D01*
X346218Y24637D01*
X346166Y24553D01*
X346110Y24470D01*
X346052Y24390D01*
X345990Y24312D01*
X345925Y24237D01*
X345857Y24164D01*
X345787Y24094D01*
X345714Y24026D01*
X345639Y23961D01*
X345561Y23899D01*
X345481Y23841D01*
X345398Y23785D01*
X345314Y23733D01*
X345227Y23683D01*
X345139Y23638D01*
X345049Y23595D01*
X344957Y23556D01*
X344864Y23521D01*
X344770Y23489D01*
X344675Y23461D01*
X344579Y23436D01*
X344481Y23415D01*
X344383Y23398D01*
X344285Y23385D01*
X344186Y23376D01*
X344086Y23370D01*
X343987Y23368D01*
X343843Y23370D01*
X343698Y23376D01*
X343554Y23385D01*
X343411Y23398D01*
X343267Y23415D01*
X343124Y23436D01*
X342982Y23461D01*
X342841Y23489D01*
X342700Y23521D01*
X342560Y23557D01*
X342421Y23596D01*
X342283Y23639D01*
X342147Y23686D01*
X342011Y23736D01*
X341877Y23790D01*
X341745Y23847D01*
X341614Y23908D01*
X341485Y23972D01*
X341357Y24040D01*
X341231Y24110D01*
X341107Y24185D01*
X340986Y24262D01*
X340866Y24343D01*
X340748Y24426D01*
X340633Y24513D01*
X340520Y24603D01*
X340409Y24696D01*
X340301Y24791D01*
X340195Y24890D01*
X340092Y24991D01*
X340417Y32456D02*
X340419Y32555D01*
X340425Y32655D01*
X340434Y32754D01*
X340447Y32852D01*
X340464Y32950D01*
X340485Y33048D01*
X340510Y33144D01*
X340538Y33239D01*
X340570Y33333D01*
X340605Y33426D01*
X340644Y33518D01*
X340687Y33608D01*
X340732Y33696D01*
X340782Y33783D01*
X340834Y33867D01*
X340890Y33950D01*
X340948Y34030D01*
X341010Y34108D01*
X341075Y34183D01*
X341143Y34256D01*
X341213Y34326D01*
X341286Y34394D01*
X341361Y34459D01*
X341439Y34521D01*
X341519Y34579D01*
X341602Y34635D01*
X341686Y34687D01*
X341773Y34737D01*
X341861Y34782D01*
X341951Y34825D01*
X342043Y34864D01*
X342136Y34899D01*
X342230Y34931D01*
X342325Y34959D01*
X342422Y34984D01*
X342519Y35005D01*
X342617Y35022D01*
X342715Y35035D01*
X342814Y35044D01*
X342914Y35050D01*
X343013Y35052D01*
X343149Y35050D01*
X343285Y35044D01*
X343421Y35035D01*
X343557Y35022D01*
X343692Y35004D01*
X343826Y34984D01*
X343960Y34959D01*
X344094Y34931D01*
X344226Y34898D01*
X344357Y34863D01*
X344488Y34823D01*
X344617Y34780D01*
X344745Y34734D01*
X344871Y34683D01*
X344997Y34630D01*
X345120Y34572D01*
X345242Y34512D01*
X345362Y34448D01*
X345481Y34380D01*
X345597Y34310D01*
X345711Y34236D01*
X345824Y34159D01*
X345934Y34078D01*
X341714Y30184D02*
X341628Y30237D01*
X341544Y30294D01*
X341462Y30353D01*
X341382Y30416D01*
X341305Y30482D01*
X341230Y30550D01*
X341158Y30622D01*
X341089Y30696D01*
X341023Y30773D01*
X340960Y30852D01*
X340900Y30934D01*
X340843Y31018D01*
X340789Y31104D01*
X340739Y31192D01*
X340692Y31282D01*
X340648Y31373D01*
X340609Y31467D01*
X340572Y31561D01*
X340540Y31657D01*
X340511Y31755D01*
X340486Y31853D01*
X340465Y31952D01*
X340447Y32052D01*
X340434Y32152D01*
X340424Y32253D01*
X340418Y32355D01*
X340416Y32456D01*
X345285Y28236D02*
X345371Y28183D01*
X345455Y28126D01*
X345537Y28067D01*
X345617Y28004D01*
X345694Y27938D01*
X345769Y27870D01*
X345841Y27798D01*
X345910Y27724D01*
X345976Y27647D01*
X346039Y27568D01*
X346099Y27486D01*
X346156Y27402D01*
X346210Y27316D01*
X346260Y27228D01*
X346307Y27138D01*
X346351Y27047D01*
X346390Y26953D01*
X346427Y26859D01*
X346459Y26763D01*
X346488Y26665D01*
X346513Y26567D01*
X346534Y26468D01*
X346552Y26368D01*
X346565Y26268D01*
X346575Y26167D01*
X346581Y26065D01*
X346583Y25964D01*
X345285Y28236D02*
X341715Y30184D01*
X351141Y32456D02*
X354386Y35052D01*
X354386Y23368D01*
X351141Y23368D02*
X357632Y23368D01*
D10*
X162052Y73660D02*
X159766Y73660D01*
X162052Y73660D02*
X168148Y73660D01*
X170434Y73660D01*
X168148Y73660D02*
X168146Y73769D01*
X168140Y73877D01*
X168131Y73986D01*
X168117Y74094D01*
X168100Y74201D01*
X168078Y74308D01*
X168053Y74414D01*
X168025Y74519D01*
X167992Y74623D01*
X167956Y74725D01*
X167916Y74826D01*
X167873Y74926D01*
X167826Y75024D01*
X167775Y75121D01*
X167721Y75215D01*
X167664Y75308D01*
X167604Y75398D01*
X167540Y75487D01*
X167473Y75573D01*
X167404Y75656D01*
X167331Y75737D01*
X167255Y75815D01*
X167177Y75891D01*
X167096Y75964D01*
X167013Y76033D01*
X166927Y76100D01*
X166838Y76164D01*
X166748Y76224D01*
X166655Y76281D01*
X166561Y76335D01*
X166464Y76386D01*
X166366Y76433D01*
X166266Y76476D01*
X166165Y76516D01*
X166063Y76552D01*
X165959Y76585D01*
X165854Y76613D01*
X165748Y76638D01*
X165641Y76660D01*
X165534Y76677D01*
X165426Y76691D01*
X165317Y76700D01*
X165209Y76706D01*
X165100Y76708D01*
X164991Y76706D01*
X164883Y76700D01*
X164774Y76691D01*
X164666Y76677D01*
X164559Y76660D01*
X164452Y76638D01*
X164346Y76613D01*
X164241Y76585D01*
X164137Y76552D01*
X164035Y76516D01*
X163934Y76476D01*
X163834Y76433D01*
X163736Y76386D01*
X163639Y76335D01*
X163545Y76281D01*
X163452Y76224D01*
X163362Y76164D01*
X163273Y76100D01*
X163187Y76033D01*
X163104Y75964D01*
X163023Y75891D01*
X162945Y75815D01*
X162869Y75737D01*
X162796Y75656D01*
X162727Y75573D01*
X162660Y75487D01*
X162596Y75398D01*
X162536Y75308D01*
X162479Y75215D01*
X162425Y75121D01*
X162374Y75024D01*
X162327Y74926D01*
X162284Y74826D01*
X162244Y74725D01*
X162208Y74623D01*
X162175Y74519D01*
X162147Y74414D01*
X162122Y74308D01*
X162100Y74201D01*
X162083Y74094D01*
X162069Y73986D01*
X162060Y73877D01*
X162054Y73769D01*
X162052Y73660D01*
D15*
X157472Y68063D02*
X157472Y63110D01*
X157474Y63025D01*
X157480Y62939D01*
X157489Y62854D01*
X157503Y62770D01*
X157520Y62686D01*
X157541Y62603D01*
X157565Y62521D01*
X157593Y62441D01*
X157625Y62361D01*
X157661Y62283D01*
X157699Y62207D01*
X157742Y62133D01*
X157787Y62061D01*
X157836Y61990D01*
X157888Y61922D01*
X157942Y61857D01*
X158000Y61794D01*
X158061Y61733D01*
X158124Y61675D01*
X158189Y61621D01*
X158257Y61569D01*
X158328Y61520D01*
X158400Y61475D01*
X158474Y61432D01*
X158550Y61394D01*
X158628Y61358D01*
X158708Y61326D01*
X158788Y61298D01*
X158870Y61274D01*
X158953Y61253D01*
X159037Y61236D01*
X159121Y61222D01*
X159206Y61213D01*
X159292Y61207D01*
X159377Y61205D01*
X159462Y61207D01*
X159548Y61213D01*
X159633Y61222D01*
X159717Y61236D01*
X159801Y61253D01*
X159884Y61274D01*
X159966Y61298D01*
X160046Y61326D01*
X160126Y61358D01*
X160204Y61394D01*
X160280Y61432D01*
X160354Y61475D01*
X160426Y61520D01*
X160497Y61569D01*
X160565Y61621D01*
X160630Y61675D01*
X160693Y61733D01*
X160754Y61794D01*
X160812Y61857D01*
X160866Y61922D01*
X160918Y61990D01*
X160967Y62061D01*
X161012Y62133D01*
X161055Y62207D01*
X161093Y62283D01*
X161129Y62361D01*
X161161Y62441D01*
X161189Y62521D01*
X161213Y62603D01*
X161234Y62686D01*
X161251Y62770D01*
X161265Y62854D01*
X161274Y62939D01*
X161280Y63025D01*
X161282Y63110D01*
X161282Y68063D01*
X166006Y68063D02*
X166006Y61205D01*
X166006Y64634D02*
X165054Y65206D01*
X165054Y65205D02*
X164997Y65241D01*
X164943Y65281D01*
X164891Y65324D01*
X164841Y65369D01*
X164795Y65418D01*
X164751Y65469D01*
X164711Y65522D01*
X164674Y65578D01*
X164640Y65636D01*
X164609Y65696D01*
X164583Y65758D01*
X164559Y65821D01*
X164540Y65885D01*
X164525Y65951D01*
X164513Y66017D01*
X164505Y66083D01*
X164501Y66151D01*
X164502Y66218D01*
X164506Y66285D01*
X164514Y66351D01*
X164526Y66418D01*
X164542Y66483D01*
X164561Y66547D01*
X164585Y66610D01*
X164612Y66671D01*
X164643Y66731D01*
X164677Y66789D01*
X164715Y66845D01*
X164755Y66898D01*
X164799Y66949D01*
X164846Y66997D01*
X164895Y67042D01*
X164948Y67085D01*
X165002Y67124D01*
X165059Y67160D01*
X165118Y67193D01*
X165178Y67222D01*
X165240Y67247D01*
X165304Y67269D01*
X165369Y67286D01*
X165434Y67300D01*
X165435Y67301D02*
X165542Y67318D01*
X165650Y67332D01*
X165758Y67342D01*
X165867Y67348D01*
X165976Y67350D01*
X166084Y67348D01*
X166193Y67342D01*
X166302Y67333D01*
X166409Y67319D01*
X166517Y67301D01*
X166624Y67280D01*
X166729Y67255D01*
X166834Y67226D01*
X166938Y67193D01*
X167041Y67156D01*
X167142Y67116D01*
X167241Y67072D01*
X167339Y67025D01*
X167435Y66974D01*
X167530Y66920D01*
X166006Y64634D02*
X166959Y64063D01*
X166958Y64063D02*
X167015Y64027D01*
X167069Y63987D01*
X167121Y63944D01*
X167171Y63899D01*
X167217Y63850D01*
X167261Y63799D01*
X167301Y63746D01*
X167338Y63690D01*
X167372Y63632D01*
X167403Y63572D01*
X167429Y63510D01*
X167453Y63447D01*
X167472Y63383D01*
X167487Y63317D01*
X167499Y63251D01*
X167507Y63185D01*
X167511Y63117D01*
X167510Y63050D01*
X167506Y62983D01*
X167498Y62917D01*
X167486Y62850D01*
X167470Y62785D01*
X167451Y62721D01*
X167427Y62658D01*
X167400Y62597D01*
X167369Y62537D01*
X167335Y62479D01*
X167297Y62423D01*
X167257Y62370D01*
X167213Y62319D01*
X167166Y62271D01*
X167117Y62226D01*
X167064Y62183D01*
X167010Y62144D01*
X166953Y62108D01*
X166894Y62075D01*
X166834Y62046D01*
X166772Y62021D01*
X166708Y61999D01*
X166643Y61982D01*
X166578Y61968D01*
X166577Y61967D02*
X166470Y61950D01*
X166362Y61936D01*
X166254Y61926D01*
X166145Y61920D01*
X166036Y61918D01*
X165928Y61920D01*
X165819Y61926D01*
X165710Y61935D01*
X165603Y61949D01*
X165495Y61967D01*
X165388Y61988D01*
X165283Y62013D01*
X165178Y62042D01*
X165074Y62075D01*
X164971Y62112D01*
X164870Y62152D01*
X164771Y62196D01*
X164673Y62243D01*
X164577Y62294D01*
X164482Y62348D01*
X170502Y66539D02*
X172407Y68063D01*
X172407Y61205D01*
X170502Y61205D02*
X174312Y61205D01*
D14*
X12700Y177850D02*
X444500Y177850D01*
X444500Y355550D01*
X12700Y355550D01*
X12700Y310700D01*
X12700Y222700D01*
X12700Y177850D01*
D13*
X49800Y171700D02*
X49802Y171763D01*
X49808Y171825D01*
X49818Y171887D01*
X49831Y171949D01*
X49849Y172009D01*
X49870Y172068D01*
X49895Y172126D01*
X49924Y172182D01*
X49956Y172236D01*
X49991Y172288D01*
X50029Y172337D01*
X50071Y172385D01*
X50115Y172429D01*
X50163Y172471D01*
X50212Y172509D01*
X50264Y172544D01*
X50318Y172576D01*
X50374Y172605D01*
X50432Y172630D01*
X50491Y172651D01*
X50551Y172669D01*
X50613Y172682D01*
X50675Y172692D01*
X50737Y172698D01*
X50800Y172700D01*
X50863Y172698D01*
X50925Y172692D01*
X50987Y172682D01*
X51049Y172669D01*
X51109Y172651D01*
X51168Y172630D01*
X51226Y172605D01*
X51282Y172576D01*
X51336Y172544D01*
X51388Y172509D01*
X51437Y172471D01*
X51485Y172429D01*
X51529Y172385D01*
X51571Y172337D01*
X51609Y172288D01*
X51644Y172236D01*
X51676Y172182D01*
X51705Y172126D01*
X51730Y172068D01*
X51751Y172009D01*
X51769Y171949D01*
X51782Y171887D01*
X51792Y171825D01*
X51798Y171763D01*
X51800Y171700D01*
X51798Y171637D01*
X51792Y171575D01*
X51782Y171513D01*
X51769Y171451D01*
X51751Y171391D01*
X51730Y171332D01*
X51705Y171274D01*
X51676Y171218D01*
X51644Y171164D01*
X51609Y171112D01*
X51571Y171063D01*
X51529Y171015D01*
X51485Y170971D01*
X51437Y170929D01*
X51388Y170891D01*
X51336Y170856D01*
X51282Y170824D01*
X51226Y170795D01*
X51168Y170770D01*
X51109Y170749D01*
X51049Y170731D01*
X50987Y170718D01*
X50925Y170708D01*
X50863Y170702D01*
X50800Y170700D01*
X50737Y170702D01*
X50675Y170708D01*
X50613Y170718D01*
X50551Y170731D01*
X50491Y170749D01*
X50432Y170770D01*
X50374Y170795D01*
X50318Y170824D01*
X50264Y170856D01*
X50212Y170891D01*
X50163Y170929D01*
X50115Y170971D01*
X50071Y171015D01*
X50029Y171063D01*
X49991Y171112D01*
X49956Y171164D01*
X49924Y171218D01*
X49895Y171274D01*
X49870Y171332D01*
X49849Y171391D01*
X49831Y171451D01*
X49818Y171513D01*
X49808Y171575D01*
X49802Y171637D01*
X49800Y171700D01*
D14*
X12700Y310700D02*
X-7300Y310700D01*
X-7300Y222700D01*
X12700Y222700D01*
D12*
X42048Y221412D02*
X42048Y212974D01*
X42050Y212861D01*
X42056Y212748D01*
X42066Y212635D01*
X42080Y212522D01*
X42097Y212410D01*
X42119Y212299D01*
X42144Y212189D01*
X42174Y212079D01*
X42207Y211971D01*
X42244Y211864D01*
X42284Y211758D01*
X42329Y211654D01*
X42377Y211551D01*
X42428Y211450D01*
X42483Y211351D01*
X42541Y211254D01*
X42603Y211159D01*
X42668Y211066D01*
X42736Y210976D01*
X42807Y210888D01*
X42882Y210802D01*
X42959Y210719D01*
X43039Y210639D01*
X43122Y210562D01*
X43208Y210487D01*
X43296Y210416D01*
X43386Y210348D01*
X43479Y210283D01*
X43574Y210221D01*
X43671Y210163D01*
X43770Y210108D01*
X43871Y210057D01*
X43974Y210009D01*
X44078Y209964D01*
X44184Y209924D01*
X44291Y209887D01*
X44399Y209854D01*
X44509Y209824D01*
X44619Y209799D01*
X44730Y209777D01*
X44842Y209760D01*
X44955Y209746D01*
X45068Y209736D01*
X45181Y209730D01*
X45294Y209728D01*
X45407Y209730D01*
X45520Y209736D01*
X45633Y209746D01*
X45746Y209760D01*
X45858Y209777D01*
X45969Y209799D01*
X46079Y209824D01*
X46189Y209854D01*
X46297Y209887D01*
X46404Y209924D01*
X46510Y209964D01*
X46614Y210009D01*
X46717Y210057D01*
X46818Y210108D01*
X46917Y210163D01*
X47014Y210221D01*
X47109Y210283D01*
X47202Y210348D01*
X47292Y210416D01*
X47380Y210487D01*
X47466Y210562D01*
X47549Y210639D01*
X47629Y210719D01*
X47706Y210802D01*
X47781Y210888D01*
X47852Y210976D01*
X47920Y211066D01*
X47985Y211159D01*
X48047Y211254D01*
X48105Y211351D01*
X48160Y211450D01*
X48211Y211551D01*
X48259Y211654D01*
X48304Y211758D01*
X48344Y211864D01*
X48381Y211971D01*
X48414Y212079D01*
X48444Y212189D01*
X48469Y212299D01*
X48491Y212410D01*
X48508Y212522D01*
X48522Y212635D01*
X48532Y212748D01*
X48538Y212861D01*
X48540Y212974D01*
X48539Y212974D02*
X48539Y221412D01*
X53859Y218816D02*
X57105Y221412D01*
X57105Y209728D01*
X60350Y209728D02*
X53859Y209728D01*
D10*
X223012Y87376D02*
X223012Y65024D01*
X310388Y65024D02*
X310388Y79248D01*
X310388Y87376D01*
D16*
X310388Y79248D02*
X310279Y79242D01*
X310171Y79232D01*
X310063Y79217D01*
X309955Y79199D01*
X309849Y79177D01*
X309743Y79152D01*
X309638Y79122D01*
X309534Y79089D01*
X309432Y79052D01*
X309331Y79012D01*
X309231Y78968D01*
X309133Y78920D01*
X309037Y78869D01*
X308943Y78815D01*
X308850Y78757D01*
X308760Y78696D01*
X308672Y78632D01*
X308587Y78564D01*
X308503Y78494D01*
X308423Y78421D01*
X308345Y78345D01*
X308270Y78266D01*
X308197Y78184D01*
X308128Y78100D01*
X308062Y78014D01*
X307999Y77925D01*
X307939Y77834D01*
X307882Y77741D01*
X307829Y77646D01*
X307779Y77549D01*
X307732Y77451D01*
X307689Y77351D01*
X307650Y77249D01*
X307614Y77146D01*
X307583Y77042D01*
X307554Y76937D01*
X307530Y76831D01*
X307509Y76724D01*
X307493Y76616D01*
X307480Y76508D01*
X307471Y76400D01*
X307465Y76291D01*
X307464Y76182D01*
X307467Y76073D01*
X307473Y75964D01*
X307483Y75856D01*
X307498Y75748D01*
X307516Y75640D01*
X307538Y75534D01*
X307563Y75428D01*
X307593Y75323D01*
X307626Y75219D01*
X307663Y75117D01*
X307703Y75016D01*
X307747Y74916D01*
X307795Y74818D01*
X307846Y74722D01*
X307900Y74628D01*
X307958Y74535D01*
X308019Y74445D01*
X308083Y74357D01*
X308151Y74272D01*
X308221Y74188D01*
X308294Y74108D01*
X308370Y74030D01*
X308449Y73955D01*
X308531Y73882D01*
X308615Y73813D01*
X308701Y73747D01*
X308790Y73684D01*
X308881Y73624D01*
X308974Y73567D01*
X309069Y73514D01*
X309166Y73464D01*
X309264Y73417D01*
X309364Y73374D01*
X309466Y73335D01*
X309569Y73299D01*
X309673Y73268D01*
X309778Y73239D01*
X309884Y73215D01*
X309991Y73194D01*
X310099Y73178D01*
X310207Y73165D01*
X310315Y73156D01*
X310424Y73150D01*
X310533Y73149D01*
X310642Y73152D01*
D10*
X316706Y71682D02*
X316706Y61776D01*
X316708Y61654D01*
X316714Y61532D01*
X316724Y61410D01*
X316737Y61289D01*
X316755Y61168D01*
X316776Y61048D01*
X316802Y60928D01*
X316831Y60810D01*
X316863Y60692D01*
X316900Y60575D01*
X316940Y60460D01*
X316984Y60346D01*
X317032Y60234D01*
X317083Y60123D01*
X317138Y60014D01*
X317196Y59906D01*
X317258Y59801D01*
X317323Y59698D01*
X317391Y59596D01*
X317463Y59497D01*
X317537Y59401D01*
X317615Y59306D01*
X317696Y59215D01*
X317779Y59125D01*
X317865Y59039D01*
X317955Y58956D01*
X318046Y58875D01*
X318141Y58797D01*
X318237Y58723D01*
X318336Y58651D01*
X318438Y58583D01*
X318541Y58518D01*
X318646Y58456D01*
X318754Y58398D01*
X318863Y58343D01*
X318974Y58292D01*
X319086Y58244D01*
X319200Y58200D01*
X319315Y58160D01*
X319432Y58123D01*
X319550Y58091D01*
X319668Y58062D01*
X319788Y58036D01*
X319908Y58015D01*
X320029Y57997D01*
X320150Y57984D01*
X320272Y57974D01*
X320394Y57968D01*
X320516Y57966D01*
X320638Y57968D01*
X320760Y57974D01*
X320882Y57984D01*
X321003Y57997D01*
X321124Y58015D01*
X321244Y58036D01*
X321364Y58062D01*
X321482Y58091D01*
X321600Y58123D01*
X321717Y58160D01*
X321832Y58200D01*
X321946Y58244D01*
X322058Y58292D01*
X322169Y58343D01*
X322278Y58398D01*
X322386Y58456D01*
X322491Y58518D01*
X322594Y58583D01*
X322696Y58651D01*
X322795Y58723D01*
X322891Y58797D01*
X322986Y58875D01*
X323077Y58956D01*
X323167Y59039D01*
X323253Y59125D01*
X323336Y59215D01*
X323417Y59306D01*
X323495Y59401D01*
X323569Y59497D01*
X323641Y59596D01*
X323709Y59698D01*
X323774Y59801D01*
X323836Y59906D01*
X323894Y60014D01*
X323949Y60123D01*
X324000Y60234D01*
X324048Y60346D01*
X324092Y60460D01*
X324132Y60575D01*
X324169Y60692D01*
X324201Y60810D01*
X324230Y60928D01*
X324256Y61048D01*
X324277Y61168D01*
X324295Y61289D01*
X324308Y61410D01*
X324318Y61532D01*
X324324Y61654D01*
X324326Y61776D01*
X324326Y71682D01*
X335041Y71682D02*
X335156Y71680D01*
X335270Y71674D01*
X335384Y71665D01*
X335498Y71651D01*
X335611Y71634D01*
X335724Y71613D01*
X335836Y71589D01*
X335947Y71560D01*
X336057Y71528D01*
X336166Y71492D01*
X336273Y71453D01*
X336380Y71410D01*
X336484Y71363D01*
X336588Y71313D01*
X336689Y71260D01*
X336788Y71203D01*
X336886Y71143D01*
X336982Y71080D01*
X337075Y71014D01*
X337166Y70944D01*
X337255Y70872D01*
X337341Y70796D01*
X337425Y70718D01*
X337506Y70637D01*
X337584Y70553D01*
X337660Y70467D01*
X337732Y70378D01*
X337802Y70287D01*
X337868Y70194D01*
X337931Y70098D01*
X337991Y70000D01*
X338048Y69901D01*
X338101Y69800D01*
X338151Y69696D01*
X338198Y69592D01*
X338241Y69485D01*
X338280Y69378D01*
X338316Y69269D01*
X338348Y69159D01*
X338377Y69048D01*
X338401Y68936D01*
X338422Y68823D01*
X338439Y68710D01*
X338453Y68596D01*
X338462Y68482D01*
X338468Y68368D01*
X338470Y68253D01*
X335041Y71682D02*
X334909Y71680D01*
X334777Y71674D01*
X334646Y71664D01*
X334515Y71650D01*
X334384Y71633D01*
X334254Y71611D01*
X334124Y71586D01*
X333996Y71556D01*
X333868Y71523D01*
X333742Y71486D01*
X333616Y71445D01*
X333492Y71401D01*
X333369Y71352D01*
X333248Y71301D01*
X333128Y71245D01*
X333010Y71186D01*
X332894Y71124D01*
X332780Y71058D01*
X332668Y70988D01*
X332558Y70915D01*
X332450Y70839D01*
X332345Y70760D01*
X332242Y70678D01*
X332141Y70593D01*
X332043Y70504D01*
X331948Y70413D01*
X331855Y70319D01*
X331766Y70222D01*
X331679Y70123D01*
X331595Y70021D01*
X331515Y69917D01*
X331437Y69810D01*
X331363Y69701D01*
X331292Y69590D01*
X331224Y69476D01*
X331160Y69361D01*
X331100Y69244D01*
X331042Y69125D01*
X330989Y69005D01*
X330939Y68883D01*
X330893Y68759D01*
X330850Y68634D01*
X337327Y65586D02*
X337412Y65670D01*
X337494Y65756D01*
X337574Y65845D01*
X337650Y65937D01*
X337724Y66030D01*
X337794Y66127D01*
X337862Y66225D01*
X337926Y66326D01*
X337986Y66429D01*
X338044Y66533D01*
X338098Y66639D01*
X338148Y66748D01*
X338195Y66857D01*
X338239Y66968D01*
X338278Y67081D01*
X338315Y67194D01*
X338347Y67309D01*
X338376Y67425D01*
X338401Y67542D01*
X338422Y67659D01*
X338439Y67777D01*
X338453Y67896D01*
X338462Y68015D01*
X338468Y68134D01*
X338470Y68253D01*
X337327Y65586D02*
X330850Y57966D01*
X338470Y57966D01*
D14*
X75500Y73900D02*
X75500Y103900D01*
X51500Y103900D02*
X51500Y73900D01*
D13*
X70500Y113900D02*
X70502Y113963D01*
X70508Y114025D01*
X70518Y114087D01*
X70531Y114149D01*
X70549Y114209D01*
X70570Y114268D01*
X70595Y114326D01*
X70624Y114382D01*
X70656Y114436D01*
X70691Y114488D01*
X70729Y114537D01*
X70771Y114585D01*
X70815Y114629D01*
X70863Y114671D01*
X70912Y114709D01*
X70964Y114744D01*
X71018Y114776D01*
X71074Y114805D01*
X71132Y114830D01*
X71191Y114851D01*
X71251Y114869D01*
X71313Y114882D01*
X71375Y114892D01*
X71437Y114898D01*
X71500Y114900D01*
X71563Y114898D01*
X71625Y114892D01*
X71687Y114882D01*
X71749Y114869D01*
X71809Y114851D01*
X71868Y114830D01*
X71926Y114805D01*
X71982Y114776D01*
X72036Y114744D01*
X72088Y114709D01*
X72137Y114671D01*
X72185Y114629D01*
X72229Y114585D01*
X72271Y114537D01*
X72309Y114488D01*
X72344Y114436D01*
X72376Y114382D01*
X72405Y114326D01*
X72430Y114268D01*
X72451Y114209D01*
X72469Y114149D01*
X72482Y114087D01*
X72492Y114025D01*
X72498Y113963D01*
X72500Y113900D01*
X72498Y113837D01*
X72492Y113775D01*
X72482Y113713D01*
X72469Y113651D01*
X72451Y113591D01*
X72430Y113532D01*
X72405Y113474D01*
X72376Y113418D01*
X72344Y113364D01*
X72309Y113312D01*
X72271Y113263D01*
X72229Y113215D01*
X72185Y113171D01*
X72137Y113129D01*
X72088Y113091D01*
X72036Y113056D01*
X71982Y113024D01*
X71926Y112995D01*
X71868Y112970D01*
X71809Y112949D01*
X71749Y112931D01*
X71687Y112918D01*
X71625Y112908D01*
X71563Y112902D01*
X71500Y112900D01*
X71437Y112902D01*
X71375Y112908D01*
X71313Y112918D01*
X71251Y112931D01*
X71191Y112949D01*
X71132Y112970D01*
X71074Y112995D01*
X71018Y113024D01*
X70964Y113056D01*
X70912Y113091D01*
X70863Y113129D01*
X70815Y113171D01*
X70771Y113215D01*
X70729Y113263D01*
X70691Y113312D01*
X70656Y113364D01*
X70624Y113418D01*
X70595Y113474D01*
X70570Y113532D01*
X70549Y113591D01*
X70531Y113651D01*
X70518Y113713D01*
X70508Y113775D01*
X70502Y113837D01*
X70500Y113900D01*
D12*
X80518Y92950D02*
X88956Y92950D01*
X88956Y92949D02*
X89069Y92951D01*
X89182Y92957D01*
X89295Y92967D01*
X89408Y92981D01*
X89520Y92998D01*
X89631Y93020D01*
X89741Y93045D01*
X89851Y93075D01*
X89959Y93108D01*
X90066Y93145D01*
X90172Y93185D01*
X90276Y93230D01*
X90379Y93278D01*
X90480Y93329D01*
X90579Y93384D01*
X90676Y93442D01*
X90771Y93504D01*
X90864Y93569D01*
X90954Y93637D01*
X91042Y93708D01*
X91128Y93783D01*
X91211Y93860D01*
X91291Y93940D01*
X91368Y94023D01*
X91443Y94109D01*
X91514Y94197D01*
X91582Y94287D01*
X91647Y94380D01*
X91709Y94475D01*
X91767Y94572D01*
X91822Y94671D01*
X91873Y94772D01*
X91921Y94875D01*
X91966Y94979D01*
X92006Y95085D01*
X92043Y95192D01*
X92076Y95300D01*
X92106Y95410D01*
X92131Y95520D01*
X92153Y95631D01*
X92170Y95743D01*
X92184Y95856D01*
X92194Y95969D01*
X92200Y96082D01*
X92202Y96195D01*
X92200Y96308D01*
X92194Y96421D01*
X92184Y96534D01*
X92170Y96647D01*
X92153Y96759D01*
X92131Y96870D01*
X92106Y96980D01*
X92076Y97090D01*
X92043Y97198D01*
X92006Y97305D01*
X91966Y97411D01*
X91921Y97515D01*
X91873Y97618D01*
X91822Y97719D01*
X91767Y97818D01*
X91709Y97915D01*
X91647Y98010D01*
X91582Y98103D01*
X91514Y98193D01*
X91443Y98281D01*
X91368Y98367D01*
X91291Y98450D01*
X91211Y98530D01*
X91128Y98607D01*
X91042Y98682D01*
X90954Y98753D01*
X90864Y98821D01*
X90771Y98886D01*
X90676Y98948D01*
X90579Y99006D01*
X90480Y99061D01*
X90379Y99112D01*
X90276Y99160D01*
X90172Y99205D01*
X90066Y99245D01*
X89959Y99282D01*
X89851Y99315D01*
X89741Y99345D01*
X89631Y99370D01*
X89520Y99392D01*
X89408Y99409D01*
X89295Y99423D01*
X89182Y99433D01*
X89069Y99439D01*
X88956Y99441D01*
X80518Y99441D01*
X92202Y104761D02*
X92202Y108006D01*
X92200Y108119D01*
X92194Y108232D01*
X92184Y108345D01*
X92170Y108458D01*
X92153Y108570D01*
X92131Y108681D01*
X92106Y108791D01*
X92076Y108901D01*
X92043Y109009D01*
X92006Y109116D01*
X91966Y109222D01*
X91921Y109326D01*
X91873Y109429D01*
X91822Y109530D01*
X91767Y109629D01*
X91709Y109726D01*
X91647Y109821D01*
X91582Y109914D01*
X91514Y110004D01*
X91443Y110092D01*
X91368Y110178D01*
X91291Y110261D01*
X91211Y110341D01*
X91128Y110418D01*
X91042Y110493D01*
X90954Y110564D01*
X90864Y110632D01*
X90771Y110697D01*
X90676Y110759D01*
X90579Y110817D01*
X90480Y110872D01*
X90379Y110923D01*
X90276Y110971D01*
X90172Y111016D01*
X90066Y111056D01*
X89959Y111093D01*
X89851Y111126D01*
X89741Y111156D01*
X89631Y111181D01*
X89520Y111203D01*
X89408Y111220D01*
X89295Y111234D01*
X89182Y111244D01*
X89069Y111250D01*
X88956Y111252D01*
X88843Y111250D01*
X88730Y111244D01*
X88617Y111234D01*
X88504Y111220D01*
X88392Y111203D01*
X88281Y111181D01*
X88171Y111156D01*
X88061Y111126D01*
X87953Y111093D01*
X87846Y111056D01*
X87740Y111016D01*
X87636Y110971D01*
X87533Y110923D01*
X87432Y110872D01*
X87333Y110817D01*
X87236Y110759D01*
X87141Y110697D01*
X87048Y110632D01*
X86958Y110564D01*
X86870Y110493D01*
X86784Y110418D01*
X86701Y110341D01*
X86621Y110261D01*
X86544Y110178D01*
X86469Y110092D01*
X86398Y110004D01*
X86330Y109914D01*
X86265Y109821D01*
X86203Y109726D01*
X86145Y109629D01*
X86090Y109530D01*
X86039Y109429D01*
X85991Y109326D01*
X85946Y109222D01*
X85906Y109116D01*
X85869Y109009D01*
X85836Y108901D01*
X85806Y108791D01*
X85781Y108681D01*
X85759Y108570D01*
X85742Y108458D01*
X85728Y108345D01*
X85718Y108232D01*
X85712Y108119D01*
X85710Y108006D01*
X80518Y108656D02*
X80518Y104761D01*
X80518Y108656D02*
X80520Y108757D01*
X80526Y108857D01*
X80536Y108957D01*
X80549Y109057D01*
X80567Y109156D01*
X80588Y109255D01*
X80613Y109352D01*
X80642Y109449D01*
X80675Y109544D01*
X80711Y109638D01*
X80751Y109730D01*
X80794Y109821D01*
X80841Y109910D01*
X80891Y109997D01*
X80945Y110083D01*
X81002Y110166D01*
X81062Y110246D01*
X81125Y110325D01*
X81192Y110401D01*
X81261Y110474D01*
X81333Y110544D01*
X81407Y110612D01*
X81484Y110677D01*
X81564Y110738D01*
X81646Y110797D01*
X81730Y110852D01*
X81816Y110904D01*
X81904Y110953D01*
X81994Y110998D01*
X82086Y111040D01*
X82179Y111078D01*
X82274Y111112D01*
X82369Y111143D01*
X82466Y111170D01*
X82564Y111193D01*
X82663Y111213D01*
X82763Y111228D01*
X82863Y111240D01*
X82963Y111248D01*
X83064Y111252D01*
X83164Y111252D01*
X83265Y111248D01*
X83365Y111240D01*
X83465Y111228D01*
X83565Y111213D01*
X83664Y111193D01*
X83762Y111170D01*
X83859Y111143D01*
X83954Y111112D01*
X84049Y111078D01*
X84142Y111040D01*
X84234Y110998D01*
X84324Y110953D01*
X84412Y110904D01*
X84498Y110852D01*
X84582Y110797D01*
X84664Y110738D01*
X84744Y110677D01*
X84821Y110612D01*
X84895Y110544D01*
X84967Y110474D01*
X85036Y110401D01*
X85103Y110325D01*
X85166Y110246D01*
X85226Y110166D01*
X85283Y110083D01*
X85337Y109997D01*
X85387Y109910D01*
X85434Y109821D01*
X85477Y109730D01*
X85517Y109638D01*
X85553Y109544D01*
X85586Y109449D01*
X85615Y109352D01*
X85640Y109255D01*
X85661Y109156D01*
X85679Y109057D01*
X85692Y108957D01*
X85702Y108857D01*
X85708Y108757D01*
X85710Y108656D01*
X85711Y108656D02*
X85711Y106059D01*
D14*
X208280Y45720D02*
X208280Y15240D01*
X208280Y45720D02*
X137160Y45720D01*
X137160Y15240D01*
X208280Y15240D01*
D12*
X197612Y7592D02*
X189823Y7592D01*
X193717Y11486D02*
X193717Y3697D01*
X154432Y10132D02*
X146643Y10132D01*
X215124Y16454D02*
X215124Y24892D01*
X215123Y16454D02*
X215125Y16341D01*
X215131Y16228D01*
X215141Y16115D01*
X215155Y16002D01*
X215172Y15890D01*
X215194Y15779D01*
X215219Y15669D01*
X215249Y15559D01*
X215282Y15451D01*
X215319Y15344D01*
X215359Y15238D01*
X215404Y15134D01*
X215452Y15031D01*
X215503Y14930D01*
X215558Y14831D01*
X215616Y14734D01*
X215678Y14639D01*
X215743Y14546D01*
X215811Y14456D01*
X215882Y14368D01*
X215957Y14282D01*
X216034Y14199D01*
X216114Y14119D01*
X216197Y14042D01*
X216283Y13967D01*
X216371Y13896D01*
X216461Y13828D01*
X216554Y13763D01*
X216649Y13701D01*
X216746Y13643D01*
X216845Y13588D01*
X216946Y13537D01*
X217049Y13489D01*
X217153Y13444D01*
X217259Y13404D01*
X217366Y13367D01*
X217474Y13334D01*
X217584Y13304D01*
X217694Y13279D01*
X217805Y13257D01*
X217917Y13240D01*
X218030Y13226D01*
X218143Y13216D01*
X218256Y13210D01*
X218369Y13208D01*
X218482Y13210D01*
X218595Y13216D01*
X218708Y13226D01*
X218821Y13240D01*
X218933Y13257D01*
X219044Y13279D01*
X219154Y13304D01*
X219264Y13334D01*
X219372Y13367D01*
X219479Y13404D01*
X219585Y13444D01*
X219689Y13489D01*
X219792Y13537D01*
X219893Y13588D01*
X219992Y13643D01*
X220089Y13701D01*
X220184Y13763D01*
X220277Y13828D01*
X220367Y13896D01*
X220455Y13967D01*
X220541Y14042D01*
X220624Y14119D01*
X220704Y14199D01*
X220781Y14282D01*
X220856Y14368D01*
X220927Y14456D01*
X220995Y14546D01*
X221060Y14639D01*
X221122Y14734D01*
X221180Y14831D01*
X221235Y14930D01*
X221286Y15031D01*
X221334Y15134D01*
X221379Y15238D01*
X221419Y15344D01*
X221456Y15451D01*
X221489Y15559D01*
X221519Y15669D01*
X221544Y15779D01*
X221566Y15890D01*
X221583Y16002D01*
X221597Y16115D01*
X221607Y16228D01*
X221613Y16341D01*
X221615Y16454D01*
X221615Y24892D01*
X229418Y24892D02*
X229418Y13208D01*
X229418Y19050D02*
X227796Y20024D01*
X227795Y20023D02*
X227722Y20070D01*
X227651Y20119D01*
X227581Y20172D01*
X227515Y20228D01*
X227451Y20287D01*
X227389Y20348D01*
X227331Y20412D01*
X227275Y20479D01*
X227223Y20548D01*
X227173Y20620D01*
X227127Y20694D01*
X227084Y20769D01*
X227045Y20847D01*
X227009Y20926D01*
X226977Y21007D01*
X226948Y21089D01*
X226923Y21172D01*
X226902Y21256D01*
X226885Y21341D01*
X226871Y21427D01*
X226862Y21513D01*
X226856Y21600D01*
X226854Y21687D01*
X226856Y21774D01*
X226862Y21861D01*
X226872Y21947D01*
X226885Y22033D01*
X226903Y22118D01*
X226924Y22202D01*
X226949Y22285D01*
X226978Y22368D01*
X227010Y22448D01*
X227046Y22527D01*
X227085Y22605D01*
X227128Y22680D01*
X227175Y22754D01*
X227224Y22825D01*
X227277Y22895D01*
X227332Y22961D01*
X227391Y23025D01*
X227452Y23087D01*
X227517Y23146D01*
X227583Y23201D01*
X227652Y23254D01*
X227724Y23304D01*
X227797Y23350D01*
X227873Y23393D01*
X227950Y23432D01*
X228029Y23468D01*
X228110Y23501D01*
X228192Y23529D01*
X228275Y23555D01*
X228359Y23576D01*
X228445Y23593D01*
X228445Y23594D02*
X228585Y23618D01*
X228727Y23638D01*
X228868Y23654D01*
X229010Y23665D01*
X229153Y23673D01*
X229295Y23677D01*
X229438Y23678D01*
X229581Y23674D01*
X229723Y23666D01*
X229865Y23654D01*
X230007Y23638D01*
X230148Y23619D01*
X230289Y23595D01*
X230429Y23568D01*
X230568Y23536D01*
X230706Y23501D01*
X230844Y23462D01*
X230980Y23419D01*
X231114Y23373D01*
X231248Y23322D01*
X231380Y23269D01*
X231510Y23211D01*
X231639Y23150D01*
X231766Y23085D01*
X231892Y23017D01*
X232015Y22945D01*
X229418Y19050D02*
X231041Y18076D01*
X231042Y18077D02*
X231115Y18030D01*
X231186Y17981D01*
X231256Y17928D01*
X231322Y17872D01*
X231386Y17813D01*
X231448Y17752D01*
X231506Y17688D01*
X231562Y17621D01*
X231614Y17552D01*
X231664Y17480D01*
X231710Y17406D01*
X231753Y17331D01*
X231792Y17253D01*
X231828Y17174D01*
X231860Y17093D01*
X231889Y17011D01*
X231914Y16928D01*
X231935Y16844D01*
X231952Y16759D01*
X231966Y16673D01*
X231975Y16587D01*
X231981Y16500D01*
X231983Y16413D01*
X231981Y16326D01*
X231975Y16239D01*
X231965Y16153D01*
X231952Y16067D01*
X231934Y15982D01*
X231913Y15898D01*
X231888Y15815D01*
X231859Y15732D01*
X231827Y15652D01*
X231791Y15573D01*
X231752Y15495D01*
X231709Y15420D01*
X231662Y15346D01*
X231613Y15275D01*
X231560Y15205D01*
X231505Y15139D01*
X231446Y15075D01*
X231385Y15013D01*
X231320Y14954D01*
X231254Y14899D01*
X231185Y14846D01*
X231113Y14796D01*
X231040Y14750D01*
X230964Y14707D01*
X230887Y14668D01*
X230808Y14632D01*
X230727Y14599D01*
X230645Y14571D01*
X230562Y14545D01*
X230478Y14524D01*
X230393Y14507D01*
X230392Y14506D02*
X230252Y14482D01*
X230110Y14462D01*
X229969Y14446D01*
X229827Y14435D01*
X229684Y14427D01*
X229542Y14423D01*
X229399Y14422D01*
X229256Y14426D01*
X229114Y14434D01*
X228972Y14446D01*
X228830Y14462D01*
X228689Y14481D01*
X228548Y14505D01*
X228408Y14532D01*
X228269Y14564D01*
X228131Y14599D01*
X227993Y14638D01*
X227857Y14681D01*
X227723Y14727D01*
X227589Y14778D01*
X227457Y14831D01*
X227327Y14889D01*
X227198Y14950D01*
X227071Y15015D01*
X226945Y15083D01*
X226822Y15155D01*
X240411Y24892D02*
X240518Y24890D01*
X240624Y24884D01*
X240730Y24874D01*
X240836Y24861D01*
X240942Y24843D01*
X241046Y24822D01*
X241150Y24797D01*
X241253Y24768D01*
X241354Y24736D01*
X241454Y24699D01*
X241553Y24659D01*
X241651Y24616D01*
X241747Y24569D01*
X241841Y24518D01*
X241933Y24464D01*
X242023Y24407D01*
X242111Y24347D01*
X242196Y24283D01*
X242279Y24216D01*
X242360Y24146D01*
X242438Y24074D01*
X242514Y23998D01*
X242586Y23920D01*
X242656Y23839D01*
X242723Y23756D01*
X242787Y23671D01*
X242847Y23583D01*
X242904Y23493D01*
X242958Y23401D01*
X243009Y23307D01*
X243056Y23211D01*
X243099Y23113D01*
X243139Y23014D01*
X243176Y22914D01*
X243208Y22813D01*
X243237Y22710D01*
X243262Y22606D01*
X243283Y22502D01*
X243301Y22396D01*
X243314Y22290D01*
X243324Y22184D01*
X243330Y22078D01*
X243332Y21971D01*
X240411Y24892D02*
X240290Y24890D01*
X240169Y24884D01*
X240049Y24874D01*
X239928Y24861D01*
X239809Y24843D01*
X239689Y24822D01*
X239571Y24797D01*
X239454Y24768D01*
X239337Y24735D01*
X239222Y24699D01*
X239108Y24658D01*
X238995Y24615D01*
X238883Y24567D01*
X238774Y24516D01*
X238666Y24461D01*
X238559Y24403D01*
X238455Y24342D01*
X238353Y24277D01*
X238253Y24209D01*
X238155Y24138D01*
X238059Y24064D01*
X237966Y23987D01*
X237876Y23906D01*
X237788Y23823D01*
X237703Y23737D01*
X237620Y23648D01*
X237541Y23557D01*
X237464Y23463D01*
X237391Y23367D01*
X237321Y23269D01*
X237254Y23168D01*
X237190Y23065D01*
X237130Y22960D01*
X237073Y22853D01*
X237019Y22745D01*
X236969Y22635D01*
X236923Y22523D01*
X236880Y22410D01*
X236841Y22295D01*
X242359Y19699D02*
X242438Y19776D01*
X242514Y19857D01*
X242587Y19940D01*
X242657Y20025D01*
X242724Y20113D01*
X242788Y20203D01*
X242848Y20295D01*
X242905Y20390D01*
X242959Y20486D01*
X243010Y20584D01*
X243057Y20684D01*
X243101Y20786D01*
X243141Y20889D01*
X243177Y20993D01*
X243209Y21099D01*
X243238Y21205D01*
X243263Y21313D01*
X243285Y21421D01*
X243302Y21531D01*
X243316Y21640D01*
X243325Y21750D01*
X243331Y21861D01*
X243333Y21971D01*
X242358Y19699D02*
X236841Y13208D01*
X243332Y13208D01*
M02*
