G04 EAGLE Gerber RS-274X export*
G75*
%MOMM*%
%FSLAX34Y34*%
%LPD*%
%INSolderpaste Top*%
%IPPOS*%
%AMOC8*
5,1,8,0,0,1.08239X$1,22.5*%
G01*
%ADD10R,1.800000X1.600000*%
%ADD11R,1.000000X1.100000*%
%ADD12R,1.100000X1.000000*%
%ADD13R,1.270000X0.558800*%
%ADD14R,0.558800X2.184400*%
%ADD15R,0.980000X0.590000*%
%ADD16C,0.135000*%


D10*
X127000Y90200D03*
X127000Y62200D03*
X104140Y90200D03*
X104140Y62200D03*
X317500Y160050D03*
X317500Y132050D03*
D11*
X199780Y152400D03*
X216780Y152400D03*
X254880Y152400D03*
X237880Y152400D03*
D12*
X292100Y160900D03*
X292100Y143900D03*
D13*
X178054Y79502D03*
X178054Y88900D03*
X178054Y98298D03*
X152146Y98298D03*
X152146Y88900D03*
X152146Y79502D03*
D14*
X304800Y99822D03*
X292100Y99822D03*
X279400Y99822D03*
X266700Y99822D03*
X254000Y99822D03*
X241300Y99822D03*
X228600Y99822D03*
X228600Y52578D03*
X241300Y52578D03*
X254000Y52578D03*
X266700Y52578D03*
X279400Y52578D03*
X292100Y52578D03*
X304800Y52578D03*
D15*
X63500Y92600D03*
X63500Y85200D03*
D16*
X70325Y99725D02*
X70325Y106775D01*
X71675Y106775D01*
X71675Y99725D01*
X70325Y99725D01*
X70325Y101007D02*
X71675Y101007D01*
X71675Y102289D02*
X70325Y102289D01*
X70325Y103571D02*
X71675Y103571D01*
X71675Y104853D02*
X70325Y104853D01*
X70325Y106135D02*
X71675Y106135D01*
X65325Y106775D02*
X65325Y99725D01*
X65325Y106775D02*
X66675Y106775D01*
X66675Y99725D01*
X65325Y99725D01*
X65325Y101007D02*
X66675Y101007D01*
X66675Y102289D02*
X65325Y102289D01*
X65325Y103571D02*
X66675Y103571D01*
X66675Y104853D02*
X65325Y104853D01*
X65325Y106135D02*
X66675Y106135D01*
X60325Y106775D02*
X60325Y99725D01*
X60325Y106775D02*
X61675Y106775D01*
X61675Y99725D01*
X60325Y99725D01*
X60325Y101007D02*
X61675Y101007D01*
X61675Y102289D02*
X60325Y102289D01*
X60325Y103571D02*
X61675Y103571D01*
X61675Y104853D02*
X60325Y104853D01*
X60325Y106135D02*
X61675Y106135D01*
X55325Y106775D02*
X55325Y99725D01*
X55325Y106775D02*
X56675Y106775D01*
X56675Y99725D01*
X55325Y99725D01*
X55325Y101007D02*
X56675Y101007D01*
X56675Y102289D02*
X55325Y102289D01*
X55325Y103571D02*
X56675Y103571D01*
X56675Y104853D02*
X55325Y104853D01*
X55325Y106135D02*
X56675Y106135D01*
X55325Y78075D02*
X55325Y71025D01*
X55325Y78075D02*
X56675Y78075D01*
X56675Y71025D01*
X55325Y71025D01*
X55325Y72307D02*
X56675Y72307D01*
X56675Y73589D02*
X55325Y73589D01*
X55325Y74871D02*
X56675Y74871D01*
X56675Y76153D02*
X55325Y76153D01*
X55325Y77435D02*
X56675Y77435D01*
X60325Y78075D02*
X60325Y71025D01*
X60325Y78075D02*
X61675Y78075D01*
X61675Y71025D01*
X60325Y71025D01*
X60325Y72307D02*
X61675Y72307D01*
X61675Y73589D02*
X60325Y73589D01*
X60325Y74871D02*
X61675Y74871D01*
X61675Y76153D02*
X60325Y76153D01*
X60325Y77435D02*
X61675Y77435D01*
X65325Y78075D02*
X65325Y71025D01*
X65325Y78075D02*
X66675Y78075D01*
X66675Y71025D01*
X65325Y71025D01*
X65325Y72307D02*
X66675Y72307D01*
X66675Y73589D02*
X65325Y73589D01*
X65325Y74871D02*
X66675Y74871D01*
X66675Y76153D02*
X65325Y76153D01*
X65325Y77435D02*
X66675Y77435D01*
X70325Y78075D02*
X70325Y71025D01*
X70325Y78075D02*
X71675Y78075D01*
X71675Y71025D01*
X70325Y71025D01*
X70325Y72307D02*
X71675Y72307D01*
X71675Y73589D02*
X70325Y73589D01*
X70325Y74871D02*
X71675Y74871D01*
X71675Y76153D02*
X70325Y76153D01*
X70325Y77435D02*
X71675Y77435D01*
M02*
