G04 EAGLE Gerber RS-274X export*
G75*
%MOMM*%
%FSLAX34Y34*%
%LPD*%
%INSoldermask Bottom*%
%IPPOS*%
%AMOC8*
5,1,8,0,0,1.08239X$1,22.5*%
G01*
%ADD10C,2.743200*%
%ADD11R,1.733200X1.733200*%
%ADD12C,1.733200*%
%ADD13C,1.853200*%
%ADD14C,1.303200*%
%ADD15C,1.879600*%
%ADD16R,1.727200X1.727200*%
%ADD17C,1.727200*%
%ADD18R,2.743200X2.743200*%
%ADD19C,0.959600*%


D10*
X22860Y20320D03*
X469900Y20320D03*
X469900Y373380D03*
X17780Y375920D03*
D11*
X25400Y53340D03*
D12*
X25400Y78740D03*
X25400Y104140D03*
X25400Y129540D03*
D13*
X381000Y50800D03*
X406000Y50800D03*
X431800Y50800D03*
D14*
X381000Y25400D03*
X406400Y25400D03*
X431800Y25400D03*
D15*
X406400Y114300D03*
X431800Y114300D03*
X381000Y114300D03*
D16*
X50800Y190500D03*
D17*
X76200Y190500D03*
X101600Y190500D03*
X127000Y190500D03*
X152400Y190500D03*
X177800Y190500D03*
X203200Y190500D03*
X228600Y190500D03*
X254000Y190500D03*
X279400Y190500D03*
X304800Y190500D03*
X330200Y190500D03*
X355600Y190500D03*
X381000Y190500D03*
X406400Y190500D03*
X406400Y342900D03*
X381000Y342900D03*
X355600Y342900D03*
X330200Y342900D03*
X304800Y342900D03*
X279400Y342900D03*
X254000Y342900D03*
X228600Y342900D03*
X203200Y342900D03*
X177800Y342900D03*
X152400Y342900D03*
X127000Y342900D03*
X101600Y342900D03*
X76200Y342900D03*
X50800Y342900D03*
D13*
X25400Y190500D03*
X25400Y342900D03*
X431800Y342900D03*
X431800Y190500D03*
D18*
X190500Y30480D03*
X152400Y30480D03*
D19*
X58420Y114300D03*
X190500Y55880D03*
X335280Y160020D03*
X218440Y53340D03*
X127000Y43180D03*
X104140Y43180D03*
X53340Y60960D03*
X190500Y68580D03*
X81280Y73660D03*
X88900Y81280D03*
X210820Y71120D03*
X220980Y71120D03*
M02*
