G04 EAGLE Gerber RS-274X export*
G75*
%MOMM*%
%FSLAX34Y34*%
%LPD*%
%INSoldermask Top*%
%IPPOS*%
%AMOC8*
5,1,8,0,0,1.08239X$1,22.5*%
G01*
%ADD10C,2.743200*%
%ADD11R,2.003200X1.803200*%
%ADD12R,1.733200X1.733200*%
%ADD13C,1.733200*%
%ADD14C,1.853200*%
%ADD15C,1.303200*%
%ADD16R,1.203200X1.303200*%
%ADD17R,1.303200X1.203200*%
%ADD18C,1.879600*%
%ADD19R,1.473200X0.762000*%
%ADD20R,1.727200X1.727200*%
%ADD21C,1.727200*%
%ADD22R,0.762000X2.387600*%
%ADD23C,0.335972*%
%ADD24R,1.628200X1.828200*%
%ADD25R,2.743200X2.743200*%
%ADD26C,0.959600*%


D10*
X22860Y20320D03*
X469900Y20320D03*
X469900Y373380D03*
X17780Y375920D03*
D11*
X127000Y90200D03*
X127000Y62200D03*
X104140Y90200D03*
X104140Y62200D03*
X317500Y160050D03*
X317500Y132050D03*
D12*
X25400Y53340D03*
D13*
X25400Y78740D03*
X25400Y104140D03*
X25400Y129540D03*
D14*
X381000Y50800D03*
X406000Y50800D03*
X431800Y50800D03*
D15*
X381000Y25400D03*
X406400Y25400D03*
X431800Y25400D03*
D16*
X199780Y152400D03*
X216780Y152400D03*
X254880Y152400D03*
X237880Y152400D03*
D17*
X292100Y160900D03*
X292100Y143900D03*
D18*
X406400Y114300D03*
X431800Y114300D03*
X381000Y114300D03*
D19*
X178054Y79502D03*
X178054Y88900D03*
X178054Y98298D03*
X152146Y98298D03*
X152146Y88900D03*
X152146Y79502D03*
D20*
X50800Y190500D03*
D21*
X76200Y190500D03*
X101600Y190500D03*
X127000Y190500D03*
X152400Y190500D03*
X177800Y190500D03*
X203200Y190500D03*
X228600Y190500D03*
X254000Y190500D03*
X279400Y190500D03*
X304800Y190500D03*
X330200Y190500D03*
X355600Y190500D03*
X381000Y190500D03*
X406400Y190500D03*
X406400Y342900D03*
X381000Y342900D03*
X355600Y342900D03*
X330200Y342900D03*
X304800Y342900D03*
X279400Y342900D03*
X254000Y342900D03*
X228600Y342900D03*
X203200Y342900D03*
X177800Y342900D03*
X152400Y342900D03*
X127000Y342900D03*
X101600Y342900D03*
X76200Y342900D03*
X50800Y342900D03*
D14*
X25400Y190500D03*
X25400Y342900D03*
X431800Y342900D03*
X431800Y190500D03*
D22*
X304800Y99822D03*
X292100Y99822D03*
X279400Y99822D03*
X266700Y99822D03*
X254000Y99822D03*
X241300Y99822D03*
X228600Y99822D03*
X228600Y52578D03*
X241300Y52578D03*
X254000Y52578D03*
X266700Y52578D03*
X279400Y52578D03*
X292100Y52578D03*
X304800Y52578D03*
D23*
X70314Y99714D02*
X70314Y106786D01*
X71686Y106786D01*
X71686Y99714D01*
X70314Y99714D01*
X70314Y102906D02*
X71686Y102906D01*
X71686Y106098D02*
X70314Y106098D01*
X65314Y106786D02*
X65314Y99714D01*
X65314Y106786D02*
X66686Y106786D01*
X66686Y99714D01*
X65314Y99714D01*
X65314Y102906D02*
X66686Y102906D01*
X66686Y106098D02*
X65314Y106098D01*
X60314Y106786D02*
X60314Y99714D01*
X60314Y106786D02*
X61686Y106786D01*
X61686Y99714D01*
X60314Y99714D01*
X60314Y102906D02*
X61686Y102906D01*
X61686Y106098D02*
X60314Y106098D01*
X55314Y106786D02*
X55314Y99714D01*
X55314Y106786D02*
X56686Y106786D01*
X56686Y99714D01*
X55314Y99714D01*
X55314Y102906D02*
X56686Y102906D01*
X56686Y106098D02*
X55314Y106098D01*
X55314Y78086D02*
X55314Y71014D01*
X55314Y78086D02*
X56686Y78086D01*
X56686Y71014D01*
X55314Y71014D01*
X55314Y74206D02*
X56686Y74206D01*
X56686Y77398D02*
X55314Y77398D01*
X60314Y78086D02*
X60314Y71014D01*
X60314Y78086D02*
X61686Y78086D01*
X61686Y71014D01*
X60314Y71014D01*
X60314Y74206D02*
X61686Y74206D01*
X61686Y77398D02*
X60314Y77398D01*
X65314Y78086D02*
X65314Y71014D01*
X65314Y78086D02*
X66686Y78086D01*
X66686Y71014D01*
X65314Y71014D01*
X65314Y74206D02*
X66686Y74206D01*
X66686Y77398D02*
X65314Y77398D01*
X70314Y78086D02*
X70314Y71014D01*
X70314Y78086D02*
X71686Y78086D01*
X71686Y71014D01*
X70314Y71014D01*
X70314Y74206D02*
X71686Y74206D01*
X71686Y77398D02*
X70314Y77398D01*
D24*
X63500Y88900D03*
D25*
X190500Y30480D03*
X152400Y30480D03*
D26*
X58420Y114300D03*
X190500Y55880D03*
X335280Y160020D03*
X218440Y53340D03*
X127000Y43180D03*
X104140Y43180D03*
X53340Y60960D03*
X190500Y68580D03*
X81280Y73660D03*
X88900Y81280D03*
X210820Y71120D03*
X220980Y71120D03*
M02*
