M48
;GenerationSoftware,Autodesk,EAGLE,9.6.2*%
;CreationDate,2023-02-10T01:15:51Z*%
FMAT,2
ICI,OFF
METRIC,TZ,000.000
T7C0.350
T6C0.900
T5C1.016
T4C1.020
T3C1.100
T2C1.650
T1C3.810
%
G90
M71
T1
X3302Y48514
X56896Y48260
X57912Y2286
X3683Y2413
T2
X1397Y6604
X1397Y21844
X42037Y21844
X42037Y6604
T3
X55499Y34036
X55499Y31456
X55499Y28956
X58039Y28956
X58039Y31496
X58039Y34036
T4
X55245Y7366
X55245Y9906
X55245Y12446
X55245Y14986
T5
X55753Y19812
X26797Y6604
X55753Y23622
X3937Y21844
X6477Y21844
X9017Y21844
X11557Y21844
X14097Y21844
X16637Y21844
X19177Y21844
X3937Y6604
X26797Y21844
X29337Y21844
X31877Y21844
X21717Y21844
X6477Y6604
X9017Y6604
X11557Y6604
X14097Y6604
X16637Y6604
X19177Y6604
X21717Y6604
X24257Y6604
X24257Y21844
X29337Y6604
X31877Y6604
X34417Y6604
X36957Y6604
X39497Y6604
X39497Y21844
X36957Y21844
X34417Y21844
T6
X55499Y41402
X50419Y41402
X52959Y41402
T7
X41275Y15621
X41275Y14224
X45847Y20066
X51943Y10922
X50927Y9144
X45085Y21844
X29972Y28575
X28321Y26670
X27051Y28448
X41275Y17145
X34671Y19050
M30