M48
;GenerationSoftware,Autodesk,EAGLE,9.5.1*%
;CreationDate,2023-01-22T23:56:41Z*%
FMAT,2
ICI,OFF
METRIC,TZ,000.000
T7C0.350
T6C0.900
T5C1.016
T4C1.020
T3C1.100
T2C1.650
T1C2.540
%
G90
M71
T1
X1778Y37592
X46990Y37338
X46990Y2032
X2286Y2032
T2
X43180Y19050
X2540Y19050
X2540Y34290
X43180Y34290
T3
X43180Y5080
X40600Y5080
X38100Y5080
X38100Y2540
X40640Y2540
X43180Y2540
T4
X2540Y10414
X2540Y12954
X2540Y7874
X2540Y5334
T5
X27940Y34290
X25400Y34290
X22860Y34290
X20320Y34290
X17780Y34290
X15240Y34290
X12700Y34290
X15240Y3048
X10160Y34290
X7620Y34290
X5080Y34290
X19050Y3048
X30480Y34290
X33020Y34290
X35560Y34290
X5080Y19050
X7620Y19050
X10160Y19050
X12700Y19050
X15240Y19050
X17780Y19050
X20320Y19050
X22860Y19050
X25400Y19050
X27940Y19050
X30480Y19050
X33020Y19050
X35560Y19050
X38100Y19050
X40640Y19050
X40640Y34290
X38100Y34290
T6
X38100Y11430
X43180Y11430
X40640Y11430
T7
X22098Y7112
X21082Y7112
X8890Y8128
X8128Y7366
X19050Y6858
X5334Y6096
X10414Y4318
X12700Y4318
X21844Y5334
X33528Y16002
X19050Y5588
X5842Y11430
M30